<?xml version="1.0" standalone="no"?>
<!DOCTYPE svg PUBLIC "-//W3C//DTD SVG 1.1//EN" "http://www.w3.org/Graphics/SVG/1.1/DTD/svg11.dtd" >
<svg>
<metadata>
Created by FontForge 20120731 at Thu Jul 25 10:12:44 2024
 By fw_worker
Copyright 2022 The Instrument Serif Project Authors (https://github.com/Instrument/instrument-serif)
</metadata>
<defs>
<font id="InstrumentSerif-Regular" horiz-adv-x="355" >
  <font-face 
    font-family="Instrument Serif"
    font-weight="400"
    font-stretch="normal"
    units-per-em="1000"
    panose-1="0 0 0 0 0 0 0 0 0 0"
    ascent="800"
    descent="-200"
    x-height="510"
    cap-height="720"
    bbox="-63 -305.25 790 986"
    underline-thickness="38"
    underline-position="-161"
    unicode-range="U+0020-2212"
  />
<missing-glyph horiz-adv-x="602" 
d="M118 -130q-8 0 -8 8v904q0 8 8 8h366q8 0 8 -8v-904q0 -8 -8 -8h-366zM142 -98h318v856h-318v-856z" />
    <glyph glyph-name="f_f_i" unicode="ffi" horiz-adv-x="727" 
d="M28 0q-15 0 -15 11t13 12l20 2q25 2 32 11.5t7 30.5v391q0 24 -24 24h-23q-12 0 -12 10t12 11q47 5 47 41v6q0 42 20 83t58.5 68t92.5 27q63 0 101 -48q8 -11 16 0q23 31 59.5 49.5t85.5 18.5q61 0 98 -24t37 -56q0 -19 -9.5 -30.5t-30.5 -11.5t-31 14t-18.5 32.5
t-22.5 32.5t-43 14q-25 0 -46.5 -11t-35 -39t-13.5 -79v-68q0 -12 12 -12h212q24 0 24 -24v-419q0 -21 6 -30t23 -11l25 -3q11 -2 11 -11q0 -12 -15 -12h-167q-15 0 -15 11q0 9 13 12l12 2q25 4 32 12.5t7 29.5v401q0 14 -14 14h-154q-12 0 -12 -12v-403q0 -21 6 -30t23 -11
l25 -3q11 -2 11 -11q0 -12 -15 -12h-175q-15 0 -15 11t13 12l20 2q25 2 32 11.5t7 30.5v403q0 12 -12 12h-158q-12 0 -12 -12v-403q0 -21 6 -30t23 -11l25 -3q11 -2 11 -11q0 -12 -15 -12h-175zM165 510h158q12 0 12 12v64q0 49 -19 83t-68 34q-37 0 -66 -25.5t-29 -87.5
v-68q0 -12 12 -12z" />
    <glyph glyph-name="f_f_l" unicode="ffl" horiz-adv-x="731" 
d="M28 0q-15 0 -15 11t13 12l20 2q25 2 32 11.5t7 30.5v391q0 24 -24 24h-23q-12 0 -12 10t12 11q47 5 47 41v6q0 42 20 83t58.5 68t92.5 27q64 0 102 -48q8 -11 16 0q22 31 55 49.5t77 18.5q56 0 93 -39q5 -5 10 -4.5t7 7.5q6 18 10.5 24.5t13.5 6.5q13 0 13 -19v-657
q0 -21 6.5 -29.5t27.5 -11.5l23 -3q11 -2 11 -12q0 -11 -12 -11h-178q-12 0 -12 11q0 10 11 12l14 2q21 3 31 12t10 30v539q0 49 -19 83t-68 34q-25 0 -46.5 -12t-35 -41t-13.5 -80v-68q0 -12 12 -12h86q15 0 15 -14t-15 -14h-86q-12 0 -12 -12v-403q0 -21 6 -30t23 -11
l25 -3q11 -2 11 -11q0 -12 -15 -12h-175q-15 0 -15 11t13 12l20 2q25 2 32 11.5t7 30.5v403q0 12 -12 12h-158q-12 0 -12 -12v-403q0 -21 6 -30t23 -11l25 -3q11 -2 11 -11q0 -12 -15 -12h-175zM165 510h158q12 0 12 12v64q0 49 -19 83t-68 34q-37 0 -66 -25.5t-29 -87.5
v-68q0 -12 12 -12z" />
    <glyph glyph-name="f_i" unicode="fi" horiz-adv-x="477" 
d="M28 0q-15 0 -15 11t13 12l20 2q25 2 32 11.5t7 30.5v391q0 24 -24 24h-23q-12 0 -12 10t12 11q47 5 47 41v6q0 52 20.5 97t61.5 73t101 28q61 0 98 -24t37 -56q0 -19 -9.5 -30.5t-30.5 -11.5t-31 14t-18.5 32.5t-22.5 32.5t-43 14q-25 0 -46.5 -11t-35 -39t-13.5 -79v-68
q0 -12 12 -12h212q24 0 24 -24v-419q0 -21 6 -30t23 -11l25 -3q11 -2 11 -11q0 -12 -15 -12h-167q-15 0 -15 11q0 9 13 12l12 2q25 4 32 12.5t7 29.5v401q0 14 -14 14h-154q-12 0 -12 -12v-403q0 -21 6 -30t23 -11l25 -3q11 -2 11 -11q0 -12 -15 -12h-175z" />
    <glyph glyph-name="f_l" unicode="fl" horiz-adv-x="481" 
d="M28 0q-15 0 -15 11t13 12l20 2q25 2 32 11.5t7 30.5v391q0 24 -24 24h-23q-12 0 -12 10t12 11q47 5 47 41v6q0 52 20 97t58.5 73t92.5 28q56 0 93 -39q5 -5 10 -4.5t7 7.5q6 18 10.5 24.5t13.5 6.5q13 0 13 -19v-657q0 -21 6.5 -29.5t27.5 -11.5l23 -3q11 -2 11 -12
q0 -11 -12 -11h-178q-12 0 -12 11q0 10 11 12l14 2q21 3 31 12t10 30v539q0 49 -19 83t-68 34q-25 0 -46.5 -12t-35 -41t-13.5 -80v-68q0 -12 12 -12h86q15 0 15 -14t-15 -14h-86q-12 0 -12 -12v-403q0 -21 6 -30t23 -11l25 -3q11 -2 11 -11q0 -12 -15 -12h-175z" />
    <glyph glyph-name=".notdef" horiz-adv-x="602" 
d="M118 -130q-8 0 -8 8v904q0 8 8 8h366q8 0 8 -8v-904q0 -8 -8 -8h-366zM142 -98h318v856h-318v-856z" />
    <glyph glyph-name="A" unicode="A" horiz-adv-x="457" 
d="M-3 0q-15 0 -15 10t14 13l15 3q20 4 30 19.5t17 43.5l155 625q2 10 6.5 13t8.5 3q5 0 9.5 -3t6.5 -13l158 -634q7 -28 16 -39t28 -15l15 -3q14 -3 14 -13t-15 -10h-171q-14 0 -14 11t17 12l19 2q17 2 21.5 11t-0.5 31l-38 155q-6 26 -33 26h-105q-26 0 -33 -26l-34 -134
q-15 -57 30 -63l15 -2q17 -3 17 -12q0 -11 -14 -11h-140zM153 278h110q16 0 13 17l-64 268h-5l-67 -268q-3 -17 13 -17z" />
    <glyph glyph-name="Aacute" unicode="&#xc1;" horiz-adv-x="457" 
d="M-3 0q-15 0 -15 10t14 13l15 3q20 4 30 19.5t17 43.5l155 625q2 10 6.5 13t8.5 3q5 0 9.5 -3t6.5 -13l158 -634q7 -28 16 -39t28 -15l15 -3q14 -3 14 -13t-15 -10h-171q-14 0 -14 11t17 12l19 2q17 2 21.5 11t-0.5 31l-38 155q-6 26 -33 26h-105q-26 0 -33 -26l-34 -134
q-15 -57 30 -63l15 -2q17 -3 17 -12q0 -11 -14 -11h-140zM153 278h110q16 0 13 17l-64 268h-5l-67 -268q-3 -17 13 -17zM137 796q-17 -7 -23 4q-7 11 9 22l144 112q10 8 19 12t22 4q18 0 28 -10.5t10 -22.5q0 -13 -6.5 -22.5t-24.5 -17.5z" />
    <glyph glyph-name="Abreve" unicode="&#x102;" horiz-adv-x="457" 
d="M-3 0q-15 0 -15 10t14 13l15 3q20 4 30 19.5t17 43.5l155 625q2 10 6.5 13t8.5 3q5 0 9.5 -3t6.5 -13l158 -634q7 -28 16 -39t28 -15l15 -3q14 -3 14 -13t-15 -10h-171q-14 0 -14 11t17 12l19 2q17 2 21.5 11t-0.5 31l-38 155q-6 26 -33 26h-105q-26 0 -33 -26l-34 -134
q-15 -57 30 -63l15 -2q17 -3 17 -12q0 -11 -14 -11h-140zM153 278h110q16 0 13 17l-64 268h-5l-67 -268q-3 -17 13 -17zM229 789q-53 0 -92.5 35.5t-50.5 97.5q-3 18 10 18q11 0 14 -12q11 -43 43 -62.5t76 -19.5t76 19.5t43 62.5q3 12 14 12q13 0 10 -18
q-11 -62 -50.5 -97.5t-92.5 -35.5z" />
    <glyph glyph-name="uni01CD" unicode="&#x1cd;" horiz-adv-x="457" 
d="M-3 0q-15 0 -15 10t14 13l15 3q20 4 30 19.5t17 43.5l155 625q2 10 6.5 13t8.5 3q5 0 9.5 -3t6.5 -13l158 -634q7 -28 16 -39t28 -15l15 -3q14 -3 14 -13t-15 -10h-171q-14 0 -14 11t17 12l19 2q17 2 21.5 11t-0.5 31l-38 155q-6 26 -33 26h-105q-26 0 -33 -26l-34 -134
q-15 -57 30 -63l15 -2q17 -3 17 -12q0 -11 -14 -11h-140zM153 278h110q16 0 13 17l-64 268h-5l-67 -268q-3 -17 13 -17zM219 793q-14 0 -25 11l-116 122q-10 11 -3 19q8 10 20 2l133 -91l134 90q14 9 20 -1q7 -8 -3 -19l-116 -122q-11 -11 -25 -11h-19z" />
    <glyph glyph-name="Acircumflex" unicode="&#xc2;" horiz-adv-x="457" 
d="M-3 0q-15 0 -15 10t14 13l15 3q20 4 30 19.5t17 43.5l155 625q2 10 6.5 13t8.5 3q5 0 9.5 -3t6.5 -13l158 -634q7 -28 16 -39t28 -15l15 -3q14 -3 14 -13t-15 -10h-171q-14 0 -14 11t17 12l19 2q17 2 21.5 11t-0.5 31l-38 155q-6 26 -33 26h-105q-26 0 -33 -26l-34 -134
q-15 -57 30 -63l15 -2q17 -3 17 -12q0 -11 -14 -11h-140zM153 278h110q16 0 13 17l-64 268h-5l-67 -268q-3 -17 13 -17zM95 796q-12 -8 -20 2q-7 8 3 19l116 122q11 11 25 11h19q14 0 25 -11l116 -122q10 -11 3 -19q-6 -10 -20 -1l-134 90z" />
    <glyph glyph-name="Adieresis" unicode="&#xc4;" horiz-adv-x="457" 
d="M-3 0q-15 0 -15 10t14 13l15 3q20 4 30 19.5t17 43.5l155 625q2 10 6.5 13t8.5 3q5 0 9.5 -3t6.5 -13l158 -634q7 -28 16 -39t28 -15l15 -3q14 -3 14 -13t-15 -10h-171q-14 0 -14 11t17 12l19 2q17 2 21.5 11t-0.5 31l-38 155q-6 26 -33 26h-105q-26 0 -33 -26l-34 -134
q-15 -57 30 -63l15 -2q17 -3 17 -12q0 -11 -14 -11h-140zM153 278h110q16 0 13 17l-64 268h-5l-67 -268q-3 -17 13 -17zM134 815q-21 0 -35.5 14.5t-14.5 36.5t14.5 36t35.5 14t35 -14t14 -36t-14 -36.5t-35 -14.5zM324 815q-21 0 -35.5 14.5t-14.5 36.5t14.5 36t35.5 14
t35 -14t14 -36t-14 -36.5t-35 -14.5z" />
    <glyph glyph-name="Agrave" unicode="&#xc0;" horiz-adv-x="457" 
d="M-3 0q-15 0 -15 10t14 13l15 3q20 4 30 19.5t17 43.5l155 625q2 10 6.5 13t8.5 3q5 0 9.5 -3t6.5 -13l158 -634q7 -28 16 -39t28 -15l15 -3q14 -3 14 -13t-15 -10h-171q-14 0 -14 11t17 12l19 2q17 2 21.5 11t-0.5 31l-38 155q-6 26 -33 26h-105q-26 0 -33 -26l-34 -134
q-15 -57 30 -63l15 -2q17 -3 17 -12q0 -11 -14 -11h-140zM153 278h110q16 0 13 17l-64 268h-5l-67 -268q-3 -17 13 -17zM320 796l-178 81q-18 8 -24.5 17.5t-6.5 22.5q0 12 10 22.5t28 10.5q13 0 22 -4t19 -12l144 -112q16 -11 9 -22q-6 -11 -23 -4z" />
    <glyph glyph-name="Amacron" unicode="&#x100;" horiz-adv-x="457" 
d="M-3 0q-15 0 -15 10t14 13l15 3q20 4 30 19.5t17 43.5l155 625q2 10 6.5 13t8.5 3q5 0 9.5 -3t6.5 -13l158 -634q7 -28 16 -39t28 -15l15 -3q14 -3 14 -13t-15 -10h-171q-14 0 -14 11t17 12l19 2q17 2 21.5 11t-0.5 31l-38 155q-6 26 -33 26h-105q-26 0 -33 -26l-34 -134
q-15 -57 30 -63l15 -2q17 -3 17 -12q0 -11 -14 -11h-140zM153 278h110q16 0 13 17l-64 268h-5l-67 -268q-3 -17 13 -17zM95 846q-12 0 -12 12v15q0 12 12 12h267q12 0 12 -12v-15q0 -12 -12 -12h-267z" />
    <glyph glyph-name="Aogonek" unicode="&#x104;" horiz-adv-x="457" 
d="M-3 0q-15 0 -15 10t14 13l15 3q20 4 30 19.5t17 43.5l155 625q2 10 6.5 13t8.5 3q5 0 9.5 -3t6.5 -13l158 -634q7 -28 16 -39t28 -15l15 -3q14 -3 14 -13t-15 -10h-171q-14 0 -14 11t17 12l19 2q17 2 21.5 11t-0.5 31l-38 155q-6 26 -33 26h-105q-26 0 -33 -26l-34 -134
q-15 -57 30 -63l15 -2q17 -3 17 -12q0 -11 -14 -11h-140zM153 278h110q16 0 13 17l-64 268h-5l-67 -268q-3 -17 13 -17zM361 -216q-28 0 -51 18t-23 55q0 28 16.5 58t44.5 55.5t63 39.5l10 -10q-44 -25 -66 -60t-22 -73q0 -29 11 -41t28 -12q24 0 42 21q11 14 20 3
q6 -9 -5 -21q-14 -16 -30 -24.5t-38 -8.5z" />
    <glyph glyph-name="Aring" unicode="&#xc5;" horiz-adv-x="457" 
d="M-3 0q-15 0 -15 10t14 13l15 3q20 4 30 19.5t17 43.5l155 625q2 10 6.5 13t8.5 3q5 0 9.5 -3t6.5 -13l158 -634q7 -28 16 -39t28 -15l15 -3q14 -3 14 -13t-15 -10h-171q-14 0 -14 11t17 12l19 2q17 2 21.5 11t-0.5 31l-38 155q-6 26 -33 26h-105q-26 0 -33 -26l-34 -134
q-15 -57 30 -63l15 -2q17 -3 17 -12q0 -11 -14 -11h-140zM153 278h110q16 0 13 17l-64 268h-5l-67 -268q-3 -17 13 -17zM229 771q-46 0 -77 31.5t-31 76.5q0 44 31 75.5t77 31.5t76.5 -31.5t30.5 -75.5q0 -45 -30.5 -76.5t-76.5 -31.5zM229 798q34 0 55.5 23.5t21.5 57.5
q0 33 -21.5 56.5t-55.5 23.5t-56 -23.5t-22 -56.5q0 -34 22 -57.5t56 -23.5z" />
    <glyph glyph-name="Atilde" unicode="&#xc3;" horiz-adv-x="457" 
d="M-3 0q-15 0 -15 10t14 13l15 3q20 4 30 19.5t17 43.5l155 625q2 10 6.5 13t8.5 3q5 0 9.5 -3t6.5 -13l158 -634q7 -28 16 -39t28 -15l15 -3q14 -3 14 -13t-15 -10h-171q-14 0 -14 11t17 12l19 2q17 2 21.5 11t-0.5 31l-38 155q-6 26 -33 26h-105q-26 0 -33 -26l-34 -134
q-15 -57 30 -63l15 -2q17 -3 17 -12q0 -11 -14 -11h-140zM153 278h110q16 0 13 17l-64 268h-5l-67 -268q-3 -17 13 -17zM292 807q-26 0 -43.5 10t-31.5 22.5t-29 22.5t-36 10q-25 0 -39 -12.5t-23 -38.5q-4 -12 -14 -12q-13 0 -10 15q10 51 36.5 77.5t63.5 26.5
q25 0 42.5 -10t32.5 -22.5t30.5 -22.5t34.5 -10q25 0 39 12.5t23 38.5q5 12 14 12q13 0 10 -15q-10 -51 -36 -77.5t-64 -26.5z" />
    <glyph glyph-name="AE" unicode="&#xc6;" horiz-adv-x="778" 
d="M-3 0q-15 0 -15 11q0 9 14 12l15 3q40 8 67 63l282 565q11 21 4 27.5t-28 10.5l-23 5q-13 3 -13 12q0 11 15 11h380q23 0 25 -23l8 -166q2 -17 -13 -17q-12 0 -14 13l-6 37q-11 68 -45 99.5t-94 31.5q-40 0 -55.5 -11.5t-15.5 -40.5v-241q0 -14 14 -14h50q44 0 54 47
l10 50q4 15 17 13q11 -2 11 -17v-225q0 -15 -11 -17q-13 -2 -17 13l-10 49q-7 35 -19.5 46t-35.5 11h-49q-14 0 -14 -14v-251q0 -36 18.5 -52t67.5 -16q50 0 85.5 25.5t49.5 95.5l12 59q3 13 15 13q14 0 12 -17l-10 -178q-2 -23 -25 -23h-351q-15 0 -15 11q0 9 13 12l23 4
q21 4 27.5 11t6.5 28v278q0 14 -14 14h-143q-12 0 -16 -10l-130 -260q-13 -26 -8.5 -43t27.5 -20l16 -2q17 -3 17 -12q0 -11 -16 -11h-150zM269 405q-3 -7 0 -12t10 -5h121q14 0 14 14v262q0 9 -5 10t-9 -7z" />
    <glyph glyph-name="B" unicode="B" horiz-adv-x="478" 
d="M34 0q-15 0 -15 11q0 9 13 12l23 4q21 4 27.5 11t6.5 28v588q0 21 -6.5 28t-27.5 11l-23 4q-13 3 -13 12q0 11 15 11h203q50 0 89 -21t61.5 -57t22.5 -82q0 -45 -26.5 -83.5t-76.5 -64.5q-6 -3 -6 -8t7 -7q68 -23 105 -73.5t37 -119.5q0 -59 -27 -105.5t-74.5 -72.5
t-107.5 -26h-207zM213 411q53 0 88.5 41.5t35.5 103.5t-34 100.5t-90 38.5q-53 0 -53 -40v-189q0 -29 12.5 -42t40.5 -13zM228 25q65 0 106 49.5t41 132.5t-41.5 131t-111.5 48q-62 0 -62 -49v-243q0 -69 68 -69z" />
    <glyph glyph-name="C" unicode="C" horiz-adv-x="480" 
d="M286 -9q-74 0 -129.5 46t-86 129.5t-30.5 197.5q0 110 33.5 192.5t90 128t125.5 45.5q41 0 72 -7.5t55 -19.5q12 -7 12 -21l3 -152q0 -17 -12 -17q-11 0 -14 13l-10 37q-21 78 -48.5 108t-65.5 30q-70 0 -116.5 -86.5t-46.5 -250.5q0 -112 23.5 -189t61 -116t79.5 -39
q45 0 72.5 28t46.5 108l12 49q3 15 16 13q11 -2 11 -17l-4 -162q0 -14 -13 -21q-24 -12 -56.5 -19.5t-80.5 -7.5z" />
    <glyph glyph-name="Cacute" unicode="&#x106;" horiz-adv-x="480" 
d="M286 -9q-74 0 -129.5 46t-86 129.5t-30.5 197.5q0 110 33.5 192.5t90 128t125.5 45.5q41 0 72 -7.5t55 -19.5q12 -7 12 -21l3 -152q0 -17 -12 -17q-11 0 -14 13l-10 37q-21 78 -48.5 108t-65.5 30q-70 0 -116.5 -86.5t-46.5 -250.5q0 -112 23.5 -189t61 -116t79.5 -39
q45 0 72.5 28t46.5 108l12 49q3 15 16 13q11 -2 11 -17l-4 -162q0 -14 -13 -21q-24 -12 -56.5 -19.5t-80.5 -7.5zM188 796q-17 -7 -23 4q-7 11 9 22l144 112q10 8 19 12t22 4q18 0 28 -10.5t10 -22.5q0 -13 -6.5 -22.5t-24.5 -17.5z" />
    <glyph glyph-name="Ccaron" unicode="&#x10c;" horiz-adv-x="480" 
d="M286 -9q-74 0 -129.5 46t-86 129.5t-30.5 197.5q0 110 33.5 192.5t90 128t125.5 45.5q41 0 72 -7.5t55 -19.5q12 -7 12 -21l3 -152q0 -17 -12 -17q-11 0 -14 13l-10 37q-21 78 -48.5 108t-65.5 30q-70 0 -116.5 -86.5t-46.5 -250.5q0 -112 23.5 -189t61 -116t79.5 -39
q45 0 72.5 28t46.5 108l12 49q3 15 16 13q11 -2 11 -17l-4 -162q0 -14 -13 -21q-24 -12 -56.5 -19.5t-80.5 -7.5zM270 793q-14 0 -25 11l-116 122q-10 11 -3 19q8 10 20 2l133 -91l134 90q14 9 20 -1q7 -8 -3 -19l-116 -122q-11 -11 -25 -11h-19z" />
    <glyph glyph-name="Ccedilla" unicode="&#xc7;" horiz-adv-x="480" 
d="M286 -9q-74 0 -129.5 46t-86 129.5t-30.5 197.5q0 110 33.5 192.5t90 128t125.5 45.5q41 0 72 -7.5t55 -19.5q12 -7 12 -21l3 -152q0 -17 -12 -17q-11 0 -14 13l-10 37q-21 78 -48.5 108t-65.5 30q-70 0 -116.5 -86.5t-46.5 -250.5q0 -112 23.5 -189t61 -116t79.5 -39
q45 0 72.5 28t46.5 108l12 49q3 15 16 13q11 -2 11 -17l-4 -162q0 -14 -13 -21q-24 -12 -56.5 -19.5t-80.5 -7.5zM292 12l-10 -55q-1 -6 4 -6q40 -7 58.5 -31t18.5 -53q0 -39 -28 -60.5t-66 -21.5q-39 0 -63 18t-24 41q0 11 6 18t17 7q15 0 20 -9.5t8.5 -22.5t11 -22.5
t26.5 -9.5q24 0 35 16.5t11 40.5q0 22 -14 36.5t-41 17.5q-9 2 -8 13l15 83h23z" />
    <glyph glyph-name="Cdotaccent" unicode="&#x10a;" horiz-adv-x="480" 
d="M286 -9q-74 0 -129.5 46t-86 129.5t-30.5 197.5q0 110 33.5 192.5t90 128t125.5 45.5q41 0 72 -7.5t55 -19.5q12 -7 12 -21l3 -152q0 -17 -12 -17q-11 0 -14 13l-10 37q-21 78 -48.5 108t-65.5 30q-70 0 -116.5 -86.5t-46.5 -250.5q0 -112 23.5 -189t61 -116t79.5 -39
q45 0 72.5 28t46.5 108l12 49q3 15 16 13q11 -2 11 -17l-4 -162q0 -14 -13 -21q-24 -12 -56.5 -19.5t-80.5 -7.5zM280 815q-21 0 -35.5 15t-14.5 38t14.5 37.5t35.5 14.5t35 -14.5t14 -37.5t-14 -38t-35 -15z" />
    <glyph glyph-name="D" unicode="D" horiz-adv-x="530" 
d="M34 0q-15 0 -15 11q0 9 13 12l23 4q34 6 34 39v588q0 21 -6.5 28t-27.5 11l-23 4q-13 3 -13 12q0 11 15 11h202q78 0 135 -45.5t88 -127.5t31 -190q0 -109 -32.5 -189t-91.5 -124t-140 -44h-192zM230 26q89 0 135.5 85t46.5 246q0 160 -44.5 248.5t-131.5 88.5
q-76 0 -76 -73v-522q0 -40 16.5 -56.5t53.5 -16.5z" />
    <glyph glyph-name="Eth" unicode="&#xd0;" horiz-adv-x="530" 
d="M34 0q-15 0 -15 11q0 9 13 12l23 4q34 6 34 39v292h-60q-10 0 -10 10v8q0 10 10 10h60v268q0 21 -6.5 28t-27.5 11l-23 4q-13 3 -13 12q0 11 15 11h202q78 0 135 -45.5t88 -127.5t31 -190q0 -109 -32.5 -189t-91.5 -124t-140 -44h-192zM230 26q89 0 135.5 85t46.5 246
q0 160 -44.5 248.5t-131.5 88.5q-76 0 -76 -73v-235h124q10 0 10 -10v-8q0 -10 -10 -10h-124v-259q0 -40 16.5 -56.5t53.5 -16.5z" />
    <glyph glyph-name="Dcaron" unicode="&#x10e;" horiz-adv-x="530" 
d="M34 0q-15 0 -15 11q0 9 13 12l23 4q34 6 34 39v588q0 21 -6.5 28t-27.5 11l-23 4q-13 3 -13 12q0 11 15 11h202q78 0 135 -45.5t88 -127.5t31 -190q0 -109 -32.5 -189t-91.5 -124t-140 -44h-192zM230 26q89 0 135.5 85t46.5 246q0 160 -44.5 248.5t-131.5 88.5
q-76 0 -76 -73v-522q0 -40 16.5 -56.5t53.5 -16.5zM245 793q-14 0 -25 11l-116 122q-10 11 -3 19q8 10 20 2l133 -91l134 90q14 9 20 -1q7 -8 -3 -19l-116 -122q-11 -11 -25 -11h-19z" />
    <glyph glyph-name="Dcroat" unicode="&#x110;" horiz-adv-x="530" 
d="M34 0q-15 0 -15 11q0 9 13 12l23 4q34 6 34 39v292h-60q-10 0 -10 10v8q0 10 10 10h60v268q0 21 -6.5 28t-27.5 11l-23 4q-13 3 -13 12q0 11 15 11h202q78 0 135 -45.5t88 -127.5t31 -190q0 -109 -32.5 -189t-91.5 -124t-140 -44h-192zM230 26q89 0 135.5 85t46.5 246
q0 160 -44.5 248.5t-131.5 88.5q-76 0 -76 -73v-235h124q10 0 10 -10v-8q0 -10 -10 -10h-124v-259q0 -40 16.5 -56.5t53.5 -16.5z" />
    <glyph glyph-name="E" unicode="E" horiz-adv-x="453" 
d="M34 0q-15 0 -15 11q0 9 13 12l23 4q21 4 27.5 11t6.5 28v588q0 21 -6.5 28t-27.5 11l-23 4q-13 3 -13 12q0 11 15 11h336q23 0 25 -23l8 -166q2 -17 -13 -17q-12 0 -14 13l-6 37q-11 68 -45 99.5t-94 31.5q-40 0 -55.5 -11.5t-15.5 -40.5v-241q0 -14 14 -14h50
q44 0 54 47l10 50q4 15 17 13q11 -2 11 -17v-225q0 -15 -11 -17q-13 -2 -17 13l-10 49q-7 35 -19.5 46t-35.5 11h-49q-14 0 -14 -14v-251q0 -36 18.5 -52t67.5 -16q50 0 85.5 25.5t49.5 95.5l12 59q3 13 15 13q14 0 12 -17l-10 -178q-2 -23 -25 -23h-351z" />
    <glyph glyph-name="Eacute" unicode="&#xc9;" horiz-adv-x="453" 
d="M34 0q-15 0 -15 11q0 9 13 12l23 4q21 4 27.5 11t6.5 28v588q0 21 -6.5 28t-27.5 11l-23 4q-13 3 -13 12q0 11 15 11h336q23 0 25 -23l8 -166q2 -17 -13 -17q-12 0 -14 13l-6 37q-11 68 -45 99.5t-94 31.5q-40 0 -55.5 -11.5t-15.5 -40.5v-241q0 -14 14 -14h50
q44 0 54 47l10 50q4 15 17 13q11 -2 11 -17v-225q0 -15 -11 -17q-13 -2 -17 13l-10 49q-7 35 -19.5 46t-35.5 11h-49q-14 0 -14 -14v-251q0 -36 18.5 -52t67.5 -16q50 0 85.5 25.5t49.5 95.5l12 59q3 13 15 13q14 0 12 -17l-10 -178q-2 -23 -25 -23h-351zM135 796
q-17 -7 -23 4q-7 11 9 22l144 112q10 8 19 12t22 4q18 0 28 -10.5t10 -22.5q0 -13 -6.5 -22.5t-24.5 -17.5z" />
    <glyph glyph-name="Ecaron" unicode="&#x11a;" horiz-adv-x="453" 
d="M34 0q-15 0 -15 11q0 9 13 12l23 4q21 4 27.5 11t6.5 28v588q0 21 -6.5 28t-27.5 11l-23 4q-13 3 -13 12q0 11 15 11h336q23 0 25 -23l8 -166q2 -17 -13 -17q-12 0 -14 13l-6 37q-11 68 -45 99.5t-94 31.5q-40 0 -55.5 -11.5t-15.5 -40.5v-241q0 -14 14 -14h50
q44 0 54 47l10 50q4 15 17 13q11 -2 11 -17v-225q0 -15 -11 -17q-13 -2 -17 13l-10 49q-7 35 -19.5 46t-35.5 11h-49q-14 0 -14 -14v-251q0 -36 18.5 -52t67.5 -16q50 0 85.5 25.5t49.5 95.5l12 59q3 13 15 13q14 0 12 -17l-10 -178q-2 -23 -25 -23h-351zM217 793
q-14 0 -25 11l-116 122q-10 11 -3 19q8 10 20 2l133 -91l134 90q14 9 20 -1q7 -8 -3 -19l-116 -122q-11 -11 -25 -11h-19z" />
    <glyph glyph-name="Ecircumflex" unicode="&#xca;" horiz-adv-x="453" 
d="M34 0q-15 0 -15 11q0 9 13 12l23 4q21 4 27.5 11t6.5 28v588q0 21 -6.5 28t-27.5 11l-23 4q-13 3 -13 12q0 11 15 11h336q23 0 25 -23l8 -166q2 -17 -13 -17q-12 0 -14 13l-6 37q-11 68 -45 99.5t-94 31.5q-40 0 -55.5 -11.5t-15.5 -40.5v-241q0 -14 14 -14h50
q44 0 54 47l10 50q4 15 17 13q11 -2 11 -17v-225q0 -15 -11 -17q-13 -2 -17 13l-10 49q-7 35 -19.5 46t-35.5 11h-49q-14 0 -14 -14v-251q0 -36 18.5 -52t67.5 -16q50 0 85.5 25.5t49.5 95.5l12 59q3 13 15 13q14 0 12 -17l-10 -178q-2 -23 -25 -23h-351zM93 796
q-12 -8 -20 2q-7 8 3 19l116 122q11 11 25 11h19q14 0 25 -11l116 -122q10 -11 3 -19q-6 -10 -20 -1l-134 90z" />
    <glyph glyph-name="Edieresis" unicode="&#xcb;" horiz-adv-x="453" 
d="M34 0q-15 0 -15 11q0 9 13 12l23 4q21 4 27.5 11t6.5 28v588q0 21 -6.5 28t-27.5 11l-23 4q-13 3 -13 12q0 11 15 11h336q23 0 25 -23l8 -166q2 -17 -13 -17q-12 0 -14 13l-6 37q-11 68 -45 99.5t-94 31.5q-40 0 -55.5 -11.5t-15.5 -40.5v-241q0 -14 14 -14h50
q44 0 54 47l10 50q4 15 17 13q11 -2 11 -17v-225q0 -15 -11 -17q-13 -2 -17 13l-10 49q-7 35 -19.5 46t-35.5 11h-49q-14 0 -14 -14v-251q0 -36 18.5 -52t67.5 -16q50 0 85.5 25.5t49.5 95.5l12 59q3 13 15 13q14 0 12 -17l-10 -178q-2 -23 -25 -23h-351zM132 815
q-21 0 -35.5 14.5t-14.5 36.5t14.5 36t35.5 14t35 -14t14 -36t-14 -36.5t-35 -14.5zM322 815q-21 0 -35.5 14.5t-14.5 36.5t14.5 36t35.5 14t35 -14t14 -36t-14 -36.5t-35 -14.5z" />
    <glyph glyph-name="Edotaccent" unicode="&#x116;" horiz-adv-x="453" 
d="M34 0q-15 0 -15 11q0 9 13 12l23 4q21 4 27.5 11t6.5 28v588q0 21 -6.5 28t-27.5 11l-23 4q-13 3 -13 12q0 11 15 11h336q23 0 25 -23l8 -166q2 -17 -13 -17q-12 0 -14 13l-6 37q-11 68 -45 99.5t-94 31.5q-40 0 -55.5 -11.5t-15.5 -40.5v-241q0 -14 14 -14h50
q44 0 54 47l10 50q4 15 17 13q11 -2 11 -17v-225q0 -15 -11 -17q-13 -2 -17 13l-10 49q-7 35 -19.5 46t-35.5 11h-49q-14 0 -14 -14v-251q0 -36 18.5 -52t67.5 -16q50 0 85.5 25.5t49.5 95.5l12 59q3 13 15 13q14 0 12 -17l-10 -178q-2 -23 -25 -23h-351zM227 815
q-21 0 -35.5 15t-14.5 38t14.5 37.5t35.5 14.5t35 -14.5t14 -37.5t-14 -38t-35 -15z" />
    <glyph glyph-name="Egrave" unicode="&#xc8;" horiz-adv-x="453" 
d="M34 0q-15 0 -15 11q0 9 13 12l23 4q21 4 27.5 11t6.5 28v588q0 21 -6.5 28t-27.5 11l-23 4q-13 3 -13 12q0 11 15 11h336q23 0 25 -23l8 -166q2 -17 -13 -17q-12 0 -14 13l-6 37q-11 68 -45 99.5t-94 31.5q-40 0 -55.5 -11.5t-15.5 -40.5v-241q0 -14 14 -14h50
q44 0 54 47l10 50q4 15 17 13q11 -2 11 -17v-225q0 -15 -11 -17q-13 -2 -17 13l-10 49q-7 35 -19.5 46t-35.5 11h-49q-14 0 -14 -14v-251q0 -36 18.5 -52t67.5 -16q50 0 85.5 25.5t49.5 95.5l12 59q3 13 15 13q14 0 12 -17l-10 -178q-2 -23 -25 -23h-351zM318 796l-178 81
q-18 8 -24.5 17.5t-6.5 22.5q0 12 10 22.5t28 10.5q13 0 22 -4t19 -12l144 -112q16 -11 9 -22q-6 -11 -23 -4z" />
    <glyph glyph-name="Emacron" unicode="&#x112;" horiz-adv-x="453" 
d="M34 0q-15 0 -15 11q0 9 13 12l23 4q21 4 27.5 11t6.5 28v588q0 21 -6.5 28t-27.5 11l-23 4q-13 3 -13 12q0 11 15 11h336q23 0 25 -23l8 -166q2 -17 -13 -17q-12 0 -14 13l-6 37q-11 68 -45 99.5t-94 31.5q-40 0 -55.5 -11.5t-15.5 -40.5v-241q0 -14 14 -14h50
q44 0 54 47l10 50q4 15 17 13q11 -2 11 -17v-225q0 -15 -11 -17q-13 -2 -17 13l-10 49q-7 35 -19.5 46t-35.5 11h-49q-14 0 -14 -14v-251q0 -36 18.5 -52t67.5 -16q50 0 85.5 25.5t49.5 95.5l12 59q3 13 15 13q14 0 12 -17l-10 -178q-2 -23 -25 -23h-351zM93 846
q-12 0 -12 12v15q0 12 12 12h267q12 0 12 -12v-15q0 -12 -12 -12h-267z" />
    <glyph glyph-name="Eogonek" unicode="&#x118;" horiz-adv-x="453" 
d="M34 0q-15 0 -15 11q0 9 13 12l23 4q21 4 27.5 11t6.5 28v588q0 21 -6.5 28t-27.5 11l-23 4q-13 3 -13 12q0 11 15 11h336q23 0 25 -23l8 -166q2 -17 -13 -17q-12 0 -14 13l-6 37q-11 68 -45 99.5t-94 31.5q-40 0 -55.5 -11.5t-15.5 -40.5v-241q0 -14 14 -14h50
q44 0 54 47l10 50q4 15 17 13q11 -2 11 -17v-225q0 -15 -11 -17q-13 -2 -17 13l-10 49q-7 35 -19.5 46t-35.5 11h-49q-14 0 -14 -14v-251q0 -36 18.5 -52t67.5 -16q50 0 85.5 25.5t49.5 95.5l12 59q3 13 15 13q14 0 12 -17l-10 -178q-2 -23 -25 -23h-351zM325 -216
q-28 0 -51 18t-23 55q0 28 16.5 58t44.5 55.5t63 39.5l10 -10q-44 -25 -66 -60t-22 -73q0 -29 11 -41t28 -12q24 0 42 21q11 14 20 3q6 -9 -5 -21q-14 -16 -30 -24.5t-38 -8.5z" />
    <glyph glyph-name="F" unicode="F" horiz-adv-x="408" 
d="M34 0q-15 0 -15 11q0 9 13 12l23 4q21 4 27.5 11t6.5 28v588q0 21 -6.5 28t-27.5 11l-23 4q-13 3 -13 12q0 11 15 11h322q23 0 25 -23l8 -166q2 -17 -13 -17q-12 0 -14 13l-5 33q-8 52 -28 81t-45 41.5t-48 12.5q-44 0 -60 -14t-16 -43v-236q0 -14 14 -14h35q44 0 54 47
l11 50q3 13 15 13t12 -17v-225q0 -17 -12 -17t-15 13l-11 49q-7 35 -19.5 46t-35.5 11h-34q-14 0 -14 -14v-273q0 -21 6.5 -29.5t27.5 -11.5l47 -7q11 -2 11 -11q0 -12 -15 -12h-203z" />
    <glyph glyph-name="G" unicode="G" horiz-adv-x="521" 
d="M291 -9q-81 0 -137 46t-85 129.5t-29 197.5q0 110 34 192.5t93.5 128t136.5 45.5q39 0 71 -7.5t56 -19.5q13 -7 13 -21l3 -152q0 -17 -12 -17q-11 0 -14 13l-8 30q-22 83 -50 114t-77 31q-73 0 -120.5 -86.5t-47.5 -250.5q0 -169 48.5 -257.5t124.5 -88.5q41 0 62 18
t21 67v219q0 21 -6.5 29t-27.5 10l-39 4q-13 1 -13 12t15 11h183q15 0 15 -12q0 -9 -11 -11l-15 -2q-22 -3 -26 -12t-4 -30v-271q0 -11 -6 -17.5t-21 -14.5q-24 -12 -55 -19.5t-72 -7.5z" />
    <glyph glyph-name="Gbreve" unicode="&#x11e;" horiz-adv-x="521" 
d="M291 -9q-81 0 -137 46t-85 129.5t-29 197.5q0 110 34 192.5t93.5 128t136.5 45.5q39 0 71 -7.5t56 -19.5q13 -7 13 -21l3 -152q0 -17 -12 -17q-11 0 -14 13l-8 30q-22 83 -50 114t-77 31q-73 0 -120.5 -86.5t-47.5 -250.5q0 -169 48.5 -257.5t124.5 -88.5q41 0 62 18
t21 67v219q0 21 -6.5 29t-27.5 10l-39 4q-13 1 -13 12t15 11h183q15 0 15 -12q0 -9 -11 -11l-15 -2q-22 -3 -26 -12t-4 -30v-271q0 -11 -6 -17.5t-21 -14.5q-24 -12 -55 -19.5t-72 -7.5zM291 789q-53 0 -92.5 35.5t-50.5 97.5q-3 18 10 18q11 0 14 -12q11 -43 43 -62.5
t76 -19.5t76 19.5t43 62.5q3 12 14 12q13 0 10 -18q-11 -62 -50.5 -97.5t-92.5 -35.5z" />
    <glyph glyph-name="uni0122" unicode="&#x122;" horiz-adv-x="521" 
d="M291 -9q-81 0 -137 46t-85 129.5t-29 197.5q0 110 34 192.5t93.5 128t136.5 45.5q39 0 71 -7.5t56 -19.5q13 -7 13 -21l3 -152q0 -17 -12 -17q-11 0 -14 13l-8 30q-22 83 -50 114t-77 31q-73 0 -120.5 -86.5t-47.5 -250.5q0 -169 48.5 -257.5t124.5 -88.5q41 0 62 18
t21 67v219q0 21 -6.5 29t-27.5 10l-39 4q-13 1 -13 12t15 11h183q15 0 15 -12q0 -9 -11 -11l-15 -2q-22 -3 -26 -12t-4 -30v-271q0 -11 -6 -17.5t-21 -14.5q-24 -12 -55 -19.5t-72 -7.5zM292 -67q25 0 39.5 -20.5t14.5 -51.5q0 -49 -20.5 -85.5t-65.5 -74.5q-12 -10 -20 -4
q-9 7 3 19q29 29 40 48t11 38q0 16 -7.5 25t-17.5 15.5t-17.5 16t-7.5 27.5q0 20 13.5 33.5t34.5 13.5z" />
    <glyph glyph-name="Gdotaccent" unicode="&#x120;" horiz-adv-x="521" 
d="M291 -9q-81 0 -137 46t-85 129.5t-29 197.5q0 110 34 192.5t93.5 128t136.5 45.5q39 0 71 -7.5t56 -19.5q13 -7 13 -21l3 -152q0 -17 -12 -17q-11 0 -14 13l-8 30q-22 83 -50 114t-77 31q-73 0 -120.5 -86.5t-47.5 -250.5q0 -169 48.5 -257.5t124.5 -88.5q41 0 62 18
t21 67v219q0 21 -6.5 29t-27.5 10l-39 4q-13 1 -13 12t15 11h183q15 0 15 -12q0 -9 -11 -11l-15 -2q-22 -3 -26 -12t-4 -30v-271q0 -11 -6 -17.5t-21 -14.5q-24 -12 -55 -19.5t-72 -7.5zM291 815q-21 0 -35.5 15t-14.5 38t14.5 37.5t35.5 14.5t35 -14.5t14 -37.5t-14 -38
t-35 -15z" />
    <glyph glyph-name="H" unicode="H" horiz-adv-x="546" 
d="M34 0q-15 0 -15 11q0 9 13 12l23 4q21 4 27.5 11t6.5 28v588q0 21 -6.5 28t-27.5 11l-23 4q-13 3 -13 12q0 11 15 11h183q15 0 15 -12q0 -9 -11 -11l-27 -4q-21 -3 -27.5 -11t-6.5 -29v-251q0 -14 14 -14h198q14 0 14 14v251q0 21 -6.5 29t-27.5 11l-27 4q-11 2 -11 11
q0 12 15 12h183q15 0 15 -11q0 -9 -13 -12l-23 -4q-21 -4 -27.5 -11t-6.5 -28v-588q0 -21 6.5 -28t27.5 -11l23 -4q13 -3 13 -12q0 -11 -15 -11h-183q-15 0 -15 12q0 9 11 11l27 4q21 3 27.5 11t6.5 29v277q0 14 -14 14h-198q-14 0 -14 -14v-277q0 -21 6.5 -29t27.5 -11
l27 -4q11 -2 11 -11q0 -12 -15 -12h-183z" />
    <glyph glyph-name="Hbar" unicode="&#x126;" horiz-adv-x="546" 
d="M34 0q-15 0 -15 11q0 9 13 12l23 4q21 4 27.5 11t6.5 28v466h-60q-10 0 -10 10v8q0 10 10 10h60v94q0 21 -6.5 28t-27.5 11l-23 4q-13 3 -13 12q0 11 15 11h183q15 0 15 -12q0 -9 -11 -11l-27 -4q-21 -3 -27.5 -11t-6.5 -29v-93h226v93q0 21 -6.5 29t-27.5 11l-27 4
q-11 2 -11 11q0 12 15 12h183q15 0 15 -11q0 -9 -13 -12l-23 -4q-21 -4 -27.5 -11t-6.5 -28v-94h60q10 0 10 -10v-8q0 -10 -10 -10h-60v-466q0 -21 6.5 -28t27.5 -11l23 -4q13 -3 13 -12q0 -11 -15 -11h-183q-15 0 -15 12q0 9 11 11l27 4q21 3 27.5 11t6.5 29v277
q0 14 -14 14h-198q-14 0 -14 -14v-277q0 -21 6.5 -29t27.5 -11l27 -4q11 -2 11 -11q0 -12 -15 -12h-183zM174 388h198q14 0 14 14v130h-226v-130q0 -14 14 -14z" />
    <glyph glyph-name="I" unicode="I" horiz-adv-x="249" 
d="M34 0q-15 0 -15 11q0 9 13 12l23 4q21 4 27.5 11t6.5 28v588q0 21 -6.5 28t-27.5 11l-23 4q-13 3 -13 12q0 11 15 11h181q15 0 15 -11q0 -9 -13 -12l-23 -4q-21 -4 -27.5 -11t-6.5 -28v-588q0 -21 6.5 -28t27.5 -11l23 -4q13 -3 13 -12q0 -11 -15 -11h-181z" />
    <glyph glyph-name="IJ" unicode="&#x132;" horiz-adv-x="498" 
d="M34 0q-15 0 -15 11q0 9 13 12l23 4q21 4 27.5 11t6.5 28v588q0 21 -6.5 28t-27.5 11l-23 4q-13 3 -13 12q0 11 15 11h181q15 0 15 -11q0 -9 -13 -12l-23 -4q-21 -4 -27.5 -11t-6.5 -28v-588q0 -21 6.5 -28t27.5 -11l23 -4q13 -3 13 -12q0 -11 -15 -11h-181zM263 -215
q-31 0 -50.5 16.5t-19.5 43.5q0 20 11.5 33t29.5 13q17 0 24 -10t11.5 -23t10.5 -23t19 -10q19 0 29 22t10 62v745q0 21 -6.5 28t-27.5 11l-23 4q-13 3 -13 12q0 11 15 11h181q15 0 15 -11q0 -9 -13 -12l-23 -4q-21 -4 -27.5 -11t-6.5 -28v-610q0 -120 -39 -189.5
t-107 -69.5z" />
    <glyph glyph-name="Iacute" unicode="&#xcd;" horiz-adv-x="249" 
d="M34 0q-15 0 -15 11q0 9 13 12l23 4q21 4 27.5 11t6.5 28v588q0 21 -6.5 28t-27.5 11l-23 4q-13 3 -13 12q0 11 15 11h181q15 0 15 -11q0 -9 -13 -12l-23 -4q-21 -4 -27.5 -11t-6.5 -28v-588q0 -21 6.5 -28t27.5 -11l23 -4q13 -3 13 -12q0 -11 -15 -11h-181zM33 796
q-17 -7 -23 4q-7 11 9 22l144 112q10 8 19 12t22 4q18 0 28 -10.5t10 -22.5q0 -13 -6.5 -22.5t-24.5 -17.5z" />
    <glyph glyph-name="Icircumflex" unicode="&#xce;" horiz-adv-x="249" 
d="M34 0q-15 0 -15 11q0 9 13 12l23 4q21 4 27.5 11t6.5 28v588q0 21 -6.5 28t-27.5 11l-23 4q-13 3 -13 12q0 11 15 11h181q15 0 15 -11q0 -9 -13 -12l-23 -4q-21 -4 -27.5 -11t-6.5 -28v-588q0 -21 6.5 -28t27.5 -11l23 -4q13 -3 13 -12q0 -11 -15 -11h-181zM-9 796
q-12 -8 -20 2q-7 8 3 19l116 122q11 11 25 11h19q14 0 25 -11l116 -122q10 -11 3 -19q-6 -10 -20 -1l-134 90z" />
    <glyph glyph-name="Idieresis" unicode="&#xcf;" horiz-adv-x="249" 
d="M34 0q-15 0 -15 11q0 9 13 12l23 4q21 4 27.5 11t6.5 28v588q0 21 -6.5 28t-27.5 11l-23 4q-13 3 -13 12q0 11 15 11h181q15 0 15 -11q0 -9 -13 -12l-23 -4q-21 -4 -27.5 -11t-6.5 -28v-588q0 -21 6.5 -28t27.5 -11l23 -4q13 -3 13 -12q0 -11 -15 -11h-181zM30 815
q-21 0 -35.5 14.5t-14.5 36.5t14.5 36t35.5 14t35 -14t14 -36t-14 -36.5t-35 -14.5zM220 815q-21 0 -35.5 14.5t-14.5 36.5t14.5 36t35.5 14t35 -14t14 -36t-14 -36.5t-35 -14.5z" />
    <glyph glyph-name="Idotaccent" unicode="&#x130;" horiz-adv-x="249" 
d="M34 0q-15 0 -15 11q0 9 13 12l23 4q21 4 27.5 11t6.5 28v588q0 21 -6.5 28t-27.5 11l-23 4q-13 3 -13 12q0 11 15 11h181q15 0 15 -11q0 -9 -13 -12l-23 -4q-21 -4 -27.5 -11t-6.5 -28v-588q0 -21 6.5 -28t27.5 -11l23 -4q13 -3 13 -12q0 -11 -15 -11h-181zM125 815
q-21 0 -35.5 15t-14.5 38t14.5 37.5t35.5 14.5t35 -14.5t14 -37.5t-14 -38t-35 -15z" />
    <glyph glyph-name="Igrave" unicode="&#xcc;" horiz-adv-x="249" 
d="M34 0q-15 0 -15 11q0 9 13 12l23 4q21 4 27.5 11t6.5 28v588q0 21 -6.5 28t-27.5 11l-23 4q-13 3 -13 12q0 11 15 11h181q15 0 15 -11q0 -9 -13 -12l-23 -4q-21 -4 -27.5 -11t-6.5 -28v-588q0 -21 6.5 -28t27.5 -11l23 -4q13 -3 13 -12q0 -11 -15 -11h-181zM216 796
l-178 81q-18 8 -24.5 17.5t-6.5 22.5q0 12 10 22.5t28 10.5q13 0 22 -4t19 -12l144 -112q16 -11 9 -22q-6 -11 -23 -4z" />
    <glyph glyph-name="Imacron" unicode="&#x12a;" horiz-adv-x="249" 
d="M34 0q-15 0 -15 11q0 9 13 12l23 4q21 4 27.5 11t6.5 28v588q0 21 -6.5 28t-27.5 11l-23 4q-13 3 -13 12q0 11 15 11h181q15 0 15 -11q0 -9 -13 -12l-23 -4q-21 -4 -27.5 -11t-6.5 -28v-588q0 -21 6.5 -28t27.5 -11l23 -4q13 -3 13 -12q0 -11 -15 -11h-181zM-9 846
q-12 0 -12 12v15q0 12 12 12h267q12 0 12 -12v-15q0 -12 -12 -12h-267z" />
    <glyph glyph-name="Iogonek" unicode="&#x12e;" horiz-adv-x="249" 
d="M34 0q-15 0 -15 11q0 9 13 12l23 4q21 4 27.5 11t6.5 28v588q0 21 -6.5 28t-27.5 11l-23 4q-13 3 -13 12q0 11 15 11h181q15 0 15 -11q0 -9 -13 -12l-23 -4q-21 -4 -27.5 -11t-6.5 -28v-588q0 -21 6.5 -28t27.5 -11l23 -4q13 -3 13 -12q0 -11 -15 -11h-181zM100 -216
q-28 0 -51 18t-23 55q0 28 16.5 58t44.5 55.5t63 39.5l10 -10q-44 -25 -66 -60t-22 -73q0 -29 11 -41t28 -12q24 0 42 21q11 14 20 3q6 -9 -5 -21q-14 -16 -30 -24.5t-38 -8.5z" />
    <glyph glyph-name="J" unicode="J" horiz-adv-x="249" 
d="M14 -215q-31 0 -50.5 16.5t-19.5 43.5q0 20 11.5 33t29.5 13q17 0 24 -10t11.5 -23t10.5 -23t19 -10q19 0 29 22t10 62v745q0 21 -6.5 28t-27.5 11l-23 4q-13 3 -13 12q0 11 15 11h181q15 0 15 -11q0 -9 -13 -12l-23 -4q-21 -4 -27.5 -11t-6.5 -28v-610
q0 -120 -39 -189.5t-107 -69.5z" />
    <glyph glyph-name="K" unicode="K" horiz-adv-x="496" 
d="M34 0q-15 0 -15 11q0 9 13 12l23 4q21 4 27.5 11t6.5 28v588q0 21 -6.5 28t-27.5 11l-23 4q-13 3 -13 12q0 11 15 11h183q15 0 15 -12q0 -9 -11 -11l-27 -4q-21 -3 -27.5 -11t-6.5 -29v-270q0 -10 6 -12t11 7l164 257q33 51 -6 58l-23 4q-13 3 -13 13t14 10h170
q14 0 14 -11t-13 -12l-19 -2q-31 -3 -51 -18t-45 -54l-113 -177q-10 -17 -1 -33l188 -354q8 -16 16.5 -23t20.5 -9l24 -4q12 -1 12 -12t-14 -11h-178q-14 0 -14 11q0 10 13 12l17 2q39 5 16 49l-144 274q-4 8 -9 8.5t-10 -7.5l-21 -33q-7 -10 -9.5 -19t-2.5 -23v-207
q0 -21 6.5 -29t27.5 -11l27 -4q11 -2 11 -11q0 -12 -15 -12h-183z" />
    <glyph glyph-name="uni0136" unicode="&#x136;" horiz-adv-x="496" 
d="M34 0q-15 0 -15 11q0 9 13 12l23 4q21 4 27.5 11t6.5 28v588q0 21 -6.5 28t-27.5 11l-23 4q-13 3 -13 12q0 11 15 11h183q15 0 15 -12q0 -9 -11 -11l-27 -4q-21 -3 -27.5 -11t-6.5 -29v-270q0 -10 6 -12t11 7l164 257q33 51 -6 58l-23 4q-13 3 -13 13t14 10h170
q14 0 14 -11t-13 -12l-19 -2q-31 -3 -51 -18t-45 -54l-113 -177q-10 -17 -1 -33l188 -354q8 -16 16.5 -23t20.5 -9l24 -4q12 -1 12 -12t-14 -11h-178q-14 0 -14 11q0 10 13 12l17 2q39 5 16 49l-144 274q-4 8 -9 8.5t-10 -7.5l-21 -33q-7 -10 -9.5 -19t-2.5 -23v-207
q0 -21 6.5 -29t27.5 -11l27 -4q11 -2 11 -11q0 -12 -15 -12h-183zM269 -67q25 0 39.5 -20.5t14.5 -51.5q0 -49 -20.5 -85.5t-65.5 -74.5q-12 -10 -20 -4q-9 7 3 19q29 29 40 48t11 38q0 16 -7.5 25t-17.5 15.5t-17.5 16t-7.5 27.5q0 20 13.5 33.5t34.5 13.5z" />
    <glyph glyph-name="L" unicode="L" horiz-adv-x="413" 
d="M34 0q-15 0 -15 11q0 9 13 12l23 4q21 4 27.5 11t6.5 28v588q0 21 -6.5 28t-27.5 11l-23 4q-13 3 -13 12q0 11 15 11h183q15 0 15 -12q0 -9 -11 -11l-27 -4q-21 -3 -27.5 -11t-6.5 -29v-560q0 -36 20.5 -52t51.5 -16q23 0 47.5 9.5t44.5 36t30 77.5l13 67q3 13 15 13
q14 0 12 -17l-12 -188q-2 -23 -25 -23h-323z" />
    <glyph glyph-name="Lacute" unicode="&#x139;" horiz-adv-x="413" 
d="M34 0q-15 0 -15 11q0 9 13 12l23 4q21 4 27.5 11t6.5 28v588q0 21 -6.5 28t-27.5 11l-23 4q-13 3 -13 12q0 11 15 11h183q15 0 15 -12q0 -9 -11 -11l-27 -4q-21 -3 -27.5 -11t-6.5 -29v-560q0 -36 20.5 -52t51.5 -16q23 0 47.5 9.5t44.5 36t30 77.5l13 67q3 13 15 13
q14 0 12 -17l-12 -188q-2 -23 -25 -23h-323zM33 796q-17 -7 -23 4q-7 11 9 22l144 112q10 8 19 12t22 4q18 0 28 -10.5t10 -22.5q0 -13 -6.5 -22.5t-24.5 -17.5z" />
    <glyph glyph-name="Lcaron" unicode="&#x13d;" horiz-adv-x="413" 
d="M34 0q-15 0 -15 11q0 9 13 12l23 4q21 4 27.5 11t6.5 28v588q0 21 -6.5 28t-27.5 11l-23 4q-13 3 -13 12q0 11 15 11h183q15 0 15 -12q0 -9 -11 -11l-27 -4q-21 -3 -27.5 -11t-6.5 -29v-560q0 -36 20.5 -52t51.5 -16q23 0 47.5 9.5t44.5 36t30 77.5l13 67q3 13 15 13
q14 0 12 -17l-12 -188q-2 -23 -25 -23h-323zM328 503q-3 -12 -17 -12q-12 0 -12 16l4 162q1 26 11.5 38.5t26.5 12.5q19 0 26 -15t1 -40z" />
    <glyph glyph-name="uni013B" unicode="&#x13b;" horiz-adv-x="413" 
d="M34 0q-15 0 -15 11q0 9 13 12l23 4q21 4 27.5 11t6.5 28v588q0 21 -6.5 28t-27.5 11l-23 4q-13 3 -13 12q0 11 15 11h183q15 0 15 -12q0 -9 -11 -11l-27 -4q-21 -3 -27.5 -11t-6.5 -29v-560q0 -36 20.5 -52t51.5 -16q23 0 47.5 9.5t44.5 36t30 77.5l13 67q3 13 15 13
q14 0 12 -17l-12 -188q-2 -23 -25 -23h-323zM208 -67q25 0 39.5 -20.5t14.5 -51.5q0 -49 -20.5 -85.5t-65.5 -74.5q-12 -10 -20 -4q-9 7 3 19q29 29 40 48t11 38q0 16 -7.5 25t-17.5 15.5t-17.5 16t-7.5 27.5q0 20 13.5 33.5t34.5 13.5z" />
    <glyph glyph-name="Lslash" unicode="&#x141;" horiz-adv-x="413" 
d="M34 0q-15 0 -15 11q0 9 13 12l23 4q21 4 27.5 11t6.5 28v254l-59 -37q-8 -5 -13 3l-5 7q-5 9 3 14l74 46v301q0 21 -6.5 28t-27.5 11l-23 4q-13 3 -13 12q0 11 15 11h183q15 0 15 -12q0 -9 -11 -11l-27 -4q-21 -3 -27.5 -11t-6.5 -29v-253l89 56q8 5 13 -3l5 -7
q5 -9 -3 -14l-104 -65v-274q0 -36 20.5 -52t51.5 -16q23 0 47.5 9.5t44.5 36t30 77.5l13 67q3 13 15 13q14 0 12 -17l-12 -188q-2 -23 -25 -23h-323z" />
    <glyph glyph-name="M" unicode="M" horiz-adv-x="665" 
d="M315 10q-4 0 -9 3t-7 13l-151 613q-1 7 -6 6.5t-5 -7.5l-20 -552q-1 -28 9 -42.5t35 -18.5l13 -2q13 -1 13 -12t-15 -11h-143q-15 0 -15 11t13 12l13 2q26 4 35.5 18.5t10.5 42.5l20 568q1 21 -6 28t-30 11l-23 4q-13 3 -13 12q0 11 15 11h120q31 0 38 -30l121 -499
q2 -7 6.5 -7t5.5 7l126 504q6 25 32 25h118q15 0 15 -11q0 -9 -13 -12l-23 -4q-21 -4 -28 -11t-6 -28l20 -588q1 -21 7 -28t27 -11l23 -4q13 -3 13 -12q0 -11 -15 -11h-181q-15 0 -15 11q0 9 13 12l23 4q21 4 28 11t6 28l-17 572q0 7 -4.5 7.5t-6.5 -5.5l-152 -614
q-2 -10 -6.5 -13t-8.5 -3z" />
    <glyph glyph-name="N" unicode="N" horiz-adv-x="540" 
d="M429 -9q-16 0 -27 24l-271 588q-3 7 -7.5 6t-4.5 -9v-514q0 -28 9.5 -42.5t34.5 -18.5l13 -2q13 -1 13 -12t-15 -11h-143q-15 0 -15 11t13 12l13 2q26 4 36 18.5t10 42.5v568q0 21 -6.5 28t-29.5 11l-23 4q-13 3 -13 12q0 11 15 11h107q25 0 35 -22l236 -519q3 -6 7.5 -5
t4.5 7v453q0 32 -11 44.5t-28 15.5l-18 3q-13 3 -13 12q0 11 15 11h143q15 0 15 -11t-13 -12l-13 -2q-26 -4 -36 -16.5t-10 -44.5v-611q0 -18 -6.5 -25t-16.5 -7z" />
    <glyph glyph-name="Nacute" unicode="&#x143;" horiz-adv-x="540" 
d="M429 -9q-16 0 -27 24l-271 588q-3 7 -7.5 6t-4.5 -9v-514q0 -28 9.5 -42.5t34.5 -18.5l13 -2q13 -1 13 -12t-15 -11h-143q-15 0 -15 11t13 12l13 2q26 4 36 18.5t10 42.5v568q0 21 -6.5 28t-29.5 11l-23 4q-13 3 -13 12q0 11 15 11h107q25 0 35 -22l236 -519q3 -6 7.5 -5
t4.5 7v453q0 32 -11 44.5t-28 15.5l-18 3q-13 3 -13 12q0 11 15 11h143q15 0 15 -11t-13 -12l-13 -2q-26 -4 -36 -16.5t-10 -44.5v-611q0 -18 -6.5 -25t-16.5 -7zM178 796q-17 -7 -23 4q-7 11 9 22l144 112q10 8 19 12t22 4q18 0 28 -10.5t10 -22.5q0 -13 -6.5 -22.5
t-24.5 -17.5z" />
    <glyph glyph-name="Ncaron" unicode="&#x147;" horiz-adv-x="540" 
d="M429 -9q-16 0 -27 24l-271 588q-3 7 -7.5 6t-4.5 -9v-514q0 -28 9.5 -42.5t34.5 -18.5l13 -2q13 -1 13 -12t-15 -11h-143q-15 0 -15 11t13 12l13 2q26 4 36 18.5t10 42.5v568q0 21 -6.5 28t-29.5 11l-23 4q-13 3 -13 12q0 11 15 11h107q25 0 35 -22l236 -519q3 -6 7.5 -5
t4.5 7v453q0 32 -11 44.5t-28 15.5l-18 3q-13 3 -13 12q0 11 15 11h143q15 0 15 -11t-13 -12l-13 -2q-26 -4 -36 -16.5t-10 -44.5v-611q0 -18 -6.5 -25t-16.5 -7zM260 793q-14 0 -25 11l-116 122q-10 11 -3 19q8 10 20 2l133 -91l134 90q14 9 20 -1q7 -8 -3 -19l-116 -122
q-11 -11 -25 -11h-19z" />
    <glyph glyph-name="uni0145" unicode="&#x145;" horiz-adv-x="540" 
d="M429 -9q-16 0 -27 24l-271 588q-3 7 -7.5 6t-4.5 -9v-514q0 -28 9.5 -42.5t34.5 -18.5l13 -2q13 -1 13 -12t-15 -11h-143q-15 0 -15 11t13 12l13 2q26 4 36 18.5t10 42.5v568q0 21 -6.5 28t-29.5 11l-23 4q-13 3 -13 12q0 11 15 11h107q25 0 35 -22l236 -519q3 -6 7.5 -5
t4.5 7v453q0 32 -11 44.5t-28 15.5l-18 3q-13 3 -13 12q0 11 15 11h143q15 0 15 -11t-13 -12l-13 -2q-26 -4 -36 -16.5t-10 -44.5v-611q0 -18 -6.5 -25t-16.5 -7zM271 -67q25 0 39.5 -20.5t14.5 -51.5q0 -49 -20.5 -85.5t-65.5 -74.5q-12 -10 -20 -4q-9 7 3 19q29 29 40 48
t11 38q0 16 -7.5 25t-17.5 15.5t-17.5 16t-7.5 27.5q0 20 13.5 33.5t34.5 13.5z" />
    <glyph glyph-name="Ntilde" unicode="&#xd1;" horiz-adv-x="540" 
d="M429 -9q-16 0 -27 24l-271 588q-3 7 -7.5 6t-4.5 -9v-514q0 -28 9.5 -42.5t34.5 -18.5l13 -2q13 -1 13 -12t-15 -11h-143q-15 0 -15 11t13 12l13 2q26 4 36 18.5t10 42.5v568q0 21 -6.5 28t-29.5 11l-23 4q-13 3 -13 12q0 11 15 11h107q25 0 35 -22l236 -519q3 -6 7.5 -5
t4.5 7v453q0 32 -11 44.5t-28 15.5l-18 3q-13 3 -13 12q0 11 15 11h143q15 0 15 -11t-13 -12l-13 -2q-26 -4 -36 -16.5t-10 -44.5v-611q0 -18 -6.5 -25t-16.5 -7zM333 807q-26 0 -43.5 10t-31.5 22.5t-29 22.5t-36 10q-25 0 -39 -12.5t-23 -38.5q-4 -12 -14 -12
q-13 0 -10 15q10 51 36.5 77.5t63.5 26.5q25 0 42.5 -10t32.5 -22.5t30.5 -22.5t34.5 -10q25 0 39 12.5t23 38.5q5 12 14 12q13 0 10 -15q-10 -51 -36 -77.5t-64 -26.5z" />
    <glyph glyph-name="Eng" unicode="&#x14a;" horiz-adv-x="540" 
d="M309 -215q-29 0 -48 15t-19 39q0 17 10.5 29.5t28.5 12.5q16 0 23 -8.5t11 -19.5t10.5 -19.5t19.5 -8.5q19 0 29 22t10 62v143q0 15 -7 30l-246 521q-3 7 -7.5 6t-4.5 -9v-514q0 -28 9.5 -42.5t34.5 -18.5l13 -2q13 -1 13 -12t-15 -11h-143q-15 0 -15 11t13 12l13 2
q26 4 36 18.5t10 42.5v568q0 21 -6.5 28t-29.5 11l-23 4q-13 3 -13 12q0 11 15 11h97q24 0 35 -22l246 -519q3 -6 7.5 -5t4.5 7v453q0 32 -11 44.5t-28 15.5l-18 3q-13 3 -13 12q0 11 15 11h143q15 0 15 -11t-13 -12l-13 -2q-26 -4 -36 -16.5t-10 -44.5v-590
q0 -120 -39 -189.5t-104 -69.5z" />
    <glyph glyph-name="O" unicode="O" horiz-adv-x="540" 
d="M270 -9q-48 0 -90 28.5t-73.5 78.5t-49 117.5t-17.5 145.5t17.5 145t49 117.5t73.5 78.5t90 28t89.5 -28t73.5 -78.5t49.5 -117.5t17.5 -145t-17.5 -145.5t-49.5 -117.5t-73.5 -78.5t-89.5 -28.5zM270 18q71 0 111 85t40 258t-40 257.5t-111 84.5q-70 0 -110.5 -84.5
t-40.5 -257.5t40.5 -258t110.5 -85z" />
    <glyph glyph-name="Oacute" unicode="&#xd3;" horiz-adv-x="540" 
d="M270 -9q-48 0 -90 28.5t-73.5 78.5t-49 117.5t-17.5 145.5t17.5 145t49 117.5t73.5 78.5t90 28t89.5 -28t73.5 -78.5t49.5 -117.5t17.5 -145t-17.5 -145.5t-49.5 -117.5t-73.5 -78.5t-89.5 -28.5zM270 18q71 0 111 85t40 258t-40 257.5t-111 84.5q-70 0 -110.5 -84.5
t-40.5 -257.5t40.5 -258t110.5 -85zM178 796q-17 -7 -23 4q-7 11 9 22l144 112q10 8 19 12t22 4q18 0 28 -10.5t10 -22.5q0 -13 -6.5 -22.5t-24.5 -17.5z" />
    <glyph glyph-name="Ocircumflex" unicode="&#xd4;" horiz-adv-x="540" 
d="M270 -9q-48 0 -90 28.5t-73.5 78.5t-49 117.5t-17.5 145.5t17.5 145t49 117.5t73.5 78.5t90 28t89.5 -28t73.5 -78.5t49.5 -117.5t17.5 -145t-17.5 -145.5t-49.5 -117.5t-73.5 -78.5t-89.5 -28.5zM270 18q71 0 111 85t40 258t-40 257.5t-111 84.5q-70 0 -110.5 -84.5
t-40.5 -257.5t40.5 -258t110.5 -85zM136 796q-12 -8 -20 2q-7 8 3 19l116 122q11 11 25 11h19q14 0 25 -11l116 -122q10 -11 3 -19q-6 -10 -20 -1l-134 90z" />
    <glyph glyph-name="Odieresis" unicode="&#xd6;" horiz-adv-x="540" 
d="M270 -9q-48 0 -90 28.5t-73.5 78.5t-49 117.5t-17.5 145.5t17.5 145t49 117.5t73.5 78.5t90 28t89.5 -28t73.5 -78.5t49.5 -117.5t17.5 -145t-17.5 -145.5t-49.5 -117.5t-73.5 -78.5t-89.5 -28.5zM270 18q71 0 111 85t40 258t-40 257.5t-111 84.5q-70 0 -110.5 -84.5
t-40.5 -257.5t40.5 -258t110.5 -85zM175 815q-21 0 -35.5 14.5t-14.5 36.5t14.5 36t35.5 14t35 -14t14 -36t-14 -36.5t-35 -14.5zM365 815q-21 0 -35.5 14.5t-14.5 36.5t14.5 36t35.5 14t35 -14t14 -36t-14 -36.5t-35 -14.5z" />
    <glyph glyph-name="Ograve" unicode="&#xd2;" horiz-adv-x="540" 
d="M270 -9q-48 0 -90 28.5t-73.5 78.5t-49 117.5t-17.5 145.5t17.5 145t49 117.5t73.5 78.5t90 28t89.5 -28t73.5 -78.5t49.5 -117.5t17.5 -145t-17.5 -145.5t-49.5 -117.5t-73.5 -78.5t-89.5 -28.5zM270 18q71 0 111 85t40 258t-40 257.5t-111 84.5q-70 0 -110.5 -84.5
t-40.5 -257.5t40.5 -258t110.5 -85zM361 796l-178 81q-18 8 -24.5 17.5t-6.5 22.5q0 12 10 22.5t28 10.5q13 0 22 -4t19 -12l144 -112q16 -11 9 -22q-6 -11 -23 -4z" />
    <glyph glyph-name="Ohungarumlaut" unicode="&#x150;" horiz-adv-x="540" 
d="M270 -9q-48 0 -90 28.5t-73.5 78.5t-49 117.5t-17.5 145.5t17.5 145t49 117.5t73.5 78.5t90 28t89.5 -28t73.5 -78.5t49.5 -117.5t17.5 -145t-17.5 -145.5t-49.5 -117.5t-73.5 -78.5t-89.5 -28.5zM270 18q71 0 111 85t40 258t-40 257.5t-111 84.5q-70 0 -110.5 -84.5
t-40.5 -257.5t40.5 -258t110.5 -85zM181 800q-13 -10 -22 -4t-1 23l52 95q10 19 20.5 27.5t26.5 8.5q17 0 26.5 -9t9.5 -22q0 -23 -28 -47zM331 800q-13 -10 -22 -4t-1 23l52 95q10 19 20.5 27.5t26.5 8.5q17 0 26.5 -9t9.5 -22q0 -23 -28 -47z" />
    <glyph glyph-name="Omacron" unicode="&#x14c;" horiz-adv-x="540" 
d="M270 -9q-48 0 -90 28.5t-73.5 78.5t-49 117.5t-17.5 145.5t17.5 145t49 117.5t73.5 78.5t90 28t89.5 -28t73.5 -78.5t49.5 -117.5t17.5 -145t-17.5 -145.5t-49.5 -117.5t-73.5 -78.5t-89.5 -28.5zM270 18q71 0 111 85t40 258t-40 257.5t-111 84.5q-70 0 -110.5 -84.5
t-40.5 -257.5t40.5 -258t110.5 -85zM136 846q-12 0 -12 12v15q0 12 12 12h267q12 0 12 -12v-15q0 -12 -12 -12h-267z" />
    <glyph glyph-name="Oslash" unicode="&#xd8;" horiz-adv-x="540" 
d="M86 -60q-13 0 -8 12l50 116q-41 50 -64.5 126.5t-23.5 166.5q0 78 17.5 145t49 117.5t73.5 78.5t90 28q33 0 63 -13.5t56 -38.5l44 104q3 8 11 8h11q13 0 8 -12l-53 -123q41 -50 65.5 -126.5t24.5 -167.5q0 -78 -17.5 -145.5t-49.5 -117.5t-73.5 -78.5t-89.5 -28.5
q-33 0 -64 14t-57 39l-41 -96q-3 -8 -11 -8h-11zM119 361q0 -77 8 -136.5t24 -101.5l220 514q-38 66 -101 66q-70 0 -110.5 -84.5t-40.5 -257.5zM270 18q71 0 111 85t40 258q0 78 -8.5 138.5t-24.5 102.5l-221 -515q38 -69 103 -69z" />
    <glyph glyph-name="Otilde" unicode="&#xd5;" horiz-adv-x="540" 
d="M270 -9q-48 0 -90 28.5t-73.5 78.5t-49 117.5t-17.5 145.5t17.5 145t49 117.5t73.5 78.5t90 28t89.5 -28t73.5 -78.5t49.5 -117.5t17.5 -145t-17.5 -145.5t-49.5 -117.5t-73.5 -78.5t-89.5 -28.5zM270 18q71 0 111 85t40 258t-40 257.5t-111 84.5q-70 0 -110.5 -84.5
t-40.5 -257.5t40.5 -258t110.5 -85zM333 807q-26 0 -43.5 10t-31.5 22.5t-29 22.5t-36 10q-25 0 -39 -12.5t-23 -38.5q-4 -12 -14 -12q-13 0 -10 15q10 51 36.5 77.5t63.5 26.5q25 0 42.5 -10t32.5 -22.5t30.5 -22.5t34.5 -10q25 0 39 12.5t23 38.5q5 12 14 12q13 0 10 -15
q-10 -51 -36 -77.5t-64 -26.5z" />
    <glyph glyph-name="OE" unicode="&#x152;" horiz-adv-x="753" 
d="M274 -9q-52 0 -95 28t-74 78.5t-48 117.5t-17 144q0 104 29.5 188t82.5 133t122 49q30 0 55.5 -4.5t59.5 -4.5h281q23 0 25 -23l8 -166q2 -17 -13 -17q-12 0 -14 13l-6 37q-11 68 -45 99.5t-94 31.5q-40 0 -55.5 -11.5t-15.5 -40.5v-241q0 -14 14 -14h50q44 0 54 47
l10 50q4 15 17 13q11 -2 11 -17v-225q0 -15 -11 -17q-13 -2 -17 13l-10 49q-7 35 -19.5 46t-35.5 11h-49q-14 0 -14 -14v-251q0 -36 18.5 -52t67.5 -16q50 0 85.5 25.5t49.5 95.5l12 59q3 13 15 13q14 0 12 -17l-10 -178q-2 -23 -25 -23h-296q-34 0 -59.5 -4.5t-55.5 -4.5z
M278 18q50 0 80.5 24.5t30.5 73.5v488q0 51 -30.5 74.5t-80.5 23.5q-84 0 -121.5 -85t-37.5 -258q0 -172 37.5 -256.5t121.5 -84.5z" />
    <glyph glyph-name="P" unicode="P" horiz-adv-x="466" 
d="M34 0q-15 0 -15 11q0 9 13 12l23 4q21 4 27.5 11t6.5 28v588q0 21 -6.5 28t-27.5 11l-23 4q-13 3 -13 12q0 11 15 11h209q59 0 104 -25.5t70 -70.5t25 -104q0 -57 -25 -101t-69 -68.5t-102 -24.5h-72q-14 0 -14 -14v-242q0 -21 8 -28.5t36 -12.5l37 -6q11 -2 11 -11
q0 -12 -15 -12h-203zM160 406q0 -55 67 -55q65 0 102.5 46t37.5 126q0 82 -38 127t-108 45q-61 0 -61 -40v-249z" />
    <glyph glyph-name="Thorn" unicode="&#xde;" horiz-adv-x="466" 
d="M34 0q-15 0 -15 11q0 9 13 12l23 4q21 4 27.5 11t6.5 28v588q0 21 -6.5 28t-27.5 11l-23 4q-13 3 -13 12q0 11 15 11h203q15 0 15 -11q0 -9 -13 -12l-45 -8q-21 -4 -27.5 -11.5t-6.5 -28.5v-56q0 -14 14 -14h69q59 0 104 -25.5t70 -70.5t25 -104q0 -57 -25 -100.5
t-69 -68.5t-102 -25h-72q-14 0 -14 -14v-100q0 -21 6.5 -28.5t27.5 -11.5l45 -8q13 -3 13 -12q0 -11 -15 -11h-203zM227 210q65 0 102.5 46t37.5 126q0 82 -38 127t-108 45q-61 0 -61 -40v-249q0 -55 67 -55z" />
    <glyph glyph-name="Q" unicode="Q" horiz-adv-x="540" 
d="M434 -215q-30 0 -63.5 12.5t-59.5 43.5t-36 88q-5 32 -16 46t-37 24q-52 17 -93.5 68.5t-65 127.5t-23.5 166q0 78 17.5 145t49 117.5t73.5 78.5t90 28t89.5 -28t73.5 -78.5t49.5 -117.5t17.5 -145q0 -92 -24.5 -169.5t-67 -128.5t-96.5 -66q-6 -1 -6 -5.5t5 -8.5
q13 -9 22 -22.5t15 -34.5q18 -58 46.5 -84t62.5 -26q30 0 61 19q8 5 15 3t7 -10q0 -7 -8 -14q-16 -12 -39.5 -20.5t-58.5 -8.5zM270 18q71 0 111 85t40 258t-40 257.5t-111 84.5q-70 0 -110.5 -84.5t-40.5 -257.5t40.5 -258t110.5 -85z" />
    <glyph glyph-name="R" unicode="R" horiz-adv-x="513" 
d="M450 -9q-87 0 -111 114l-23 111q-11 54 -24.5 82t-37 38t-64.5 10q-14 0 -22 -7.5t-8 -18.5v-250q0 -21 8 -28.5t36 -12.5l37 -6q11 -2 11 -11q0 -12 -15 -12h-203q-15 0 -15 11q0 9 13 12l23 4q21 4 27.5 11t6.5 28v588q0 21 -6.5 28t-27.5 11l-23 4q-13 3 -13 12
q0 11 15 11h203q59 0 105 -23t72 -63.5t26 -93.5q0 -63 -38 -113.5t-96 -71.5q-7 -2 -7.5 -6.5t6.5 -7.5q32 -15 50.5 -42t28.5 -72l22 -102q11 -52 26 -74t38 -22q8 0 14.5 2.5t16.5 9.5q8 5 15 2.5t7 -10.5q0 -17 -22 -29.5t-51 -12.5zM227 371q68 0 103 45.5t35 121.5
q0 74 -40.5 115.5t-111.5 41.5q-53 0 -53 -40v-229q0 -55 67 -55z" />
    <glyph glyph-name="Racute" unicode="&#x154;" horiz-adv-x="513" 
d="M450 -9q-87 0 -111 114l-23 111q-11 54 -24.5 82t-37 38t-64.5 10q-14 0 -22 -7.5t-8 -18.5v-250q0 -21 8 -28.5t36 -12.5l37 -6q11 -2 11 -11q0 -12 -15 -12h-203q-15 0 -15 11q0 9 13 12l23 4q21 4 27.5 11t6.5 28v588q0 21 -6.5 28t-27.5 11l-23 4q-13 3 -13 12
q0 11 15 11h203q59 0 105 -23t72 -63.5t26 -93.5q0 -63 -38 -113.5t-96 -71.5q-7 -2 -7.5 -6.5t6.5 -7.5q32 -15 50.5 -42t28.5 -72l22 -102q11 -52 26 -74t38 -22q8 0 14.5 2.5t16.5 9.5q8 5 15 2.5t7 -10.5q0 -17 -22 -29.5t-51 -12.5zM227 371q68 0 103 45.5t35 121.5
q0 74 -40.5 115.5t-111.5 41.5q-53 0 -53 -40v-229q0 -55 67 -55zM165 796q-17 -7 -23 4q-7 11 9 22l144 112q10 8 19 12t22 4q18 0 28 -10.5t10 -22.5q0 -13 -6.5 -22.5t-24.5 -17.5z" />
    <glyph glyph-name="Rcaron" unicode="&#x158;" horiz-adv-x="513" 
d="M450 -9q-87 0 -111 114l-23 111q-11 54 -24.5 82t-37 38t-64.5 10q-14 0 -22 -7.5t-8 -18.5v-250q0 -21 8 -28.5t36 -12.5l37 -6q11 -2 11 -11q0 -12 -15 -12h-203q-15 0 -15 11q0 9 13 12l23 4q21 4 27.5 11t6.5 28v588q0 21 -6.5 28t-27.5 11l-23 4q-13 3 -13 12
q0 11 15 11h203q59 0 105 -23t72 -63.5t26 -93.5q0 -63 -38 -113.5t-96 -71.5q-7 -2 -7.5 -6.5t6.5 -7.5q32 -15 50.5 -42t28.5 -72l22 -102q11 -52 26 -74t38 -22q8 0 14.5 2.5t16.5 9.5q8 5 15 2.5t7 -10.5q0 -17 -22 -29.5t-51 -12.5zM227 371q68 0 103 45.5t35 121.5
q0 74 -40.5 115.5t-111.5 41.5q-53 0 -53 -40v-229q0 -55 67 -55zM247 793q-14 0 -25 11l-116 122q-10 11 -3 19q8 10 20 2l133 -91l134 90q14 9 20 -1q7 -8 -3 -19l-116 -122q-11 -11 -25 -11h-19z" />
    <glyph glyph-name="uni0156" unicode="&#x156;" horiz-adv-x="513" 
d="M450 -9q-87 0 -111 114l-23 111q-11 54 -24.5 82t-37 38t-64.5 10q-14 0 -22 -7.5t-8 -18.5v-250q0 -21 8 -28.5t36 -12.5l37 -6q11 -2 11 -11q0 -12 -15 -12h-203q-15 0 -15 11q0 9 13 12l23 4q21 4 27.5 11t6.5 28v588q0 21 -6.5 28t-27.5 11l-23 4q-13 3 -13 12
q0 11 15 11h203q59 0 105 -23t72 -63.5t26 -93.5q0 -63 -38 -113.5t-96 -71.5q-7 -2 -7.5 -6.5t6.5 -7.5q32 -15 50.5 -42t28.5 -72l22 -102q11 -52 26 -74t38 -22q8 0 14.5 2.5t16.5 9.5q8 5 15 2.5t7 -10.5q0 -17 -22 -29.5t-51 -12.5zM227 371q68 0 103 45.5t35 121.5
q0 74 -40.5 115.5t-111.5 41.5q-53 0 -53 -40v-229q0 -55 67 -55zM278 -67q25 0 39.5 -20.5t14.5 -51.5q0 -49 -20.5 -85.5t-65.5 -74.5q-12 -10 -20 -4q-9 7 3 19q29 29 40 48t11 38q0 16 -7.5 25t-17.5 15.5t-17.5 16t-7.5 27.5q0 20 13.5 33.5t34.5 13.5z" />
    <glyph glyph-name="S" unicode="S" horiz-adv-x="407" 
d="M184 -9q-20 0 -44.5 4t-46 10t-33.5 13q-7 4 -10.5 8.5t-3.5 15.5l-5 157q0 20 13 20q11 0 15 -18l9 -38q34 -143 127 -143q50 0 79.5 33.5t29.5 94.5q0 59 -30.5 110t-97.5 101q-74 53 -108 102.5t-34 105.5q0 74 51.5 118.5t131.5 44.5q30 0 58 -7t46 -20q6 -4 9.5 -9
t3.5 -13l3 -151q0 -17 -13 -17q-9 0 -13 14l-7 25q-22 77 -45.5 112.5t-67.5 35.5q-43 0 -68.5 -28t-25.5 -79q0 -43 28 -82t98 -95q75 -61 109.5 -117.5t34.5 -120.5q0 -56 -25 -98t-68.5 -65.5t-99.5 -23.5z" />
    <glyph glyph-name="Sacute" unicode="&#x15a;" horiz-adv-x="407" 
d="M184 -9q-20 0 -44.5 4t-46 10t-33.5 13q-7 4 -10.5 8.5t-3.5 15.5l-5 157q0 20 13 20q11 0 15 -18l9 -38q34 -143 127 -143q50 0 79.5 33.5t29.5 94.5q0 59 -30.5 110t-97.5 101q-74 53 -108 102.5t-34 105.5q0 74 51.5 118.5t131.5 44.5q30 0 58 -7t46 -20q6 -4 9.5 -9
t3.5 -13l3 -151q0 -17 -13 -17q-9 0 -13 14l-7 25q-22 77 -45.5 112.5t-67.5 35.5q-43 0 -68.5 -28t-25.5 -79q0 -43 28 -82t98 -95q75 -61 109.5 -117.5t34.5 -120.5q0 -56 -25 -98t-68.5 -65.5t-99.5 -23.5zM137 796q-17 -7 -23 4q-7 11 9 22l144 112q10 8 19 12t22 4
q18 0 28 -10.5t10 -22.5q0 -13 -6.5 -22.5t-24.5 -17.5z" />
    <glyph glyph-name="Scaron" unicode="&#x160;" horiz-adv-x="407" 
d="M184 -9q-20 0 -44.5 4t-46 10t-33.5 13q-7 4 -10.5 8.5t-3.5 15.5l-5 157q0 20 13 20q11 0 15 -18l9 -38q34 -143 127 -143q50 0 79.5 33.5t29.5 94.5q0 59 -30.5 110t-97.5 101q-74 53 -108 102.5t-34 105.5q0 74 51.5 118.5t131.5 44.5q30 0 58 -7t46 -20q6 -4 9.5 -9
t3.5 -13l3 -151q0 -17 -13 -17q-9 0 -13 14l-7 25q-22 77 -45.5 112.5t-67.5 35.5q-43 0 -68.5 -28t-25.5 -79q0 -43 28 -82t98 -95q75 -61 109.5 -117.5t34.5 -120.5q0 -56 -25 -98t-68.5 -65.5t-99.5 -23.5zM219 793q-14 0 -25 11l-116 122q-10 11 -3 19q8 10 20 2
l133 -91l134 90q14 9 20 -1q7 -8 -3 -19l-116 -122q-11 -11 -25 -11h-19z" />
    <glyph glyph-name="Scedilla" unicode="&#x15e;" horiz-adv-x="407" 
d="M184 -9q-20 0 -44.5 4t-46 10t-33.5 13q-7 4 -10.5 8.5t-3.5 15.5l-5 157q0 20 13 20q11 0 15 -18l9 -38q34 -143 127 -143q50 0 79.5 33.5t29.5 94.5q0 59 -30.5 110t-97.5 101q-74 53 -108 102.5t-34 105.5q0 74 51.5 118.5t131.5 44.5q30 0 58 -7t46 -20q6 -4 9.5 -9
t3.5 -13l3 -151q0 -17 -13 -17q-9 0 -13 14l-7 25q-22 77 -45.5 112.5t-67.5 35.5q-43 0 -68.5 -28t-25.5 -79q0 -43 28 -82t98 -95q75 -61 109.5 -117.5t34.5 -120.5q0 -56 -25 -98t-68.5 -65.5t-99.5 -23.5zM225 12l-10 -55q-1 -6 4 -6q40 -7 58.5 -31t18.5 -53
q0 -39 -28 -60.5t-66 -21.5q-39 0 -63 18t-24 41q0 11 6 18t17 7q15 0 20 -9.5t8.5 -22.5t11 -22.5t26.5 -9.5q24 0 35 16.5t11 40.5q0 22 -14 36.5t-41 17.5q-9 2 -8 13l15 83h23z" />
    <glyph glyph-name="uni0218" unicode="&#x218;" horiz-adv-x="407" 
d="M184 -9q-20 0 -44.5 4t-46 10t-33.5 13q-7 4 -10.5 8.5t-3.5 15.5l-5 157q0 20 13 20q11 0 15 -18l9 -38q34 -143 127 -143q50 0 79.5 33.5t29.5 94.5q0 59 -30.5 110t-97.5 101q-74 53 -108 102.5t-34 105.5q0 74 51.5 118.5t131.5 44.5q30 0 58 -7t46 -20q6 -4 9.5 -9
t3.5 -13l3 -151q0 -17 -13 -17q-9 0 -13 14l-7 25q-22 77 -45.5 112.5t-67.5 35.5q-43 0 -68.5 -28t-25.5 -79q0 -43 28 -82t98 -95q75 -61 109.5 -117.5t34.5 -120.5q0 -56 -25 -98t-68.5 -65.5t-99.5 -23.5zM210 -67q25 0 39.5 -20.5t14.5 -51.5q0 -49 -20.5 -85.5
t-65.5 -74.5q-12 -10 -20 -4q-9 7 3 19q29 29 40 48t11 38q0 16 -7.5 25t-17.5 15.5t-17.5 16t-7.5 27.5q0 20 13.5 33.5t34.5 13.5z" />
    <glyph glyph-name="uni1E9E" unicode="&#x1e9e;" horiz-adv-x="529" 
d="M341 -9q-31 0 -61.5 8.5t-48.5 18.5q-7 4 -10.5 8.5t-3.5 15.5v147q0 20 13 20t16 -18l11 -58q10 -52 35.5 -82.5t59.5 -30.5q19 0 38 8.5t32.5 34.5t13.5 76q0 59 -38 121t-103 110l-15 11l156 221q-21 49 -55.5 74t-77.5 25q-39 0 -71.5 -17.5t-52 -59t-19.5 -113.5
v-487q0 -24 -24 -24h-102q-15 0 -15 11q0 9 13 12l23 4q21 4 27.5 11t6.5 28v429q0 74 28.5 126.5t77 80.5t108.5 28q72 0 114 -25t79 -78l-147 -209q67 -59 108.5 -123t41.5 -126q0 -61 -23 -100.5t-59 -58.5t-76 -19z" />
    <glyph glyph-name="T" unicode="T" horiz-adv-x="461" 
d="M118 0q-15 0 -15 11t13 12l45 7q20 3 27 10.5t7 28.5v600q0 14 -6 20t-25 6q-37 0 -73 -32t-47 -103l-5 -33q-2 -13 -14 -13q-15 0 -13 17l9 181q2 23 18 23q7 0 13 -3.5t20.5 -7.5t46.5 -4h223q32 0 46.5 4t21 7.5t12.5 3.5q16 0 18 -23l9 -181q2 -17 -13 -17
q-12 0 -14 13l-5 33q-10 71 -46 103t-74 32q-19 0 -25 -6t-6 -20v-600q0 -21 7.5 -28.5t26.5 -10.5l45 -7q13 -1 13 -12t-15 -11h-225z" />
    <glyph glyph-name="Tcaron" unicode="&#x164;" horiz-adv-x="461" 
d="M118 0q-15 0 -15 11t13 12l45 7q20 3 27 10.5t7 28.5v600q0 14 -6 20t-25 6q-37 0 -73 -32t-47 -103l-5 -33q-2 -13 -14 -13q-15 0 -13 17l9 181q2 23 18 23q7 0 13 -3.5t20.5 -7.5t46.5 -4h223q32 0 46.5 4t21 7.5t12.5 3.5q16 0 18 -23l9 -181q2 -17 -13 -17
q-12 0 -14 13l-5 33q-10 71 -46 103t-74 32q-19 0 -25 -6t-6 -20v-600q0 -21 7.5 -28.5t26.5 -10.5l45 -7q13 -1 13 -12t-15 -11h-225zM221 793q-14 0 -25 11l-116 122q-10 11 -3 19q8 10 20 2l133 -91l134 90q14 9 20 -1q7 -8 -3 -19l-116 -122q-11 -11 -25 -11h-19z" />
    <glyph glyph-name="uni021A" unicode="&#x21a;" horiz-adv-x="461" 
d="M118 0q-15 0 -15 11t13 12l45 7q20 3 27 10.5t7 28.5v600q0 14 -6 20t-25 6q-37 0 -73 -32t-47 -103l-5 -33q-2 -13 -14 -13q-15 0 -13 17l9 181q2 23 18 23q7 0 13 -3.5t20.5 -7.5t46.5 -4h223q32 0 46.5 4t21 7.5t12.5 3.5q16 0 18 -23l9 -181q2 -17 -13 -17
q-12 0 -14 13l-5 33q-10 71 -46 103t-74 32q-19 0 -25 -6t-6 -20v-600q0 -21 7.5 -28.5t26.5 -10.5l45 -7q13 -1 13 -12t-15 -11h-225zM232 -67q25 0 39.5 -20.5t14.5 -51.5q0 -49 -20.5 -85.5t-65.5 -74.5q-12 -10 -20 -4q-9 7 3 19q29 29 40 48t11 38q0 16 -7.5 25
t-17.5 15.5t-17.5 16t-7.5 27.5q0 20 13.5 33.5t34.5 13.5z" />
    <glyph glyph-name="U" unicode="U" horiz-adv-x="536" 
d="M275 -9q-54 0 -95.5 25.5t-64.5 71t-23 104.5v462q0 21 -6.5 28t-27.5 11l-23 4q-13 3 -13 12q0 11 15 11h183q15 0 15 -12q0 -9 -11 -11l-27 -4q-20 -3 -27 -11t-7 -29v-462q0 -76 34 -118t95 -42q62 0 96 42t34 118v442q0 54 -34 60l-27 4q-11 2 -11 11q0 12 15 12h144
q15 0 15 -11q0 -9 -13 -12l-23 -4q-34 -6 -34 -59v-442q0 -91 -49 -146t-130 -55z" />
    <glyph glyph-name="Uacute" unicode="&#xda;" horiz-adv-x="536" 
d="M275 -9q-54 0 -95.5 25.5t-64.5 71t-23 104.5v462q0 21 -6.5 28t-27.5 11l-23 4q-13 3 -13 12q0 11 15 11h183q15 0 15 -12q0 -9 -11 -11l-27 -4q-20 -3 -27 -11t-7 -29v-462q0 -76 34 -118t95 -42q62 0 96 42t34 118v442q0 54 -34 60l-27 4q-11 2 -11 11q0 12 15 12h144
q15 0 15 -11q0 -9 -13 -12l-23 -4q-34 -6 -34 -59v-442q0 -91 -49 -146t-130 -55zM196 796q-17 -7 -23 4q-7 11 9 22l144 112q10 8 19 12t22 4q18 0 28 -10.5t10 -22.5q0 -13 -6.5 -22.5t-24.5 -17.5z" />
    <glyph glyph-name="Ubreve" unicode="&#x16c;" horiz-adv-x="536" 
d="M275 -9q-54 0 -95.5 25.5t-64.5 71t-23 104.5v462q0 21 -6.5 28t-27.5 11l-23 4q-13 3 -13 12q0 11 15 11h183q15 0 15 -12q0 -9 -11 -11l-27 -4q-20 -3 -27 -11t-7 -29v-462q0 -76 34 -118t95 -42q62 0 96 42t34 118v442q0 54 -34 60l-27 4q-11 2 -11 11q0 12 15 12h144
q15 0 15 -11q0 -9 -13 -12l-23 -4q-34 -6 -34 -59v-442q0 -91 -49 -146t-130 -55zM288 789q-53 0 -92.5 35.5t-50.5 97.5q-3 18 10 18q11 0 14 -12q11 -43 43 -62.5t76 -19.5t76 19.5t43 62.5q3 12 14 12q13 0 10 -18q-11 -62 -50.5 -97.5t-92.5 -35.5z" />
    <glyph glyph-name="Ucircumflex" unicode="&#xdb;" horiz-adv-x="536" 
d="M275 -9q-54 0 -95.5 25.5t-64.5 71t-23 104.5v462q0 21 -6.5 28t-27.5 11l-23 4q-13 3 -13 12q0 11 15 11h183q15 0 15 -12q0 -9 -11 -11l-27 -4q-20 -3 -27 -11t-7 -29v-462q0 -76 34 -118t95 -42q62 0 96 42t34 118v442q0 54 -34 60l-27 4q-11 2 -11 11q0 12 15 12h144
q15 0 15 -11q0 -9 -13 -12l-23 -4q-34 -6 -34 -59v-442q0 -91 -49 -146t-130 -55zM154 796q-12 -8 -20 2q-7 8 3 19l116 122q11 11 25 11h19q14 0 25 -11l116 -122q10 -11 3 -19q-6 -10 -20 -1l-134 90z" />
    <glyph glyph-name="Udieresis" unicode="&#xdc;" horiz-adv-x="536" 
d="M275 -9q-54 0 -95.5 25.5t-64.5 71t-23 104.5v462q0 21 -6.5 28t-27.5 11l-23 4q-13 3 -13 12q0 11 15 11h183q15 0 15 -12q0 -9 -11 -11l-27 -4q-20 -3 -27 -11t-7 -29v-462q0 -76 34 -118t95 -42q62 0 96 42t34 118v442q0 54 -34 60l-27 4q-11 2 -11 11q0 12 15 12h144
q15 0 15 -11q0 -9 -13 -12l-23 -4q-34 -6 -34 -59v-442q0 -91 -49 -146t-130 -55zM193 815q-21 0 -35.5 14.5t-14.5 36.5t14.5 36t35.5 14t35 -14t14 -36t-14 -36.5t-35 -14.5zM383 815q-21 0 -35.5 14.5t-14.5 36.5t14.5 36t35.5 14t35 -14t14 -36t-14 -36.5t-35 -14.5z
" />
    <glyph glyph-name="Ugrave" unicode="&#xd9;" horiz-adv-x="536" 
d="M275 -9q-54 0 -95.5 25.5t-64.5 71t-23 104.5v462q0 21 -6.5 28t-27.5 11l-23 4q-13 3 -13 12q0 11 15 11h183q15 0 15 -12q0 -9 -11 -11l-27 -4q-20 -3 -27 -11t-7 -29v-462q0 -76 34 -118t95 -42q62 0 96 42t34 118v442q0 54 -34 60l-27 4q-11 2 -11 11q0 12 15 12h144
q15 0 15 -11q0 -9 -13 -12l-23 -4q-34 -6 -34 -59v-442q0 -91 -49 -146t-130 -55zM379 796l-178 81q-18 8 -24.5 17.5t-6.5 22.5q0 12 10 22.5t28 10.5q13 0 22 -4t19 -12l144 -112q16 -11 9 -22q-6 -11 -23 -4z" />
    <glyph glyph-name="Uhungarumlaut" unicode="&#x170;" horiz-adv-x="536" 
d="M275 -9q-54 0 -95.5 25.5t-64.5 71t-23 104.5v462q0 21 -6.5 28t-27.5 11l-23 4q-13 3 -13 12q0 11 15 11h183q15 0 15 -12q0 -9 -11 -11l-27 -4q-20 -3 -27 -11t-7 -29v-462q0 -76 34 -118t95 -42q62 0 96 42t34 118v442q0 54 -34 60l-27 4q-11 2 -11 11q0 12 15 12h144
q15 0 15 -11q0 -9 -13 -12l-23 -4q-34 -6 -34 -59v-442q0 -91 -49 -146t-130 -55zM199 800q-13 -10 -22 -4t-1 23l52 95q10 19 20.5 27.5t26.5 8.5q17 0 26.5 -9t9.5 -22q0 -23 -28 -47zM349 800q-13 -10 -22 -4t-1 23l52 95q10 19 20.5 27.5t26.5 8.5q17 0 26.5 -9t9.5 -22
q0 -23 -28 -47z" />
    <glyph glyph-name="Umacron" unicode="&#x16a;" horiz-adv-x="536" 
d="M275 -9q-54 0 -95.5 25.5t-64.5 71t-23 104.5v462q0 21 -6.5 28t-27.5 11l-23 4q-13 3 -13 12q0 11 15 11h183q15 0 15 -12q0 -9 -11 -11l-27 -4q-20 -3 -27 -11t-7 -29v-462q0 -76 34 -118t95 -42q62 0 96 42t34 118v442q0 54 -34 60l-27 4q-11 2 -11 11q0 12 15 12h144
q15 0 15 -11q0 -9 -13 -12l-23 -4q-34 -6 -34 -59v-442q0 -91 -49 -146t-130 -55zM154 846q-12 0 -12 12v15q0 12 12 12h267q12 0 12 -12v-15q0 -12 -12 -12h-267z" />
    <glyph glyph-name="Uogonek" unicode="&#x172;" horiz-adv-x="536" 
d="M275 -9q-54 0 -95.5 25.5t-64.5 71t-23 104.5v462q0 21 -6.5 28t-27.5 11l-23 4q-13 3 -13 12q0 11 15 11h183q15 0 15 -12q0 -9 -11 -11l-27 -4q-20 -3 -27 -11t-7 -29v-462q0 -76 34 -118t95 -42q62 0 96 42t34 118v442q0 54 -34 60l-27 4q-11 2 -11 11q0 12 15 12h144
q15 0 15 -11q0 -9 -13 -12l-23 -4q-34 -6 -34 -59v-442q0 -91 -49 -146t-130 -55zM274 -216q-28 0 -51 18t-23 55q0 28 16.5 58t44.5 55.5t63 39.5l10 -10q-44 -25 -66 -60t-22 -73q0 -29 11 -41t28 -12q24 0 42 21q11 14 20 3q6 -9 -5 -21q-14 -16 -30 -24.5t-38 -8.5z" />
    <glyph glyph-name="Uring" unicode="&#x16e;" horiz-adv-x="536" 
d="M275 -9q-54 0 -95.5 25.5t-64.5 71t-23 104.5v462q0 21 -6.5 28t-27.5 11l-23 4q-13 3 -13 12q0 11 15 11h183q15 0 15 -12q0 -9 -11 -11l-27 -4q-20 -3 -27 -11t-7 -29v-462q0 -76 34 -118t95 -42q62 0 96 42t34 118v442q0 54 -34 60l-27 4q-11 2 -11 11q0 12 15 12h144
q15 0 15 -11q0 -9 -13 -12l-23 -4q-34 -6 -34 -59v-442q0 -91 -49 -146t-130 -55zM288 771q-46 0 -77 31.5t-31 76.5q0 44 31 75.5t77 31.5t76.5 -31.5t30.5 -75.5q0 -45 -30.5 -76.5t-76.5 -31.5zM288 798q34 0 55.5 23.5t21.5 57.5q0 33 -21.5 56.5t-55.5 23.5t-56 -23.5
t-22 -56.5q0 -34 22 -57.5t56 -23.5z" />
    <glyph glyph-name="V" unicode="V" horiz-adv-x="457" 
d="M229 -10q-4 0 -9 3t-7 13l-158 634q-7 28 -15.5 39t-28.5 15l-15 3q-14 3 -14 13t15 10h171q14 0 14 -11t-17 -12l-19 -2q-17 -1 -21.5 -10.5t0.5 -31.5l116 -481q2 -6 6.5 -6t5.5 6l115 460q14 57 -30 63l-15 2q-17 3 -17 12q0 11 14 11h140q15 0 15 -10t-14 -13l-15 -3
q-19 -4 -29.5 -19.5t-17.5 -43.5l-155 -625q-2 -10 -6.5 -13t-8.5 -3z" />
    <glyph glyph-name="W" unicode="W" horiz-adv-x="651" 
d="M432 -10q-4 0 -8 3t-6 13l-77 310q-1 8 -6 7.5t-7 -7.5l-86 -310q-3 -10 -6.5 -13t-7.5 -3t-8.5 3t-6.5 13l-158 634q-7 28 -15.5 39t-28.5 15l-15 3q-14 3 -14 13t15 10h161q14 0 14 -11q0 -9 -15 -12l-11 -2q-17 -3 -21.5 -11.5t0.5 -30.5l118 -488q2 -7 6.5 -7t6.5 7
l45 163q11 38 11 70t-10 71l-42 171q-7 28 -13.5 40t-17.5 14l-15 3q-14 3 -14 13t15 10h137q14 0 14 -11q0 -9 -15 -12l-11 -2q-13 -2 -15.5 -11t2.5 -31l34 -143q2 -7 6.5 -7t6.5 7l36 122q11 38 8.5 50t-11.5 13l-11 2q-15 3 -15 12q0 11 14 11h95q17 0 17 -11
q0 -10 -17 -12l-11 -1q-13 -1 -21.5 -16t-18.5 -49l-38 -131q-11 -37 -11.5 -69.5t8.5 -71.5l45 -188q2 -7 6.5 -7t5.5 7l115 461q14 58 -18 63l-11 2q-15 3 -15 13t14 10h112q17 0 17 -11q0 -10 -17 -12l-11 -1q-13 -1 -22.5 -15.5t-17.5 -49.5l-155 -625q-2 -10 -6 -13
t-8 -3z" />
    <glyph glyph-name="Wacute" unicode="&#x1e82;" horiz-adv-x="651" 
d="M432 -10q-4 0 -8 3t-6 13l-77 310q-1 8 -6 7.5t-7 -7.5l-86 -310q-3 -10 -6.5 -13t-7.5 -3t-8.5 3t-6.5 13l-158 634q-7 28 -15.5 39t-28.5 15l-15 3q-14 3 -14 13t15 10h161q14 0 14 -11q0 -9 -15 -12l-11 -2q-17 -3 -21.5 -11.5t0.5 -30.5l118 -488q2 -7 6.5 -7t6.5 7
l45 163q11 38 11 70t-10 71l-42 171q-7 28 -13.5 40t-17.5 14l-15 3q-14 3 -14 13t15 10h137q14 0 14 -11q0 -9 -15 -12l-11 -2q-13 -2 -15.5 -11t2.5 -31l34 -143q2 -7 6.5 -7t6.5 7l36 122q11 38 8.5 50t-11.5 13l-11 2q-15 3 -15 12q0 11 14 11h95q17 0 17 -11
q0 -10 -17 -12l-11 -1q-13 -1 -21.5 -16t-18.5 -49l-38 -131q-11 -37 -11.5 -69.5t8.5 -71.5l45 -188q2 -7 6.5 -7t5.5 7l115 461q14 58 -18 63l-11 2q-15 3 -15 13t14 10h112q17 0 17 -11q0 -10 -17 -12l-11 -1q-13 -1 -22.5 -15.5t-17.5 -49.5l-155 -625q-2 -10 -6 -13
t-8 -3zM254 796q-17 -7 -23 4q-7 11 9 22l144 112q10 8 19 12t22 4q18 0 28 -10.5t10 -22.5q0 -13 -6.5 -22.5t-24.5 -17.5z" />
    <glyph glyph-name="Wcircumflex" unicode="&#x174;" horiz-adv-x="651" 
d="M432 -10q-4 0 -8 3t-6 13l-77 310q-1 8 -6 7.5t-7 -7.5l-86 -310q-3 -10 -6.5 -13t-7.5 -3t-8.5 3t-6.5 13l-158 634q-7 28 -15.5 39t-28.5 15l-15 3q-14 3 -14 13t15 10h161q14 0 14 -11q0 -9 -15 -12l-11 -2q-17 -3 -21.5 -11.5t0.5 -30.5l118 -488q2 -7 6.5 -7t6.5 7
l45 163q11 38 11 70t-10 71l-42 171q-7 28 -13.5 40t-17.5 14l-15 3q-14 3 -14 13t15 10h137q14 0 14 -11q0 -9 -15 -12l-11 -2q-13 -2 -15.5 -11t2.5 -31l34 -143q2 -7 6.5 -7t6.5 7l36 122q11 38 8.5 50t-11.5 13l-11 2q-15 3 -15 12q0 11 14 11h95q17 0 17 -11
q0 -10 -17 -12l-11 -1q-13 -1 -21.5 -16t-18.5 -49l-38 -131q-11 -37 -11.5 -69.5t8.5 -71.5l45 -188q2 -7 6.5 -7t5.5 7l115 461q14 58 -18 63l-11 2q-15 3 -15 13t14 10h112q17 0 17 -11q0 -10 -17 -12l-11 -1q-13 -1 -22.5 -15.5t-17.5 -49.5l-155 -625q-2 -10 -6 -13
t-8 -3zM212 796q-12 -8 -20 2q-7 8 3 19l116 122q11 11 25 11h19q14 0 25 -11l116 -122q10 -11 3 -19q-6 -10 -20 -1l-134 90z" />
    <glyph glyph-name="Wdieresis" unicode="&#x1e84;" horiz-adv-x="651" 
d="M432 -10q-4 0 -8 3t-6 13l-77 310q-1 8 -6 7.5t-7 -7.5l-86 -310q-3 -10 -6.5 -13t-7.5 -3t-8.5 3t-6.5 13l-158 634q-7 28 -15.5 39t-28.5 15l-15 3q-14 3 -14 13t15 10h161q14 0 14 -11q0 -9 -15 -12l-11 -2q-17 -3 -21.5 -11.5t0.5 -30.5l118 -488q2 -7 6.5 -7t6.5 7
l45 163q11 38 11 70t-10 71l-42 171q-7 28 -13.5 40t-17.5 14l-15 3q-14 3 -14 13t15 10h137q14 0 14 -11q0 -9 -15 -12l-11 -2q-13 -2 -15.5 -11t2.5 -31l34 -143q2 -7 6.5 -7t6.5 7l36 122q11 38 8.5 50t-11.5 13l-11 2q-15 3 -15 12q0 11 14 11h95q17 0 17 -11
q0 -10 -17 -12l-11 -1q-13 -1 -21.5 -16t-18.5 -49l-38 -131q-11 -37 -11.5 -69.5t8.5 -71.5l45 -188q2 -7 6.5 -7t5.5 7l115 461q14 58 -18 63l-11 2q-15 3 -15 13t14 10h112q17 0 17 -11q0 -10 -17 -12l-11 -1q-13 -1 -22.5 -15.5t-17.5 -49.5l-155 -625q-2 -10 -6 -13
t-8 -3zM251 815q-21 0 -35.5 14.5t-14.5 36.5t14.5 36t35.5 14t35 -14t14 -36t-14 -36.5t-35 -14.5zM441 815q-21 0 -35.5 14.5t-14.5 36.5t14.5 36t35.5 14t35 -14t14 -36t-14 -36.5t-35 -14.5z" />
    <glyph glyph-name="Wgrave" unicode="&#x1e80;" horiz-adv-x="651" 
d="M432 -10q-4 0 -8 3t-6 13l-77 310q-1 8 -6 7.5t-7 -7.5l-86 -310q-3 -10 -6.5 -13t-7.5 -3t-8.5 3t-6.5 13l-158 634q-7 28 -15.5 39t-28.5 15l-15 3q-14 3 -14 13t15 10h161q14 0 14 -11q0 -9 -15 -12l-11 -2q-17 -3 -21.5 -11.5t0.5 -30.5l118 -488q2 -7 6.5 -7t6.5 7
l45 163q11 38 11 70t-10 71l-42 171q-7 28 -13.5 40t-17.5 14l-15 3q-14 3 -14 13t15 10h137q14 0 14 -11q0 -9 -15 -12l-11 -2q-13 -2 -15.5 -11t2.5 -31l34 -143q2 -7 6.5 -7t6.5 7l36 122q11 38 8.5 50t-11.5 13l-11 2q-15 3 -15 12q0 11 14 11h95q17 0 17 -11
q0 -10 -17 -12l-11 -1q-13 -1 -21.5 -16t-18.5 -49l-38 -131q-11 -37 -11.5 -69.5t8.5 -71.5l45 -188q2 -7 6.5 -7t5.5 7l115 461q14 58 -18 63l-11 2q-15 3 -15 13t14 10h112q17 0 17 -11q0 -10 -17 -12l-11 -1q-13 -1 -22.5 -15.5t-17.5 -49.5l-155 -625q-2 -10 -6 -13
t-8 -3zM437 796l-178 81q-18 8 -24.5 17.5t-6.5 22.5q0 12 10 22.5t28 10.5q13 0 22 -4t19 -12l144 -112q16 -11 9 -22q-6 -11 -23 -4z" />
    <glyph glyph-name="X" unicode="X" horiz-adv-x="546" 
d="M38 0q-10 0 -14 4t-4 8q0 10 15 13l16 3q32 6 50.5 19.5t31.5 43.5l100 238q5 11 6.5 22.5t-4.5 24.5l-125 277q-10 23 -21.5 31t-24.5 10l-19 3q-16 3 -16 13t17 10h176q18 0 18 -10t-17 -13l-19 -3q-17 -3 -23.5 -12t2.5 -29l95 -213q4 -9 9.5 -9t9.5 9l86 203
q9 22 6 32.5t-20 14.5l-28 6q-17 4 -17 14t18 10h153q11 0 14.5 -3.5t3.5 -8.5q0 -10 -15 -13l-16 -3q-25 -4 -42 -18.5t-30 -44.5l-95 -222q-5 -13 -5.5 -25t6.5 -26l129 -289q11 -24 22.5 -31t23.5 -9l19 -3q17 -3 17 -14q0 -10 -18 -10h-177q-18 0 -18 12q0 9 16 12l20 3
q17 2 24 11.5t-1 28.5l-103 229q-4 9 -9.5 9t-9.5 -9l-90 -219q-9 -22 -6 -32.5t20 -14.5l28 -6q17 -4 17 -14t-18 -10h-164z" />
    <glyph glyph-name="Y" unicode="Y" horiz-adv-x="477" 
d="M127 0q-15 0 -15 11t13 12l45 7q20 3 27 10.5t7 28.5v236q0 22 -10 43l-147 308q-7 17 -16 26t-26 13l-9 2q-14 3 -14 13t15 10h171q14 0 14 -11t-17 -12l-19 -2q-17 -1 -24 -11t3 -31l123 -262q4 -7 10 -7t10 7l118 241q13 26 6.5 42.5t-29.5 19.5l-22 3q-17 3 -17 12
q0 11 14 11h142q15 0 15 -10t-14 -13l-10 -2q-14 -3 -24.5 -17t-27.5 -47l-131 -263q-7 -14 -10 -26.5t-3 -28.5v-244q0 -21 7.5 -28.5t26.5 -10.5l45 -7q13 -1 13 -12t-15 -11h-225z" />
    <glyph glyph-name="Yacute" unicode="&#xdd;" horiz-adv-x="477" 
d="M127 0q-15 0 -15 11t13 12l45 7q20 3 27 10.5t7 28.5v236q0 22 -10 43l-147 308q-7 17 -16 26t-26 13l-9 2q-14 3 -14 13t15 10h171q14 0 14 -11t-17 -12l-19 -2q-17 -1 -24 -11t3 -31l123 -262q4 -7 10 -7t10 7l118 241q13 26 6.5 42.5t-29.5 19.5l-22 3q-17 3 -17 12
q0 11 14 11h142q15 0 15 -10t-14 -13l-10 -2q-14 -3 -24.5 -17t-27.5 -47l-131 -263q-7 -14 -10 -26.5t-3 -28.5v-244q0 -21 7.5 -28.5t26.5 -10.5l45 -7q13 -1 13 -12t-15 -11h-225zM167 796q-17 -7 -23 4q-7 11 9 22l144 112q10 8 19 12t22 4q18 0 28 -10.5t10 -22.5
q0 -13 -6.5 -22.5t-24.5 -17.5z" />
    <glyph glyph-name="Ycircumflex" unicode="&#x176;" horiz-adv-x="477" 
d="M127 0q-15 0 -15 11t13 12l45 7q20 3 27 10.5t7 28.5v236q0 22 -10 43l-147 308q-7 17 -16 26t-26 13l-9 2q-14 3 -14 13t15 10h171q14 0 14 -11t-17 -12l-19 -2q-17 -1 -24 -11t3 -31l123 -262q4 -7 10 -7t10 7l118 241q13 26 6.5 42.5t-29.5 19.5l-22 3q-17 3 -17 12
q0 11 14 11h142q15 0 15 -10t-14 -13l-10 -2q-14 -3 -24.5 -17t-27.5 -47l-131 -263q-7 -14 -10 -26.5t-3 -28.5v-244q0 -21 7.5 -28.5t26.5 -10.5l45 -7q13 -1 13 -12t-15 -11h-225zM125 796q-12 -8 -20 2q-7 8 3 19l116 122q11 11 25 11h19q14 0 25 -11l116 -122
q10 -11 3 -19q-6 -10 -20 -1l-134 90z" />
    <glyph glyph-name="Ydieresis" unicode="&#x178;" horiz-adv-x="477" 
d="M127 0q-15 0 -15 11t13 12l45 7q20 3 27 10.5t7 28.5v236q0 22 -10 43l-147 308q-7 17 -16 26t-26 13l-9 2q-14 3 -14 13t15 10h171q14 0 14 -11t-17 -12l-19 -2q-17 -1 -24 -11t3 -31l123 -262q4 -7 10 -7t10 7l118 241q13 26 6.5 42.5t-29.5 19.5l-22 3q-17 3 -17 12
q0 11 14 11h142q15 0 15 -10t-14 -13l-10 -2q-14 -3 -24.5 -17t-27.5 -47l-131 -263q-7 -14 -10 -26.5t-3 -28.5v-244q0 -21 7.5 -28.5t26.5 -10.5l45 -7q13 -1 13 -12t-15 -11h-225zM164 815q-21 0 -35.5 14.5t-14.5 36.5t14.5 36t35.5 14t35 -14t14 -36t-14 -36.5
t-35 -14.5zM354 815q-21 0 -35.5 14.5t-14.5 36.5t14.5 36t35.5 14t35 -14t14 -36t-14 -36.5t-35 -14.5z" />
    <glyph glyph-name="Ygrave" unicode="&#x1ef2;" horiz-adv-x="477" 
d="M127 0q-15 0 -15 11t13 12l45 7q20 3 27 10.5t7 28.5v236q0 22 -10 43l-147 308q-7 17 -16 26t-26 13l-9 2q-14 3 -14 13t15 10h171q14 0 14 -11t-17 -12l-19 -2q-17 -1 -24 -11t3 -31l123 -262q4 -7 10 -7t10 7l118 241q13 26 6.5 42.5t-29.5 19.5l-22 3q-17 3 -17 12
q0 11 14 11h142q15 0 15 -10t-14 -13l-10 -2q-14 -3 -24.5 -17t-27.5 -47l-131 -263q-7 -14 -10 -26.5t-3 -28.5v-244q0 -21 7.5 -28.5t26.5 -10.5l45 -7q13 -1 13 -12t-15 -11h-225zM350 796l-178 81q-18 8 -24.5 17.5t-6.5 22.5q0 12 10 22.5t28 10.5q13 0 22 -4t19 -12
l144 -112q16 -11 9 -22q-6 -11 -23 -4z" />
    <glyph glyph-name="Z" unicode="Z" horiz-adv-x="427" 
d="M40 0q-14 0 -19.5 8t0.5 21l289 645q6 16 -11 16h-100q-37 0 -67.5 -23.5t-50.5 -89.5l-15 -50q-3 -13 -14 -13q-15 0 -13 17l18 186q2 23 17 23q7 0 13 -5t20.5 -10t46.5 -5h221q14 0 19.5 -7.5t-0.5 -21.5l-289 -645q-6 -16 11 -16h111q28 0 55 8t48 33.5t31 76.5
l13 67q3 13 15 13q14 0 12 -17l-12 -188q-2 -23 -25 -23h-324z" />
    <glyph glyph-name="Zacute" unicode="&#x179;" horiz-adv-x="427" 
d="M40 0q-14 0 -19.5 8t0.5 21l289 645q6 16 -11 16h-100q-37 0 -67.5 -23.5t-50.5 -89.5l-15 -50q-3 -13 -14 -13q-15 0 -13 17l18 186q2 23 17 23q7 0 13 -5t20.5 -10t46.5 -5h221q14 0 19.5 -7.5t-0.5 -21.5l-289 -645q-6 -16 11 -16h111q28 0 55 8t48 33.5t31 76.5
l13 67q3 13 15 13q14 0 12 -17l-12 -188q-2 -23 -25 -23h-324zM142 796q-17 -7 -23 4q-7 11 9 22l144 112q10 8 19 12t22 4q18 0 28 -10.5t10 -22.5q0 -13 -6.5 -22.5t-24.5 -17.5z" />
    <glyph glyph-name="Zcaron" unicode="&#x17d;" horiz-adv-x="427" 
d="M40 0q-14 0 -19.5 8t0.5 21l289 645q6 16 -11 16h-100q-37 0 -67.5 -23.5t-50.5 -89.5l-15 -50q-3 -13 -14 -13q-15 0 -13 17l18 186q2 23 17 23q7 0 13 -5t20.5 -10t46.5 -5h221q14 0 19.5 -7.5t-0.5 -21.5l-289 -645q-6 -16 11 -16h111q28 0 55 8t48 33.5t31 76.5
l13 67q3 13 15 13q14 0 12 -17l-12 -188q-2 -23 -25 -23h-324zM224 793q-14 0 -25 11l-116 122q-10 11 -3 19q8 10 20 2l133 -91l134 90q14 9 20 -1q7 -8 -3 -19l-116 -122q-11 -11 -25 -11h-19z" />
    <glyph glyph-name="Zdotaccent" unicode="&#x17b;" horiz-adv-x="427" 
d="M40 0q-14 0 -19.5 8t0.5 21l289 645q6 16 -11 16h-100q-37 0 -67.5 -23.5t-50.5 -89.5l-15 -50q-3 -13 -14 -13q-15 0 -13 17l18 186q2 23 17 23q7 0 13 -5t20.5 -10t46.5 -5h221q14 0 19.5 -7.5t-0.5 -21.5l-289 -645q-6 -16 11 -16h111q28 0 55 8t48 33.5t31 76.5
l13 67q3 13 15 13q14 0 12 -17l-12 -188q-2 -23 -25 -23h-324zM234 815q-21 0 -35.5 15t-14.5 38t14.5 37.5t35.5 14.5t35 -14.5t14 -37.5t-14 -38t-35 -15z" />
    <glyph glyph-name="a" unicode="a" horiz-adv-x="399" 
d="M120 -9q-42 0 -69 26.5t-27 70.5q0 43 27 81.5t74 69.5t107 50q13 4 13 17v91q0 48 -15 68.5t-41 20.5q-25 0 -45.5 -22.5t-29.5 -75.5q-5 -32 -21.5 -46.5t-33.5 -14.5q-28 0 -28 28q0 29 16.5 57.5t43.5 52t59 37.5t64 14q99 0 99 -115v-306q0 -42 21 -42q13 0 24 17.5
t11 59.5q0 16 13 16q12 0 12 -17q0 -73 -25.5 -105.5t-57.5 -32.5q-24 0 -38 19.5t-19 46.5q-1 10 -8.5 10.5t-14.5 -9.5q-24 -33 -49 -50t-62 -17zM147 37q26 0 48 18.5t36 49.5t14 70v73q0 19 -21 11q-61 -22 -94.5 -60.5t-33.5 -92.5q0 -69 51 -69z" />
    <glyph glyph-name="aacute" unicode="&#xe1;" horiz-adv-x="399" 
d="M120 -9q-42 0 -69 26.5t-27 70.5q0 43 27 81.5t74 69.5t107 50q13 4 13 17v91q0 48 -15 68.5t-41 20.5q-25 0 -45.5 -22.5t-29.5 -75.5q-5 -32 -21.5 -46.5t-33.5 -14.5q-28 0 -28 28q0 29 16.5 57.5t43.5 52t59 37.5t64 14q99 0 99 -115v-306q0 -42 21 -42q13 0 24 17.5
t11 59.5q0 16 13 16q12 0 12 -17q0 -73 -25.5 -105.5t-57.5 -32.5q-24 0 -38 19.5t-19 46.5q-1 10 -8.5 10.5t-14.5 -9.5q-24 -33 -49 -50t-62 -17zM147 37q26 0 48 18.5t36 49.5t14 70v73q0 19 -21 11q-61 -22 -94.5 -60.5t-33.5 -92.5q0 -69 51 -69zM108 586q-17 -7 -23 4
q-7 11 9 22l144 112q10 8 19 12t22 4q18 0 28 -10.5t10 -22.5q0 -13 -6.5 -22.5t-24.5 -17.5z" />
    <glyph glyph-name="abreve" unicode="&#x103;" horiz-adv-x="399" 
d="M120 -9q-42 0 -69 26.5t-27 70.5q0 43 27 81.5t74 69.5t107 50q13 4 13 17v91q0 48 -15 68.5t-41 20.5q-25 0 -45.5 -22.5t-29.5 -75.5q-5 -32 -21.5 -46.5t-33.5 -14.5q-28 0 -28 28q0 29 16.5 57.5t43.5 52t59 37.5t64 14q99 0 99 -115v-306q0 -42 21 -42q13 0 24 17.5
t11 59.5q0 16 13 16q12 0 12 -17q0 -73 -25.5 -105.5t-57.5 -32.5q-24 0 -38 19.5t-19 46.5q-1 10 -8.5 10.5t-14.5 -9.5q-24 -33 -49 -50t-62 -17zM147 37q26 0 48 18.5t36 49.5t14 70v73q0 19 -21 11q-61 -22 -94.5 -60.5t-33.5 -92.5q0 -69 51 -69zM200 579
q-53 0 -92.5 35.5t-50.5 97.5q-3 18 10 18q11 0 14 -12q11 -43 43 -62.5t76 -19.5t76 19.5t43 62.5q3 12 14 12q13 0 10 -18q-11 -62 -50.5 -97.5t-92.5 -35.5z" />
    <glyph glyph-name="uni01CE" unicode="&#x1ce;" horiz-adv-x="399" 
d="M120 -9q-42 0 -69 26.5t-27 70.5q0 43 27 81.5t74 69.5t107 50q13 4 13 17v91q0 48 -15 68.5t-41 20.5q-25 0 -45.5 -22.5t-29.5 -75.5q-5 -32 -21.5 -46.5t-33.5 -14.5q-28 0 -28 28q0 29 16.5 57.5t43.5 52t59 37.5t64 14q99 0 99 -115v-306q0 -42 21 -42q13 0 24 17.5
t11 59.5q0 16 13 16q12 0 12 -17q0 -73 -25.5 -105.5t-57.5 -32.5q-24 0 -38 19.5t-19 46.5q-1 10 -8.5 10.5t-14.5 -9.5q-24 -33 -49 -50t-62 -17zM147 37q26 0 48 18.5t36 49.5t14 70v73q0 19 -21 11q-61 -22 -94.5 -60.5t-33.5 -92.5q0 -69 51 -69zM190 583q-14 0 -25 11
l-116 122q-10 11 -3 19q8 10 20 2l133 -91l134 90q14 9 20 -1q7 -8 -3 -19l-116 -122q-11 -11 -25 -11h-19z" />
    <glyph glyph-name="acircumflex" unicode="&#xe2;" horiz-adv-x="399" 
d="M120 -9q-42 0 -69 26.5t-27 70.5q0 43 27 81.5t74 69.5t107 50q13 4 13 17v91q0 48 -15 68.5t-41 20.5q-25 0 -45.5 -22.5t-29.5 -75.5q-5 -32 -21.5 -46.5t-33.5 -14.5q-28 0 -28 28q0 29 16.5 57.5t43.5 52t59 37.5t64 14q99 0 99 -115v-306q0 -42 21 -42q13 0 24 17.5
t11 59.5q0 16 13 16q12 0 12 -17q0 -73 -25.5 -105.5t-57.5 -32.5q-24 0 -38 19.5t-19 46.5q-1 10 -8.5 10.5t-14.5 -9.5q-24 -33 -49 -50t-62 -17zM147 37q26 0 48 18.5t36 49.5t14 70v73q0 19 -21 11q-61 -22 -94.5 -60.5t-33.5 -92.5q0 -69 51 -69zM66 586q-12 -8 -20 2
q-7 8 3 19l116 122q11 11 25 11h19q14 0 25 -11l116 -122q10 -11 3 -19q-6 -10 -20 -1l-134 90z" />
    <glyph glyph-name="adieresis" unicode="&#xe4;" horiz-adv-x="399" 
d="M120 -9q-42 0 -69 26.5t-27 70.5q0 43 27 81.5t74 69.5t107 50q13 4 13 17v91q0 48 -15 68.5t-41 20.5q-25 0 -45.5 -22.5t-29.5 -75.5q-5 -32 -21.5 -46.5t-33.5 -14.5q-28 0 -28 28q0 29 16.5 57.5t43.5 52t59 37.5t64 14q99 0 99 -115v-306q0 -42 21 -42q13 0 24 17.5
t11 59.5q0 16 13 16q12 0 12 -17q0 -73 -25.5 -105.5t-57.5 -32.5q-24 0 -38 19.5t-19 46.5q-1 10 -8.5 10.5t-14.5 -9.5q-24 -33 -49 -50t-62 -17zM147 37q26 0 48 18.5t36 49.5t14 70v73q0 19 -21 11q-61 -22 -94.5 -60.5t-33.5 -92.5q0 -69 51 -69zM105 605
q-21 0 -35.5 14.5t-14.5 36.5t14.5 36t35.5 14t35 -14t14 -36t-14 -36.5t-35 -14.5zM295 605q-21 0 -35.5 14.5t-14.5 36.5t14.5 36t35.5 14t35 -14t14 -36t-14 -36.5t-35 -14.5z" />
    <glyph glyph-name="agrave" unicode="&#xe0;" horiz-adv-x="399" 
d="M120 -9q-42 0 -69 26.5t-27 70.5q0 43 27 81.5t74 69.5t107 50q13 4 13 17v91q0 48 -15 68.5t-41 20.5q-25 0 -45.5 -22.5t-29.5 -75.5q-5 -32 -21.5 -46.5t-33.5 -14.5q-28 0 -28 28q0 29 16.5 57.5t43.5 52t59 37.5t64 14q99 0 99 -115v-306q0 -42 21 -42q13 0 24 17.5
t11 59.5q0 16 13 16q12 0 12 -17q0 -73 -25.5 -105.5t-57.5 -32.5q-24 0 -38 19.5t-19 46.5q-1 10 -8.5 10.5t-14.5 -9.5q-24 -33 -49 -50t-62 -17zM147 37q26 0 48 18.5t36 49.5t14 70v73q0 19 -21 11q-61 -22 -94.5 -60.5t-33.5 -92.5q0 -69 51 -69zM291 586l-178 81
q-18 8 -24.5 17.5t-6.5 22.5q0 12 10 22.5t28 10.5q13 0 22 -4t19 -12l144 -112q16 -11 9 -22q-6 -11 -23 -4z" />
    <glyph glyph-name="amacron" unicode="&#x101;" horiz-adv-x="399" 
d="M120 -9q-42 0 -69 26.5t-27 70.5q0 43 27 81.5t74 69.5t107 50q13 4 13 17v91q0 48 -15 68.5t-41 20.5q-25 0 -45.5 -22.5t-29.5 -75.5q-5 -32 -21.5 -46.5t-33.5 -14.5q-28 0 -28 28q0 29 16.5 57.5t43.5 52t59 37.5t64 14q99 0 99 -115v-306q0 -42 21 -42q13 0 24 17.5
t11 59.5q0 16 13 16q12 0 12 -17q0 -73 -25.5 -105.5t-57.5 -32.5q-24 0 -38 19.5t-19 46.5q-1 10 -8.5 10.5t-14.5 -9.5q-24 -33 -49 -50t-62 -17zM147 37q26 0 48 18.5t36 49.5t14 70v73q0 19 -21 11q-61 -22 -94.5 -60.5t-33.5 -92.5q0 -69 51 -69zM66 636q-12 0 -12 12
v15q0 12 12 12h267q12 0 12 -12v-15q0 -12 -12 -12h-267z" />
    <glyph glyph-name="aogonek" unicode="&#x105;" horiz-adv-x="399" 
d="M120 -9q-42 0 -69 26.5t-27 70.5q0 43 27 81.5t74 69.5t107 50q13 4 13 17v91q0 48 -15 68.5t-41 20.5q-25 0 -45.5 -22.5t-29.5 -75.5q-5 -32 -21.5 -46.5t-33.5 -14.5q-28 0 -28 28q0 29 16.5 57.5t43.5 52t59 37.5t64 14q99 0 99 -115v-306q0 -42 21 -42q13 0 24 17.5
t11 59.5q0 16 13 16q12 0 12 -17q0 -73 -25.5 -105.5t-57.5 -32.5q-24 0 -38 19.5t-19 46.5q-1 10 -8.5 10.5t-14.5 -9.5q-24 -33 -49 -50t-62 -17zM147 37q26 0 48 18.5t36 49.5t14 70v73q0 19 -21 11q-61 -22 -94.5 -60.5t-33.5 -92.5q0 -69 51 -69zM284 -216
q-28 0 -51 18t-23 55q0 28 16.5 58t44.5 55.5t63 39.5l10 -10q-44 -25 -66 -60t-22 -73q0 -29 11 -41t28 -12q24 0 42 21q11 14 20 3q6 -9 -5 -21q-14 -16 -30 -24.5t-38 -8.5z" />
    <glyph glyph-name="aring" unicode="&#xe5;" horiz-adv-x="399" 
d="M120 -9q-42 0 -69 26.5t-27 70.5q0 43 27 81.5t74 69.5t107 50q13 4 13 17v91q0 48 -15 68.5t-41 20.5q-25 0 -45.5 -22.5t-29.5 -75.5q-5 -32 -21.5 -46.5t-33.5 -14.5q-28 0 -28 28q0 29 16.5 57.5t43.5 52t59 37.5t64 14q99 0 99 -115v-306q0 -42 21 -42q13 0 24 17.5
t11 59.5q0 16 13 16q12 0 12 -17q0 -73 -25.5 -105.5t-57.5 -32.5q-24 0 -38 19.5t-19 46.5q-1 10 -8.5 10.5t-14.5 -9.5q-24 -33 -49 -50t-62 -17zM147 37q26 0 48 18.5t36 49.5t14 70v73q0 19 -21 11q-61 -22 -94.5 -60.5t-33.5 -92.5q0 -69 51 -69zM200 561
q-46 0 -77 31.5t-31 76.5q0 44 31 75.5t77 31.5t76.5 -31.5t30.5 -75.5q0 -45 -30.5 -76.5t-76.5 -31.5zM200 588q34 0 55.5 23.5t21.5 57.5q0 33 -21.5 56.5t-55.5 23.5t-56 -23.5t-22 -56.5q0 -34 22 -57.5t56 -23.5z" />
    <glyph glyph-name="atilde" unicode="&#xe3;" horiz-adv-x="399" 
d="M120 -9q-42 0 -69 26.5t-27 70.5q0 43 27 81.5t74 69.5t107 50q13 4 13 17v91q0 48 -15 68.5t-41 20.5q-25 0 -45.5 -22.5t-29.5 -75.5q-5 -32 -21.5 -46.5t-33.5 -14.5q-28 0 -28 28q0 29 16.5 57.5t43.5 52t59 37.5t64 14q99 0 99 -115v-306q0 -42 21 -42q13 0 24 17.5
t11 59.5q0 16 13 16q12 0 12 -17q0 -73 -25.5 -105.5t-57.5 -32.5q-24 0 -38 19.5t-19 46.5q-1 10 -8.5 10.5t-14.5 -9.5q-24 -33 -49 -50t-62 -17zM147 37q26 0 48 18.5t36 49.5t14 70v73q0 19 -21 11q-61 -22 -94.5 -60.5t-33.5 -92.5q0 -69 51 -69zM263 597
q-26 0 -43.5 10t-31.5 22.5t-29 22.5t-36 10q-25 0 -39 -12.5t-23 -38.5q-4 -12 -14 -12q-13 0 -10 15q10 51 36.5 77.5t63.5 26.5q25 0 42.5 -10t32.5 -22.5t30.5 -22.5t34.5 -10q25 0 39 12.5t23 38.5q5 12 14 12q13 0 10 -15q-10 -51 -36 -77.5t-64 -26.5z" />
    <glyph glyph-name="ae" unicode="&#xe6;" horiz-adv-x="573" 
d="M119 -9q-41 0 -68 26.5t-27 70.5q0 43 27 81.5t74 69.5t107 50q13 4 13 17v91q0 48 -15 68.5t-41 20.5q-25 0 -45.5 -22.5t-29.5 -75.5q-5 -32 -21.5 -46.5t-33.5 -14.5q-28 0 -28 28q0 29 16.5 57.5t43.5 52t59 37.5t64 14q72 0 92 -61q21 29 49 45t61 16
q59 0 95.5 -48.5t36.5 -157.5q0 -33 -25 -33h-190q-20 0 -20 -23q0 -106 31 -159t79 -53q38 0 62 27t39 91q3 11 13 11q12 0 9 -20q-16 -89 -51 -124.5t-85 -35.5q-48 0 -84 32.5t-55 89.5l-40 -58q-21 -30 -48 -47t-64 -17zM330 302h101q48 0 48 50q0 65 -16 102t-48 37
q-39 0 -65.5 -45t-34.5 -128q-2 -16 15 -16zM147 37q26 0 48 18.5t36 49.5t14 70v73q0 19 -21 11q-61 -22 -94.5 -60.5t-33.5 -92.5q0 -69 51 -69z" />
    <glyph glyph-name="b" unicode="b" horiz-adv-x="443" 
d="M206 -9q-41 0 -79 26q-22 15 -40 -8q-10 -11 -15 -14.5t-10 -3.5q-11 0 -8 14q4 23 6 59t2 96v480q0 18 -5.5 24.5t-19.5 8.5l-21 3q-11 2 -11 12t11 12q28 6 47 14t32 16q16 10 24 10q11 0 11 -16v-247q0 -8 6.5 -10.5t14.5 5.5q43 44 94 44q46 0 81.5 -30.5t56 -84.5
t20.5 -127q0 -83 -26 -147t-70.5 -100t-100.5 -36zM204 16q56 0 90.5 66t34.5 178q0 103 -30 157t-85 54q-34 0 -59 -28t-25 -78v-252q0 -45 20.5 -71t53.5 -26z" />
    <glyph glyph-name="c" unicode="c" horiz-adv-x="339" 
d="M180 -9q-44 0 -79.5 29.5t-56.5 84.5t-21 131q0 85 25.5 148t69.5 97.5t98 34.5q46 0 72 -18q10 -7 10 -22l2 -122q0 -15 -12 -15q-11 0 -14 13q-14 55 -27 85t-27 41.5t-31 11.5q-20 0 -41.5 -23t-36 -74.5t-14.5 -135.5q0 -107 27.5 -161t71.5 -54q35 0 58.5 29
t40.5 105q3 11 12 11q12 0 9 -20q-11 -70 -30.5 -108.5t-46 -53t-59.5 -14.5z" />
    <glyph glyph-name="cacute" unicode="&#x107;" horiz-adv-x="339" 
d="M180 -9q-44 0 -79.5 29.5t-56.5 84.5t-21 131q0 85 25.5 148t69.5 97.5t98 34.5q46 0 72 -18q10 -7 10 -22l2 -122q0 -15 -12 -15q-11 0 -14 13q-14 55 -27 85t-27 41.5t-31 11.5q-20 0 -41.5 -23t-36 -74.5t-14.5 -135.5q0 -107 27.5 -161t71.5 -54q35 0 58.5 29
t40.5 105q3 11 12 11q12 0 9 -20q-11 -70 -30.5 -108.5t-46 -53t-59.5 -14.5zM116 586q-17 -7 -23 4q-7 11 9 22l144 112q10 8 19 12t22 4q18 0 28 -10.5t10 -22.5q0 -13 -6.5 -22.5t-24.5 -17.5z" />
    <glyph glyph-name="ccaron" unicode="&#x10d;" horiz-adv-x="339" 
d="M180 -9q-44 0 -79.5 29.5t-56.5 84.5t-21 131q0 85 25.5 148t69.5 97.5t98 34.5q46 0 72 -18q10 -7 10 -22l2 -122q0 -15 -12 -15q-11 0 -14 13q-14 55 -27 85t-27 41.5t-31 11.5q-20 0 -41.5 -23t-36 -74.5t-14.5 -135.5q0 -107 27.5 -161t71.5 -54q35 0 58.5 29
t40.5 105q3 11 12 11q12 0 9 -20q-11 -70 -30.5 -108.5t-46 -53t-59.5 -14.5zM198 583q-14 0 -25 11l-116 122q-10 11 -3 19q8 10 20 2l133 -91l134 90q14 9 20 -1q7 -8 -3 -19l-116 -122q-11 -11 -25 -11h-19z" />
    <glyph glyph-name="ccedilla" unicode="&#xe7;" horiz-adv-x="339" 
d="M180 -9q-44 0 -79.5 29.5t-56.5 84.5t-21 131q0 85 25.5 148t69.5 97.5t98 34.5q46 0 72 -18q10 -7 10 -22l2 -122q0 -15 -12 -15q-11 0 -14 13q-14 55 -27 85t-27 41.5t-31 11.5q-20 0 -41.5 -23t-36 -74.5t-14.5 -135.5q0 -107 27.5 -161t71.5 -54q35 0 58.5 29
t40.5 105q3 11 12 11q12 0 9 -20q-11 -70 -30.5 -108.5t-46 -53t-59.5 -14.5zM198 12l-10 -55q-1 -6 4 -6q40 -7 58.5 -31t18.5 -53q0 -39 -28 -60.5t-66 -21.5q-39 0 -63 18t-24 41q0 11 6 18t17 7q15 0 20 -9.5t8.5 -22.5t11 -22.5t26.5 -9.5q24 0 35 16.5t11 40.5
q0 22 -14 36.5t-41 17.5q-9 2 -8 13l15 83h23z" />
    <glyph glyph-name="cdotaccent" unicode="&#x10b;" horiz-adv-x="339" 
d="M180 -9q-44 0 -79.5 29.5t-56.5 84.5t-21 131q0 85 25.5 148t69.5 97.5t98 34.5q46 0 72 -18q10 -7 10 -22l2 -122q0 -15 -12 -15q-11 0 -14 13q-14 55 -27 85t-27 41.5t-31 11.5q-20 0 -41.5 -23t-36 -74.5t-14.5 -135.5q0 -107 27.5 -161t71.5 -54q35 0 58.5 29
t40.5 105q3 11 12 11q12 0 9 -20q-11 -70 -30.5 -108.5t-46 -53t-59.5 -14.5zM208 605q-21 0 -35.5 15t-14.5 38t14.5 37.5t35.5 14.5t35 -14.5t14 -37.5t-14 -38t-35 -15z" />
    <glyph glyph-name="d" unicode="d" horiz-adv-x="457" 
d="M181 -9q-44 0 -78.5 30.5t-53.5 85t-19 126.5q0 84 26 147.5t72 99.5t104 36q14 0 28 -2.5t27 -8.5q16 -8 16 7v128q0 18 -5.5 25t-19.5 8l-26 3q-11 2 -11 12t11 12q32 6 51.5 14t32.5 16q16 10 24 10q11 0 11 -16v-629q0 -42 21 -42q13 0 24 17.5t11 59.5q0 16 13 16
q12 0 12 -17q0 -73 -25 -105.5t-57 -32.5q-29 0 -44 19.5t-20 46.5q-1 8 -7 8.5t-11 -7.5q-28 -39 -51 -53t-56 -14zM203 37q26 0 48.5 17.5t37 47.5t14.5 67v225q0 45 -20.5 71t-53.5 26q-56 0 -90.5 -65.5t-34.5 -178.5q0 -103 26.5 -156.5t72.5 -53.5z" />
    <glyph glyph-name="eth" unicode="&#xf0;" horiz-adv-x="404" 
d="M198 -9q-47 0 -85.5 32t-61.5 86.5t-23 119.5q0 66 21.5 117t58.5 80.5t84 29.5q42 0 73 -22q6 -4 9.5 -1.5t1.5 9.5q-25 104 -79.5 179t-142.5 104q-11 3 -11 13q0 6 4.5 10t14.5 2q64 -15 119.5 -62t97.5 -115.5t65.5 -149t23.5 -162.5q0 -80 -21.5 -141t-59.5 -95
t-89 -34zM200 18q102 0 102 200q0 213 -106 213q-49 0 -72.5 -50t-23.5 -157q0 -105 24.5 -155.5t75.5 -50.5z" />
    <glyph glyph-name="dcaron" unicode="&#x10f;" horiz-adv-x="516" 
d="M181 -9q-44 0 -78.5 30.5t-53.5 85t-19 126.5q0 84 26 147.5t72 99.5t104 36q14 0 28 -2.5t27 -8.5q16 -8 16 7v128q0 18 -5.5 25t-19.5 8l-26 3q-11 2 -11 12t11 12q32 6 51.5 14t32.5 16q16 10 24 10q11 0 11 -16v-629q0 -42 21 -42q13 0 24 17.5t11 59.5q0 16 13 16
q12 0 12 -17q0 -73 -25 -105.5t-57 -32.5q-29 0 -44 19.5t-20 46.5q-1 8 -7 8.5t-11 -7.5q-28 -39 -51 -53t-56 -14zM203 37q26 0 48.5 17.5t37 47.5t14.5 67v225q0 45 -20.5 71t-53.5 26q-56 0 -90.5 -65.5t-34.5 -178.5q0 -103 26.5 -156.5t72.5 -53.5zM455 523
q-3 -12 -17 -12q-12 0 -12 16l4 162q1 26 11.5 38.5t26.5 12.5q19 0 26 -15t1 -40z" />
    <glyph glyph-name="dcroat" unicode="&#x111;" horiz-adv-x="457" 
d="M181 -9q-44 0 -78.5 30.5t-53.5 85t-19 126.5q0 84 26 147.5t72 99.5t104 36q14 0 28 -2.5t27 -8.5q16 -8 16 7v66h-151q-10 0 -10 10v8q0 10 10 10h151v34q0 18 -5.5 25t-19.5 8l-26 3q-11 2 -11 12t11 12q32 6 51.5 14t32.5 16q16 10 24 10q11 0 11 -16v-118h56
q10 0 10 -10v-8q0 -10 -10 -10h-56v-483q0 -42 21 -42q13 0 24 17.5t11 59.5q0 16 13 16q12 0 12 -17q0 -73 -25 -105.5t-57 -32.5q-29 0 -44 19.5t-20 46.5q-1 8 -7 8.5t-11 -7.5q-28 -39 -51 -53t-56 -14zM203 37q26 0 48.5 17.5t37 47.5t14.5 67v225q0 45 -20.5 71
t-53.5 26q-56 0 -90.5 -65.5t-34.5 -178.5q0 -103 26.5 -156.5t72.5 -53.5z" />
    <glyph glyph-name="e" unicode="e" 
d="M192 -9q-48 0 -86 32t-60.5 90.5t-22.5 135.5q0 79 23 139t63 94t89 34q59 0 95.5 -48.5t36.5 -157.5q0 -33 -25 -33h-190q-20 0 -20 -23q0 -106 31 -159t79 -53q38 0 62 27t39 91q3 11 13 11q12 0 9 -20q-16 -89 -51 -124.5t-85 -35.5zM112 302h101q48 0 48 50
q0 65 -16 102t-48 37q-39 0 -65.5 -45t-34.5 -128q-2 -16 15 -16z" />
    <glyph glyph-name="eacute" unicode="&#xe9;" 
d="M192 -9q-48 0 -86 32t-60.5 90.5t-22.5 135.5q0 79 23 139t63 94t89 34q59 0 95.5 -48.5t36.5 -157.5q0 -33 -25 -33h-190q-20 0 -20 -23q0 -106 31 -159t79 -53q38 0 62 27t39 91q3 11 13 11q12 0 9 -20q-16 -89 -51 -124.5t-85 -35.5zM112 302h101q48 0 48 50
q0 65 -16 102t-48 37q-39 0 -65.5 -45t-34.5 -128q-2 -16 15 -16zM101 586q-17 -7 -23 4q-7 11 9 22l144 112q10 8 19 12t22 4q18 0 28 -10.5t10 -22.5q0 -13 -6.5 -22.5t-24.5 -17.5z" />
    <glyph glyph-name="ecaron" unicode="&#x11b;" 
d="M192 -9q-48 0 -86 32t-60.5 90.5t-22.5 135.5q0 79 23 139t63 94t89 34q59 0 95.5 -48.5t36.5 -157.5q0 -33 -25 -33h-190q-20 0 -20 -23q0 -106 31 -159t79 -53q38 0 62 27t39 91q3 11 13 11q12 0 9 -20q-16 -89 -51 -124.5t-85 -35.5zM112 302h101q48 0 48 50
q0 65 -16 102t-48 37q-39 0 -65.5 -45t-34.5 -128q-2 -16 15 -16zM183 583q-14 0 -25 11l-116 122q-10 11 -3 19q8 10 20 2l133 -91l134 90q14 9 20 -1q7 -8 -3 -19l-116 -122q-11 -11 -25 -11h-19z" />
    <glyph glyph-name="ecircumflex" unicode="&#xea;" 
d="M192 -9q-48 0 -86 32t-60.5 90.5t-22.5 135.5q0 79 23 139t63 94t89 34q59 0 95.5 -48.5t36.5 -157.5q0 -33 -25 -33h-190q-20 0 -20 -23q0 -106 31 -159t79 -53q38 0 62 27t39 91q3 11 13 11q12 0 9 -20q-16 -89 -51 -124.5t-85 -35.5zM112 302h101q48 0 48 50
q0 65 -16 102t-48 37q-39 0 -65.5 -45t-34.5 -128q-2 -16 15 -16zM59 586q-12 -8 -20 2q-7 8 3 19l116 122q11 11 25 11h19q14 0 25 -11l116 -122q10 -11 3 -19q-6 -10 -20 -1l-134 90z" />
    <glyph glyph-name="edieresis" unicode="&#xeb;" 
d="M192 -9q-48 0 -86 32t-60.5 90.5t-22.5 135.5q0 79 23 139t63 94t89 34q59 0 95.5 -48.5t36.5 -157.5q0 -33 -25 -33h-190q-20 0 -20 -23q0 -106 31 -159t79 -53q38 0 62 27t39 91q3 11 13 11q12 0 9 -20q-16 -89 -51 -124.5t-85 -35.5zM112 302h101q48 0 48 50
q0 65 -16 102t-48 37q-39 0 -65.5 -45t-34.5 -128q-2 -16 15 -16zM98 605q-21 0 -35.5 14.5t-14.5 36.5t14.5 36t35.5 14t35 -14t14 -36t-14 -36.5t-35 -14.5zM288 605q-21 0 -35.5 14.5t-14.5 36.5t14.5 36t35.5 14t35 -14t14 -36t-14 -36.5t-35 -14.5z" />
    <glyph glyph-name="edotaccent" unicode="&#x117;" 
d="M192 -9q-48 0 -86 32t-60.5 90.5t-22.5 135.5q0 79 23 139t63 94t89 34q59 0 95.5 -48.5t36.5 -157.5q0 -33 -25 -33h-190q-20 0 -20 -23q0 -106 31 -159t79 -53q38 0 62 27t39 91q3 11 13 11q12 0 9 -20q-16 -89 -51 -124.5t-85 -35.5zM112 302h101q48 0 48 50
q0 65 -16 102t-48 37q-39 0 -65.5 -45t-34.5 -128q-2 -16 15 -16zM193 605q-21 0 -35.5 15t-14.5 38t14.5 37.5t35.5 14.5t35 -14.5t14 -37.5t-14 -38t-35 -15z" />
    <glyph glyph-name="egrave" unicode="&#xe8;" 
d="M192 -9q-48 0 -86 32t-60.5 90.5t-22.5 135.5q0 79 23 139t63 94t89 34q59 0 95.5 -48.5t36.5 -157.5q0 -33 -25 -33h-190q-20 0 -20 -23q0 -106 31 -159t79 -53q38 0 62 27t39 91q3 11 13 11q12 0 9 -20q-16 -89 -51 -124.5t-85 -35.5zM112 302h101q48 0 48 50
q0 65 -16 102t-48 37q-39 0 -65.5 -45t-34.5 -128q-2 -16 15 -16zM284 586l-178 81q-18 8 -24.5 17.5t-6.5 22.5q0 12 10 22.5t28 10.5q13 0 22 -4t19 -12l144 -112q16 -11 9 -22q-6 -11 -23 -4z" />
    <glyph glyph-name="emacron" unicode="&#x113;" 
d="M192 -9q-48 0 -86 32t-60.5 90.5t-22.5 135.5q0 79 23 139t63 94t89 34q59 0 95.5 -48.5t36.5 -157.5q0 -33 -25 -33h-190q-20 0 -20 -23q0 -106 31 -159t79 -53q38 0 62 27t39 91q3 11 13 11q12 0 9 -20q-16 -89 -51 -124.5t-85 -35.5zM112 302h101q48 0 48 50
q0 65 -16 102t-48 37q-39 0 -65.5 -45t-34.5 -128q-2 -16 15 -16zM59 636q-12 0 -12 12v15q0 12 12 12h267q12 0 12 -12v-15q0 -12 -12 -12h-267z" />
    <glyph glyph-name="eogonek" unicode="&#x119;" 
d="M192 -9q-48 0 -86 32t-60.5 90.5t-22.5 135.5q0 79 23 139t63 94t89 34q59 0 95.5 -48.5t36.5 -157.5q0 -33 -25 -33h-190q-20 0 -20 -23q0 -106 31 -159t79 -53q38 0 62 27t39 91q3 11 13 11q12 0 9 -20q-16 -89 -51 -124.5t-85 -35.5zM112 302h101q48 0 48 50
q0 65 -16 102t-48 37q-39 0 -65.5 -45t-34.5 -128q-2 -16 15 -16zM179 -216q-28 0 -51 18t-23 55q0 28 16.5 58t44.5 55.5t63 39.5l10 -10q-44 -25 -66 -60t-22 -73q0 -29 11 -41t28 -12q24 0 42 21q11 14 20 3q6 -9 -5 -21q-14 -16 -30 -24.5t-38 -8.5z" />
    <glyph glyph-name="f" unicode="f" horiz-adv-x="288" 
d="M85 67v391q0 24 -24 24h-23q-12 0 -12 10t12 11q47 5 47 41v6q0 52 15.5 97t45 73t72.5 28q40 0 67 -23t27 -55q0 -19 -9.5 -28.5t-25.5 -9.5q-20 0 -28.5 13t-13.5 29.5t-12.5 29.5t-26.5 13q-20 0 -31.5 -22.5t-11.5 -84.5v-88q0 -12 12 -12h86q15 0 15 -14t-15 -14
h-86q-12 0 -12 -12v-403q0 -21 6.5 -29t27.5 -10l53 -5q11 -2 11 -11q0 -12 -15 -12h-208q-15 0 -15 11t13 12l25 2q21 2 27.5 11.5t6.5 30.5z" />
    <glyph glyph-name="g" unicode="g" horiz-adv-x="402" 
d="M178 -215q-76 0 -120 30.5t-44 73.5q0 18 5 32.5t21.5 33.5t50.5 49q12 11 12 20.5t-12 14.5q-36 15 -43 38.5t17 43.5l72 62q12 10 -1 17q-41 20 -65 62t-24 90q0 46 20 83t54 59t76 22q24 0 46 -8q14 -5 17 9q9 38 33.5 59.5t48.5 21.5q23 0 37.5 -13.5t14.5 -33.5
q0 -17 -10 -27t-25 -10q-13 0 -19 5t-11 10t-16 5q-24 0 -30 -26q-3 -10 0.5 -17t10.5 -14q24 -23 37.5 -56t13.5 -73q0 -48 -19.5 -86t-53 -60t-75.5 -22q-18 0 -31 -7.5t-26 -21.5l-17 -19q-13 -16 -7.5 -30.5t27.5 -14.5h86q72 0 114 -35.5t42 -97.5q0 -49 -28 -87
t-74.5 -60t-104.5 -22zM196 205q36 0 57 39t21 106q0 65 -21.5 104.5t-56.5 39.5t-56.5 -39.5t-21.5 -104.5q0 -67 21 -106t57 -39zM190 -193q36 0 66 16t47.5 44.5t17.5 64.5q0 45 -26.5 69.5t-74.5 24.5h-23q-31 0 -46.5 -6t-29.5 -21q-31 -33 -39 -53t-8 -41
q0 -44 30.5 -71t85.5 -27z" />
    <glyph glyph-name="gbreve" unicode="&#x11f;" horiz-adv-x="402" 
d="M178 -215q-76 0 -120 30.5t-44 73.5q0 18 5 32.5t21.5 33.5t50.5 49q12 11 12 20.5t-12 14.5q-36 15 -43 38.5t17 43.5l72 62q12 10 -1 17q-41 20 -65 62t-24 90q0 46 20 83t54 59t76 22q24 0 46 -8q14 -5 17 9q9 38 33.5 59.5t48.5 21.5q23 0 37.5 -13.5t14.5 -33.5
q0 -17 -10 -27t-25 -10q-13 0 -19 5t-11 10t-16 5q-24 0 -30 -26q-3 -10 0.5 -17t10.5 -14q24 -23 37.5 -56t13.5 -73q0 -48 -19.5 -86t-53 -60t-75.5 -22q-18 0 -31 -7.5t-26 -21.5l-17 -19q-13 -16 -7.5 -30.5t27.5 -14.5h86q72 0 114 -35.5t42 -97.5q0 -49 -28 -87
t-74.5 -60t-104.5 -22zM196 205q36 0 57 39t21 106q0 65 -21.5 104.5t-56.5 39.5t-56.5 -39.5t-21.5 -104.5q0 -67 21 -106t57 -39zM190 -193q36 0 66 16t47.5 44.5t17.5 64.5q0 45 -26.5 69.5t-74.5 24.5h-23q-31 0 -46.5 -6t-29.5 -21q-31 -33 -39 -53t-8 -41
q0 -44 30.5 -71t85.5 -27zM196 579q-53 0 -92.5 35.5t-50.5 97.5q-3 18 10 18q11 0 14 -12q11 -43 43 -62.5t76 -19.5t76 19.5t43 62.5q3 12 14 12q13 0 10 -18q-11 -62 -50.5 -97.5t-92.5 -35.5z" />
    <glyph glyph-name="uni0123" unicode="&#x123;" horiz-adv-x="402" 
d="M178 -215q-76 0 -120 30.5t-44 73.5q0 18 5 32.5t21.5 33.5t50.5 49q12 11 12 20.5t-12 14.5q-36 15 -43 38.5t17 43.5l72 62q12 10 -1 17q-41 20 -65 62t-24 90q0 46 20 83t54 59t76 22q24 0 46 -8q14 -5 17 9q9 38 33.5 59.5t48.5 21.5q23 0 37.5 -13.5t14.5 -33.5
q0 -17 -10 -27t-25 -10q-13 0 -19 5t-11 10t-16 5q-24 0 -30 -26q-3 -10 0.5 -17t10.5 -14q24 -23 37.5 -56t13.5 -73q0 -48 -19.5 -86t-53 -60t-75.5 -22q-18 0 -31 -7.5t-26 -21.5l-17 -19q-13 -16 -7.5 -30.5t27.5 -14.5h86q72 0 114 -35.5t42 -97.5q0 -49 -28 -87
t-74.5 -60t-104.5 -22zM196 205q36 0 57 39t21 106q0 65 -21.5 104.5t-56.5 39.5t-56.5 -39.5t-21.5 -104.5q0 -67 21 -106t57 -39zM190 -193q36 0 66 16t47.5 44.5t17.5 64.5q0 45 -26.5 69.5t-74.5 24.5h-23q-31 0 -46.5 -6t-29.5 -21q-31 -33 -39 -53t-8 -41
q0 -44 30.5 -71t85.5 -27zM195 576q-25 0 -39.5 20.5t-14.5 51.5q0 49 20.5 86t65.5 74q12 10 20 4q9 -7 -3 -19q-29 -29 -40 -47.5t-11 -38.5q0 -16 7.5 -25t17.5 -15.5t17.5 -16t7.5 -27.5q0 -20 -13.5 -33.5t-34.5 -13.5z" />
    <glyph glyph-name="gdotaccent" unicode="&#x121;" horiz-adv-x="402" 
d="M178 -215q-76 0 -120 30.5t-44 73.5q0 18 5 32.5t21.5 33.5t50.5 49q12 11 12 20.5t-12 14.5q-36 15 -43 38.5t17 43.5l72 62q12 10 -1 17q-41 20 -65 62t-24 90q0 46 20 83t54 59t76 22q24 0 46 -8q14 -5 17 9q9 38 33.5 59.5t48.5 21.5q23 0 37.5 -13.5t14.5 -33.5
q0 -17 -10 -27t-25 -10q-13 0 -19 5t-11 10t-16 5q-24 0 -30 -26q-3 -10 0.5 -17t10.5 -14q24 -23 37.5 -56t13.5 -73q0 -48 -19.5 -86t-53 -60t-75.5 -22q-18 0 -31 -7.5t-26 -21.5l-17 -19q-13 -16 -7.5 -30.5t27.5 -14.5h86q72 0 114 -35.5t42 -97.5q0 -49 -28 -87
t-74.5 -60t-104.5 -22zM196 205q36 0 57 39t21 106q0 65 -21.5 104.5t-56.5 39.5t-56.5 -39.5t-21.5 -104.5q0 -67 21 -106t57 -39zM190 -193q36 0 66 16t47.5 44.5t17.5 64.5q0 45 -26.5 69.5t-74.5 24.5h-23q-31 0 -46.5 -6t-29.5 -21q-31 -33 -39 -53t-8 -41
q0 -44 30.5 -71t85.5 -27zM196 605q-21 0 -35.5 15t-14.5 38t14.5 37.5t35.5 14.5t35 -14.5t14 -37.5t-14 -38t-35 -15z" />
    <glyph glyph-name="h" unicode="h" horiz-adv-x="470" 
d="M27 0q-12 0 -12 11q0 10 11 12l14 2q21 3 27.5 12t6.5 30v573q0 18 -5.5 24.5t-19.5 8.5l-21 3q-11 2 -11 12t11 12q28 6 47 14t32 16q16 10 24 10q11 0 11 -16v-265q0 -9 6 -10.5t15 6.5q38 35 67 48t61 13q47 0 74 -31.5t27 -92.5v-325q0 -21 6.5 -29.5t27.5 -11.5
l22 -3q11 -2 11 -12q0 -11 -12 -11h-168q-14 0 -14 11q0 10 11 12l14 2q21 3 27.5 12t6.5 30v314q0 49 -18 69t-51 20q-32 0 -57.5 -18.5t-40.5 -49t-15 -67.5v-268q0 -21 6.5 -30t27.5 -11l27 -3q11 -2 11 -12q0 -11 -12 -11h-175z" />
    <glyph glyph-name="hbar" unicode="&#x127;" horiz-adv-x="470" 
d="M27 0q-12 0 -12 11q0 10 11 12l14 2q21 3 27.5 12t6.5 30v511h-56q-10 0 -10 10v8q0 10 10 10h56v34q0 18 -5.5 24.5t-19.5 8.5l-21 3q-11 2 -11 12t11 12q28 6 47 14t32 16q16 10 24 10q11 0 11 -16v-118h151q10 0 10 -10v-8q0 -10 -10 -10h-151v-119q0 -9 6 -10.5
t15 6.5q38 35 67 48t61 13q47 0 74 -31.5t27 -92.5v-325q0 -21 6.5 -29.5t27.5 -11.5l22 -3q11 -2 11 -12q0 -11 -12 -11h-168q-14 0 -14 11q0 10 11 12l14 2q21 3 27.5 12t6.5 30v314q0 49 -18 69t-51 20q-32 0 -57.5 -18.5t-40.5 -49t-15 -67.5v-268q0 -21 6.5 -30
t27.5 -11l27 -3q11 -2 11 -12q0 -11 -12 -11h-175z" />
    <glyph glyph-name="i" unicode="i" horiz-adv-x="223" 
d="M114 605q-21 0 -35.5 15t-14.5 38t14.5 37.5t35.5 14.5t35 -14.5t14 -37.5t-14 -38t-35 -15zM30 0q-15 0 -15 11q0 9 13 12l12 2q25 4 32 12.5t7 29.5v336q0 18 -5.5 24.5t-19.5 8.5l-21 3q-13 1 -13 11q0 8 16 11q31 5 50 16t37 27q9 9 15 9q9 0 9 -12v-434q0 -21 6 -30
t23 -11l25 -3q11 -2 11 -11q0 -12 -15 -12h-167z" />
    <glyph glyph-name="dotlessi" unicode="&#x131;" horiz-adv-x="223" 
d="M30 0q-15 0 -15 11q0 9 13 12l12 2q25 4 32 12.5t7 29.5v336q0 18 -5.5 24.5t-19.5 8.5l-21 3q-13 1 -13 11q0 8 16 11q31 5 50 16t37 27q9 9 15 9q9 0 9 -12v-434q0 -21 6 -30t23 -11l25 -3q11 -2 11 -11q0 -12 -15 -12h-167z" />
    <glyph glyph-name="iacute" unicode="&#xed;" horiz-adv-x="223" 
d="M30 0q-15 0 -15 11q0 9 13 12l12 2q25 4 32 12.5t7 29.5v336q0 18 -5.5 24.5t-19.5 8.5l-21 3q-13 1 -13 11q0 8 16 11q31 5 50 16t37 27q9 9 15 9q9 0 9 -12v-434q0 -21 6 -30t23 -11l25 -3q11 -2 11 -11q0 -12 -15 -12h-167zM20 586q-17 -7 -23 4q-7 11 9 22l144 112
q10 8 19 12t22 4q18 0 28 -10.5t10 -22.5q0 -13 -6.5 -22.5t-24.5 -17.5z" />
    <glyph glyph-name="icircumflex" unicode="&#xee;" horiz-adv-x="223" 
d="M30 0q-15 0 -15 11q0 9 13 12l12 2q25 4 32 12.5t7 29.5v336q0 18 -5.5 24.5t-19.5 8.5l-21 3q-13 1 -13 11q0 8 16 11q31 5 50 16t37 27q9 9 15 9q9 0 9 -12v-434q0 -21 6 -30t23 -11l25 -3q11 -2 11 -11q0 -12 -15 -12h-167zM-22 586q-12 -8 -20 2q-7 8 3 19l116 122
q11 11 25 11h19q14 0 25 -11l116 -122q10 -11 3 -19q-6 -10 -20 -1l-134 90z" />
    <glyph glyph-name="idieresis" unicode="&#xef;" horiz-adv-x="223" 
d="M30 0q-15 0 -15 11q0 9 13 12l12 2q25 4 32 12.5t7 29.5v336q0 18 -5.5 24.5t-19.5 8.5l-21 3q-13 1 -13 11q0 8 16 11q31 5 50 16t37 27q9 9 15 9q9 0 9 -12v-434q0 -21 6 -30t23 -11l25 -3q11 -2 11 -11q0 -12 -15 -12h-167zM17 605q-21 0 -35.5 14.5t-14.5 36.5
t14.5 36t35.5 14t35 -14t14 -36t-14 -36.5t-35 -14.5zM207 605q-21 0 -35.5 14.5t-14.5 36.5t14.5 36t35.5 14t35 -14t14 -36t-14 -36.5t-35 -14.5z" />
    <glyph glyph-name="i.loclTRK" horiz-adv-x="223" 
d="M30 0q-15 0 -15 11q0 9 13 12l12 2q25 4 32 12.5t7 29.5v336q0 18 -5.5 24.5t-19.5 8.5l-21 3q-13 1 -13 11q0 8 16 11q31 5 50 16t37 27q9 9 15 9q9 0 9 -12v-434q0 -21 6 -30t23 -11l25 -3q11 -2 11 -11q0 -12 -15 -12h-167zM112 605q-21 0 -35.5 15t-14.5 38
t14.5 37.5t35.5 14.5t35 -14.5t14 -37.5t-14 -38t-35 -15z" />
    <glyph glyph-name="igrave" unicode="&#xec;" horiz-adv-x="223" 
d="M30 0q-15 0 -15 11q0 9 13 12l12 2q25 4 32 12.5t7 29.5v336q0 18 -5.5 24.5t-19.5 8.5l-21 3q-13 1 -13 11q0 8 16 11q31 5 50 16t37 27q9 9 15 9q9 0 9 -12v-434q0 -21 6 -30t23 -11l25 -3q11 -2 11 -11q0 -12 -15 -12h-167zM203 586l-178 81q-18 8 -24.5 17.5
t-6.5 22.5q0 12 10 22.5t28 10.5q13 0 22 -4t19 -12l144 -112q16 -11 9 -22q-6 -11 -23 -4z" />
    <glyph glyph-name="ij" unicode="&#x133;" horiz-adv-x="438" 
d="M114 605q-21 0 -35.5 15t-14.5 38t14.5 37.5t35.5 14.5t35 -14.5t14 -37.5t-14 -38t-35 -15zM30 0q-15 0 -15 11q0 9 13 12l12 2q25 4 32 12.5t7 29.5v336q0 18 -5.5 24.5t-19.5 8.5l-21 3q-13 1 -13 11q0 8 16 11q31 5 50 16t37 27q9 9 15 9q9 0 9 -12v-434q0 -21 6 -30
t23 -11l25 -3q11 -2 11 -11q0 -12 -15 -12h-167zM337 605q-22 0 -36 15.5t-14 37.5q0 23 14 37.5t36 14.5t35.5 -14.5t13.5 -37.5t-14 -38t-35 -15zM227 -215q-29 0 -48 15t-19 39q0 17 10.5 29.5t28.5 12.5q16 0 23 -8.5t11 -19.5t10.5 -19.5t19.5 -8.5q19 0 29 22t10 62
v494q0 18 -5.5 24.5t-19.5 8.5l-21 3q-13 1 -13 11q0 8 16 11q31 5 50 16t37 27q9 9 15 9q9 0 9 -12v-457q0 -120 -39 -189.5t-104 -69.5z" />
    <glyph glyph-name="imacron" unicode="&#x12b;" horiz-adv-x="223" 
d="M30 0q-15 0 -15 11q0 9 13 12l12 2q25 4 32 12.5t7 29.5v336q0 18 -5.5 24.5t-19.5 8.5l-21 3q-13 1 -13 11q0 8 16 11q31 5 50 16t37 27q9 9 15 9q9 0 9 -12v-434q0 -21 6 -30t23 -11l25 -3q11 -2 11 -11q0 -12 -15 -12h-167zM-22 636q-12 0 -12 12v15q0 12 12 12h267
q12 0 12 -12v-15q0 -12 -12 -12h-267z" />
    <glyph glyph-name="iogonek" unicode="&#x12f;" horiz-adv-x="223" 
d="M30 0q-15 0 -15 11q0 9 13 12l12 2q25 4 32 12.5t7 29.5v336q0 18 -5.5 24.5t-19.5 8.5l-21 3q-13 1 -13 11q0 8 16 11q31 5 50 16t37 27q9 9 15 9q9 0 9 -12v-434q0 -21 6 -30t23 -11l25 -3q11 -2 11 -11q0 -12 -15 -12h-167zM112 605q-21 0 -35.5 15t-14.5 38
t14.5 37.5t35.5 14.5t35 -14.5t14 -37.5t-14 -38t-35 -15zM107 -216q-28 0 -51 18t-23 55q0 28 16.5 58t44.5 55.5t63 39.5l10 -10q-44 -25 -66 -60t-22 -73q0 -29 11 -41t28 -12q24 0 42 21q11 14 20 3q6 -9 -5 -21q-14 -16 -30 -24.5t-38 -8.5z" />
    <glyph glyph-name="j" unicode="j" horiz-adv-x="215" 
d="M114 605q-22 0 -36 15.5t-14 37.5q0 23 14 37.5t36 14.5t35.5 -14.5t13.5 -37.5t-14 -38t-35 -15zM4 -215q-29 0 -48 15t-19 39q0 17 10.5 29.5t28.5 12.5q16 0 23 -8.5t11 -19.5t10.5 -19.5t19.5 -8.5q19 0 29 22t10 62v494q0 18 -5.5 24.5t-19.5 8.5l-21 3
q-13 1 -13 11q0 8 16 11q31 5 50 16t37 27q9 9 15 9q9 0 9 -12v-457q0 -120 -39 -189.5t-104 -69.5z" />
    <glyph glyph-name="uni0237" unicode="&#x237;" horiz-adv-x="215" 
d="M4 -215q-29 0 -48 15t-19 39q0 17 10.5 29.5t28.5 12.5q16 0 23 -8.5t11 -19.5t10.5 -19.5t19.5 -8.5q19 0 29 22t10 62v494q0 18 -5.5 24.5t-19.5 8.5l-21 3q-13 1 -13 11q0 8 16 11q31 5 50 16t37 27q9 9 15 9q9 0 9 -12v-457q0 -120 -39 -189.5t-104 -69.5z" />
    <glyph glyph-name="k" unicode="k" horiz-adv-x="451" 
d="M27 0q-12 0 -12 11q0 10 11 12l14 2q21 3 27.5 12t6.5 30v573q0 18 -5.5 24.5t-19.5 8.5l-21 3q-11 2 -11 12t11 12q28 6 47 14t32 16q16 10 24 10q11 0 11 -16v-419q0 -10 8.5 -12.5t16.5 6.5l117 126q21 23 17.5 38.5t-23.5 19.5l-23 4q-13 3 -13 13t14 10h172
q14 0 14 -11t-13 -12l-9 -1q-23 -2 -46 -17.5t-55 -48.5l-62 -66q-21 -23 -10 -45l126 -242q11 -20 24 -29t32 -13l10 -2q12 -3 12 -12q0 -11 -14 -11h-174q-14 0 -14 11q0 10 13 12l17 2q38 5 16 49l-95 185q-5 10 -14.5 11t-17.5 -7l-11 -11q-9 -9 -12 -18t-3 -20v-147
q0 -21 6.5 -30t27.5 -11l27 -3q11 -2 11 -12q0 -11 -12 -11h-175z" />
    <glyph glyph-name="uni0137" unicode="&#x137;" horiz-adv-x="451" 
d="M27 0q-12 0 -12 11q0 10 11 12l14 2q21 3 27.5 12t6.5 30v573q0 18 -5.5 24.5t-19.5 8.5l-21 3q-11 2 -11 12t11 12q28 6 47 14t32 16q16 10 24 10q11 0 11 -16v-419q0 -10 8.5 -12.5t16.5 6.5l117 126q21 23 17.5 38.5t-23.5 19.5l-23 4q-13 3 -13 13t14 10h172
q14 0 14 -11t-13 -12l-9 -1q-23 -2 -46 -17.5t-55 -48.5l-62 -66q-21 -23 -10 -45l126 -242q11 -20 24 -29t32 -13l10 -2q12 -3 12 -12q0 -11 -14 -11h-174q-14 0 -14 11q0 10 13 12l17 2q38 5 16 49l-95 185q-5 10 -14.5 11t-17.5 -7l-11 -11q-9 -9 -12 -18t-3 -20v-147
q0 -21 6.5 -30t27.5 -11l27 -3q11 -2 11 -12q0 -11 -12 -11h-175zM227 -67q25 0 39.5 -20.5t14.5 -51.5q0 -49 -20.5 -85.5t-65.5 -74.5q-12 -10 -20 -4q-9 7 3 19q29 29 40 48t11 38q0 16 -7.5 25t-17.5 15.5t-17.5 16t-7.5 27.5q0 20 13.5 33.5t34.5 13.5z" />
    <glyph glyph-name="l" unicode="l" horiz-adv-x="220" 
d="M20 0q-12 0 -12 11q0 10 11 12l14 2q21 3 31 12t10 30v573q0 18 -5.5 25t-19.5 8l-23 3q-11 2 -11 12t11 12q28 6 48 14t33 16q16 10 24 10q11 0 11 -16v-657q0 -21 6.5 -29.5t27.5 -11.5l23 -3q11 -2 11 -12q0 -11 -12 -11h-178z" />
    <glyph glyph-name="lacute" unicode="&#x13a;" horiz-adv-x="220" 
d="M20 0q-12 0 -12 11q0 10 11 12l14 2q21 3 31 12t10 30v573q0 18 -5.5 25t-19.5 8l-23 3q-11 2 -11 12t11 12q28 6 48 14t33 16q16 10 24 10q11 0 11 -16v-657q0 -21 6.5 -29.5t27.5 -11.5l23 -3q11 -2 11 -12q0 -11 -12 -11h-178zM-7 786q-17 -7 -23 4q-7 11 9 22
l144 112q10 8 19 12t22 4q18 0 28 -10.5t10 -22.5q0 -13 -6.5 -22.5t-24.5 -17.5z" />
    <glyph glyph-name="lcaron" unicode="&#x13e;" horiz-adv-x="287" 
d="M20 0q-12 0 -12 11q0 10 11 12l14 2q21 3 31 12t10 30v573q0 18 -5.5 25t-19.5 8l-23 3q-11 2 -11 12t11 12q28 6 48 14t33 16q16 10 24 10q11 0 11 -16v-657q0 -21 6.5 -29.5t27.5 -11.5l23 -3q11 -2 11 -12q0 -11 -12 -11h-178zM226 523q-3 -12 -17 -12q-12 0 -12 16
l4 162q1 26 11.5 38.5t26.5 12.5q19 0 26 -15t1 -40z" />
    <glyph glyph-name="uni013C" unicode="&#x13c;" horiz-adv-x="220" 
d="M20 0q-12 0 -12 11q0 10 11 12l14 2q21 3 31 12t10 30v573q0 18 -5.5 25t-19.5 8l-23 3q-11 2 -11 12t11 12q28 6 48 14t33 16q16 10 24 10q11 0 11 -16v-657q0 -21 6.5 -29.5t27.5 -11.5l23 -3q11 -2 11 -12q0 -11 -12 -11h-178zM111 -67q25 0 39.5 -20.5t14.5 -51.5
q0 -49 -20.5 -85.5t-65.5 -74.5q-12 -10 -20 -4q-9 7 3 19q29 29 40 48t11 38q0 16 -7.5 25t-17.5 15.5t-17.5 16t-7.5 27.5q0 20 13.5 33.5t34.5 13.5z" />
    <glyph glyph-name="lslash" unicode="&#x142;" horiz-adv-x="279" 
d="M46 0q-12 0 -12 11q0 10 11 12l14 2q21 3 31 12t10 30v260l-70 -44q-8 -5 -13 3l-5 7q-5 9 3 14l85 53v280q0 18 -5.5 25t-19.5 8l-23 3q-11 2 -11 12t11 12q28 6 48 14t33 16q16 10 24 10q11 0 11 -16v-319l81 51q8 5 13 -3l5 -7q5 -9 -3 -14l-96 -60v-305
q0 -21 6.5 -29.5t27.5 -11.5l23 -3q11 -2 11 -12q0 -11 -12 -11h-178z" />
    <glyph glyph-name="m" unicode="m" horiz-adv-x="704" 
d="M30 0q-15 0 -15 11q0 9 13 12l12 2q21 4 27.5 12.5t6.5 29.5v336q0 18 -5.5 24.5t-19.5 8.5l-21 3q-13 1 -13 11q0 8 16 11q31 5 47.5 16t34.5 27q9 9 15 9q9 0 9 -12v-45q0 -7 6 -10.5t13 3.5q41 39 71.5 53t61.5 14q29 0 51.5 -15.5t33.5 -46.5q3 -8 10.5 -9.5
t14.5 5.5q41 38 71 52t61 14q42 0 68.5 -31.5t26.5 -92.5v-325q0 -21 6.5 -29.5t27.5 -11.5l22 -3q11 -2 11 -12q0 -11 -12 -11h-171q-14 0 -14 11q0 10 11 12l14 2q23 3 30 12t7 30v314q0 49 -17.5 69t-47.5 20t-54.5 -18.5t-39.5 -49t-15 -67.5v-268q0 -21 7 -29.5
t29 -11.5l22 -3q11 -2 11 -12q0 -11 -12 -11h-170q-14 0 -14 11q0 10 11 12l14 2q21 3 27.5 12t6.5 30v314q0 49 -17.5 69t-47.5 20t-54.5 -18.5t-39.5 -49t-15 -67.5v-268q0 -21 6.5 -30t27.5 -11l27 -3q11 -2 11 -11q0 -12 -15 -12h-169z" />
    <glyph glyph-name="n" unicode="n" horiz-adv-x="470" 
d="M30 0q-15 0 -15 11q0 9 13 12l12 2q21 4 27.5 12.5t6.5 29.5v336q0 18 -5.5 24.5t-19.5 8.5l-21 3q-13 1 -13 11q0 8 16 11q31 5 47.5 16t34.5 27q9 9 15 9q9 0 9 -12v-45q0 -9 6.5 -11.5t14.5 5.5q40 38 70.5 52t64.5 14q45 0 72 -31.5t27 -92.5v-325q0 -21 6.5 -29.5
t27.5 -11.5l22 -3q11 -2 11 -12q0 -11 -12 -11h-168q-14 0 -14 11q0 10 11 12l14 2q21 3 27.5 12t6.5 30v314q0 49 -18 69t-51 20q-32 0 -57.5 -18.5t-40.5 -49t-15 -67.5v-268q0 -21 6.5 -30t27.5 -11l27 -3q11 -2 11 -11q0 -12 -15 -12h-169z" />
    <glyph glyph-name="nacute" unicode="&#x144;" horiz-adv-x="470" 
d="M30 0q-15 0 -15 11q0 9 13 12l12 2q21 4 27.5 12.5t6.5 29.5v336q0 18 -5.5 24.5t-19.5 8.5l-21 3q-13 1 -13 11q0 8 16 11q31 5 47.5 16t34.5 27q9 9 15 9q9 0 9 -12v-45q0 -9 6.5 -11.5t14.5 5.5q40 38 70.5 52t64.5 14q45 0 72 -31.5t27 -92.5v-325q0 -21 6.5 -29.5
t27.5 -11.5l22 -3q11 -2 11 -12q0 -11 -12 -11h-168q-14 0 -14 11q0 10 11 12l14 2q21 3 27.5 12t6.5 30v314q0 49 -18 69t-51 20q-32 0 -57.5 -18.5t-40.5 -49t-15 -67.5v-268q0 -21 6.5 -30t27.5 -11l27 -3q11 -2 11 -11q0 -12 -15 -12h-169zM143 586q-17 -7 -23 4
q-7 11 9 22l144 112q10 8 19 12t22 4q18 0 28 -10.5t10 -22.5q0 -13 -6.5 -22.5t-24.5 -17.5z" />
    <glyph glyph-name="ncaron" unicode="&#x148;" horiz-adv-x="470" 
d="M30 0q-15 0 -15 11q0 9 13 12l12 2q21 4 27.5 12.5t6.5 29.5v336q0 18 -5.5 24.5t-19.5 8.5l-21 3q-13 1 -13 11q0 8 16 11q31 5 47.5 16t34.5 27q9 9 15 9q9 0 9 -12v-45q0 -9 6.5 -11.5t14.5 5.5q40 38 70.5 52t64.5 14q45 0 72 -31.5t27 -92.5v-325q0 -21 6.5 -29.5
t27.5 -11.5l22 -3q11 -2 11 -12q0 -11 -12 -11h-168q-14 0 -14 11q0 10 11 12l14 2q21 3 27.5 12t6.5 30v314q0 49 -18 69t-51 20q-32 0 -57.5 -18.5t-40.5 -49t-15 -67.5v-268q0 -21 6.5 -30t27.5 -11l27 -3q11 -2 11 -11q0 -12 -15 -12h-169zM225 583q-14 0 -25 11
l-116 122q-10 11 -3 19q8 10 20 2l133 -91l134 90q14 9 20 -1q7 -8 -3 -19l-116 -122q-11 -11 -25 -11h-19z" />
    <glyph glyph-name="uni0146" unicode="&#x146;" horiz-adv-x="470" 
d="M30 0q-15 0 -15 11q0 9 13 12l12 2q21 4 27.5 12.5t6.5 29.5v336q0 18 -5.5 24.5t-19.5 8.5l-21 3q-13 1 -13 11q0 8 16 11q31 5 47.5 16t34.5 27q9 9 15 9q9 0 9 -12v-45q0 -9 6.5 -11.5t14.5 5.5q40 38 70.5 52t64.5 14q45 0 72 -31.5t27 -92.5v-325q0 -21 6.5 -29.5
t27.5 -11.5l22 -3q11 -2 11 -12q0 -11 -12 -11h-168q-14 0 -14 11q0 10 11 12l14 2q21 3 27.5 12t6.5 30v314q0 49 -18 69t-51 20q-32 0 -57.5 -18.5t-40.5 -49t-15 -67.5v-268q0 -21 6.5 -30t27.5 -11l27 -3q11 -2 11 -11q0 -12 -15 -12h-169zM236 -67q25 0 39.5 -20.5
t14.5 -51.5q0 -49 -20.5 -85.5t-65.5 -74.5q-12 -10 -20 -4q-9 7 3 19q29 29 40 48t11 38q0 16 -7.5 25t-17.5 15.5t-17.5 16t-7.5 27.5q0 20 13.5 33.5t34.5 13.5z" />
    <glyph glyph-name="ntilde" unicode="&#xf1;" horiz-adv-x="470" 
d="M30 0q-15 0 -15 11q0 9 13 12l12 2q21 4 27.5 12.5t6.5 29.5v336q0 18 -5.5 24.5t-19.5 8.5l-21 3q-13 1 -13 11q0 8 16 11q31 5 47.5 16t34.5 27q9 9 15 9q9 0 9 -12v-45q0 -9 6.5 -11.5t14.5 5.5q40 38 70.5 52t64.5 14q45 0 72 -31.5t27 -92.5v-325q0 -21 6.5 -29.5
t27.5 -11.5l22 -3q11 -2 11 -12q0 -11 -12 -11h-168q-14 0 -14 11q0 10 11 12l14 2q21 3 27.5 12t6.5 30v314q0 49 -18 69t-51 20q-32 0 -57.5 -18.5t-40.5 -49t-15 -67.5v-268q0 -21 6.5 -30t27.5 -11l27 -3q11 -2 11 -11q0 -12 -15 -12h-169zM298 597q-26 0 -43.5 10
t-31.5 22.5t-29 22.5t-36 10q-25 0 -39 -12.5t-23 -38.5q-4 -12 -14 -12q-13 0 -10 15q10 51 36.5 77.5t63.5 26.5q25 0 42.5 -10t32.5 -22.5t30.5 -22.5t34.5 -10q25 0 39 12.5t23 38.5q5 12 14 12q13 0 10 -15q-10 -51 -36 -77.5t-64 -26.5z" />
    <glyph glyph-name="eng" unicode="&#x14b;" horiz-adv-x="460" 
d="M249 -215q-29 0 -48 15t-19 39q0 17 10.5 29.5t28.5 12.5q16 0 23 -8.5t11 -19.5t10.5 -19.5t19.5 -8.5q19 0 29 22t10 62v472q0 49 -18 69t-51 20q-32 0 -57.5 -18.5t-40.5 -49t-15 -67.5v-268q0 -21 6.5 -30t27.5 -11l27 -3q11 -2 11 -11q0 -12 -15 -12h-169
q-15 0 -15 11q0 9 13 12l12 2q21 4 27.5 12.5t6.5 29.5v336q0 18 -5.5 24.5t-19.5 8.5l-21 3q-13 1 -13 11q0 8 16 11q31 5 47.5 16t34.5 27q9 9 15 9q9 0 9 -12v-45q0 -9 6.5 -11.5t14.5 5.5q40 38 70.5 52t64.5 14q45 0 72 -31.5t27 -92.5v-348q0 -120 -39 -189.5
t-104 -69.5z" />
    <glyph glyph-name="o" unicode="o" horiz-adv-x="408" 
d="M203 -9q-51 0 -91.5 34.5t-64.5 94.5t-24 134t24 133t65 94t91 35q51 0 91.5 -35t64.5 -94t24 -133t-23.5 -134t-64.5 -94.5t-92 -34.5zM203 16q104 0 104 238q0 237 -104 237t-104 -237q0 -238 104 -238z" />
    <glyph glyph-name="oacute" unicode="&#xf3;" horiz-adv-x="408" 
d="M203 -9q-51 0 -91.5 34.5t-64.5 94.5t-24 134t24 133t65 94t91 35q51 0 91.5 -35t64.5 -94t24 -133t-23.5 -134t-64.5 -94.5t-92 -34.5zM203 16q104 0 104 238q0 237 -104 237t-104 -237q0 -238 104 -238zM112 586q-17 -7 -23 4q-7 11 9 22l144 112q10 8 19 12t22 4
q18 0 28 -10.5t10 -22.5q0 -13 -6.5 -22.5t-24.5 -17.5z" />
    <glyph glyph-name="ocircumflex" unicode="&#xf4;" horiz-adv-x="408" 
d="M203 -9q-51 0 -91.5 34.5t-64.5 94.5t-24 134t24 133t65 94t91 35q51 0 91.5 -35t64.5 -94t24 -133t-23.5 -134t-64.5 -94.5t-92 -34.5zM203 16q104 0 104 238q0 237 -104 237t-104 -237q0 -238 104 -238zM70 586q-12 -8 -20 2q-7 8 3 19l116 122q11 11 25 11h19
q14 0 25 -11l116 -122q10 -11 3 -19q-6 -10 -20 -1l-134 90z" />
    <glyph glyph-name="odieresis" unicode="&#xf6;" horiz-adv-x="408" 
d="M203 -9q-51 0 -91.5 34.5t-64.5 94.5t-24 134t24 133t65 94t91 35q51 0 91.5 -35t64.5 -94t24 -133t-23.5 -134t-64.5 -94.5t-92 -34.5zM203 16q104 0 104 238q0 237 -104 237t-104 -237q0 -238 104 -238zM109 605q-21 0 -35.5 14.5t-14.5 36.5t14.5 36t35.5 14t35 -14
t14 -36t-14 -36.5t-35 -14.5zM299 605q-21 0 -35.5 14.5t-14.5 36.5t14.5 36t35.5 14t35 -14t14 -36t-14 -36.5t-35 -14.5z" />
    <glyph glyph-name="ograve" unicode="&#xf2;" horiz-adv-x="408" 
d="M203 -9q-51 0 -91.5 34.5t-64.5 94.5t-24 134t24 133t65 94t91 35q51 0 91.5 -35t64.5 -94t24 -133t-23.5 -134t-64.5 -94.5t-92 -34.5zM203 16q104 0 104 238q0 237 -104 237t-104 -237q0 -238 104 -238zM295 586l-178 81q-18 8 -24.5 17.5t-6.5 22.5q0 12 10 22.5
t28 10.5q13 0 22 -4t19 -12l144 -112q16 -11 9 -22q-6 -11 -23 -4z" />
    <glyph glyph-name="ohungarumlaut" unicode="&#x151;" horiz-adv-x="408" 
d="M203 -9q-51 0 -91.5 34.5t-64.5 94.5t-24 134t24 133t65 94t91 35q51 0 91.5 -35t64.5 -94t24 -133t-23.5 -134t-64.5 -94.5t-92 -34.5zM203 16q104 0 104 238q0 237 -104 237t-104 -237q0 -238 104 -238zM115 590q-13 -10 -22 -4t-1 23l52 95q10 19 20.5 27.5t26.5 8.5
q17 0 26.5 -9t9.5 -22q0 -23 -28 -47zM265 590q-13 -10 -22 -4t-1 23l52 95q10 19 20.5 27.5t26.5 8.5q17 0 26.5 -9t9.5 -22q0 -23 -28 -47z" />
    <glyph glyph-name="omacron" unicode="&#x14d;" horiz-adv-x="408" 
d="M203 -9q-51 0 -91.5 34.5t-64.5 94.5t-24 134t24 133t65 94t91 35q51 0 91.5 -35t64.5 -94t24 -133t-23.5 -134t-64.5 -94.5t-92 -34.5zM203 16q104 0 104 238q0 237 -104 237t-104 -237q0 -238 104 -238zM70 636q-12 0 -12 12v15q0 12 12 12h267q12 0 12 -12v-15
q0 -12 -12 -12h-267z" />
    <glyph glyph-name="oslash" unicode="&#xf8;" horiz-adv-x="408" 
d="M72 -50q-13 0 -8 12l33 77q-34 35 -54 91t-20 124q0 74 24 133t65 94t91 35q46 0 85 -30l28 66q3 8 11 8h7q13 0 8 -12l-34 -80q34 -35 54.5 -91t20.5 -123q0 -74 -23.5 -134t-64.5 -94.5t-92 -34.5q-46 0 -86 30l-27 -63q-3 -8 -11 -8h-7zM99 254q0 -106 20 -164
l153 359q-25 42 -69 42q-104 0 -104 -237zM203 16q104 0 104 238q0 106 -21 164l-153 -360q25 -42 70 -42z" />
    <glyph glyph-name="otilde" unicode="&#xf5;" horiz-adv-x="408" 
d="M203 -9q-51 0 -91.5 34.5t-64.5 94.5t-24 134t24 133t65 94t91 35q51 0 91.5 -35t64.5 -94t24 -133t-23.5 -134t-64.5 -94.5t-92 -34.5zM203 16q104 0 104 238q0 237 -104 237t-104 -237q0 -238 104 -238zM267 597q-26 0 -43.5 10t-31.5 22.5t-29 22.5t-36 10
q-25 0 -39 -12.5t-23 -38.5q-4 -12 -14 -12q-13 0 -10 15q10 51 36.5 77.5t63.5 26.5q25 0 42.5 -10t32.5 -22.5t30.5 -22.5t34.5 -10q25 0 39 12.5t23 38.5q5 12 14 12q13 0 10 -15q-10 -51 -36 -77.5t-64 -26.5z" />
    <glyph glyph-name="oe" unicode="&#x153;" horiz-adv-x="639" 
d="M203 -9q-51 0 -91.5 34.5t-64.5 94.5t-24 134t24 133t65 94t91 35q45 0 80.5 -28t57.5 -75q24 48 60.5 75.5t80.5 27.5q59 0 95.5 -48.5t36.5 -157.5q0 -33 -25 -33h-190q-20 0 -20 -23q0 -106 31 -159t79 -53q38 0 62 27t39 91q3 11 13 11q12 0 9 -20
q-16 -89 -51 -124.5t-85 -35.5q-43 0 -78.5 26t-58.5 73q-22 -46 -57 -72.5t-79 -26.5zM203 16q104 0 104 238q0 237 -104 237t-104 -237q0 -238 104 -238zM396 302h101q48 0 48 50q0 65 -16 102t-48 37q-39 0 -65.5 -45t-34.5 -128q-2 -16 15 -16z" />
    <glyph glyph-name="p" unicode="p" horiz-adv-x="444" 
d="M27 -205q-15 0 -15 11t13 12l14 2q21 3 27.5 12t6.5 30v541q0 18 -5.5 24.5t-19.5 8.5l-21 3q-13 1 -13 11q0 8 16 11q31 5 47.5 16t34.5 27q9 9 15 9q9 0 9 -12v-31q0 -7 6 -9.5t14 5.5l11 11q20 20 41 29.5t48 9.5q46 0 81.5 -30.5t56 -84.5t20.5 -127q0 -83 -26 -147
t-71.5 -100t-104.5 -36q-30 0 -53 11q-18 8 -18 -11v-129q0 -21 6.5 -28.5t27.5 -10.5l37 -5q11 -2 11 -11q0 -12 -15 -12h-181zM215 16q56 0 90.5 66t34.5 178q0 103 -30 157t-85 54q-34 0 -59 -28t-25 -78v-252q0 -45 20.5 -71t53.5 -26z" />
    <glyph glyph-name="thorn" unicode="&#xfe;" horiz-adv-x="444" 
d="M27 -205q-15 0 -15 11t13 12l14 2q21 3 27.5 12t6.5 30v778q0 18 -8 24.5t-22 8.5l-21 3q-11 2 -11 12t11 12q28 6 47 14t32 16q16 10 24 10q11 0 11 -16v-254q0 -7 6 -9.5t14 5.5l11 11q20 20 41 29.5t48 9.5q46 0 81.5 -30.5t56 -84.5t20.5 -127q0 -83 -26 -147
t-71.5 -100t-104.5 -36q-30 0 -53 11q-18 8 -18 -11v-129q0 -21 6.5 -28.5t27.5 -10.5l37 -5q11 -2 11 -11q0 -12 -15 -12h-181zM215 16q56 0 90.5 66t34.5 178q0 103 -30 157t-85 54q-34 0 -59 -28t-25 -78v-252q0 -45 20.5 -71t53.5 -26z" />
    <glyph glyph-name="q" unicode="q" horiz-adv-x="442" 
d="M236 -205q-15 0 -15 12q0 9 11 11l37 5q21 3 27.5 10.5t6.5 28.5v183q0 8 -7 10.5t-14 -5.5q-25 -33 -47 -46t-54 -13q-44 0 -78.5 30.5t-53.5 85t-19 126.5q0 84 26 147.5t72 99.5t104 36q20 0 37.5 -6t36.5 -20q22 -15 40 8q10 11 15.5 14.5t9.5 3.5q11 0 8 -14
q-4 -22 -6 -58.5t-2 -96.5v-485q0 -21 6.5 -30t27.5 -12l14 -2q13 -1 13 -12t-15 -11h-181zM203 37q26 0 48.5 17.5t37 47.5t14.5 67v225q0 45 -20.5 71t-53.5 26q-56 0 -90.5 -65.5t-34.5 -178.5q0 -103 26.5 -156.5t72.5 -53.5z" />
    <glyph glyph-name="r" unicode="r" horiz-adv-x="318" 
d="M154 446q41 70 99 70q33 0 49 -19.5t16 -43.5q0 -19 -9.5 -31t-29.5 -12q-16 0 -23.5 7.5t-12 17.5t-10.5 17.5t-20 7.5q-18 0 -34 -21.5t-26.5 -57.5t-10.5 -82v-232q0 -21 6.5 -30t27.5 -11l27 -3q11 -2 11 -11q0 -12 -15 -12h-169q-15 0 -15 11q0 9 13 12l12 2
q21 4 27.5 12.5t6.5 29.5v336q0 18 -5.5 24.5t-19.5 8.5l-21 3q-13 1 -13 11q0 8 16 11q31 5 47.5 16t34.5 27q9 9 15 9q9 0 9 -12v-54q0 -7 6 -8.5t11 7.5z" />
    <glyph glyph-name="racute" unicode="&#x155;" horiz-adv-x="318" 
d="M154 446q41 70 99 70q33 0 49 -19.5t16 -43.5q0 -19 -9.5 -31t-29.5 -12q-16 0 -23.5 7.5t-12 17.5t-10.5 17.5t-20 7.5q-18 0 -34 -21.5t-26.5 -57.5t-10.5 -82v-232q0 -21 6.5 -30t27.5 -11l27 -3q11 -2 11 -11q0 -12 -15 -12h-169q-15 0 -15 11q0 9 13 12l12 2
q21 4 27.5 12.5t6.5 29.5v336q0 18 -5.5 24.5t-19.5 8.5l-21 3q-13 1 -13 11q0 8 16 11q31 5 47.5 16t34.5 27q9 9 15 9q9 0 9 -12v-54q0 -7 6 -8.5t11 7.5zM67 586q-17 -7 -23 4q-7 11 9 22l144 112q10 8 19 12t22 4q18 0 28 -10.5t10 -22.5q0 -13 -6.5 -22.5t-24.5 -17.5z
" />
    <glyph glyph-name="rcaron" unicode="&#x159;" horiz-adv-x="318" 
d="M154 446q41 70 99 70q33 0 49 -19.5t16 -43.5q0 -19 -9.5 -31t-29.5 -12q-16 0 -23.5 7.5t-12 17.5t-10.5 17.5t-20 7.5q-18 0 -34 -21.5t-26.5 -57.5t-10.5 -82v-232q0 -21 6.5 -30t27.5 -11l27 -3q11 -2 11 -11q0 -12 -15 -12h-169q-15 0 -15 11q0 9 13 12l12 2
q21 4 27.5 12.5t6.5 29.5v336q0 18 -5.5 24.5t-19.5 8.5l-21 3q-13 1 -13 11q0 8 16 11q31 5 47.5 16t34.5 27q9 9 15 9q9 0 9 -12v-54q0 -7 6 -8.5t11 7.5zM149 583q-14 0 -25 11l-116 122q-10 11 -3 19q8 10 20 2l133 -91l134 90q14 9 20 -1q7 -8 -3 -19l-116 -122
q-11 -11 -25 -11h-19z" />
    <glyph glyph-name="uni0157" unicode="&#x157;" horiz-adv-x="318" 
d="M154 446q41 70 99 70q33 0 49 -19.5t16 -43.5q0 -19 -9.5 -31t-29.5 -12q-16 0 -23.5 7.5t-12 17.5t-10.5 17.5t-20 7.5q-18 0 -34 -21.5t-26.5 -57.5t-10.5 -82v-232q0 -21 6.5 -30t27.5 -11l27 -3q11 -2 11 -11q0 -12 -15 -12h-169q-15 0 -15 11q0 9 13 12l12 2
q21 4 27.5 12.5t6.5 29.5v336q0 18 -5.5 24.5t-19.5 8.5l-21 3q-13 1 -13 11q0 8 16 11q31 5 47.5 16t34.5 27q9 9 15 9q9 0 9 -12v-54q0 -7 6 -8.5t11 7.5zM110 -67q25 0 39.5 -20.5t14.5 -51.5q0 -49 -20.5 -85.5t-65.5 -74.5q-12 -10 -20 -4q-9 7 3 19q29 29 40 48t11 38
q0 16 -7.5 25t-17.5 15.5t-17.5 16t-7.5 27.5q0 20 13.5 33.5t34.5 13.5z" />
    <glyph glyph-name="s" unicode="s" horiz-adv-x="308" 
d="M131 -9q-23 0 -49 5.5t-42 13.5q-9 5 -9 17l-3 112q0 17 13 17q11 0 15 -16q17 -71 41.5 -97t59.5 -26q29 0 48 22.5t19 62.5t-22 71t-74 68q-52 35 -76 70.5t-24 77.5q0 57 40 92t106 35q20 0 39 -4.5t34 -14.5q9 -6 9 -16l2 -110q0 -15 -12 -15q-7 0 -10 4.5t-5 11.5
q-20 65 -40 90.5t-49 25.5q-26 0 -43 -18t-17 -45q0 -35 21 -61t76 -64q50 -36 75.5 -77.5t25.5 -90.5q0 -64 -41 -102.5t-108 -38.5z" />
    <glyph glyph-name="sacute" unicode="&#x15b;" horiz-adv-x="308" 
d="M131 -9q-23 0 -49 5.5t-42 13.5q-9 5 -9 17l-3 112q0 17 13 17q11 0 15 -16q17 -71 41.5 -97t59.5 -26q29 0 48 22.5t19 62.5t-22 71t-74 68q-52 35 -76 70.5t-24 77.5q0 57 40 92t106 35q20 0 39 -4.5t34 -14.5q9 -6 9 -16l2 -110q0 -15 -12 -15q-7 0 -10 4.5t-5 11.5
q-20 65 -40 90.5t-49 25.5q-26 0 -43 -18t-17 -45q0 -35 21 -61t76 -64q50 -36 75.5 -77.5t25.5 -90.5q0 -64 -41 -102.5t-108 -38.5zM62 586q-17 -7 -23 4q-7 11 9 22l144 112q10 8 19 12t22 4q18 0 28 -10.5t10 -22.5q0 -13 -6.5 -22.5t-24.5 -17.5z" />
    <glyph glyph-name="scaron" unicode="&#x161;" horiz-adv-x="308" 
d="M131 -9q-23 0 -49 5.5t-42 13.5q-9 5 -9 17l-3 112q0 17 13 17q11 0 15 -16q17 -71 41.5 -97t59.5 -26q29 0 48 22.5t19 62.5t-22 71t-74 68q-52 35 -76 70.5t-24 77.5q0 57 40 92t106 35q20 0 39 -4.5t34 -14.5q9 -6 9 -16l2 -110q0 -15 -12 -15q-7 0 -10 4.5t-5 11.5
q-20 65 -40 90.5t-49 25.5q-26 0 -43 -18t-17 -45q0 -35 21 -61t76 -64q50 -36 75.5 -77.5t25.5 -90.5q0 -64 -41 -102.5t-108 -38.5zM144 583q-14 0 -25 11l-116 122q-10 11 -3 19q8 10 20 2l133 -91l134 90q14 9 20 -1q7 -8 -3 -19l-116 -122q-11 -11 -25 -11h-19z" />
    <glyph glyph-name="scedilla" unicode="&#x15f;" horiz-adv-x="308" 
d="M131 -9q-23 0 -49 5.5t-42 13.5q-9 5 -9 17l-3 112q0 17 13 17q11 0 15 -16q17 -71 41.5 -97t59.5 -26q29 0 48 22.5t19 62.5t-22 71t-74 68q-52 35 -76 70.5t-24 77.5q0 57 40 92t106 35q20 0 39 -4.5t34 -14.5q9 -6 9 -16l2 -110q0 -15 -12 -15q-7 0 -10 4.5t-5 11.5
q-20 65 -40 90.5t-49 25.5q-26 0 -43 -18t-17 -45q0 -35 21 -61t76 -64q50 -36 75.5 -77.5t25.5 -90.5q0 -64 -41 -102.5t-108 -38.5zM160 12l-10 -55q-1 -6 4 -6q40 -7 58.5 -31t18.5 -53q0 -39 -28 -60.5t-66 -21.5q-39 0 -63 18t-24 41q0 11 6 18t17 7q15 0 20 -9.5
t8.5 -22.5t11 -22.5t26.5 -9.5q24 0 35 16.5t11 40.5q0 22 -14 36.5t-41 17.5q-9 2 -8 13l15 83h23z" />
    <glyph glyph-name="uni0219" unicode="&#x219;" horiz-adv-x="308" 
d="M131 -9q-23 0 -49 5.5t-42 13.5q-9 5 -9 17l-3 112q0 17 13 17q11 0 15 -16q17 -71 41.5 -97t59.5 -26q29 0 48 22.5t19 62.5t-22 71t-74 68q-52 35 -76 70.5t-24 77.5q0 57 40 92t106 35q20 0 39 -4.5t34 -14.5q9 -6 9 -16l2 -110q0 -15 -12 -15q-7 0 -10 4.5t-5 11.5
q-20 65 -40 90.5t-49 25.5q-26 0 -43 -18t-17 -45q0 -35 21 -61t76 -64q50 -36 75.5 -77.5t25.5 -90.5q0 -64 -41 -102.5t-108 -38.5zM145 -67q25 0 39.5 -20.5t14.5 -51.5q0 -49 -20.5 -85.5t-65.5 -74.5q-12 -10 -20 -4q-9 7 3 19q29 29 40 48t11 38q0 16 -7.5 25
t-17.5 15.5t-17.5 16t-7.5 27.5q0 20 13.5 33.5t34.5 13.5z" />
    <glyph glyph-name="germandbls" unicode="&#xdf;" horiz-adv-x="443" 
d="M297 -9q-28 0 -50 5.5t-38 13.5q-9 5 -9 17l-3 112q0 17 13 17q11 0 15 -16q17 -71 35 -97t51 -26q27 0 47 22.5t20 62.5t-20.5 72t-63.5 61q-52 35 -74.5 69t-22.5 75q0 33 13.5 57.5t33 45.5t39 43t33 50.5t13.5 67.5q0 34 -17 54t-53 20q-43 0 -74.5 -35t-31.5 -112
v-550q0 -20 -20 -20h-105q-15 0 -15 11t13 12l25 2q21 2 27.5 11.5t6.5 30.5v391q0 24 -24 24h-23q-12 0 -12 10t12 11q47 5 47 41q0 55 21.5 101.5t61.5 74.5t96 28q44 0 72.5 -17.5t42.5 -42.5t14 -50q0 -34 -15.5 -61t-38 -48.5t-45 -41t-38 -39.5t-15.5 -43q0 -18 8 -34
t28.5 -33.5t57.5 -43.5q46 -31 71 -72t25 -90q0 -64 -36 -102.5t-98 -38.5z" />
    <glyph glyph-name="t" unicode="t" horiz-adv-x="259" 
d="M147 -9q-35 0 -57.5 24.5t-22.5 80.5v374q0 12 -12 12h-29q-16 0 -16 12q0 8 9 14q33 23 53 49.5t35 72.5q7 21 17 21q11 0 11 -16v-111q0 -14 14 -14h65q16 0 16 -14t-16 -14h-65q-14 0 -14 -14v-373q0 -22 7 -34.5t26 -12.5q21 0 34.5 21t17.5 68q2 14 13 14
q12 0 12 -15q-3 -77 -31.5 -111t-66.5 -34z" />
    <glyph glyph-name="tcaron" unicode="&#x165;" horiz-adv-x="259" 
d="M147 -9q-35 0 -57.5 24.5t-22.5 80.5v374q0 12 -12 12h-29q-16 0 -16 12q0 8 9 14q33 23 53 49.5t35 72.5q7 21 17 21q11 0 11 -16v-111q0 -14 14 -14h65q16 0 16 -14t-16 -14h-65q-14 0 -14 -14v-373q0 -22 7 -34.5t26 -12.5q21 0 34.5 21t17.5 68q2 14 13 14
q12 0 12 -15q-3 -77 -31.5 -111t-66.5 -34zM248 543q-3 -12 -17 -12q-12 0 -12 16l4 162q1 26 11.5 38.5t26.5 12.5q19 0 26 -15t1 -40z" />
    <glyph glyph-name="uni021B" unicode="&#x21b;" horiz-adv-x="259" 
d="M147 -9q-35 0 -57.5 24.5t-22.5 80.5v374q0 12 -12 12h-29q-16 0 -16 12q0 8 9 14q33 23 53 49.5t35 72.5q7 21 17 21q11 0 11 -16v-111q0 -14 14 -14h65q16 0 16 -14t-16 -14h-65q-14 0 -14 -14v-373q0 -22 7 -34.5t26 -12.5q21 0 34.5 21t17.5 68q2 14 13 14
q12 0 12 -15q-3 -77 -31.5 -111t-66.5 -34zM151 -67q25 0 39.5 -20.5t14.5 -51.5q0 -49 -20.5 -85.5t-65.5 -74.5q-12 -10 -20 -4q-9 7 3 19q29 29 40 48t11 38q0 16 -7.5 25t-17.5 15.5t-17.5 16t-7.5 27.5q0 20 13.5 33.5t34.5 13.5z" />
    <glyph glyph-name="u" unicode="u" horiz-adv-x="454" 
d="M171 -9q-25 0 -48 11t-38 35t-15 64v348q0 18 -5.5 25t-19.5 8l-17 2q-17 2 -17 13q0 13 19 13h93q15 0 15 -15v-373q0 -46 17.5 -65.5t48.5 -19.5t55 17.5t38.5 47t14.5 64.5v283q0 18 -5.5 25t-19.5 8l-17 2q-17 2 -17 13q0 13 19 13h93q15 0 15 -15v-388
q0 -18 5.5 -24.5t19.5 -8.5l21 -3q13 -1 13 -10t-16 -12q-31 -4 -49.5 -16t-32.5 -29q-9 -9 -15 -9q-9 0 -9 12v46q0 8 -5.5 9.5t-11.5 -4.5q-37 -37 -65.5 -52t-63.5 -15z" />
    <glyph glyph-name="uacute" unicode="&#xfa;" horiz-adv-x="454" 
d="M171 -9q-25 0 -48 11t-38 35t-15 64v348q0 18 -5.5 25t-19.5 8l-17 2q-17 2 -17 13q0 13 19 13h93q15 0 15 -15v-373q0 -46 17.5 -65.5t48.5 -19.5t55 17.5t38.5 47t14.5 64.5v283q0 18 -5.5 25t-19.5 8l-17 2q-17 2 -17 13q0 13 19 13h93q15 0 15 -15v-388
q0 -18 5.5 -24.5t19.5 -8.5l21 -3q13 -1 13 -10t-16 -12q-31 -4 -49.5 -16t-32.5 -29q-9 -9 -15 -9q-9 0 -9 12v46q0 8 -5.5 9.5t-11.5 -4.5q-37 -37 -65.5 -52t-63.5 -15zM124 586q-17 -7 -23 4q-7 11 9 22l144 112q10 8 19 12t22 4q18 0 28 -10.5t10 -22.5
q0 -13 -6.5 -22.5t-24.5 -17.5z" />
    <glyph glyph-name="ubreve" unicode="&#x16d;" horiz-adv-x="454" 
d="M171 -9q-25 0 -48 11t-38 35t-15 64v348q0 18 -5.5 25t-19.5 8l-17 2q-17 2 -17 13q0 13 19 13h93q15 0 15 -15v-373q0 -46 17.5 -65.5t48.5 -19.5t55 17.5t38.5 47t14.5 64.5v283q0 18 -5.5 25t-19.5 8l-17 2q-17 2 -17 13q0 13 19 13h93q15 0 15 -15v-388
q0 -18 5.5 -24.5t19.5 -8.5l21 -3q13 -1 13 -10t-16 -12q-31 -4 -49.5 -16t-32.5 -29q-9 -9 -15 -9q-9 0 -9 12v46q0 8 -5.5 9.5t-11.5 -4.5q-37 -37 -65.5 -52t-63.5 -15zM216 579q-53 0 -92.5 35.5t-50.5 97.5q-3 18 10 18q11 0 14 -12q11 -43 43 -62.5t76 -19.5t76 19.5
t43 62.5q3 12 14 12q13 0 10 -18q-11 -62 -50.5 -97.5t-92.5 -35.5z" />
    <glyph glyph-name="ucircumflex" unicode="&#xfb;" horiz-adv-x="454" 
d="M171 -9q-25 0 -48 11t-38 35t-15 64v348q0 18 -5.5 25t-19.5 8l-17 2q-17 2 -17 13q0 13 19 13h93q15 0 15 -15v-373q0 -46 17.5 -65.5t48.5 -19.5t55 17.5t38.5 47t14.5 64.5v283q0 18 -5.5 25t-19.5 8l-17 2q-17 2 -17 13q0 13 19 13h93q15 0 15 -15v-388
q0 -18 5.5 -24.5t19.5 -8.5l21 -3q13 -1 13 -10t-16 -12q-31 -4 -49.5 -16t-32.5 -29q-9 -9 -15 -9q-9 0 -9 12v46q0 8 -5.5 9.5t-11.5 -4.5q-37 -37 -65.5 -52t-63.5 -15zM82 586q-12 -8 -20 2q-7 8 3 19l116 122q11 11 25 11h19q14 0 25 -11l116 -122q10 -11 3 -19
q-6 -10 -20 -1l-134 90z" />
    <glyph glyph-name="udieresis" unicode="&#xfc;" horiz-adv-x="454" 
d="M171 -9q-25 0 -48 11t-38 35t-15 64v348q0 18 -5.5 25t-19.5 8l-17 2q-17 2 -17 13q0 13 19 13h93q15 0 15 -15v-373q0 -46 17.5 -65.5t48.5 -19.5t55 17.5t38.5 47t14.5 64.5v283q0 18 -5.5 25t-19.5 8l-17 2q-17 2 -17 13q0 13 19 13h93q15 0 15 -15v-388
q0 -18 5.5 -24.5t19.5 -8.5l21 -3q13 -1 13 -10t-16 -12q-31 -4 -49.5 -16t-32.5 -29q-9 -9 -15 -9q-9 0 -9 12v46q0 8 -5.5 9.5t-11.5 -4.5q-37 -37 -65.5 -52t-63.5 -15zM121 605q-21 0 -35.5 14.5t-14.5 36.5t14.5 36t35.5 14t35 -14t14 -36t-14 -36.5t-35 -14.5z
M311 605q-21 0 -35.5 14.5t-14.5 36.5t14.5 36t35.5 14t35 -14t14 -36t-14 -36.5t-35 -14.5z" />
    <glyph glyph-name="ugrave" unicode="&#xf9;" horiz-adv-x="454" 
d="M171 -9q-25 0 -48 11t-38 35t-15 64v348q0 18 -5.5 25t-19.5 8l-17 2q-17 2 -17 13q0 13 19 13h93q15 0 15 -15v-373q0 -46 17.5 -65.5t48.5 -19.5t55 17.5t38.5 47t14.5 64.5v283q0 18 -5.5 25t-19.5 8l-17 2q-17 2 -17 13q0 13 19 13h93q15 0 15 -15v-388
q0 -18 5.5 -24.5t19.5 -8.5l21 -3q13 -1 13 -10t-16 -12q-31 -4 -49.5 -16t-32.5 -29q-9 -9 -15 -9q-9 0 -9 12v46q0 8 -5.5 9.5t-11.5 -4.5q-37 -37 -65.5 -52t-63.5 -15zM307 586l-178 81q-18 8 -24.5 17.5t-6.5 22.5q0 12 10 22.5t28 10.5q13 0 22 -4t19 -12l144 -112
q16 -11 9 -22q-6 -11 -23 -4z" />
    <glyph glyph-name="uhungarumlaut" unicode="&#x171;" horiz-adv-x="454" 
d="M171 -9q-25 0 -48 11t-38 35t-15 64v348q0 18 -5.5 25t-19.5 8l-17 2q-17 2 -17 13q0 13 19 13h93q15 0 15 -15v-373q0 -46 17.5 -65.5t48.5 -19.5t55 17.5t38.5 47t14.5 64.5v283q0 18 -5.5 25t-19.5 8l-17 2q-17 2 -17 13q0 13 19 13h93q15 0 15 -15v-388
q0 -18 5.5 -24.5t19.5 -8.5l21 -3q13 -1 13 -10t-16 -12q-31 -4 -49.5 -16t-32.5 -29q-9 -9 -15 -9q-9 0 -9 12v46q0 8 -5.5 9.5t-11.5 -4.5q-37 -37 -65.5 -52t-63.5 -15zM127 590q-13 -10 -22 -4t-1 23l52 95q10 19 20.5 27.5t26.5 8.5q17 0 26.5 -9t9.5 -22
q0 -23 -28 -47zM277 590q-13 -10 -22 -4t-1 23l52 95q10 19 20.5 27.5t26.5 8.5q17 0 26.5 -9t9.5 -22q0 -23 -28 -47z" />
    <glyph glyph-name="umacron" unicode="&#x16b;" horiz-adv-x="454" 
d="M171 -9q-25 0 -48 11t-38 35t-15 64v348q0 18 -5.5 25t-19.5 8l-17 2q-17 2 -17 13q0 13 19 13h93q15 0 15 -15v-373q0 -46 17.5 -65.5t48.5 -19.5t55 17.5t38.5 47t14.5 64.5v283q0 18 -5.5 25t-19.5 8l-17 2q-17 2 -17 13q0 13 19 13h93q15 0 15 -15v-388
q0 -18 5.5 -24.5t19.5 -8.5l21 -3q13 -1 13 -10t-16 -12q-31 -4 -49.5 -16t-32.5 -29q-9 -9 -15 -9q-9 0 -9 12v46q0 8 -5.5 9.5t-11.5 -4.5q-37 -37 -65.5 -52t-63.5 -15zM82 636q-12 0 -12 12v15q0 12 12 12h267q12 0 12 -12v-15q0 -12 -12 -12h-267z" />
    <glyph glyph-name="uogonek" unicode="&#x173;" horiz-adv-x="454" 
d="M171 -9q-25 0 -48 11t-38 35t-15 64v348q0 18 -5.5 25t-19.5 8l-17 2q-17 2 -17 13q0 13 19 13h93q15 0 15 -15v-373q0 -46 17.5 -65.5t48.5 -19.5t55 17.5t38.5 47t14.5 64.5v283q0 18 -5.5 25t-19.5 8l-17 2q-17 2 -17 13q0 13 19 13h93q15 0 15 -15v-388
q0 -18 5.5 -24.5t19.5 -8.5l21 -3q13 -1 13 -10t-16 -12q-31 -4 -49.5 -16t-32.5 -29q-9 -9 -15 -9q-9 0 -9 12v46q0 8 -5.5 9.5t-11.5 -4.5q-37 -37 -65.5 -52t-63.5 -15zM276 -216q-28 0 -51 18t-23 55q0 28 16.5 58t44.5 55.5t63 39.5l10 -10q-44 -25 -66 -60t-22 -73
q0 -29 11 -41t28 -12q24 0 42 21q11 14 20 3q6 -9 -5 -21q-14 -16 -30 -24.5t-38 -8.5z" />
    <glyph glyph-name="uring" unicode="&#x16f;" horiz-adv-x="454" 
d="M171 -9q-25 0 -48 11t-38 35t-15 64v348q0 18 -5.5 25t-19.5 8l-17 2q-17 2 -17 13q0 13 19 13h93q15 0 15 -15v-373q0 -46 17.5 -65.5t48.5 -19.5t55 17.5t38.5 47t14.5 64.5v283q0 18 -5.5 25t-19.5 8l-17 2q-17 2 -17 13q0 13 19 13h93q15 0 15 -15v-388
q0 -18 5.5 -24.5t19.5 -8.5l21 -3q13 -1 13 -10t-16 -12q-31 -4 -49.5 -16t-32.5 -29q-9 -9 -15 -9q-9 0 -9 12v46q0 8 -5.5 9.5t-11.5 -4.5q-37 -37 -65.5 -52t-63.5 -15zM216 561q-46 0 -77 31.5t-31 76.5q0 44 31 75.5t77 31.5t76.5 -31.5t30.5 -75.5q0 -45 -30.5 -76.5
t-76.5 -31.5zM216 588q34 0 55.5 23.5t21.5 57.5q0 33 -21.5 56.5t-55.5 23.5t-56 -23.5t-22 -56.5q0 -34 22 -57.5t56 -23.5z" />
    <glyph glyph-name="v" unicode="v" horiz-adv-x="393" 
d="M194 -9q-9 0 -13 11l-133 441q-7 24 -13.5 31t-20.5 10l-15 3q-13 3 -13 13t14 10h165q14 0 14 -10q0 -11 -13 -13l-16 -2q-24 -3 -30 -11.5t0 -30.5l83 -289q3 -11 10 -11t10 11l81 271q8 27 4.5 40.5t-28.5 17.5l-21 4q-13 3 -13 13t14 10h127q14 0 14 -11
q0 -10 -12 -14l-9 -3q-15 -5 -25.5 -18t-20.5 -45l-127 -417q-4 -11 -13 -11z" />
    <glyph glyph-name="w" unicode="w" horiz-adv-x="597" 
d="M187 -9q-13 0 -18 20l-121 432q-7 24 -13.5 31t-20.5 10l-15 3q-13 3 -13 13t14 10h162q14 0 14 -10q0 -11 -13 -13l-16 -2q-24 -3 -30 -11.5t0 -30.5l79 -291q3 -10 9.5 -10t9.5 10l68 259q2 8 2.5 16t-2.5 17q-7 24 -13.5 30.5t-20.5 9.5l-15 3q-13 3 -13 13t14 10h162
q14 0 14 -10q0 -11 -13 -13l-16 -2q-24 -3 -29 -11.5t-1 -30.5l64 -289q2 -10 8.5 -10t9.5 10l76 271q8 27 4.5 40.5t-28.5 17.5l-21 4q-13 3 -13 13t14 10h125q14 0 14 -11q0 -10 -12 -14l-9 -3q-15 -5 -26 -18t-20 -45l-114 -408q-5 -20 -19 -20q-12 0 -17 20l-78 320
q-3 11 -9.5 11.5t-9.5 -11.5l-86 -320q-5 -20 -18 -20z" />
    <glyph glyph-name="wacute" unicode="&#x1e83;" horiz-adv-x="597" 
d="M187 -9q-13 0 -18 20l-121 432q-7 24 -13.5 31t-20.5 10l-15 3q-13 3 -13 13t14 10h162q14 0 14 -10q0 -11 -13 -13l-16 -2q-24 -3 -30 -11.5t0 -30.5l79 -291q3 -10 9.5 -10t9.5 10l68 259q2 8 2.5 16t-2.5 17q-7 24 -13.5 30.5t-20.5 9.5l-15 3q-13 3 -13 13t14 10h162
q14 0 14 -10q0 -11 -13 -13l-16 -2q-24 -3 -29 -11.5t-1 -30.5l64 -289q2 -10 8.5 -10t9.5 10l76 271q8 27 4.5 40.5t-28.5 17.5l-21 4q-13 3 -13 13t14 10h125q14 0 14 -11q0 -10 -12 -14l-9 -3q-15 -5 -26 -18t-20 -45l-114 -408q-5 -20 -19 -20q-12 0 -17 20l-78 320
q-3 11 -9.5 11.5t-9.5 -11.5l-86 -320q-5 -20 -18 -20zM219 586q-17 -7 -23 4q-7 11 9 22l144 112q10 8 19 12t22 4q18 0 28 -10.5t10 -22.5q0 -13 -6.5 -22.5t-24.5 -17.5z" />
    <glyph glyph-name="wcircumflex" unicode="&#x175;" horiz-adv-x="597" 
d="M187 -9q-13 0 -18 20l-121 432q-7 24 -13.5 31t-20.5 10l-15 3q-13 3 -13 13t14 10h162q14 0 14 -10q0 -11 -13 -13l-16 -2q-24 -3 -30 -11.5t0 -30.5l79 -291q3 -10 9.5 -10t9.5 10l68 259q2 8 2.5 16t-2.5 17q-7 24 -13.5 30.5t-20.5 9.5l-15 3q-13 3 -13 13t14 10h162
q14 0 14 -10q0 -11 -13 -13l-16 -2q-24 -3 -29 -11.5t-1 -30.5l64 -289q2 -10 8.5 -10t9.5 10l76 271q8 27 4.5 40.5t-28.5 17.5l-21 4q-13 3 -13 13t14 10h125q14 0 14 -11q0 -10 -12 -14l-9 -3q-15 -5 -26 -18t-20 -45l-114 -408q-5 -20 -19 -20q-12 0 -17 20l-78 320
q-3 11 -9.5 11.5t-9.5 -11.5l-86 -320q-5 -20 -18 -20zM177 586q-12 -8 -20 2q-7 8 3 19l116 122q11 11 25 11h19q14 0 25 -11l116 -122q10 -11 3 -19q-6 -10 -20 -1l-134 90z" />
    <glyph glyph-name="wdieresis" unicode="&#x1e85;" horiz-adv-x="597" 
d="M187 -9q-13 0 -18 20l-121 432q-7 24 -13.5 31t-20.5 10l-15 3q-13 3 -13 13t14 10h162q14 0 14 -10q0 -11 -13 -13l-16 -2q-24 -3 -30 -11.5t0 -30.5l79 -291q3 -10 9.5 -10t9.5 10l68 259q2 8 2.5 16t-2.5 17q-7 24 -13.5 30.5t-20.5 9.5l-15 3q-13 3 -13 13t14 10h162
q14 0 14 -10q0 -11 -13 -13l-16 -2q-24 -3 -29 -11.5t-1 -30.5l64 -289q2 -10 8.5 -10t9.5 10l76 271q8 27 4.5 40.5t-28.5 17.5l-21 4q-13 3 -13 13t14 10h125q14 0 14 -11q0 -10 -12 -14l-9 -3q-15 -5 -26 -18t-20 -45l-114 -408q-5 -20 -19 -20q-12 0 -17 20l-78 320
q-3 11 -9.5 11.5t-9.5 -11.5l-86 -320q-5 -20 -18 -20zM216 605q-21 0 -35.5 14.5t-14.5 36.5t14.5 36t35.5 14t35 -14t14 -36t-14 -36.5t-35 -14.5zM406 605q-21 0 -35.5 14.5t-14.5 36.5t14.5 36t35.5 14t35 -14t14 -36t-14 -36.5t-35 -14.5z" />
    <glyph glyph-name="wgrave" unicode="&#x1e81;" horiz-adv-x="597" 
d="M187 -9q-13 0 -18 20l-121 432q-7 24 -13.5 31t-20.5 10l-15 3q-13 3 -13 13t14 10h162q14 0 14 -10q0 -11 -13 -13l-16 -2q-24 -3 -30 -11.5t0 -30.5l79 -291q3 -10 9.5 -10t9.5 10l68 259q2 8 2.5 16t-2.5 17q-7 24 -13.5 30.5t-20.5 9.5l-15 3q-13 3 -13 13t14 10h162
q14 0 14 -10q0 -11 -13 -13l-16 -2q-24 -3 -29 -11.5t-1 -30.5l64 -289q2 -10 8.5 -10t9.5 10l76 271q8 27 4.5 40.5t-28.5 17.5l-21 4q-13 3 -13 13t14 10h125q14 0 14 -11q0 -10 -12 -14l-9 -3q-15 -5 -26 -18t-20 -45l-114 -408q-5 -20 -19 -20q-12 0 -17 20l-78 320
q-3 11 -9.5 11.5t-9.5 -11.5l-86 -320q-5 -20 -18 -20zM402 586l-178 81q-18 8 -24.5 17.5t-6.5 22.5q0 12 10 22.5t28 10.5q13 0 22 -4t19 -12l144 -112q16 -11 9 -22q-6 -11 -23 -4z" />
    <glyph glyph-name="x" unicode="x" horiz-adv-x="385" 
d="M227 0q-14 0 -14 10t13 13l15 3q30 7 16 33l-71 140q-4 7 -9.5 7.5t-9.5 -7.5l-65 -122q-22 -42 7 -48l26 -6q13 -3 13 -13t-14 -10h-128q-14 0 -14 11t12 14l12 3q19 5 32 15.5t33 47.5l74 136q8 15 2 29l-95 187q-11 23 -18.5 31t-17.5 10l-15 3q-13 3 -13 13t14 10
h148q14 0 14 -10t-13 -13l-15 -3q-30 -7 -16 -33l68 -132q4 -7 9 -7t9 7l60 114q22 42 -7 48l-26 6q-13 3 -13 13t14 10h128q14 0 14 -11t-12 -14l-12 -3q-19 -4 -32 -14.5t-33 -48.5l-69 -128q-9 -15 -1 -31l98 -193q12 -24 19 -31.5t17 -9.5l15 -3q13 -3 13 -13t-14 -10
h-148z" />
    <glyph glyph-name="y" unicode="y" horiz-adv-x="401" 
d="M83 -205q-27 0 -43 18.5t-16 42.5q0 19 11 32t30 13q16 0 23 -7t10 -16t6 -16t12 -7q11 0 20 15.5t25 65.5q10 30 12.5 52t-1 47t-15.5 61l-109 347q-7 24 -13.5 31t-20.5 10l-15 3q-13 3 -13 13t14 10h165q14 0 14 -10q0 -11 -13 -13l-16 -2q-24 -3 -30.5 -11.5
t0.5 -30.5l88 -293q3 -10 9.5 -10t9.5 10l85 275q8 27 4.5 40.5t-28.5 17.5l-21 4q-13 3 -13 13t14 10h127q14 0 14 -11q0 -10 -12 -14l-9 -3q-15 -5 -25 -18t-21 -45l-149 -465q-22 -70 -39.5 -104t-33.5 -44.5t-37 -10.5z" />
    <glyph glyph-name="yacute" unicode="&#xfd;" horiz-adv-x="401" 
d="M83 -205q-27 0 -43 18.5t-16 42.5q0 19 11 32t30 13q16 0 23 -7t10 -16t6 -16t12 -7q11 0 20 15.5t25 65.5q10 30 12.5 52t-1 47t-15.5 61l-109 347q-7 24 -13.5 31t-20.5 10l-15 3q-13 3 -13 13t14 10h165q14 0 14 -10q0 -11 -13 -13l-16 -2q-24 -3 -30.5 -11.5
t0.5 -30.5l88 -293q3 -10 9.5 -10t9.5 10l85 275q8 27 4.5 40.5t-28.5 17.5l-21 4q-13 3 -13 13t14 10h127q14 0 14 -11q0 -10 -12 -14l-9 -3q-15 -5 -25 -18t-21 -45l-149 -465q-22 -70 -39.5 -104t-33.5 -44.5t-37 -10.5zM109 586q-17 -7 -23 4q-7 11 9 22l144 112
q10 8 19 12t22 4q18 0 28 -10.5t10 -22.5q0 -13 -6.5 -22.5t-24.5 -17.5z" />
    <glyph glyph-name="ycircumflex" unicode="&#x177;" horiz-adv-x="401" 
d="M83 -205q-27 0 -43 18.5t-16 42.5q0 19 11 32t30 13q16 0 23 -7t10 -16t6 -16t12 -7q11 0 20 15.5t25 65.5q10 30 12.5 52t-1 47t-15.5 61l-109 347q-7 24 -13.5 31t-20.5 10l-15 3q-13 3 -13 13t14 10h165q14 0 14 -10q0 -11 -13 -13l-16 -2q-24 -3 -30.5 -11.5
t0.5 -30.5l88 -293q3 -10 9.5 -10t9.5 10l85 275q8 27 4.5 40.5t-28.5 17.5l-21 4q-13 3 -13 13t14 10h127q14 0 14 -11q0 -10 -12 -14l-9 -3q-15 -5 -25 -18t-21 -45l-149 -465q-22 -70 -39.5 -104t-33.5 -44.5t-37 -10.5zM67 586q-12 -8 -20 2q-7 8 3 19l116 122
q11 11 25 11h19q14 0 25 -11l116 -122q10 -11 3 -19q-6 -10 -20 -1l-134 90z" />
    <glyph glyph-name="ydieresis" unicode="&#xff;" horiz-adv-x="401" 
d="M83 -205q-27 0 -43 18.5t-16 42.5q0 19 11 32t30 13q16 0 23 -7t10 -16t6 -16t12 -7q11 0 20 15.5t25 65.5q10 30 12.5 52t-1 47t-15.5 61l-109 347q-7 24 -13.5 31t-20.5 10l-15 3q-13 3 -13 13t14 10h165q14 0 14 -10q0 -11 -13 -13l-16 -2q-24 -3 -30.5 -11.5
t0.5 -30.5l88 -293q3 -10 9.5 -10t9.5 10l85 275q8 27 4.5 40.5t-28.5 17.5l-21 4q-13 3 -13 13t14 10h127q14 0 14 -11q0 -10 -12 -14l-9 -3q-15 -5 -25 -18t-21 -45l-149 -465q-22 -70 -39.5 -104t-33.5 -44.5t-37 -10.5zM106 605q-21 0 -35.5 14.5t-14.5 36.5t14.5 36
t35.5 14t35 -14t14 -36t-14 -36.5t-35 -14.5zM296 605q-21 0 -35.5 14.5t-14.5 36.5t14.5 36t35.5 14t35 -14t14 -36t-14 -36.5t-35 -14.5z" />
    <glyph glyph-name="ygrave" unicode="&#x1ef3;" horiz-adv-x="401" 
d="M83 -205q-27 0 -43 18.5t-16 42.5q0 19 11 32t30 13q16 0 23 -7t10 -16t6 -16t12 -7q11 0 20 15.5t25 65.5q10 30 12.5 52t-1 47t-15.5 61l-109 347q-7 24 -13.5 31t-20.5 10l-15 3q-13 3 -13 13t14 10h165q14 0 14 -10q0 -11 -13 -13l-16 -2q-24 -3 -30.5 -11.5
t0.5 -30.5l88 -293q3 -10 9.5 -10t9.5 10l85 275q8 27 4.5 40.5t-28.5 17.5l-21 4q-13 3 -13 13t14 10h127q14 0 14 -11q0 -10 -12 -14l-9 -3q-15 -5 -25 -18t-21 -45l-149 -465q-22 -70 -39.5 -104t-33.5 -44.5t-37 -10.5zM292 586l-178 81q-18 8 -24.5 17.5t-6.5 22.5
q0 12 10 22.5t28 10.5q13 0 22 -4t19 -12l144 -112q16 -11 9 -22q-6 -11 -23 -4z" />
    <glyph glyph-name="z" unicode="z" horiz-adv-x="353" 
d="M30 0q-15 0 -15 13q0 4 3 10t7 15l224 426q5 8 1.5 14t-13.5 6h-42q-49 0 -72.5 -17t-38.5 -49l-22 -46q-6 -13 -15 -13q-13 0 -10 15l24 136q4 24 18 24q9 0 11 -6t7.5 -12t24.5 -6h200q15 0 15 -13q0 -4 -2.5 -10t-7.5 -15l-223 -426q-4 -8 -1.5 -14t13.5 -6h45
q59 0 83 16.5t39 53.5l30 73q6 13 15 13q13 0 10 -17l-26 -147q-3 -18 -21 -18h-261z" />
    <glyph glyph-name="zacute" unicode="&#x17a;" horiz-adv-x="353" 
d="M30 0q-15 0 -15 13q0 4 3 10t7 15l224 426q5 8 1.5 14t-13.5 6h-42q-49 0 -72.5 -17t-38.5 -49l-22 -46q-6 -13 -15 -13q-13 0 -10 15l24 136q4 24 18 24q9 0 11 -6t7.5 -12t24.5 -6h200q15 0 15 -13q0 -4 -2.5 -10t-7.5 -15l-223 -426q-4 -8 -1.5 -14t13.5 -6h45
q59 0 83 16.5t39 53.5l30 73q6 13 15 13q13 0 10 -17l-26 -147q-3 -18 -21 -18h-261zM111 586q-17 -7 -23 4q-7 11 9 22l144 112q10 8 19 12t22 4q18 0 28 -10.5t10 -22.5q0 -13 -6.5 -22.5t-24.5 -17.5z" />
    <glyph glyph-name="zcaron" unicode="&#x17e;" horiz-adv-x="353" 
d="M30 0q-15 0 -15 13q0 4 3 10t7 15l224 426q5 8 1.5 14t-13.5 6h-42q-49 0 -72.5 -17t-38.5 -49l-22 -46q-6 -13 -15 -13q-13 0 -10 15l24 136q4 24 18 24q9 0 11 -6t7.5 -12t24.5 -6h200q15 0 15 -13q0 -4 -2.5 -10t-7.5 -15l-223 -426q-4 -8 -1.5 -14t13.5 -6h45
q59 0 83 16.5t39 53.5l30 73q6 13 15 13q13 0 10 -17l-26 -147q-3 -18 -21 -18h-261zM193 583q-14 0 -25 11l-116 122q-10 11 -3 19q8 10 20 2l133 -91l134 90q14 9 20 -1q7 -8 -3 -19l-116 -122q-11 -11 -25 -11h-19z" />
    <glyph glyph-name="zdotaccent" unicode="&#x17c;" horiz-adv-x="353" 
d="M30 0q-15 0 -15 13q0 4 3 10t7 15l224 426q5 8 1.5 14t-13.5 6h-42q-49 0 -72.5 -17t-38.5 -49l-22 -46q-6 -13 -15 -13q-13 0 -10 15l24 136q4 24 18 24q9 0 11 -6t7.5 -12t24.5 -6h200q15 0 15 -13q0 -4 -2.5 -10t-7.5 -15l-223 -426q-4 -8 -1.5 -14t13.5 -6h45
q59 0 83 16.5t39 53.5l30 73q6 13 15 13q13 0 10 -17l-26 -147q-3 -18 -21 -18h-261zM203 605q-21 0 -35.5 15t-14.5 38t14.5 37.5t35.5 14.5t35 -14.5t14 -37.5t-14 -38t-35 -15z" />
    <glyph glyph-name="a.ss01" horiz-adv-x="389" 
d="M120 -9q-42 0 -69 26.5t-27 70.5q0 43 27 81.5t74 69.5t107 50q13 4 13 17v91q0 48 -15 68.5t-41 20.5q-25 0 -45.5 -22.5t-29.5 -75.5q-5 -32 -21.5 -46.5t-33.5 -14.5q-28 0 -28 28q0 29 16.5 57.5t43.5 52t59 37.5t64 14q99 0 99 -115v-335q0 -33 23 -33q11 0 17 5
t12 5q8 0 8 -8q0 -12 -18.5 -28t-44.5 -16t-38.5 15.5t-17.5 50.5q-1 10 -8.5 10.5t-14.5 -9.5q-24 -33 -49 -50t-62 -17zM147 37q26 0 48 18.5t36 49.5t14 70v73q0 19 -21 11q-61 -22 -94.5 -60.5t-33.5 -92.5q0 -69 51 -69z" />
    <glyph glyph-name="aacute.ss01" horiz-adv-x="389" 
d="M120 -9q-42 0 -69 26.5t-27 70.5q0 43 27 81.5t74 69.5t107 50q13 4 13 17v91q0 48 -15 68.5t-41 20.5q-25 0 -45.5 -22.5t-29.5 -75.5q-5 -32 -21.5 -46.5t-33.5 -14.5q-28 0 -28 28q0 29 16.5 57.5t43.5 52t59 37.5t64 14q99 0 99 -115v-335q0 -33 23 -33q11 0 17 5
t12 5q8 0 8 -8q0 -12 -18.5 -28t-44.5 -16t-38.5 15.5t-17.5 50.5q-1 10 -8.5 10.5t-14.5 -9.5q-24 -33 -49 -50t-62 -17zM147 37q26 0 48 18.5t36 49.5t14 70v73q0 19 -21 11q-61 -22 -94.5 -60.5t-33.5 -92.5q0 -69 51 -69zM85 586q-17 -7 -23 4q-7 11 9 22l144 112
q10 8 19 12t22 4q18 0 28 -10.5t10 -22.5q0 -13 -6.5 -22.5t-24.5 -17.5z" />
    <glyph glyph-name="abreve.ss01" horiz-adv-x="389" 
d="M120 -9q-42 0 -69 26.5t-27 70.5q0 43 27 81.5t74 69.5t107 50q13 4 13 17v91q0 48 -15 68.5t-41 20.5q-25 0 -45.5 -22.5t-29.5 -75.5q-5 -32 -21.5 -46.5t-33.5 -14.5q-28 0 -28 28q0 29 16.5 57.5t43.5 52t59 37.5t64 14q99 0 99 -115v-335q0 -33 23 -33q11 0 17 5
t12 5q8 0 8 -8q0 -12 -18.5 -28t-44.5 -16t-38.5 15.5t-17.5 50.5q-1 10 -8.5 10.5t-14.5 -9.5q-24 -33 -49 -50t-62 -17zM147 37q26 0 48 18.5t36 49.5t14 70v73q0 19 -21 11q-61 -22 -94.5 -60.5t-33.5 -92.5q0 -69 51 -69zM204 579q-53 0 -92.5 35.5t-50.5 97.5
q-3 18 10 18q11 0 14 -12q11 -43 43 -62.5t76 -19.5t76 19.5t43 62.5q3 12 14 12q13 0 10 -18q-11 -62 -50.5 -97.5t-92.5 -35.5z" />
    <glyph glyph-name="uni01CE.ss01" horiz-adv-x="389" 
d="M120 -9q-42 0 -69 26.5t-27 70.5q0 43 27 81.5t74 69.5t107 50q13 4 13 17v91q0 48 -15 68.5t-41 20.5q-25 0 -45.5 -22.5t-29.5 -75.5q-5 -32 -21.5 -46.5t-33.5 -14.5q-28 0 -28 28q0 29 16.5 57.5t43.5 52t59 37.5t64 14q99 0 99 -115v-335q0 -33 23 -33q11 0 17 5
t12 5q8 0 8 -8q0 -12 -18.5 -28t-44.5 -16t-38.5 15.5t-17.5 50.5q-1 10 -8.5 10.5t-14.5 -9.5q-24 -33 -49 -50t-62 -17zM147 37q26 0 48 18.5t36 49.5t14 70v73q0 19 -21 11q-61 -22 -94.5 -60.5t-33.5 -92.5q0 -69 51 -69zM207 583q-14 0 -25 11l-116 122q-10 11 -3 19
q8 10 20 2l133 -91l134 90q14 9 20 -1q7 -8 -3 -19l-116 -122q-11 -11 -25 -11h-19z" />
    <glyph glyph-name="acircumflex.ss01" horiz-adv-x="389" 
d="M120 -9q-42 0 -69 26.5t-27 70.5q0 43 27 81.5t74 69.5t107 50q13 4 13 17v91q0 48 -15 68.5t-41 20.5q-25 0 -45.5 -22.5t-29.5 -75.5q-5 -32 -21.5 -46.5t-33.5 -14.5q-28 0 -28 28q0 29 16.5 57.5t43.5 52t59 37.5t64 14q99 0 99 -115v-335q0 -33 23 -33q11 0 17 5
t12 5q8 0 8 -8q0 -12 -18.5 -28t-44.5 -16t-38.5 15.5t-17.5 50.5q-1 10 -8.5 10.5t-14.5 -9.5q-24 -33 -49 -50t-62 -17zM147 37q26 0 48 18.5t36 49.5t14 70v73q0 19 -21 11q-61 -22 -94.5 -60.5t-33.5 -92.5q0 -69 51 -69zM83 586q-12 -8 -20 2q-7 8 3 19l116 122
q11 11 25 11h19q14 0 25 -11l116 -122q10 -11 3 -19q-6 -10 -20 -1l-134 90z" />
    <glyph glyph-name="adieresis.ss01" horiz-adv-x="389" 
d="M120 -9q-42 0 -69 26.5t-27 70.5q0 43 27 81.5t74 69.5t107 50q13 4 13 17v91q0 48 -15 68.5t-41 20.5q-25 0 -45.5 -22.5t-29.5 -75.5q-5 -32 -21.5 -46.5t-33.5 -14.5q-28 0 -28 28q0 29 16.5 57.5t43.5 52t59 37.5t64 14q99 0 99 -115v-335q0 -33 23 -33q11 0 17 5
t12 5q8 0 8 -8q0 -12 -18.5 -28t-44.5 -16t-38.5 15.5t-17.5 50.5q-1 10 -8.5 10.5t-14.5 -9.5q-24 -33 -49 -50t-62 -17zM147 37q26 0 48 18.5t36 49.5t14 70v73q0 19 -21 11q-61 -22 -94.5 -60.5t-33.5 -92.5q0 -69 51 -69zM110 605q-21 0 -35.5 14.5t-14.5 36.5t14.5 36
t35.5 14t35 -14t14 -36t-14 -36.5t-35 -14.5zM300 605q-21 0 -35.5 14.5t-14.5 36.5t14.5 36t35.5 14t35 -14t14 -36t-14 -36.5t-35 -14.5z" />
    <glyph glyph-name="agrave.ss01" horiz-adv-x="389" 
d="M120 -9q-42 0 -69 26.5t-27 70.5q0 43 27 81.5t74 69.5t107 50q13 4 13 17v91q0 48 -15 68.5t-41 20.5q-25 0 -45.5 -22.5t-29.5 -75.5q-5 -32 -21.5 -46.5t-33.5 -14.5q-28 0 -28 28q0 29 16.5 57.5t43.5 52t59 37.5t64 14q99 0 99 -115v-335q0 -33 23 -33q11 0 17 5
t12 5q8 0 8 -8q0 -12 -18.5 -28t-44.5 -16t-38.5 15.5t-17.5 50.5q-1 10 -8.5 10.5t-14.5 -9.5q-24 -33 -49 -50t-62 -17zM147 37q26 0 48 18.5t36 49.5t14 70v73q0 19 -21 11q-61 -22 -94.5 -60.5t-33.5 -92.5q0 -69 51 -69zM269 586l-178 81q-18 8 -24.5 17.5t-6.5 22.5
q0 12 10 22.5t28 10.5q13 0 22 -4t19 -12l144 -112q16 -11 9 -22q-6 -11 -23 -4z" />
    <glyph glyph-name="amacron.ss01" horiz-adv-x="389" 
d="M120 -9q-42 0 -69 26.5t-27 70.5q0 43 27 81.5t74 69.5t107 50q13 4 13 17v91q0 48 -15 68.5t-41 20.5q-25 0 -45.5 -22.5t-29.5 -75.5q-5 -32 -21.5 -46.5t-33.5 -14.5q-28 0 -28 28q0 29 16.5 57.5t43.5 52t59 37.5t64 14q99 0 99 -115v-335q0 -33 23 -33q11 0 17 5
t12 5q8 0 8 -8q0 -12 -18.5 -28t-44.5 -16t-38.5 15.5t-17.5 50.5q-1 10 -8.5 10.5t-14.5 -9.5q-24 -33 -49 -50t-62 -17zM147 37q26 0 48 18.5t36 49.5t14 70v73q0 19 -21 11q-61 -22 -94.5 -60.5t-33.5 -92.5q0 -69 51 -69zM72 636q-12 0 -12 12v15q0 12 12 12h267
q12 0 12 -12v-15q0 -12 -12 -12h-267z" />
    <glyph glyph-name="aogonek.ss01" horiz-adv-x="389" 
d="M120 -9q-42 0 -69 26.5t-27 70.5q0 43 27 81.5t74 69.5t107 50q13 4 13 17v91q0 48 -15 68.5t-41 20.5q-25 0 -45.5 -22.5t-29.5 -75.5q-5 -32 -21.5 -46.5t-33.5 -14.5q-28 0 -28 28q0 29 16.5 57.5t43.5 52t59 37.5t64 14q99 0 99 -115v-335q0 -33 23 -33q11 0 17 5
t12 5q8 0 8 -8q0 -12 -18.5 -28t-44.5 -16t-38.5 15.5t-17.5 50.5q-1 10 -8.5 10.5t-14.5 -9.5q-24 -33 -49 -50t-62 -17zM147 37q26 0 48 18.5t36 49.5t14 70v73q0 19 -21 11q-61 -22 -94.5 -60.5t-33.5 -92.5q0 -69 51 -69zM134 -216q-28 0 -51 18t-23 55q0 28 16.5 58
t44.5 55.5t63 39.5l10 -10q-44 -25 -66 -60t-22 -73q0 -29 11 -41t28 -12q24 0 42 21q11 14 20 3q6 -9 -5 -21q-14 -16 -30 -24.5t-38 -8.5z" />
    <glyph glyph-name="aring.ss01" horiz-adv-x="389" 
d="M120 -9q-42 0 -69 26.5t-27 70.5q0 43 27 81.5t74 69.5t107 50q13 4 13 17v91q0 48 -15 68.5t-41 20.5q-25 0 -45.5 -22.5t-29.5 -75.5q-5 -32 -21.5 -46.5t-33.5 -14.5q-28 0 -28 28q0 29 16.5 57.5t43.5 52t59 37.5t64 14q99 0 99 -115v-335q0 -33 23 -33q11 0 17 5
t12 5q8 0 8 -8q0 -12 -18.5 -28t-44.5 -16t-38.5 15.5t-17.5 50.5q-1 10 -8.5 10.5t-14.5 -9.5q-24 -33 -49 -50t-62 -17zM147 37q26 0 48 18.5t36 49.5t14 70v73q0 19 -21 11q-61 -22 -94.5 -60.5t-33.5 -92.5q0 -69 51 -69zM168 561q-46 0 -77 31.5t-31 76.5q0 44 31 75.5
t77 31.5t76.5 -31.5t30.5 -75.5q0 -45 -30.5 -76.5t-76.5 -31.5zM168 588q34 0 55.5 23.5t21.5 57.5q0 33 -21.5 56.5t-55.5 23.5t-56 -23.5t-22 -56.5q0 -34 22 -57.5t56 -23.5z" />
    <glyph glyph-name="atilde.ss01" horiz-adv-x="389" 
d="M120 -9q-42 0 -69 26.5t-27 70.5q0 43 27 81.5t74 69.5t107 50q13 4 13 17v91q0 48 -15 68.5t-41 20.5q-25 0 -45.5 -22.5t-29.5 -75.5q-5 -32 -21.5 -46.5t-33.5 -14.5q-28 0 -28 28q0 29 16.5 57.5t43.5 52t59 37.5t64 14q99 0 99 -115v-335q0 -33 23 -33q11 0 17 5
t12 5q8 0 8 -8q0 -12 -18.5 -28t-44.5 -16t-38.5 15.5t-17.5 50.5q-1 10 -8.5 10.5t-14.5 -9.5q-24 -33 -49 -50t-62 -17zM147 37q26 0 48 18.5t36 49.5t14 70v73q0 19 -21 11q-61 -22 -94.5 -60.5t-33.5 -92.5q0 -69 51 -69zM289 597q-26 0 -43.5 10t-31.5 22.5t-29 22.5
t-36 10q-25 0 -39 -12.5t-23 -38.5q-4 -12 -14 -12q-13 0 -10 15q10 51 36.5 77.5t63.5 26.5q25 0 42.5 -10t32.5 -22.5t30.5 -22.5t34.5 -10q25 0 39 12.5t23 38.5q5 12 14 12q13 0 10 -15q-10 -51 -36 -77.5t-64 -26.5z" />
    <glyph glyph-name="c.ss01" horiz-adv-x="339" 
d="M185 -9q-46 0 -83 29.5t-58 84.5t-21 131q0 85 25.5 148t69.5 97.5t98 34.5q46 0 72 -18q10 -7 10 -22l2 -122q0 -15 -12 -15q-11 0 -14 13q-14 55 -27 85t-27 41.5t-31 11.5q-20 0 -41.5 -23t-36 -74.5t-14.5 -135.5q0 -107 28.5 -163.5t78.5 -56.5q31 0 55 20.5
t37 61.5q3 11 12 11q6 0 8 -5t0 -11q-13 -57 -45 -90t-86 -33z" />
    <glyph glyph-name="cacute.ss01" horiz-adv-x="339" 
d="M185 -9q-46 0 -83 29.5t-58 84.5t-21 131q0 85 25.5 148t69.5 97.5t98 34.5q46 0 72 -18q10 -7 10 -22l2 -122q0 -15 -12 -15q-11 0 -14 13q-14 55 -27 85t-27 41.5t-31 11.5q-20 0 -41.5 -23t-36 -74.5t-14.5 -135.5q0 -107 28.5 -163.5t78.5 -56.5q31 0 55 20.5
t37 61.5q3 11 12 11q6 0 8 -5t0 -11q-13 -57 -45 -90t-86 -33zM116 586q-17 -7 -23 4q-7 11 9 22l144 112q10 8 19 12t22 4q18 0 28 -10.5t10 -22.5q0 -13 -6.5 -22.5t-24.5 -17.5z" />
    <glyph glyph-name="ccaron.ss01" horiz-adv-x="339" 
d="M185 -9q-46 0 -83 29.5t-58 84.5t-21 131q0 85 25.5 148t69.5 97.5t98 34.5q46 0 72 -18q10 -7 10 -22l2 -122q0 -15 -12 -15q-11 0 -14 13q-14 55 -27 85t-27 41.5t-31 11.5q-20 0 -41.5 -23t-36 -74.5t-14.5 -135.5q0 -107 28.5 -163.5t78.5 -56.5q31 0 55 20.5
t37 61.5q3 11 12 11q6 0 8 -5t0 -11q-13 -57 -45 -90t-86 -33zM198 583q-14 0 -25 11l-116 122q-10 11 -3 19q8 10 20 2l133 -91l134 90q14 9 20 -1q7 -8 -3 -19l-116 -122q-11 -11 -25 -11h-19z" />
    <glyph glyph-name="ccedilla.ss01" horiz-adv-x="339" 
d="M185 -9q-46 0 -83 29.5t-58 84.5t-21 131q0 85 25.5 148t69.5 97.5t98 34.5q46 0 72 -18q10 -7 10 -22l2 -122q0 -15 -12 -15q-11 0 -14 13q-14 55 -27 85t-27 41.5t-31 11.5q-20 0 -41.5 -23t-36 -74.5t-14.5 -135.5q0 -107 28.5 -163.5t78.5 -56.5q31 0 55 20.5
t37 61.5q3 11 12 11q6 0 8 -5t0 -11q-13 -57 -45 -90t-86 -33zM198 12l-10 -55q-1 -6 4 -6q40 -7 58.5 -31t18.5 -53q0 -39 -28 -60.5t-66 -21.5q-39 0 -63 18t-24 41q0 11 6 18t17 7q15 0 20 -9.5t8.5 -22.5t11 -22.5t26.5 -9.5q24 0 35 16.5t11 40.5q0 22 -14 36.5
t-41 17.5q-9 2 -8 13l15 83h23z" />
    <glyph glyph-name="cdotaccent.ss01" horiz-adv-x="339" 
d="M185 -9q-46 0 -83 29.5t-58 84.5t-21 131q0 85 25.5 148t69.5 97.5t98 34.5q46 0 72 -18q10 -7 10 -22l2 -122q0 -15 -12 -15q-11 0 -14 13q-14 55 -27 85t-27 41.5t-31 11.5q-20 0 -41.5 -23t-36 -74.5t-14.5 -135.5q0 -107 28.5 -163.5t78.5 -56.5q31 0 55 20.5
t37 61.5q3 11 12 11q6 0 8 -5t0 -11q-13 -57 -45 -90t-86 -33zM208 605q-21 0 -35.5 15t-14.5 38t14.5 37.5t35.5 14.5t35 -14.5t14 -37.5t-14 -38t-35 -15z" />
    <glyph glyph-name="d.ss01" horiz-adv-x="446" 
d="M181 -9q-44 0 -78.5 30.5t-53.5 85t-19 126.5q0 84 26 147.5t72 99.5t104 36q14 0 28 -2.5t27 -8.5q16 -8 16 7v128q0 18 -5.5 25t-19.5 8l-26 3q-11 2 -11 12t11 12q32 6 51.5 14t32.5 16q16 10 24 10q11 0 11 -16v-658q0 -33 22 -33q14 0 21.5 8t13.5 8q8 0 8 -8
q0 -12 -18.5 -31t-50.5 -19q-25 0 -39.5 15.5t-19.5 50.5q-1 9 -8 9t-12 -8q-28 -39 -51 -53t-56 -14zM203 37q26 0 48.5 17.5t37 47.5t14.5 67v225q0 45 -20.5 71t-53.5 26q-56 0 -90.5 -65.5t-34.5 -178.5q0 -103 26.5 -156.5t72.5 -53.5z" />
    <glyph glyph-name="dcaron.ss01" horiz-adv-x="446" 
d="M181 -9q-44 0 -78.5 30.5t-53.5 85t-19 126.5q0 84 26 147.5t72 99.5t104 36q14 0 28 -2.5t27 -8.5q16 -8 16 7v128q0 18 -5.5 25t-19.5 8l-26 3q-11 2 -11 12t11 12q32 6 51.5 14t32.5 16q16 10 24 10q11 0 11 -16v-658q0 -33 22 -33q14 0 21.5 8t13.5 8q8 0 8 -8
q0 -12 -18.5 -31t-50.5 -19q-25 0 -39.5 15.5t-19.5 50.5q-1 9 -8 9t-12 -8q-28 -39 -51 -53t-56 -14zM203 37q26 0 48.5 17.5t37 47.5t14.5 67v225q0 45 -20.5 71t-53.5 26q-56 0 -90.5 -65.5t-34.5 -178.5q0 -103 26.5 -156.5t72.5 -53.5zM455 523q-3 -12 -17 -12
q-12 0 -12 16l4 162q1 26 11.5 38.5t26.5 12.5q19 0 26 -15t1 -40z" />
    <glyph glyph-name="dcroat.ss01" horiz-adv-x="457" 
d="M181 -9q-44 0 -78.5 30.5t-53.5 85t-19 126.5q0 84 26 147.5t72 99.5t104 36q14 0 28 -2.5t27 -8.5q16 -8 16 7v66h-151q-10 0 -10 10v8q0 10 10 10h151v34q0 18 -5.5 25t-19.5 8l-26 3q-11 2 -11 12t11 12q32 6 51.5 14t32.5 16q16 10 24 10q11 0 11 -16v-118h56
q10 0 10 -10v-8q0 -10 -10 -10h-56v-512q0 -33 22 -33q14 0 21.5 8t13.5 8q8 0 8 -8q0 -12 -18.5 -31t-50.5 -19q-25 0 -39.5 15.5t-19.5 50.5q-1 9 -8 9t-12 -8q-28 -39 -51 -53t-56 -14zM203 37q26 0 48.5 17.5t37 47.5t14.5 67v225q0 45 -20.5 71t-53.5 26
q-56 0 -90.5 -65.5t-34.5 -178.5q0 -103 26.5 -156.5t72.5 -53.5z" />
    <glyph glyph-name="e.ss01" 
d="M195 -9q-49 0 -88 32t-61.5 90.5t-22.5 135.5q0 79 23 139t63 94t89 34q59 0 95.5 -48.5t36.5 -157.5q0 -33 -25 -33h-190q-20 0 -20 -23q0 -106 31 -161.5t87 -55.5q35 0 57.5 19t35.5 53q5 11 13 11q6 0 8 -5t0 -11q-13 -49 -44.5 -81t-87.5 -32zM112 302h101
q48 0 48 50q0 65 -16 102t-48 37q-39 0 -65.5 -45t-34.5 -128q-2 -16 15 -16z" />
    <glyph glyph-name="eacute.ss01" 
d="M195 -9q-49 0 -88 32t-61.5 90.5t-22.5 135.5q0 79 23 139t63 94t89 34q59 0 95.5 -48.5t36.5 -157.5q0 -33 -25 -33h-190q-20 0 -20 -23q0 -106 31 -161.5t87 -55.5q35 0 57.5 19t35.5 53q5 11 13 11q6 0 8 -5t0 -11q-13 -49 -44.5 -81t-87.5 -32zM112 302h101
q48 0 48 50q0 65 -16 102t-48 37q-39 0 -65.5 -45t-34.5 -128q-2 -16 15 -16zM86 586q-17 -7 -23 4q-7 11 9 22l144 112q10 8 19 12t22 4q18 0 28 -10.5t10 -22.5q0 -13 -6.5 -22.5t-24.5 -17.5z" />
    <glyph glyph-name="ecaron.ss01" 
d="M195 -9q-49 0 -88 32t-61.5 90.5t-22.5 135.5q0 79 23 139t63 94t89 34q59 0 95.5 -48.5t36.5 -157.5q0 -33 -25 -33h-190q-20 0 -20 -23q0 -106 31 -161.5t87 -55.5q35 0 57.5 19t35.5 53q5 11 13 11q6 0 8 -5t0 -11q-13 -49 -44.5 -81t-87.5 -32zM112 302h101
q48 0 48 50q0 65 -16 102t-48 37q-39 0 -65.5 -45t-34.5 -128q-2 -16 15 -16zM168 583q-14 0 -25 11l-116 122q-10 11 -3 19q8 10 20 2l133 -91l134 90q14 9 20 -1q7 -8 -3 -19l-116 -122q-11 -11 -25 -11h-19z" />
    <glyph glyph-name="ecircumflex.ss01" 
d="M195 -9q-49 0 -88 32t-61.5 90.5t-22.5 135.5q0 79 23 139t63 94t89 34q59 0 95.5 -48.5t36.5 -157.5q0 -33 -25 -33h-190q-20 0 -20 -23q0 -106 31 -161.5t87 -55.5q35 0 57.5 19t35.5 53q5 11 13 11q6 0 8 -5t0 -11q-13 -49 -44.5 -81t-87.5 -32zM112 302h101
q48 0 48 50q0 65 -16 102t-48 37q-39 0 -65.5 -45t-34.5 -128q-2 -16 15 -16zM44 586q-12 -8 -20 2q-7 8 3 19l116 122q11 11 25 11h19q14 0 25 -11l116 -122q10 -11 3 -19q-6 -10 -20 -1l-134 90z" />
    <glyph glyph-name="edieresis.ss01" 
d="M195 -9q-49 0 -88 32t-61.5 90.5t-22.5 135.5q0 79 23 139t63 94t89 34q59 0 95.5 -48.5t36.5 -157.5q0 -33 -25 -33h-190q-20 0 -20 -23q0 -106 31 -161.5t87 -55.5q35 0 57.5 19t35.5 53q5 11 13 11q6 0 8 -5t0 -11q-13 -49 -44.5 -81t-87.5 -32zM112 302h101
q48 0 48 50q0 65 -16 102t-48 37q-39 0 -65.5 -45t-34.5 -128q-2 -16 15 -16zM83 605q-21 0 -35.5 14.5t-14.5 36.5t14.5 36t35.5 14t35 -14t14 -36t-14 -36.5t-35 -14.5zM273 605q-21 0 -35.5 14.5t-14.5 36.5t14.5 36t35.5 14t35 -14t14 -36t-14 -36.5t-35 -14.5z" />
    <glyph glyph-name="edotaccent.ss01" 
d="M195 -9q-49 0 -88 32t-61.5 90.5t-22.5 135.5q0 79 23 139t63 94t89 34q59 0 95.5 -48.5t36.5 -157.5q0 -33 -25 -33h-190q-20 0 -20 -23q0 -106 31 -161.5t87 -55.5q35 0 57.5 19t35.5 53q5 11 13 11q6 0 8 -5t0 -11q-13 -49 -44.5 -81t-87.5 -32zM112 302h101
q48 0 48 50q0 65 -16 102t-48 37q-39 0 -65.5 -45t-34.5 -128q-2 -16 15 -16zM178 605q-21 0 -35.5 15t-14.5 38t14.5 37.5t35.5 14.5t35 -14.5t14 -37.5t-14 -38t-35 -15z" />
    <glyph glyph-name="egrave.ss01" 
d="M195 -9q-49 0 -88 32t-61.5 90.5t-22.5 135.5q0 79 23 139t63 94t89 34q59 0 95.5 -48.5t36.5 -157.5q0 -33 -25 -33h-190q-20 0 -20 -23q0 -106 31 -161.5t87 -55.5q35 0 57.5 19t35.5 53q5 11 13 11q6 0 8 -5t0 -11q-13 -49 -44.5 -81t-87.5 -32zM112 302h101
q48 0 48 50q0 65 -16 102t-48 37q-39 0 -65.5 -45t-34.5 -128q-2 -16 15 -16zM269 586l-178 81q-18 8 -24.5 17.5t-6.5 22.5q0 12 10 22.5t28 10.5q13 0 22 -4t19 -12l144 -112q16 -11 9 -22q-6 -11 -23 -4z" />
    <glyph glyph-name="emacron.ss01" 
d="M195 -9q-49 0 -88 32t-61.5 90.5t-22.5 135.5q0 79 23 139t63 94t89 34q59 0 95.5 -48.5t36.5 -157.5q0 -33 -25 -33h-190q-20 0 -20 -23q0 -106 31 -161.5t87 -55.5q35 0 57.5 19t35.5 53q5 11 13 11q6 0 8 -5t0 -11q-13 -49 -44.5 -81t-87.5 -32zM112 302h101
q48 0 48 50q0 65 -16 102t-48 37q-39 0 -65.5 -45t-34.5 -128q-2 -16 15 -16zM44 636q-12 0 -12 12v15q0 12 12 12h267q12 0 12 -12v-15q0 -12 -12 -12h-267z" />
    <glyph glyph-name="eogonek.ss01" 
d="M195 -9q-49 0 -88 32t-61.5 90.5t-22.5 135.5q0 79 23 139t63 94t89 34q59 0 95.5 -48.5t36.5 -157.5q0 -33 -25 -33h-190q-20 0 -20 -23q0 -106 31 -161.5t87 -55.5q35 0 57.5 19t35.5 53q5 11 13 11q6 0 8 -5t0 -11q-13 -49 -44.5 -81t-87.5 -32zM112 302h101
q48 0 48 50q0 65 -16 102t-48 37q-39 0 -65.5 -45t-34.5 -128q-2 -16 15 -16zM206 -206q-28 0 -51 18t-23 55q0 28 16.5 58t44.5 55.5t63 39.5l10 -10q-44 -25 -66 -60t-22 -73q0 -29 11 -41t28 -12q24 0 42 21q11 14 20 3q6 -9 -5 -21q-14 -16 -30 -24.5t-38 -8.5z" />
    <glyph glyph-name="g.ss01" horiz-adv-x="395" 
d="M178 -215q-76 0 -120 30.5t-44 73.5q0 18 5 32.5t21.5 33.5t50.5 49q12 11 12 20.5t-12 14.5q-36 15 -43 38.5t17 43.5l58 49q11 10 10 20.5t-13 17.5q-29 20 -51 58t-22 86q0 46 20 83t54 59t76 22q14 0 23.5 -1.5t22 -3t34.5 -1.5h89q15 0 15 -12t-13 -15l-54 -13
q-10 -3 -4 -12q17 -22 26 -50t9 -60q0 -48 -19.5 -86t-53 -60t-75.5 -22q-18 0 -32 -8.5t-33 -29.5q-20 -23 -15.5 -39t26.5 -16h98q72 0 114 -35.5t42 -97.5q0 -49 -28.5 -87t-77.5 -60t-113 -22zM118 350q0 -67 21 -106t57 -39t57 39t21 106q0 65 -21.5 104.5t-56.5 39.5
t-56.5 -39.5t-21.5 -104.5zM74 -98q0 -42 30.5 -68.5t85.5 -26.5q63 0 103 35t40 90q0 45 -26.5 69.5t-74.5 24.5h-35q-31 0 -47 -6.5t-34 -25.5q-28 -30 -35 -50.5t-7 -41.5z" />
    <glyph glyph-name="gbreve.ss01" horiz-adv-x="395" 
d="M178 -215q-76 0 -120 30.5t-44 73.5q0 18 5 32.5t21.5 33.5t50.5 49q12 11 12 20.5t-12 14.5q-36 15 -43 38.5t17 43.5l58 49q11 10 10 20.5t-13 17.5q-29 20 -51 58t-22 86q0 46 20 83t54 59t76 22q14 0 23.5 -1.5t22 -3t34.5 -1.5h89q15 0 15 -12t-13 -15l-54 -13
q-10 -3 -4 -12q17 -22 26 -50t9 -60q0 -48 -19.5 -86t-53 -60t-75.5 -22q-18 0 -32 -8.5t-33 -29.5q-20 -23 -15.5 -39t26.5 -16h98q72 0 114 -35.5t42 -97.5q0 -49 -28.5 -87t-77.5 -60t-113 -22zM118 350q0 -67 21 -106t57 -39t57 39t21 106q0 65 -21.5 104.5t-56.5 39.5
t-56.5 -39.5t-21.5 -104.5zM74 -98q0 -42 30.5 -68.5t85.5 -26.5q63 0 103 35t40 90q0 45 -26.5 69.5t-74.5 24.5h-35q-31 0 -47 -6.5t-34 -25.5q-28 -30 -35 -50.5t-7 -41.5zM198 579q-53 0 -92.5 35.5t-50.5 97.5q-3 18 10 18q11 0 14 -12q11 -43 43 -62.5t76 -19.5
t76 19.5t43 62.5q3 12 14 12q13 0 10 -18q-11 -62 -50.5 -97.5t-92.5 -35.5z" />
    <glyph glyph-name="uni0123.ss01" horiz-adv-x="395" 
d="M178 -215q-76 0 -120 30.5t-44 73.5q0 18 5 32.5t21.5 33.5t50.5 49q12 11 12 20.5t-12 14.5q-36 15 -43 38.5t17 43.5l58 49q11 10 10 20.5t-13 17.5q-29 20 -51 58t-22 86q0 46 20 83t54 59t76 22q14 0 23.5 -1.5t22 -3t34.5 -1.5h89q15 0 15 -12t-13 -15l-54 -13
q-10 -3 -4 -12q17 -22 26 -50t9 -60q0 -48 -19.5 -86t-53 -60t-75.5 -22q-18 0 -32 -8.5t-33 -29.5q-20 -23 -15.5 -39t26.5 -16h98q72 0 114 -35.5t42 -97.5q0 -49 -28.5 -87t-77.5 -60t-113 -22zM118 350q0 -67 21 -106t57 -39t57 39t21 106q0 65 -21.5 104.5t-56.5 39.5
t-56.5 -39.5t-21.5 -104.5zM74 -98q0 -42 30.5 -68.5t85.5 -26.5q63 0 103 35t40 90q0 45 -26.5 69.5t-74.5 24.5h-35q-31 0 -47 -6.5t-34 -25.5q-28 -30 -35 -50.5t-7 -41.5zM197 576q-25 0 -39.5 20.5t-14.5 51.5q0 49 20.5 86t65.5 74q12 10 20 4q9 -7 -3 -19
q-29 -29 -40 -47.5t-11 -38.5q0 -16 7.5 -25t17.5 -15.5t17.5 -16t7.5 -27.5q0 -20 -13.5 -33.5t-34.5 -13.5z" />
    <glyph glyph-name="gdotaccent.ss01" horiz-adv-x="395" 
d="M178 -215q-76 0 -120 30.5t-44 73.5q0 18 5 32.5t21.5 33.5t50.5 49q12 11 12 20.5t-12 14.5q-36 15 -43 38.5t17 43.5l58 49q11 10 10 20.5t-13 17.5q-29 20 -51 58t-22 86q0 46 20 83t54 59t76 22q14 0 23.5 -1.5t22 -3t34.5 -1.5h89q15 0 15 -12t-13 -15l-54 -13
q-10 -3 -4 -12q17 -22 26 -50t9 -60q0 -48 -19.5 -86t-53 -60t-75.5 -22q-18 0 -32 -8.5t-33 -29.5q-20 -23 -15.5 -39t26.5 -16h98q72 0 114 -35.5t42 -97.5q0 -49 -28.5 -87t-77.5 -60t-113 -22zM118 350q0 -67 21 -106t57 -39t57 39t21 106q0 65 -21.5 104.5t-56.5 39.5
t-56.5 -39.5t-21.5 -104.5zM74 -98q0 -42 30.5 -68.5t85.5 -26.5q63 0 103 35t40 90q0 45 -26.5 69.5t-74.5 24.5h-35q-31 0 -47 -6.5t-34 -25.5q-28 -30 -35 -50.5t-7 -41.5zM198 605q-21 0 -35.5 15t-14.5 38t14.5 37.5t35.5 14.5t35 -14.5t14 -37.5t-14 -38t-35 -15z" />
    <glyph glyph-name="f_b" horiz-adv-x="716" 
d="M335 -9q-11 0 -8 14q4 23 6 59t2 96v446q0 49 -19 83t-68 34q-25 0 -46.5 -12t-35 -41t-13.5 -80v-68q0 -12 12 -12h86q15 0 15 -14t-15 -14h-86q-12 0 -12 -12v-403q0 -21 6 -30t23 -11l25 -3q11 -2 11 -11q0 -12 -15 -12h-175q-15 0 -15 11t13 12l20 2q25 2 32 11.5
t7 30.5v391q0 24 -24 24h-23q-12 0 -12 10t12 11q47 5 47 41v6q0 52 20 97t58.5 73t92.5 28q56 0 93 -39q5 -5 10 -4.5t7 7.5q6 18 10.5 24.5t13.5 6.5q13 0 13 -19v-247q0 -8 6.5 -10.5t14.5 5.5q43 44 94 44q46 0 81.5 -30.5t56 -84.5t20.5 -127q0 -83 -26 -147
t-70.5 -100t-100.5 -36q-41 0 -79 26q-22 15 -40 -8q-10 -11 -15 -14.5t-10 -3.5zM477 16q56 0 90.5 66t34.5 178q0 103 -30 157t-85 54q-34 0 -59 -28t-25 -78v-252q0 -45 20.5 -71t53.5 -26z" />
    <glyph glyph-name="f_h" horiz-adv-x="731" 
d="M28 0q-15 0 -15 11t13 12l20 2q25 2 32 11.5t7 30.5v391q0 24 -24 24h-23q-12 0 -12 10t12 11q47 5 47 41v6q0 52 20 97t58.5 73t92.5 28q56 0 93 -39q5 -5 10 -4.5t7 7.5q6 18 10.5 24.5t13.5 6.5q13 0 13 -19v-265q0 -9 6 -10.5t15 6.5q38 35 67 48t61 13
q47 0 74 -31.5t27 -92.5v-325q0 -21 6.5 -29.5t27.5 -11.5l22 -3q11 -2 11 -12q0 -11 -12 -11h-168q-14 0 -14 11q0 10 11 12l14 2q21 3 27.5 12t6.5 30v314q0 49 -18 69t-51 20q-32 0 -57.5 -18.5t-40.5 -49t-15 -67.5v-268q0 -21 6.5 -30t27.5 -11l27 -3q11 -2 11 -12
q0 -11 -12 -11h-175q-12 0 -12 11q0 10 11 12l14 2q21 3 27.5 12t6.5 30v539q0 49 -19 83t-68 34q-25 0 -46.5 -12t-35 -41t-13.5 -80v-68q0 -12 12 -12h86q15 0 15 -14t-15 -14h-86q-12 0 -12 -12v-403q0 -21 6 -30t23 -11l25 -3q11 -2 11 -11q0 -12 -15 -12h-175z" />
    <glyph glyph-name="q_j" horiz-adv-x="657" 
d="M556 605q-22 0 -36 15.5t-14 37.5q0 23 14 37.5t36 14.5t35.5 -14.5t13.5 -37.5t-14 -38t-35 -15zM236 -205q-15 0 -15 12q0 9 11 11l37 5q21 3 27.5 10.5t6.5 28.5v183q0 8 -7 10.5t-14 -5.5q-25 -33 -47 -46t-54 -13q-44 0 -78.5 30.5t-53.5 85t-19 126.5
q0 84 26 147.5t72 99.5t104 36q20 0 37.5 -6t36.5 -20q22 -15 40 8q10 11 15.5 14.5t9.5 3.5q11 0 8 -14q-4 -22 -6 -58.5t-2 -96.5v-528q0 -24 -24 -24h-111zM446 -215q-29 0 -48 15t-19 39q0 17 10.5 29.5t28.5 12.5q16 0 23 -8.5t11 -19.5t10.5 -19.5t19.5 -8.5
q19 0 29 22t10 62v494q0 18 -5.5 24.5t-19.5 8.5l-21 3q-13 1 -13 11q0 8 16 11q31 5 50 16t37 27q9 9 15 9q9 0 9 -12v-457q0 -120 -39 -189.5t-104 -69.5zM203 37q26 0 48.5 17.5t37 47.5t14.5 67v225q0 45 -20.5 71t-53.5 26q-56 0 -90.5 -65.5t-34.5 -178.5
q0 -103 26.5 -156.5t72.5 -53.5z" />
    <glyph glyph-name="ordfeminine" unicode="&#xaa;" horiz-adv-x="364" 
d="M111 363q-34 0 -55.5 18.5t-21.5 49.5q0 48 47 86.5t120 58.5q10 3 10 12v54q0 34 -12.5 48t-32.5 14t-36 -15t-24 -48q-10 -45 -42 -45q-10 0 -17 6t-7 16q0 27 22.5 53t56 42.5t67.5 16.5q79 0 79 -80v-214q0 -30 17 -30q11 0 17.5 12.5t6.5 41.5q0 15 12 15t12 -16
q0 -51 -20 -73.5t-46 -22.5q-19 0 -30.5 13.5t-15.5 32.5q-1 7 -7 7.5t-11 -6.5q-19 -23 -39.5 -35t-49.5 -12zM133 401q30 0 54 28t24 69v45q0 13 -17 7q-49 -16 -75.5 -42t-26.5 -62q0 -45 41 -45z" />
    <glyph glyph-name="ordmasculine" unicode="&#xba;" horiz-adv-x="368" 
d="M184 363q-40 0 -73 24.5t-52 66t-19 93.5t19.5 93t52 65.5t72.5 24.5q41 0 73.5 -24.5t51.5 -65.5t19 -93t-19 -93.5t-51.5 -66t-73.5 -24.5zM184 387q84 0 84 160q0 159 -84 159q-83 0 -83 -159q0 -160 83 -160z" />
    <glyph glyph-name="zero" unicode="0" horiz-adv-x="460" 
d="M230 -9q-58 0 -102 49t-68 133t-24 188t24 187.5t68 132.5t102 49t101.5 -49t68 -132.5t24.5 -187.5t-24.5 -188t-68 -133t-101.5 -49zM230 18q63 0 92.5 85t29.5 258t-29.5 257.5t-92.5 84.5t-92.5 -84.5t-29.5 -257.5t29.5 -258t92.5 -85z" />
    <glyph glyph-name="one" unicode="1" horiz-adv-x="249" 
d="M20 0q-15 0 -15 11t13 12l39 4q21 2 28.5 10t7.5 29v594q0 17 -9.5 22.5t-24.5 3.5l-36 -4q-18 -1 -18 13q0 11 16 14q53 9 78 17.5t37 8.5q21 0 21 -22v-647q0 -21 7.5 -29t28.5 -10l33 -4q13 -1 13 -12t-15 -11h-204z" />
    <glyph glyph-name="two" unicode="2" horiz-adv-x="404" 
d="M38 0q-18 0 -18 13q0 7 7 18l120 183q75 114 108.5 196.5t33.5 151.5q0 62 -25.5 95t-73.5 33t-87 -33.5t-50 -106.5q-3 -16 -15 -16q-15 0 -13 20q7 66 34.5 104.5t66.5 55t79 16.5q69 0 112.5 -41.5t43.5 -115.5q0 -52 -24.5 -106.5t-67 -119t-97.5 -147.5l-78 -118
q-6 -9 -0.5 -15.5t15.5 -6.5h107q38 0 63 8.5t40 32t23 67.5l9 47q3 13 15 13q14 0 12 -17l-12 -188q-2 -23 -25 -23h-303z" />
    <glyph glyph-name="three" unicode="3" horiz-adv-x="371" 
d="M135 -9q-52 0 -83.5 19t-31.5 50q0 17 10 26.5t26 9.5q19 0 25 -12t9 -27t13.5 -27t37.5 -12q57 0 92.5 53.5t35.5 140.5q0 193 -110 193q-40 0 -68 -19q-16 -12 -24 -3q-6 10 8 24l72 68q44 41 64 75t20 68q0 37 -16.5 57.5t-45.5 20.5q-38 0 -64 -28t-34 -77
q-2 -15 -15 -15q-14 0 -12 18q7 62 46.5 99t97.5 37q50 0 80.5 -27.5t30.5 -73.5q0 -79 -129 -168l-23 -16q-4 -3 -2.5 -6.5t6.5 -2.5q17 5 34 5q46 0 81 -26t55 -72.5t20 -106.5q0 -48 -17 -92t-46 -78.5t-66 -54.5t-77 -20z" />
    <glyph glyph-name="four" unicode="4" horiz-adv-x="393" 
d="M170 0q-15 0 -15 11t13 12l43 6q21 3 27.5 10.5t6.5 26.5v130q0 14 -14 14h-202q-19 0 -19 17q0 5 2.5 10.5t6.5 14.5l240 458q4 10 16 10h20q18 0 9 -17l-240 -423q-7 -14 8 -14h159q14 0 14 14v196q0 9 10 16l37 21q7 4 12 1.5t5 -10.5v-224q0 -14 14 -14h44
q12 0 12 -12v-32q0 -12 -12 -12h-44q-14 0 -14 -14v-130q0 -21 6.5 -28t27.5 -11l23 -4q13 -3 13 -12q0 -11 -15 -11h-194z" />
    <glyph glyph-name="five" unicode="5" horiz-adv-x="382" 
d="M132 -9q-27 0 -55.5 8t-47.5 24t-19 39q0 15 9 24.5t24 9.5q17 0 24.5 -12t13.5 -27t19.5 -27t42.5 -12q32 0 62.5 18.5t51 60.5t20.5 111q0 95 -45 146.5t-153 60.5q-15 2 -12 16l53 276q3 13 15 13h157q17 0 24.5 6.5t12.5 12.5t13 6t9.5 -6.5t-0.5 -14.5l-15 -52
q-3 -12 -15 -12h-165q-12 0 -15 -13l-29 -153q-3 -14 12 -15q79 -9 128.5 -44.5t73 -89t23.5 -116.5q0 -75 -32.5 -128.5t-82 -81.5t-102.5 -28z" />
    <glyph glyph-name="six" unicode="6" horiz-adv-x="404" 
d="M206 -9q-50 0 -88.5 34t-60 95t-21.5 141q0 82 23.5 159.5t65.5 141.5t97.5 108t119.5 59q10 2 14.5 -2t4.5 -10q0 -10 -11 -13q-88 -29 -142 -93.5t-80 -168.5q-2 -7 1.5 -9.5t9.5 1.5q31 22 73 22q47 0 84 -29.5t58.5 -80.5t21.5 -117q0 -65 -23 -119.5t-61.5 -86.5
t-85.5 -32zM204 18q51 0 75.5 50.5t24.5 155.5q0 107 -23 157t-73 50q-106 0 -106 -213q0 -200 102 -200z" />
    <glyph glyph-name="seven" unicode="7" horiz-adv-x="364" 
d="M99 0q-16 0 -11 15l223 629q5 16 -11 16h-222q-16 0 -24 -6t-13 -12.5t-13 -6.5t-9.5 6.5t0.5 14.5l15 52q3 12 15 12h297q14 0 14 -12q0 -8 -8 -33l-214 -664q-3 -11 -14 -11h-25z" />
    <glyph glyph-name="eight" unicode="8" horiz-adv-x="433" 
d="M215 -9q-58 0 -100 26.5t-64.5 68t-22.5 86.5q0 62 35 110.5t99 82.5q6 3 6 7.5t-5 8.5q-56 38 -83 86.5t-27 96.5q0 50 24.5 87t64.5 58t87 21q45 0 81 -20.5t57 -56t21 -80.5q0 -52 -32 -96.5t-85 -73.5q-6 -3 -6 -7.5t6 -8.5q73 -46 103.5 -94.5t30.5 -106.5
q0 -56 -25 -100t-68 -69.5t-97 -25.5zM226 415q13 -9 26 1q38 27 57.5 69t19.5 91q0 58 -25.5 92.5t-76.5 34.5q-52 0 -83.5 -31t-31.5 -82q0 -30 8.5 -59t33.5 -57.5t72 -58.5zM217 18q60 0 94.5 36t34.5 97q0 51 -18.5 87.5t-49.5 64t-71 50.5q-13 9 -26 0
q-92 -63 -92 -184q0 -38 12 -73t40 -56.5t76 -21.5z" />
    <glyph glyph-name="nine" unicode="9" horiz-adv-x="402" 
d="M90 -8q-10 -2 -14.5 2t-4.5 10q0 9 11 14q77 29 127 97.5t69 186.5q2 8 -2 10t-10 -3q-31 -24 -76 -24q-47 0 -84 29t-58.5 78.5t-21.5 109.5q0 61 23 112.5t61.5 83.5t85.5 32q51 0 89 -34t59.5 -94.5t21.5 -141.5q0 -124 -37.5 -222.5t-100 -161.5t-138.5 -84zM98 507
q0 -197 93 -197q51 0 77 53t26 150q0 93 -24.5 141.5t-74.5 48.5q-97 0 -97 -196z" />
    <glyph glyph-name="space" unicode=" " horiz-adv-x="170" 
 />
    <glyph glyph-name="uni00A0" unicode="&#xa0;" horiz-adv-x="170" 
 />
    <glyph glyph-name="period" unicode="." horiz-adv-x="213" 
d="M107 -9q-22 0 -37.5 14.5t-15.5 38.5q0 23 15.5 37.5t37.5 14.5q20 0 36 -14.5t16 -37.5q0 -24 -16 -38.5t-36 -14.5z" />
    <glyph glyph-name="comma" unicode="," horiz-adv-x="217" 
d="M76 -156q-11 -11 -19 -4q-9 7 3 19q29 29 41 54t12 52q0 16 -8 24.5t-18 15.5t-18 16.5t-8 27.5q0 20 13.5 33.5t34.5 13.5q25 0 39.5 -18t14.5 -49q0 -53 -24.5 -102.5t-62.5 -82.5z" />
    <glyph glyph-name="colon" unicode=":" horiz-adv-x="213" 
d="M107 -9q-22 0 -37.5 14.5t-15.5 38.5q0 23 15.5 37.5t37.5 14.5q20 0 36 -14.5t16 -37.5q0 -24 -16 -38.5t-36 -14.5zM107 371q-22 0 -37.5 14.5t-15.5 38.5q0 23 15.5 37.5t37.5 14.5q20 0 36 -14.5t16 -37.5q0 -24 -16 -38.5t-36 -14.5z" />
    <glyph glyph-name="semicolon" unicode=";" horiz-adv-x="217" 
d="M76 -156q-11 -11 -19 -4q-9 7 3 19q29 29 41 54t12 52q0 16 -8 24.5t-18 15.5t-18 16.5t-8 27.5q0 20 13.5 33.5t34.5 13.5q25 0 39.5 -18t14.5 -49q0 -53 -24.5 -102.5t-62.5 -82.5zM109 371q-22 0 -37.5 14.5t-15.5 38.5q0 23 15.5 37.5t37.5 14.5q20 0 36 -14.5
t16 -37.5q0 -24 -16 -38.5t-36 -14.5z" />
    <glyph glyph-name="ellipsis" unicode="&#x2026;" horiz-adv-x="533" 
d="M107 -9q-22 0 -37.5 14.5t-15.5 38.5q0 23 15.5 37.5t37.5 14.5q20 0 36 -14.5t16 -37.5q0 -24 -16 -38.5t-36 -14.5zM267 -9q-22 0 -37.5 14.5t-15.5 38.5q0 23 15.5 37.5t37.5 14.5q20 0 36 -14.5t16 -37.5q0 -24 -16 -38.5t-36 -14.5zM427 -9q-22 0 -37.5 14.5
t-15.5 38.5q0 23 15.5 37.5t37.5 14.5q20 0 36 -14.5t16 -37.5q0 -24 -16 -38.5t-36 -14.5z" />
    <glyph glyph-name="exclam" unicode="!" horiz-adv-x="237" 
d="M117 179q-12 0 -12 16q-1 53 -4.5 113.5t-8.5 121.5t-9.5 115t-8 93.5t-3.5 55.5q0 25 12 40.5t34 15.5t34 -15.5t12 -40.5q0 -17 -3.5 -56t-8 -93t-9.5 -115t-8.5 -121.5t-4.5 -113.5q0 -16 -12 -16zM117 -9q-22 0 -37.5 14.5t-15.5 38.5q0 23 15.5 37.5t37.5 14.5
q20 0 36 -14.5t16 -37.5q0 -24 -16 -38.5t-36 -14.5z" />
    <glyph glyph-name="exclamdown" unicode="&#xa1;" horiz-adv-x="237" 
d="M121 520q20 0 36 -14.5t16 -38.5q0 -22 -16 -37t-36 -15q-22 0 -37.5 15t-15.5 37q0 24 15.5 38.5t37.5 14.5zM121 -215q-22 0 -34 15.5t-12 40.5q0 21 5 72.5t11.5 120t11.5 142.5t6 140q0 16 12 16t12 -16q1 -66 6 -140t11.5 -142.5t11.5 -120t5 -72.5q0 -25 -12 -40.5
t-34 -15.5z" />
    <glyph glyph-name="question" unicode="?" horiz-adv-x="317" 
d="M124 179q-12 0 -12 16l-4 177q-1 35 5.5 56t24.5 39l24 24q32 32 49 60.5t17 78.5t-18 70t-43 20q-43 0 -67.5 -34.5t-47.5 -108.5q-4 -14 -13 -14q-11 0 -11 17l3 121q0 8 3 13t8 9q16 13 45 20t51 7q69 0 108 -36.5t39 -102.5q0 -57 -21.5 -95.5t-64.5 -79.5l-39 -36
q-10 -10 -14 -21.5t-5 -37.5l-4 -146q0 -16 -13 -16zM123 -9q-22 0 -37.5 14.5t-15.5 38.5q0 23 15.5 37.5t37.5 14.5q20 0 36 -14.5t16 -37.5q0 -24 -16 -38.5t-36 -14.5z" />
    <glyph glyph-name="questiondown" unicode="&#xbf;" horiz-adv-x="317" 
d="M194 520q23 0 38 -14.5t15 -38.5q0 -22 -15 -37t-38 -15q-20 0 -36 15t-16 37q0 24 16 38.5t36 14.5zM179 -215q-69 0 -108 36.5t-39 102.5q0 57 21.5 96t64.5 79l39 36q11 11 14.5 22.5t4.5 36.5l4 122q0 16 13 16q12 0 12 -16l4 -153q1 -34 -5.5 -55.5t-24.5 -39.5
l-24 -24q-31 -31 -48.5 -60t-17.5 -79q0 -49 18 -69.5t43 -20.5q43 0 68 35t47 108q4 14 13 14q11 0 11 -17l-3 -121q0 -8 -3 -12.5t-8 -9.5q-16 -13 -44.5 -20t-51.5 -7z" />
    <glyph glyph-name="periodcentered" unicode="&#xb7;" horiz-adv-x="105" 
d="M53 316q-22 0 -37.5 14.5t-15.5 38.5q0 23 15.5 37.5t37.5 14.5q20 0 36 -14.5t16 -37.5q0 -24 -16 -38.5t-36 -14.5z" />
    <glyph glyph-name="bullet" unicode="&#x2022;" horiz-adv-x="301" 
d="M152 292q-34 0 -57 21.5t-23 57.5q0 34 23 56t57 22q30 0 54 -22t24 -56q0 -36 -24 -57.5t-54 -21.5z" />
    <glyph glyph-name="asterisk" unicode="*" horiz-adv-x="444" 
d="M222 416q-19 0 -29 12t-10 27q0 16 6.5 29.5t14 31t10.5 42.5q1 6 -2.5 7.5t-8.5 -2.5q-30 -25 -41.5 -46t-31.5 -32q-13 -7 -28 -4.5t-25 18.5q-9 17 -4 32t18 22q14 8 29.5 9t34 3t41.5 12q6 2 6 6t-6 6q-23 11 -41.5 12.5t-34 2.5t-29.5 9q-13 8 -18 23t4 31
q10 16 25 19t28 -5q14 -8 23 -20.5t20 -27.5t31 -31q5 -4 8 -2t2 8q-3 26 -10.5 43t-14 31t-6.5 29t10 27t29 12t29 -12t10 -27t-6.5 -29t-14 -31t-10.5 -43q-1 -6 2.5 -8t7.5 2q21 16 31.5 31t19.5 27.5t23 20.5q13 8 28 5t25 -19q9 -16 4 -31t-18 -23q-14 -8 -29.5 -9
t-34 -2.5t-41.5 -12.5q-6 -2 -6 -6t6 -6q23 -10 41.5 -12t34 -3t29.5 -9q13 -7 18 -22t-4 -32q-10 -16 -25 -18.5t-28 4.5q-19 11 -31 32t-42 46q-4 4 -8 2.5t-3 -7.5q3 -25 10.5 -42.5t14 -31t6.5 -29.5q0 -15 -10 -27t-29 -12z" />
    <glyph glyph-name="numbersign" unicode="#" horiz-adv-x="635" 
d="M106 0l49 213q3 17 -13 17h-122v30h128q17 0 22 18l38 165q3 17 -13 17h-122v30h128q17 0 22 17l49 213h32l-49 -213q-3 -17 13 -17h158q17 0 22 17l49 213h32l-49 -213q-3 -17 13 -17h122v-30h-128q-17 0 -22 -18l-38 -165q-3 -17 13 -17h122v-30h-128q-17 0 -22 -17
l-49 -213h-32l49 213q3 17 -13 17h-158q-17 0 -22 -17l-49 -213h-32zM215 260h158q17 0 22 18l38 165q3 17 -13 17h-158q-17 0 -22 -18l-38 -165q-3 -17 13 -17z" />
    <glyph glyph-name="slash" unicode="/" horiz-adv-x="258" 
d="M18 -130q-10 0 -8 11l207 900q2 9 11 9h12q10 0 8 -11l-207 -900q-2 -9 -11 -9h-12z" />
    <glyph glyph-name="backslash" unicode="\" horiz-adv-x="258" 
d="M228 -130q-9 0 -11 9l-207 900q-2 11 8 11h12q9 0 11 -9l207 -900q2 -11 -8 -11h-12z" />
    <glyph glyph-name="periodcentered.loclCAT" horiz-adv-x="105" 
d="M53 316q-22 0 -37.5 14.5t-15.5 38.5q0 23 15.5 37.5t37.5 14.5q20 0 36 -14.5t16 -37.5q0 -24 -16 -38.5t-36 -14.5z" />
    <glyph glyph-name="periodcentered.loclCAT.case" horiz-adv-x="105" 
d="M53 316q-22 0 -37.5 14.5t-15.5 38.5q0 23 15.5 37.5t37.5 14.5q20 0 36 -14.5t16 -37.5q0 -24 -16 -38.5t-36 -14.5z" />
    <glyph glyph-name="hyphen" unicode="-" horiz-adv-x="430" 
d="M92 259q-10 0 -10 10v14q0 10 10 10h246q10 0 10 -10v-14q0 -10 -10 -10h-246z" />
    <glyph glyph-name="endash" unicode="&#x2013;" horiz-adv-x="510" 
d="M92 259q-10 0 -10 10v14q0 10 10 10h326q10 0 10 -10v-14q0 -10 -10 -10h-326z" />
    <glyph glyph-name="emdash" unicode="&#x2014;" horiz-adv-x="720" 
d="M92 259q-10 0 -10 10v14q0 10 10 10h536q10 0 10 -10v-14q0 -10 -10 -10h-536z" />
    <glyph glyph-name="underscore" unicode="_" horiz-adv-x="376" 
d="M25 -109q-10 0 -10 10v14q0 10 10 10h326q10 0 10 -10v-14q0 -10 -10 -10h-326z" />
    <glyph glyph-name="parenleft" unicode="(" horiz-adv-x="340" 
d="M293 -108q-4 0 -9 3q-35 25 -72.5 65.5t-69.5 95t-52 121.5t-20 145t20 145t52 121.5t69.5 95t72.5 65.5q5 3 9 3q9 0 9 -8q0 -5 -6 -11q-82 -74 -120 -181.5t-38 -229.5t38 -229.5t120 -181.5q6 -6 6 -11q0 -8 -9 -8z" />
    <glyph glyph-name="parenright" unicode=")" horiz-adv-x="340" 
d="M47 -108q-9 0 -9 8q0 5 6 11q83 74 120.5 181.5t37.5 229.5t-37.5 229.5t-120.5 181.5q-6 6 -6 11q0 8 9 8q5 0 9 -3q35 -25 72.5 -65.5t69.5 -95t52 -121.5t20 -145t-20 -145t-52 -121.5t-69.5 -95t-72.5 -65.5q-4 -3 -9 -3z" />
    <glyph glyph-name="braceleft" unicode="{" horiz-adv-x="318" 
d="M246 -96q-126 0 -126 136v142q0 71 -16.5 99.5t-51.5 28.5q-12 0 -12 12t12 12q35 0 51.5 29t16.5 99v142q0 136 126 136q12 0 12 -12t-12 -12q-68 0 -68 -108v-142q0 -67 -17.5 -98t-56.5 -46q39 -15 56.5 -46t17.5 -98v-142q0 -108 68 -108q12 0 12 -12t-12 -12z" />
    <glyph glyph-name="braceright" unicode="}" horiz-adv-x="318" 
d="M72 -96q-12 0 -12 12t12 12q68 0 68 108v142q0 67 17.5 98t56.5 46q-39 15 -56.5 46t-17.5 98v142q0 108 -68 108q-12 0 -12 12t12 12q126 0 126 -136v-142q0 -70 16.5 -99t51.5 -29q12 0 12 -12t-12 -12q-35 0 -51.5 -28.5t-16.5 -99.5v-142q0 -136 -126 -136z" />
    <glyph glyph-name="bracketleft" unicode="[" horiz-adv-x="325" 
d="M110 -98q-24 0 -24 24v790q0 24 24 24h141q14 0 14 -12t-14 -12h-95q-12 0 -12 -12v-766q0 -12 12 -12h95q14 0 14 -12t-14 -12h-141z" />
    <glyph glyph-name="bracketright" unicode="]" horiz-adv-x="325" 
d="M215 -98h-141q-14 0 -14 12t14 12h95q12 0 12 12v766q0 12 -12 12h-95q-14 0 -14 12t14 12h141q24 0 24 -24v-790q0 -24 -24 -24z" />
    <glyph glyph-name="quotesinglbase" unicode="&#x201a;" horiz-adv-x="166" 
d="M55 -126q-12 -9 -19 -4q-4 3 -4 8.5t7 10.5q34 29 43.5 46.5t9.5 30.5q0 18 -8 27.5t-18 16t-18 15.5t-8 27t13 31t35 13q25 0 39.5 -18t14.5 -49q0 -46 -20 -84t-67 -71z" />
    <glyph glyph-name="quotedblbase" unicode="&#x201e;" horiz-adv-x="316" 
d="M55 -126q-12 -9 -19 -4q-4 3 -4 8.5t7 10.5q34 29 43.5 46.5t9.5 30.5q0 18 -8 27.5t-18 16t-18 15.5t-8 27t13 31t35 13q25 0 39.5 -18t14.5 -49q0 -46 -20 -84t-67 -71zM205 -126q-12 -9 -19 -4q-4 3 -4 8.5t7 10.5q34 29 43.5 46.5t9.5 30.5q0 18 -8 27.5t-18 16
t-18 15.5t-8 27t13 31t35 13q25 0 39.5 -18t14.5 -49q0 -46 -20 -84t-67 -71z" />
    <glyph glyph-name="quotedblleft" unicode="&#x201c;" horiz-adv-x="316" 
d="M38 562q-25 0 -39.5 18t-14.5 49q0 46 20.5 84t66.5 71q12 9 19 4q4 -3 4 -8.5t-7 -10.5q-34 -29 -43.5 -44.5t-9.5 -32.5q0 -18 8 -27.5t18 -16t18 -15.5t8 -27t-12.5 -31t-35.5 -13zM188 562q-25 0 -39.5 18t-14.5 49q0 46 20.5 84t66.5 71q12 9 19 4q4 -3 4 -8.5
t-7 -10.5q-34 -29 -43.5 -44.5t-9.5 -32.5q0 -18 8 -27.5t18 -16t18 -15.5t8 -27t-12.5 -31t-35.5 -13z" />
    <glyph glyph-name="quotedblright" unicode="&#x201d;" horiz-adv-x="316" 
d="M55 508q-12 -9 -19 -4q-4 3 -4 8.5t7 10.5q34 29 43.5 46.5t9.5 30.5q0 18 -8 27.5t-18 16t-18 15.5t-8 27t13 31t35 13q25 0 39.5 -18t14.5 -49q0 -46 -20 -84t-67 -71zM205 508q-12 -9 -19 -4q-4 3 -4 8.5t7 10.5q34 29 43.5 46.5t9.5 30.5q0 18 -8 27.5t-18 16
t-18 15.5t-8 27t13 31t35 13q25 0 39.5 -18t14.5 -49q0 -46 -20 -84t-67 -71z" />
    <glyph glyph-name="quoteleft" unicode="&#x2018;" horiz-adv-x="166" 
d="M78 562q-25 0 -39.5 18t-14.5 49q0 46 20.5 84t66.5 71q12 9 19 4q4 -3 4 -8.5t-7 -10.5q-34 -29 -43.5 -44.5t-9.5 -32.5q0 -18 8 -27.5t18 -16t18 -15.5t8 -27t-12.5 -31t-35.5 -13z" />
    <glyph glyph-name="quoteright" unicode="&#x2019;" horiz-adv-x="166" 
d="M55 508q-12 -9 -19 -4q-4 3 -4 8.5t7 10.5q34 29 43.5 46.5t9.5 30.5q0 18 -8 27.5t-18 16t-18 15.5t-8 27t13 31t35 13q25 0 39.5 -18t14.5 -49q0 -46 -20 -84t-67 -71z" />
    <glyph glyph-name="guillemotleft" unicode="&#xab;" horiz-adv-x="412" 
d="M161 93l-101 141q-11 17 0 34l101 141q6 9 10.5 12t8.5 3q8 0 9.5 -5t-0.5 -10l-69 -149q-4 -9 0 -18l69 -149q2 -4 0.5 -9.5t-9.5 -5.5q-4 0 -8.5 3t-10.5 12zM311 93l-101 141q-11 17 0 34l101 141q6 9 10.5 12t8.5 3q8 0 9.5 -5t-0.5 -10l-69 -149q-4 -9 0 -18
l69 -149q2 -4 0.5 -9.5t-9.5 -5.5q-4 0 -8.5 3t-10.5 12z" />
    <glyph glyph-name="guillemotright" unicode="&#xbb;" horiz-adv-x="412" 
d="M251 93q-6 -9 -10 -12t-9 -3q-7 0 -9 5.5t0 9.5l69 149q5 9 0 18l-69 149q-2 5 0 10t9 5q5 0 9 -3t10 -12l101 -141q11 -17 0 -34zM101 93q-6 -9 -10 -12t-9 -3q-7 0 -9 5.5t0 9.5l69 149q5 9 0 18l-69 149q-2 5 0 10t9 5q5 0 9 -3t10 -12l101 -141q11 -17 0 -34z" />
    <glyph glyph-name="guilsinglleft" unicode="&#x2039;" horiz-adv-x="262" 
d="M161 93l-101 141q-11 17 0 34l101 141q6 9 10.5 12t8.5 3q8 0 9.5 -5t-0.5 -10l-69 -149q-4 -9 0 -18l69 -149q2 -4 0.5 -9.5t-9.5 -5.5q-4 0 -8.5 3t-10.5 12z" />
    <glyph glyph-name="guilsinglright" unicode="&#x203a;" horiz-adv-x="262" 
d="M101 93q-6 -9 -10 -12t-9 -3q-7 0 -9 5.5t0 9.5l69 149q5 9 0 18l-69 149q-2 5 0 10t9 5q5 0 9 -3t10 -12l101 -141q11 -17 0 -34z" />
    <glyph glyph-name="quotedbl" unicode="&#x22;" horiz-adv-x="371" 
d="M116 489q-12 0 -12 17q-1 46 -9 78t-15.5 55t-7.5 42q0 21 11 35.5t33 14.5q23 0 34 -14.5t11 -35.5q0 -19 -7.5 -42t-15.5 -55t-10 -78q0 -17 -12 -17zM255 489q-12 0 -12 17q-1 46 -9 78t-15.5 55t-7.5 42q0 21 11 35.5t33 14.5q23 0 34 -14.5t11 -35.5q0 -19 -7.5 -42
t-15.5 -55t-10 -78q0 -17 -12 -17z" />
    <glyph glyph-name="quotesingle" unicode="'" horiz-adv-x="233" 
d="M116 489q-12 0 -12 17q-1 46 -9 78t-15.5 55t-7.5 42q0 21 11 35.5t33 14.5q23 0 34 -14.5t11 -35.5q0 -19 -7.5 -42t-15.5 -55t-10 -78q0 -17 -12 -17z" />
    <glyph glyph-name="at" unicode="@" horiz-adv-x="660" 
d="M348 -81q-98 0 -167 38.5t-105 106.5t-36 154q0 72 27.5 137.5t75.5 116t110 79.5t131 29q71 0 124 -32.5t82.5 -91.5t29.5 -137q0 -50 -14.5 -96t-39.5 -82t-57 -57t-67 -21q-39 0 -54 31t-2 84q1 3 1.5 6t1.5 6q2 5 -1.5 6t-5.5 -4q-71 -129 -132 -129q-54 0 -54 88
q0 50 17.5 101t46.5 93t64 67.5t69 25.5q32 0 46 -22q4 -7 9 -7t8 7q6 17 18 17q15 0 10 -20l-55 -236q-20 -83 23 -83q33 0 62.5 33t48 85t18.5 110q0 107 -54 169t-147 62q-80 0 -142 -43t-97 -119t-35 -176q0 -130 61.5 -198.5t178.5 -68.5q98 0 161 46q17 14 25 2
t-5 -22q-70 -55 -179 -55zM268 100q15 0 35 19t40 49.5t37.5 66.5t28 71.5t10.5 62.5q0 42 -30 42q-23 0 -47.5 -25t-46 -65.5t-34.5 -87.5t-13 -90q0 -23 5 -33t15 -10z" />
    <glyph glyph-name="ampersand" unicode="&#x26;" horiz-adv-x="579" 
d="M206 -9q-55 0 -94 24.5t-59.5 65t-20.5 87.5q0 75 40.5 136.5t106.5 102.5q11 7 4 19q-29 48 -44 84.5t-15 75.5q0 41 19.5 74t55.5 53t83 20q42 0 71 -19t44 -47.5t15 -57.5q0 -51 -32 -93t-103 -79q-12 -8 -5 -19l127 -204q5 -7 10 -6.5t9 7.5q11 23 21.5 47.5
t16.5 39.5q11 29 7 42.5t-24 16.5l-35 5q-13 1 -13 12q0 10 14 10h175q14 0 14 -11t-13 -12l-19 -2q-22 -2 -41.5 -16t-35.5 -52q-9 -22 -22 -52t-27 -58q-8 -17 1 -33l58 -93q10 -15 17.5 -23t19.5 -9l44 -4q12 -1 12 -12t-14 -11h-102q-19 0 -29 16l-46 72q-9 14 -19 1
q-41 -53 -84.5 -75.5t-87.5 -22.5zM262 458q46 28 68.5 68t22.5 79q0 24 -6.5 47t-22.5 38.5t-47 15.5q-41 0 -65.5 -31t-24.5 -68q0 -33 12 -63t44 -81q6 -13 19 -5zM219 38q35 0 70 17t69 59q11 17 1 34l-147 232q-9 12 -20 4q-48 -34 -71 -84t-23 -112t29.5 -106
t91.5 -44z" />
    <glyph glyph-name="paragraph" unicode="&#xb6;" horiz-adv-x="516" 
d="M260 -130q-14 0 -14 14v428q0 14 -14 14h-12q-57 0 -101.5 24.5t-69.5 68.5t-25 101q0 59 25 104t70 70.5t104 25.5h259q15 0 15 -11q0 -9 -13 -12l-23 -4q-21 -4 -27.5 -11t-6.5 -28v-770q0 -14 -14 -14h-27q-14 0 -14 14v782q0 24 -24 24h-23q-24 0 -24 -24v-782
q0 -14 -14 -14h-27z" />
    <glyph glyph-name="section" unicode="&#xa7;" horiz-adv-x="376" 
d="M154 -129q-22 0 -42 4.5t-36 14.5q-10 7 -10 16l-2 110q0 15 13 15q8 0 11 -4.5t5 -11.5q22 -65 43.5 -90.5t51.5 -25.5q29 0 48 18t19 45q0 24 -9 46.5t-30.5 49.5t-61.5 64q-56 53 -84.5 98.5t-28.5 94.5q0 53 29.5 89t75.5 47q15 3 5 15q-36 38 -55 72.5t-19 70.5
q0 55 41.5 88t114.5 33q22 0 42 -4.5t36 -14.5q10 -7 10 -16l2 -110q0 -15 -13 -15q-7 0 -10.5 4.5t-5.5 11.5q-22 65 -43.5 90.5t-51.5 25.5q-28 0 -47.5 -18t-19.5 -45q0 -23 9 -46t31 -50t61 -64q56 -53 84.5 -98.5t28.5 -94.5q0 -53 -29.5 -89t-75.5 -47q-15 -3 -5 -15
q36 -38 55 -72.5t19 -70.5q0 -55 -41 -88t-115 -33zM219 172q33 5 52.5 27t19.5 57q0 38 -21 74.5t-71 86.5q-13 15 -31 12q-34 -5 -53 -27t-19 -57q0 -37 21.5 -74t70.5 -87q13 -15 31 -12z" />
    <glyph glyph-name="copyright" unicode="&#xa9;" horiz-adv-x="830" 
d="M415 -15q-78 0 -146 29t-119.5 80.5t-80.5 119.5t-29 146t29 146t80.5 119.5t119.5 80.5t146 29t146 -29t119.5 -80.5t80.5 -119.5t29 -146t-29 -146t-80.5 -119.5t-119.5 -80.5t-146 -29zM415 23q69 0 130 26.5t107 73t72 107.5t26 130t-26 130t-72 107.5t-107 73
t-130 26.5t-130 -26.5t-107 -73t-72 -107.5t-26 -130t26 -130t72 -107.5t107 -73t130 -26.5zM421 142q-59 0 -104 29.5t-69.5 80t-24.5 111.5q0 59 27 108t72.5 78.5t101.5 29.5q32 0 57.5 -5t45.5 -14q10 -4 10 -13l3 -104q0 -19 -13 -19q-11 0 -16 20l-7 24
q-16 54 -36.5 73t-49.5 19q-35 0 -64.5 -25t-46.5 -69t-17 -103q0 -60 19 -105.5t48.5 -70.5t61.5 -25t53.5 18.5t37.5 72.5l7 24q5 20 16 20q13 0 13 -19l-3 -104q0 -8 -10 -14q-20 -8 -46.5 -13t-65.5 -5z" />
    <glyph glyph-name="registered" unicode="&#xae;" horiz-adv-x="830" 
d="M415 -15q-78 0 -146 29t-119.5 80.5t-80.5 119.5t-29 146t29 146t80.5 119.5t119.5 80.5t146 29t146 -29t119.5 -80.5t80.5 -119.5t29 -146t-29 -146t-80.5 -119.5t-119.5 -80.5t-146 -29zM415 23q69 0 130 26.5t107 73t72 107.5t26 130t-26 130t-72 107.5t-107 73
t-130 26.5t-130 -26.5t-107 -73t-72 -107.5t-26 -130t26 -130t72 -107.5t107 -73t130 -26.5zM554 144q-37 0 -57 17t-29 51l-17 66q-12 47 -25 62t-41 15q-21 0 -21 -15v-143q0 -13 4 -17.5t16 -6.5l21 -3q8 -1 10.5 -4.5t2.5 -6.5q0 -10 -11 -10h-141q-10 0 -10 10
q0 9 9 10l15 2q15 2 20 6.5t5 16.5v338q0 13 -5 17.5t-20 6.5l-12 2q-12 1 -12 10q0 10 13 10h145q62 0 101 -30t39 -77q0 -38 -27.5 -68t-71.5 -43q-11 -3 0 -8q22 -8 34 -24.5t19 -43.5l16 -60q8 -31 18 -42t26 -11q9 0 22 8q6 4 10.5 1.5t4.5 -8.5q0 -13 -15 -20.5
t-36 -7.5zM410 374q32 0 57.5 24.5t25.5 64.5q0 44 -25.5 68.5t-59.5 24.5q-44 0 -44 -23v-126q0 -33 46 -33z" />
    <glyph glyph-name="trademark" unicode="&#x2122;" horiz-adv-x="571" 
d="M71 403q-7 0 -7 5q0 4 6 5l20 3q8 2 11.5 5t3.5 12v256q0 11 -14 11q-16 0 -30 -13.5t-20 -45.5l-2 -10q-3 -12 -9 -12t-6 9l4 89q0 10 8 10q5 0 9.5 -3.5t25.5 -3.5h109q21 0 26 3.5t9 3.5q8 0 8 -10l4 -89q0 -9 -6 -9t-9 12l-2 10q-6 32 -19.5 45.5t-30.5 13.5
q-14 0 -14 -11v-256q0 -9 3.5 -12t11.5 -5l20 -3q6 -1 6 -5q0 -5 -7 -5h-109zM244 403q-7 0 -7 5q0 4 6 5l6 1q11 2 15 8t5 19l9 250q0 10 -3 13.5t-13 4.5l-10 1q-6 0 -6 6q0 4 7 4h68q13 0 16 -13l49 -220q1 -3 2.5 -3t2.5 3l56 222q3 11 14 11h67q6 0 6 -4q0 -6 -5 -6
l-11 -1q-15 -1 -15 -18l9 -259q0 -9 3 -12t12 -5l10 -2q6 -1 6 -5q0 -5 -7 -5h-89q-7 0 -7 5q0 4 6 5l10 2q9 2 12 5t3 12l-8 252q0 3 -1.5 3.5t-2.5 -2.5l-67 -262q-3 -10 -7 -13t-8 -3t-7.5 3t-5.5 13l-63 262q-1 3 -2.5 2.5t-1.5 -3.5l-9 -243q-1 -24 19 -27l6 -1
q6 -1 6 -5q0 -5 -7 -5h-68z" />
    <glyph glyph-name="degree" unicode="&#xb0;" horiz-adv-x="426" 
d="M214 449q-40 0 -73 19.5t-52 52.5t-19 72t19 71.5t52 51.5t73 19q41 0 73 -19t50.5 -51.5t18.5 -71.5t-18.5 -72t-50.5 -52.5t-73 -19.5zM214 480q47 0 78.5 33t31.5 80q0 46 -31.5 78.5t-78.5 32.5q-48 0 -80 -32.5t-32 -78.5q0 -47 32 -80t80 -33z" />
    <glyph glyph-name="bar" unicode="|" horiz-adv-x="252" 
d="M118 -130q-8 0 -8 8v904q0 8 8 8h16q8 0 8 -8v-904q0 -8 -8 -8h-16z" />
    <glyph glyph-name="cent" unicode="&#xa2;" horiz-adv-x="339" 
d="M187 -109q-8 0 -8 8v92q-44 0 -79 30t-56 84.5t-21 130.5q0 113 44 186t112 90v96q0 8 8 8h8q8 0 8 -8v-93q6 1 13 1q46 0 72 -18q10 -7 10 -22l2 -122q0 -15 -12 -15q-11 0 -14 13q-18 71 -34.5 100.5t-36.5 35.5v-446q32 3 54 32t38 102q3 11 12 11q12 0 9 -20
q-15 -93 -44 -130.5t-69 -43.5v-94q0 -8 -8 -8h-8zM97 257q0 -97 22.5 -150t59.5 -63v445q-19 -5 -38 -30.5t-31.5 -75t-12.5 -126.5z" />
    <glyph glyph-name="dollar" unicode="$" horiz-adv-x="417" 
d="M184 -9q-20 0 -44.5 4t-46 10t-33.5 13q-7 4 -10.5 8.5t-3.5 15.5l-5 157q0 20 13 20q11 0 15 -18l9 -38q34 -143 124 -143v327l-16 12q-74 53 -108 102.5t-34 105.5q0 68 44 111.5t114 50.5v93q0 8 8 8h8q8 0 8 -8v-92h1q30 0 58 -7t46 -20q6 -4 9.5 -9t3.5 -13l3 -151
q0 -17 -13 -17q-9 0 -13 14l-7 25q-18 65 -37.5 100.5t-50.5 44.5v-275q3 -3 7 -6q75 -61 109.5 -117.5t34.5 -120.5q0 -73 -42 -122t-109 -61v-96q0 -8 -8 -8h-8q-8 0 -8 8v93q-9 -1 -18 -1zM107 593q0 -38 21 -72.5t74 -79.5v259h-1q-43 0 -68.5 -28t-25.5 -79zM314 148
q0 49 -21 92.5t-67 85.5v-304q41 6 64.5 39t23.5 87z" />
    <glyph glyph-name="Euro" unicode="&#x20ac;" horiz-adv-x="495" 
d="M18 284q-10 0 -8 10l3 14q2 10 13 10h60q-1 22 -1 46q0 20 1 40h-68q-10 0 -8 10l3 14q2 10 13 10h63q10 89 42.5 154.5t79.5 101.5t103 36q33 0 63 -7.5t54 -19.5q12 -7 12 -21l3 -152q0 -17 -12 -17q-11 0 -14 13l-10 37q-21 77 -43.5 107.5t-58.5 30.5
q-54 0 -93.5 -67.5t-48.5 -195.5h172q9 0 7 -10l-3 -14q-2 -10 -12 -10h-166q-1 -19 -1 -40q0 -24 1 -46h149q9 0 7 -10l-3 -14q-2 -10 -12 -10h-139q12 -130 53.5 -197t89.5 -67q29 0 48 12t32.5 42t26.5 82l12 49q3 15 16 13q11 -2 11 -17l-4 -162q0 -14 -13 -21
q-24 -12 -55 -19.5t-72 -7.5q-59 0 -105.5 35.5t-76.5 101.5t-40 156h-71z" />
    <glyph glyph-name="sterling" unicode="&#xa3;" horiz-adv-x="520" 
d="M139 -9q-49 0 -74 24t-25 58q0 41 32.5 71.5t85.5 30.5q32 0 57.5 -12t47.5 -29q11 32 11 64q0 35 -13 67.5t-31 64.5h-149q-10 0 -8 10l3 14q2 10 13 10h121q-27 45 -50 92.5t-23 102.5q0 50 24.5 88.5t67 60.5t96.5 22q76 0 114 -27q6 -4 9.5 -9t3.5 -13l3 -151
q0 -17 -13 -17q-9 0 -13 14l-7 25q-22 77 -47 112.5t-76 35.5q-45 0 -72 -31t-27 -76q0 -44 16 -82.5t38 -74t40 -72.5h131q9 0 7 -10l-3 -14q-2 -10 -12 -10h-108q7 -18 11 -37t4 -40q0 -35 -9 -71.5t-26 -70.5q29 -25 57 -46.5t64 -21.5q29 0 44 13.5t15 34.5
q0 23 -11.5 32.5t-26.5 15t-26.5 14t-11.5 29.5q0 17 12 27t28 10q29 0 46 -28t17 -85q0 -55 -33.5 -85t-75.5 -30q-44 0 -73 23t-52 52q-25 -33 -56 -54t-67 -21zM89 82q0 -29 17 -45t46 -16q24 0 48.5 19t42.5 49q-19 24 -39.5 41.5t-48.5 17.5q-31 0 -48.5 -19t-17.5 -47
z" />
    <glyph glyph-name="yen" unicode="&#xa5;" horiz-adv-x="513" 
d="M145 0q-15 0 -15 11t13 12l45 7q20 3 27 10.5t7 28.5v215h-160q-10 0 -10 10v14q0 10 10 10h159q-2 14 -9 30l-27 56h-123q-10 0 -10 10v14q0 10 10 10h107l-104 218q-7 17 -16 26t-26 13l-9 2q-14 3 -14 13t15 10h171q14 0 14 -11t-17 -12l-19 -2q-17 -1 -24 -11t3 -31
l123 -262q4 -7 10 -7t10 7l118 241q13 26 6.5 42.5t-29.5 19.5l-22 3q-17 3 -17 12q0 11 14 11h142q15 0 15 -10t-14 -13l-10 -2q-14 -3 -24.5 -17t-27.5 -47l-96 -193h112q10 0 10 -10v-14q0 -10 -10 -10h-129l-18 -36q-13 -28 -13 -50h160q10 0 10 -10v-14q0 -10 -10 -10
h-160v-215q0 -21 7.5 -28.5t26.5 -10.5l45 -7q13 -1 13 -12t-15 -11h-225z" />
    <glyph glyph-name="plus" unicode="+" horiz-adv-x="531" 
d="M258 153q-10 0 -10 10v191h-178q-10 0 -10 10v14q0 10 10 10h178v192q0 10 10 10h16q10 0 10 -10v-192h177q10 0 10 -10v-14q0 -10 -10 -10h-177v-191q0 -10 -10 -10h-16z" />
    <glyph glyph-name="minus" unicode="&#x2212;" horiz-adv-x="531" 
d="M70 354q-10 0 -10 10v14q0 10 10 10h391q10 0 10 -10v-14q0 -10 -10 -10h-391z" />
    <glyph glyph-name="multiply" unicode="&#xd7;" horiz-adv-x="531" 
d="M99 194l-10 10q-9 7 0 14l153 153l-154 153q-7 7 0 14l10 10q7 9 14 0l154 -153l153 153q7 9 14 0l10 -10q7 -7 0 -14l-153 -153l152 -153q9 -7 0 -14l-10 -10q-7 -7 -14 0l-152 153l-153 -153q-7 -7 -14 0z" />
    <glyph glyph-name="divide" unicode="&#xf7;" horiz-adv-x="531" 
d="M266 485q-22 0 -37.5 14.5t-15.5 38.5q0 23 15.5 37.5t37.5 14.5q20 0 36 -14.5t16 -37.5q0 -24 -16 -38.5t-36 -14.5zM70 354q-10 0 -10 10v14q0 10 10 10h391q10 0 10 -10v-14q0 -10 -10 -10h-391zM266 153q-22 0 -37.5 14.5t-15.5 38.5q0 23 15.5 37.5t37.5 14.5
q20 0 36 -14.5t16 -37.5q0 -24 -16 -38.5t-36 -14.5z" />
    <glyph glyph-name="equal" unicode="=" horiz-adv-x="531" 
d="M70 454q-10 0 -10 10v14q0 10 10 10h391q10 0 10 -10v-14q0 -10 -10 -10h-391zM70 254q-10 0 -10 10v14q0 10 10 10h391q10 0 10 -10v-14q0 -10 -10 -10h-391z" />
    <glyph glyph-name="greater" unicode="&#x3e;" horiz-adv-x="531" 
d="M74 199q-6 -2 -10 1t-4 9v12q0 10 10 13l354 132l-354 132q-10 3 -10 13v12q0 6 4 9t10 1l387 -146q10 -4 10 -14v-14q0 -10 -10 -14z" />
    <glyph glyph-name="less" unicode="&#x3c;" horiz-adv-x="531" 
d="M457 533q6 2 10 -1t4 -9v-12q0 -10 -10 -13l-354 -132l354 -132q10 -3 10 -13v-12q0 -6 -4 -9t-10 -1l-387 146q-10 4 -10 14v14q0 10 10 14z" />
    <glyph glyph-name="asciitilde" unicode="~" horiz-adv-x="531" 
d="M358 301q-39 0 -72.5 15.5t-64 30.5t-63.5 15q-25 0 -44 -12.5t-28 -38.5q-4 -12 -14 -12q-13 0 -10 15q10 50 41.5 75t68.5 25q38 0 72 -15t65.5 -30.5t62.5 -15.5q25 0 44 12.5t28 38.5q5 12 14 12q13 0 10 -15q-10 -49 -41 -74.5t-69 -25.5z" />
    <glyph glyph-name="asciicircum" unicode="^" horiz-adv-x="433" 
d="M86 491q-7 -10 -18.5 -6.5t-1.5 22.5l116 222q4 7 11 9t14 2h19q8 0 14.5 -2t10.5 -9l116 -222q11 -19 -0.5 -22.5t-19.5 6.5l-130 170z" />
    <glyph glyph-name="percent" unicode="%" horiz-adv-x="590" 
d="M154 381q-37 0 -65 23.5t-43.5 63t-15.5 88.5t15.5 88.5t43.5 62.5t65 23t64.5 -23t43.5 -62.5t16 -88.5t-16 -88.5t-43.5 -63t-64.5 -23.5zM77 0q-16 0 -8 14l419 698q4 8 14 8h11q16 0 8 -14l-419 -698q-4 -8 -14 -8h-11zM154 401q31 0 50 34.5t19 120.5t-19 120
t-50 34t-50 -34t-19 -120t19 -120.5t50 -34.5zM436 -10q-37 0 -65 23.5t-43.5 63t-15.5 88.5t15.5 88.5t43.5 62.5t65 23t64.5 -23t43.5 -62.5t16 -88.5t-16 -88.5t-43.5 -63t-64.5 -23.5zM436 10q31 0 50 34.5t19 120.5t-19 120t-50 34t-50 -34t-19 -120t19 -120.5
t50 -34.5z" />
    <glyph glyph-name="perthousand" unicode="&#x2030;" horiz-adv-x="784" 
d="M154 381q-37 0 -65 23.5t-43.5 63t-15.5 88.5t15.5 88.5t43.5 62.5t65 23t64.5 -23t43.5 -62.5t16 -88.5t-16 -88.5t-43.5 -63t-64.5 -23.5zM77 0q-16 0 -8 14l419 698q4 8 14 8h11q16 0 8 -14l-419 -698q-4 -8 -14 -8h-11zM154 401q31 0 50 34.5t19 120.5t-19 120
t-50 34t-50 -34t-19 -120t19 -120.5t50 -34.5zM436 -10q-37 0 -65 23.5t-43.5 63t-15.5 88.5t15.5 88.5t43.5 62.5t65 23q31 0 54 -17t38 -47q14 30 37 47t55 17q37 0 64.5 -23t43.5 -62.5t16 -88.5t-16 -88.5t-43.5 -63t-64.5 -23.5q-32 0 -55 17.5t-37 46.5
q-15 -29 -38 -46.5t-54 -17.5zM436 10q31 0 50 34.5t19 120.5t-19 120t-50 34t-50 -34t-19 -120t19 -120.5t50 -34.5zM620 10q31 0 50 34.5t19 120.5t-19 120t-50 34t-50.5 -34t-19.5 -120t19.5 -120.5t50.5 -34.5z" />
    <glyph glyph-name="uni0308" unicode="&#x308;" horiz-adv-x="0" 
d="M110 605q-21 0 -35.5 14.5t-14.5 36.5t14.5 36t35.5 14t35 -14t14 -36t-14 -36.5t-35 -14.5zM300 605q-21 0 -35.5 14.5t-14.5 36.5t14.5 36t35.5 14t35 -14t14 -36t-14 -36.5t-35 -14.5z" />
    <glyph glyph-name="uni0307" unicode="&#x307;" horiz-adv-x="0" 
d="M110 605q-21 0 -35.5 15t-14.5 38t14.5 37.5t35.5 14.5t35 -14.5t14 -37.5t-14 -38t-35 -15z" />
    <glyph glyph-name="gravecomb" unicode="&#x300;" horiz-adv-x="0" 
d="M269 586l-178 81q-18 8 -24.5 17.5t-6.5 22.5q0 12 10 22.5t28 10.5q13 0 22 -4t19 -12l144 -112q16 -11 9 -22q-6 -11 -23 -4z" />
    <glyph glyph-name="acutecomb" unicode="&#x301;" horiz-adv-x="0" 
d="M85 586q-17 -7 -23 4q-7 11 9 22l144 112q10 8 19 12t22 4q18 0 28 -10.5t10 -22.5q0 -13 -6.5 -22.5t-24.5 -17.5z" />
    <glyph glyph-name="uni030B" unicode="&#x30b;" horiz-adv-x="0" 
d="M92 590q-13 -10 -22 -4t-1 23l52 95q10 19 20.5 27.5t26.5 8.5q17 0 26.5 -9t9.5 -22q0 -23 -28 -47zM242 590q-13 -10 -22 -4t-1 23l52 95q10 19 20.5 27.5t26.5 8.5q17 0 26.5 -9t9.5 -22q0 -23 -28 -47z" />
    <glyph glyph-name="uni030C.alt" horiz-adv-x="0" 
d="M89 503q-3 -12 -17 -12q-12 0 -12 16l4 162q1 26 11.5 38.5t26.5 12.5q19 0 26 -15t1 -40z" />
    <glyph glyph-name="uni0302" unicode="&#x302;" horiz-adv-x="0" 
d="M83 586q-12 -8 -20 2q-7 8 3 19l116 122q11 11 25 11h19q14 0 25 -11l116 -122q10 -11 3 -19q-6 -10 -20 -1l-134 90z" />
    <glyph glyph-name="uni030C" unicode="&#x30c;" horiz-adv-x="0" 
d="M207 583q-14 0 -25 11l-116 122q-10 11 -3 19q8 10 20 2l133 -91l134 90q14 9 20 -1q7 -8 -3 -19l-116 -122q-11 -11 -25 -11h-19z" />
    <glyph glyph-name="uni0306" unicode="&#x306;" horiz-adv-x="0" 
d="M204 579q-53 0 -92.5 35.5t-50.5 97.5q-3 18 10 18q11 0 14 -12q11 -43 43 -62.5t76 -19.5t76 19.5t43 62.5q3 12 14 12q13 0 10 -18q-11 -62 -50.5 -97.5t-92.5 -35.5z" />
    <glyph glyph-name="uni030A" unicode="&#x30a;" horiz-adv-x="0" 
d="M168 561q-46 0 -77 31.5t-31 76.5q0 44 31 75.5t77 31.5t76.5 -31.5t30.5 -75.5q0 -45 -30.5 -76.5t-76.5 -31.5zM168 588q34 0 55.5 23.5t21.5 57.5q0 33 -21.5 56.5t-55.5 23.5t-56 -23.5t-22 -56.5q0 -34 22 -57.5t56 -23.5z" />
    <glyph glyph-name="tildecomb" unicode="&#x303;" horiz-adv-x="0" 
d="M289 597q-26 0 -43.5 10t-31.5 22.5t-29 22.5t-36 10q-25 0 -39 -12.5t-23 -38.5q-4 -12 -14 -12q-13 0 -10 15q10 51 36.5 77.5t63.5 26.5q25 0 42.5 -10t32.5 -22.5t30.5 -22.5t34.5 -10q25 0 39 12.5t23 38.5q5 12 14 12q13 0 10 -15q-10 -51 -36 -77.5t-64 -26.5z
" />
    <glyph glyph-name="uni0304" unicode="&#x304;" horiz-adv-x="0" 
d="M72 636q-12 0 -12 12v15q0 12 12 12h267q12 0 12 -12v-15q0 -12 -12 -12h-267z" />
    <glyph glyph-name="uni0312" unicode="&#x312;" horiz-adv-x="0" 
d="M114 576q-25 0 -39.5 20.5t-14.5 51.5q0 49 20.5 86t65.5 74q12 10 20 4q9 -7 -3 -19q-29 -29 -40 -47.5t-11 -38.5q0 -16 7.5 -25t17.5 -15.5t17.5 -16t7.5 -27.5q0 -20 -13.5 -33.5t-34.5 -13.5z" />
    <glyph glyph-name="uni0326" unicode="&#x326;" horiz-adv-x="0" 
d="M115 -67q25 0 39.5 -20.5t14.5 -51.5q0 -49 -20.5 -85.5t-65.5 -74.5q-12 -10 -20 -4q-9 7 3 19q29 29 40 48t11 38q0 16 -7.5 25t-17.5 15.5t-17.5 16t-7.5 27.5q0 20 13.5 33.5t34.5 13.5z" />
    <glyph glyph-name="uni0327" unicode="&#x327;" horiz-adv-x="0" 
d="M170 12l-10 -55q-1 -6 4 -6q40 -7 58.5 -31t18.5 -53q0 -39 -28 -60.5t-66 -21.5q-39 0 -63 18t-24 41q0 11 6 18t17 7q15 0 20 -9.5t8.5 -22.5t11 -22.5t26.5 -9.5q24 0 35 16.5t11 40.5q0 22 -14 36.5t-41 17.5q-9 2 -8 13l15 83h23z" />
    <glyph glyph-name="uni0328" unicode="&#x328;" horiz-adv-x="0" 
d="M134 -216q-28 0 -51 18t-23 55q0 28 16.5 58t44.5 55.5t63 39.5l10 -10q-44 -25 -66 -60t-22 -73q0 -29 11 -41t28 -12q24 0 42 21q11 14 20 3q6 -9 -5 -21q-14 -16 -30 -24.5t-38 -8.5z" />
    <glyph glyph-name="dieresis" unicode="&#xa8;" horiz-adv-x="409" 
d="M110 605q-21 0 -35.5 14.5t-14.5 36.5t14.5 36t35.5 14t35 -14t14 -36t-14 -36.5t-35 -14.5zM300 605q-21 0 -35.5 14.5t-14.5 36.5t14.5 36t35.5 14t35 -14t14 -36t-14 -36.5t-35 -14.5z" />
    <glyph glyph-name="dotaccent" unicode="&#x2d9;" horiz-adv-x="219" 
d="M110 605q-21 0 -35.5 15t-14.5 38t14.5 37.5t35.5 14.5t35 -14.5t14 -37.5t-14 -38t-35 -15z" />
    <glyph glyph-name="grave" unicode="`" horiz-adv-x="354" 
d="M269 586l-178 81q-18 8 -24.5 17.5t-6.5 22.5q0 12 10 22.5t28 10.5q13 0 22 -4t19 -12l144 -112q16 -11 9 -22q-6 -11 -23 -4z" />
    <glyph glyph-name="acute" unicode="&#xb4;" horiz-adv-x="354" 
d="M85 586q-17 -7 -23 4q-7 11 9 22l144 112q10 8 19 12t22 4q18 0 28 -10.5t10 -22.5q0 -13 -6.5 -22.5t-24.5 -17.5z" />
    <glyph glyph-name="hungarumlaut" unicode="&#x2dd;" horiz-adv-x="414" 
d="M92 590q-13 -10 -22 -4t-1 23l52 95q10 19 20.5 27.5t26.5 8.5q17 0 26.5 -9t9.5 -22q0 -23 -28 -47zM242 590q-13 -10 -22 -4t-1 23l52 95q10 19 20.5 27.5t26.5 8.5q17 0 26.5 -9t9.5 -22q0 -23 -28 -47z" />
    <glyph glyph-name="circumflex" unicode="&#x2c6;" horiz-adv-x="433" 
d="M83 586q-12 -8 -20 2q-7 8 3 19l116 122q11 11 25 11h19q14 0 25 -11l116 -122q10 -11 3 -19q-6 -10 -20 -1l-134 90z" />
    <glyph glyph-name="caron" unicode="&#x2c7;" horiz-adv-x="433" 
d="M207 583q-14 0 -25 11l-116 122q-10 11 -3 19q8 10 20 2l133 -91l134 90q14 9 20 -1q7 -8 -3 -19l-116 -122q-11 -11 -25 -11h-19z" />
    <glyph glyph-name="breve" unicode="&#x2d8;" horiz-adv-x="408" 
d="M204 579q-53 0 -92.5 35.5t-50.5 97.5q-3 18 10 18q11 0 14 -12q11 -43 43 -62.5t76 -19.5t76 19.5t43 62.5q3 12 14 12q13 0 10 -18q-11 -62 -50.5 -97.5t-92.5 -35.5z" />
    <glyph glyph-name="ring" unicode="&#x2da;" horiz-adv-x="335" 
d="M168 561q-46 0 -77 31.5t-31 76.5q0 44 31 75.5t77 31.5t76.5 -31.5t30.5 -75.5q0 -45 -30.5 -76.5t-76.5 -31.5zM168 588q34 0 55.5 23.5t21.5 57.5q0 33 -21.5 56.5t-55.5 23.5t-56 -23.5t-22 -56.5q0 -34 22 -57.5t56 -23.5z" />
    <glyph glyph-name="tilde" unicode="&#x2dc;" horiz-adv-x="452" 
d="M289 597q-26 0 -43.5 10t-31.5 22.5t-29 22.5t-36 10q-25 0 -39 -12.5t-23 -38.5q-4 -12 -14 -12q-13 0 -10 15q10 51 36.5 77.5t63.5 26.5q25 0 42.5 -10t32.5 -22.5t30.5 -22.5t34.5 -10q25 0 39 12.5t23 38.5q5 12 14 12q13 0 10 -15q-10 -51 -36 -77.5t-64 -26.5z
" />
    <glyph glyph-name="macron" unicode="&#xaf;" horiz-adv-x="411" 
d="M72 636q-12 0 -12 12v15q0 12 12 12h267q12 0 12 -12v-15q0 -12 -12 -12h-267z" />
    <glyph glyph-name="cedilla" unicode="&#xb8;" horiz-adv-x="301" 
d="M170 12l-10 -55q-1 -6 4 -6q40 -7 58.5 -31t18.5 -53q0 -39 -28 -60.5t-66 -21.5q-39 0 -63 18t-24 41q0 11 6 18t17 7q15 0 20 -9.5t8.5 -22.5t11 -22.5t26.5 -9.5q24 0 35 16.5t11 40.5q0 22 -14 36.5t-41 17.5q-9 2 -8 13l15 83h23z" />
    <glyph glyph-name="ogonek" unicode="&#x2db;" horiz-adv-x="269" 
d="M134 -216q-28 0 -51 18t-23 55q0 28 16.5 58t44.5 55.5t63 39.5l10 -10q-44 -25 -66 -60t-22 -73q0 -29 11 -41t28 -12q24 0 42 21q11 14 20 3q6 -9 -5 -21q-14 -16 -30 -24.5t-38 -8.5z" />
    </font>
</defs>
</svg>
