<svg xmlns="http://www.w3.org/2000/svg" width="247.44" height="37.8" viewBox="0 0 247.44 37.8">
  <g id="Group_1874" data-name="Group 1874" transform="translate(-80 -104.323)">
    <path id="Path_150" data-name="Path 150" d="M11.44.36A7.872,7.872,0,0,1,6.26-1.48,11.8,11.8,0,0,1,2.82-6.66a23.036,23.036,0,0,1-1.22-7.9,20.373,20.373,0,0,1,1.34-7.7,12.378,12.378,0,0,1,3.6-5.12,7.811,7.811,0,0,1,5.02-1.82,12.33,12.33,0,0,1,2.88.3,10.363,10.363,0,0,1,2.2.78.912.912,0,0,1,.48.84l.12,6.08q0,.68-.48.68-.44,0-.56-.52l-.4-1.48a10.759,10.759,0,0,0-1.94-4.32,3.437,3.437,0,0,0-2.62-1.2q-2.8,0-4.66,3.46T4.72-14.56A26.2,26.2,0,0,0,5.66-7,11.453,11.453,0,0,0,8.1-2.36,4.4,4.4,0,0,0,11.28-.8a3.882,3.882,0,0,0,2.9-1.12,9.552,9.552,0,0,0,1.86-4.32l.48-1.96q.12-.6.64-.52.44.08.44.68l-.16,6.48a.9.9,0,0,1-.52.84,10.173,10.173,0,0,1-2.26.78A14.6,14.6,0,0,1,11.44.36Zm13.92-18.2q1.64-2.8,3.96-2.8a2.388,2.388,0,0,1,1.96.78,2.675,2.675,0,0,1,.64,1.74,1.938,1.938,0,0,1-.38,1.24,1.413,1.413,0,0,1-1.18.48,1.283,1.283,0,0,1-.94-.3,2.335,2.335,0,0,1-.48-.7,3.248,3.248,0,0,0-.42-.7.967.967,0,0,0-.8-.3,1.756,1.756,0,0,0-1.36.86,7.249,7.249,0,0,0-1.06,2.3,11.725,11.725,0,0,0-.42,3.28v9.28a2.106,2.106,0,0,0,.26,1.2,1.49,1.49,0,0,0,1.1.44l1.08.12q.44.08.44.44,0,.48-.6.48H20.4q-.6,0-.6-.44,0-.36.52-.48L20.8-1a1.8,1.8,0,0,0,1.1-.5,2,2,0,0,0,.26-1.18V-16.12a1.578,1.578,0,0,0-.22-.98,1.218,1.218,0,0,0-.78-.34l-.84-.12q-.52-.04-.52-.44,0-.32.64-.44a4.856,4.856,0,0,0,1.9-.64,12.724,12.724,0,0,0,1.38-1.08.983.983,0,0,1,.6-.36q.36,0,.36.48v2.16a.308.308,0,0,0,.24.34Q25.16-17.48,25.36-17.84ZM39.6.36A5.2,5.2,0,0,1,36.16-.92a8.69,8.69,0,0,1-2.42-3.62,15.042,15.042,0,0,1-.9-5.42,15.478,15.478,0,0,1,.92-5.56,9.074,9.074,0,0,1,2.52-3.76,5.364,5.364,0,0,1,3.56-1.36,4.561,4.561,0,0,1,3.82,1.94q1.46,1.94,1.46,6.3,0,1.32-1,1.32h-7.6q-.8,0-.8.92A12.886,12.886,0,0,0,36.96-3.8a3.633,3.633,0,0,0,3.16,2.12A3.165,3.165,0,0,0,42.6-2.76,8.5,8.5,0,0,0,44.16-6.4a.513.513,0,0,1,.52-.44q.48,0,.36.8A9.524,9.524,0,0,1,43-1.06,4.6,4.6,0,0,1,39.6.36ZM36.4-12.08h4.04q1.92,0,1.92-2a10.529,10.529,0,0,0-.64-4.08,2.065,2.065,0,0,0-1.92-1.48,3.058,3.058,0,0,0-2.62,1.8,12.625,12.625,0,0,0-1.38,5.12Q35.72-12.08,36.4-12.08ZM50.92.36A3.776,3.776,0,0,1,48.16-.7a3.773,3.773,0,0,1-1.08-2.82,5.583,5.583,0,0,1,1.08-3.26,10.832,10.832,0,0,1,2.96-2.78,17.105,17.105,0,0,1,4.28-2,.659.659,0,0,0,.52-.68v-3.64a4.761,4.761,0,0,0-.6-2.74,1.923,1.923,0,0,0-1.64-.82,2.429,2.429,0,0,0-1.82.9,6,6,0,0,0-1.18,3.02,3.008,3.008,0,0,1-.86,1.86,2.031,2.031,0,0,1-1.34.58.99.99,0,0,1-1.12-1.12,4.549,4.549,0,0,1,.66-2.3,8.215,8.215,0,0,1,1.74-2.08,9.189,9.189,0,0,1,2.36-1.5,6.342,6.342,0,0,1,2.56-.56q3.96,0,3.96,4.6V-3.8q0,1.68.84,1.68.52,0,.96-.7a4.717,4.717,0,0,0,.44-2.38q0-.64.52-.64.48,0,.48.68A6.886,6.886,0,0,1,60.86-.94a2.913,2.913,0,0,1-2.3,1.3,1.774,1.774,0,0,1-1.52-.78,4.569,4.569,0,0,1-.76-1.86q-.04-.4-.34-.42t-.58.38a8.24,8.24,0,0,1-1.96,2A4.31,4.31,0,0,1,50.92.36ZM52-1.48a2.921,2.921,0,0,0,1.92-.74A5.48,5.48,0,0,0,55.36-4.2,6.731,6.731,0,0,0,55.92-7V-9.92q0-.76-.84-.44A8.876,8.876,0,0,0,51.3-7.94a5.446,5.446,0,0,0-1.34,3.7Q49.96-1.48,52-1.48ZM67.72.36a2.984,2.984,0,0,1-2.3-.98,4.694,4.694,0,0,1-.9-3.22V-18.8a.424.424,0,0,0-.48-.48H62.88q-.64,0-.64-.48a.678.678,0,0,1,.36-.56,9.237,9.237,0,0,0,2.12-1.98,9.961,9.961,0,0,0,1.4-2.9q.28-.84.68-.84.44,0,.44.64v4.44a.5.5,0,0,0,.56.56h2.6q.64,0,.64.56t-.64.56H67.8a.5.5,0,0,0-.56.56V-3.8a2.842,2.842,0,0,0,.28,1.38,1.086,1.086,0,0,0,1.04.5,1.6,1.6,0,0,0,1.38-.84,6.205,6.205,0,0,0,.7-2.72q.08-.56.52-.56.48,0,.48.6A7.367,7.367,0,0,1,70.38-1,3.391,3.391,0,0,1,67.72.36ZM76.76-24.2a1.9,1.9,0,0,1-1.42-.6,2.1,2.1,0,0,1-.58-1.52,2.03,2.03,0,0,1,.58-1.5,1.931,1.931,0,0,1,1.42-.58,1.866,1.866,0,0,1,1.4.58,2.07,2.07,0,0,1,.56,1.5,2.14,2.14,0,0,1-.56,1.52A1.835,1.835,0,0,1,76.76-24.2ZM73.4,0q-.6,0-.6-.44,0-.36.52-.48L73.8-1a2.15,2.15,0,0,0,1.28-.5,1.89,1.89,0,0,0,.28-1.18V-16.12a1.578,1.578,0,0,0-.22-.98,1.218,1.218,0,0,0-.78-.34l-.84-.12Q73-17.6,73-18q0-.32.64-.44a5.88,5.88,0,0,0,2-.64,9.084,9.084,0,0,0,1.48-1.08.983.983,0,0,1,.6-.36q.36,0,.36.48V-2.68a2.248,2.248,0,0,0,.24,1.2,1.211,1.211,0,0,0,.92.44l1,.12q.44.08.44.44,0,.48-.6.48ZM88.88.36q-.36,0-.52-.44L83.04-17.72a3.451,3.451,0,0,0-.54-1.24,1.529,1.529,0,0,0-.82-.4l-.6-.12q-.52-.12-.52-.52t.56-.4h6.6q.56,0,.56.4,0,.44-.52.52l-.64.08a1.752,1.752,0,0,0-1.2.46,1.54,1.54,0,0,0,0,1.22L89.24-6.16q.12.44.4.44t.4-.44L93.28-17a3.286,3.286,0,0,0,.18-1.62q-.14-.54-1.14-.7l-.84-.16q-.52-.12-.52-.52t.56-.4H96.6q.56,0,.56.44,0,.4-.48.56l-.36.12a2.179,2.179,0,0,0-1.02.72,5.739,5.739,0,0,0-.82,1.8L89.4-.08Q89.24.36,88.88.36Zm15.16,0A5.2,5.2,0,0,1,100.6-.92a8.69,8.69,0,0,1-2.42-3.62,15.042,15.042,0,0,1-.9-5.42,15.478,15.478,0,0,1,.92-5.56,9.074,9.074,0,0,1,2.52-3.76,5.364,5.364,0,0,1,3.56-1.36,4.561,4.561,0,0,1,3.82,1.94q1.46,1.94,1.46,6.3,0,1.32-1,1.32h-7.6q-.8,0-.8.92A12.886,12.886,0,0,0,101.4-3.8a3.633,3.633,0,0,0,3.16,2.12,3.165,3.165,0,0,0,2.48-1.08A8.5,8.5,0,0,0,108.6-6.4a.513.513,0,0,1,.52-.44q.48,0,.36.8a9.524,9.524,0,0,1-2.04,4.98A4.6,4.6,0,0,1,104.04.36Zm-3.2-12.44h4.04q1.92,0,1.92-2a10.529,10.529,0,0,0-.64-4.08,2.065,2.065,0,0,0-1.92-1.48,3.058,3.058,0,0,0-2.62,1.8,12.625,12.625,0,0,0-1.38,5.12Q100.16-12.08,100.84-12.08ZM118.72,0q-.6,0-.6-.44,0-.36.52-.48l.92-.16a1.451,1.451,0,0,0,1.36-1.56V-26.16a1.714,1.714,0,0,0-.26-1.12,2.1,2.1,0,0,0-1.1-.44l-.92-.16q-.52-.12-.52-.48,0-.44.6-.44h8.08a8.393,8.393,0,0,1,5.4,1.82,11.577,11.577,0,0,1,3.52,5.1,21.424,21.424,0,0,1,1.24,7.6,20.023,20.023,0,0,1-1.3,7.56A11.318,11.318,0,0,1,132-1.76,9.1,9.1,0,0,1,126.4,0Zm7.84-1.04a5.879,5.879,0,0,0,5.42-3.4q1.86-3.4,1.86-9.84,0-6.4-1.78-9.94t-5.26-3.54q-3.04,0-3.04,2.92V-3.96a3.135,3.135,0,0,0,.66,2.26A2.938,2.938,0,0,0,126.56-1.04ZM146.24.36A5.2,5.2,0,0,1,142.8-.92a8.69,8.69,0,0,1-2.42-3.62,15.042,15.042,0,0,1-.9-5.42,15.478,15.478,0,0,1,.92-5.56,9.074,9.074,0,0,1,2.52-3.76,5.364,5.364,0,0,1,3.56-1.36,4.561,4.561,0,0,1,3.82,1.94q1.46,1.94,1.46,6.3,0,1.32-1,1.32h-7.6q-.8,0-.8.92A12.886,12.886,0,0,0,143.6-3.8a3.633,3.633,0,0,0,3.16,2.12,3.165,3.165,0,0,0,2.48-1.08A8.5,8.5,0,0,0,150.8-6.4a.513.513,0,0,1,.52-.44q.48,0,.36.8a9.524,9.524,0,0,1-2.04,4.98A4.6,4.6,0,0,1,146.24.36Zm-3.2-12.44h4.04q1.92,0,1.92-2a10.529,10.529,0,0,0-.64-4.08,2.065,2.065,0,0,0-1.92-1.48,3.058,3.058,0,0,0-2.62,1.8,12.625,12.625,0,0,0-1.38,5.12Q142.36-12.08,143.04-12.08ZM158,.36a9.49,9.49,0,0,1-1.96-.22,7.112,7.112,0,0,1-1.68-.54.714.714,0,0,1-.36-.68l-.12-4.48q0-.68.52-.68.44,0,.6.64a8.882,8.882,0,0,0,1.66,3.88,3.149,3.149,0,0,0,2.38,1.04,2.406,2.406,0,0,0,1.92-.9,3.759,3.759,0,0,0,.76-2.5,4.784,4.784,0,0,0-.88-2.84,12.587,12.587,0,0,0-2.96-2.72,11.067,11.067,0,0,1-3.04-2.82,5.422,5.422,0,0,1-.96-3.1,4.654,4.654,0,0,1,1.6-3.68,6.207,6.207,0,0,1,4.24-1.4,6.746,6.746,0,0,1,1.56.18,4.154,4.154,0,0,1,1.36.58.736.736,0,0,1,.36.64l.08,4.4q0,.6-.48.6a.445.445,0,0,1-.4-.18,1.643,1.643,0,0,1-.2-.46,11.939,11.939,0,0,0-1.6-3.62,2.411,2.411,0,0,0-1.96-1.02,2.264,2.264,0,0,0-1.72.72,2.519,2.519,0,0,0-.68,1.8,3.766,3.766,0,0,0,.84,2.44A15.141,15.141,0,0,0,159.92-12a11.015,11.015,0,0,1,3.02,3.1,6.785,6.785,0,0,1,1.02,3.62,5.358,5.358,0,0,1-1.64,4.1A6.055,6.055,0,0,1,158,.36ZM169.64-24.2a1.9,1.9,0,0,1-1.42-.6,2.1,2.1,0,0,1-.58-1.52,2.03,2.03,0,0,1,.58-1.5,1.931,1.931,0,0,1,1.42-.58,1.866,1.866,0,0,1,1.4.58,2.07,2.07,0,0,1,.56,1.5,2.14,2.14,0,0,1-.56,1.52A1.836,1.836,0,0,1,169.64-24.2ZM166.28,0q-.6,0-.6-.44,0-.36.52-.48l.48-.08a2.15,2.15,0,0,0,1.28-.5,1.89,1.89,0,0,0,.28-1.18V-16.12a1.578,1.578,0,0,0-.22-.98,1.218,1.218,0,0,0-.78-.34l-.84-.12q-.52-.04-.52-.44,0-.32.64-.44a5.88,5.88,0,0,0,2-.64A9.083,9.083,0,0,0,170-20.16a.983.983,0,0,1,.6-.36q.36,0,.36.48V-2.68a2.248,2.248,0,0,0,.24,1.2,1.211,1.211,0,0,0,.92.44l1,.12q.44.08.44.44,0,.48-.6.48Zm14.84,8.6a8.305,8.305,0,0,1-4.8-1.22,3.529,3.529,0,0,1-1.76-2.94,3.971,3.971,0,0,1,.2-1.3,4.341,4.341,0,0,1,.86-1.34,22.62,22.62,0,0,1,2.02-1.96,1.2,1.2,0,0,0,.48-.82q0-.38-.48-.58a2.678,2.678,0,0,1-1.72-1.54,1.589,1.589,0,0,1,.68-1.74l2.88-2.48q.48-.4-.04-.68a5.973,5.973,0,0,1-2.6-2.48,7.139,7.139,0,0,1-.96-3.6,6.868,6.868,0,0,1,.8-3.32,6.357,6.357,0,0,1,2.16-2.36,5.477,5.477,0,0,1,3.04-.88,5.342,5.342,0,0,1,1.84.32q.56.2.68-.36a4.415,4.415,0,0,1,1.34-2.38,2.971,2.971,0,0,1,1.94-.86,2.113,2.113,0,0,1,1.5.54,1.757,1.757,0,0,1,.58,1.34,1.459,1.459,0,0,1-.4,1.08,1.357,1.357,0,0,1-1,.4,1.178,1.178,0,0,1-.76-.2q-.24-.2-.44-.4a.877.877,0,0,0-.64-.2,1.158,1.158,0,0,0-1.2,1.04.906.906,0,0,0,.02.68,2.194,2.194,0,0,0,.42.56,6.427,6.427,0,0,1,1.5,2.24,7.643,7.643,0,0,1,.54,2.92,7.426,7.426,0,0,1-.78,3.44,6.183,6.183,0,0,1-2.12,2.4,5.38,5.38,0,0,1-3.02.88,2.44,2.44,0,0,0-1.24.3,4.553,4.553,0,0,0-1.04.86l-.68.76a1.2,1.2,0,0,0-.3,1.22q.22.58,1.1.58h3.44a6.838,6.838,0,0,1,4.56,1.42,4.835,4.835,0,0,1,1.68,3.9,5.714,5.714,0,0,1-1.12,3.48,7.721,7.721,0,0,1-2.98,2.4A9.655,9.655,0,0,1,181.12,8.6Zm.72-16.8a2.54,2.54,0,0,0,2.28-1.56,9,9,0,0,0,.84-4.24,8.742,8.742,0,0,0-.86-4.18,2.556,2.556,0,0,0-2.26-1.58,2.556,2.556,0,0,0-2.26,1.58,8.742,8.742,0,0,0-.86,4.18,9,9,0,0,0,.84,4.24A2.54,2.54,0,0,0,181.84-8.2ZM181.6,7.72a5.521,5.521,0,0,0,2.64-.64,4.884,4.884,0,0,0,1.9-1.78,4.831,4.831,0,0,0,.7-2.58,3.6,3.6,0,0,0-1.06-2.78,4.226,4.226,0,0,0-2.98-.98h-.92a5.448,5.448,0,0,0-1.86.24,3.229,3.229,0,0,0-1.18.84,7.793,7.793,0,0,0-1.56,2.12,4.379,4.379,0,0,0-.32,1.64,3.61,3.61,0,0,0,1.22,2.84A4.987,4.987,0,0,0,181.6,7.72ZM191.28,0q-.6,0-.6-.44,0-.36.52-.48l.48-.08a1.8,1.8,0,0,0,1.1-.5,2,2,0,0,0,.26-1.18V-16.12a1.578,1.578,0,0,0-.22-.98,1.218,1.218,0,0,0-.78-.34l-.84-.12q-.52-.04-.52-.44,0-.32.64-.44a4.856,4.856,0,0,0,1.9-.64,12.723,12.723,0,0,0,1.38-1.08.983.983,0,0,1,.6-.36q.36,0,.36.48v1.8a.436.436,0,0,0,.26.46q.26.1.58-.22a11.119,11.119,0,0,1,2.82-2.08,6.112,6.112,0,0,1,2.58-.56,3.6,3.6,0,0,1,2.88,1.26,5.544,5.544,0,0,1,1.08,3.7v13a2,2,0,0,0,.26,1.18,1.663,1.663,0,0,0,1.1.46l.88.12a.459.459,0,0,1,.44.48q0,.44-.48.44h-6.72q-.56,0-.56-.44a.459.459,0,0,1,.44-.48l.56-.08a1.6,1.6,0,0,0,1.1-.48,2.106,2.106,0,0,0,.26-1.2V-15.24a4.13,4.13,0,0,0-.72-2.76,2.6,2.6,0,0,0-2.04-.8,3.821,3.821,0,0,0-2.3.74,5.212,5.212,0,0,0-1.62,1.96,6.034,6.034,0,0,0-.6,2.7V-2.68a2.106,2.106,0,0,0,.26,1.2,1.49,1.49,0,0,0,1.1.44l1.08.12q.44.08.44.44,0,.48-.6.48Z" transform="translate(119 133.523)" fill="#ffffff"/>
    <path id="logoipsum-221" d="M2.941,34.2H34.97V2.175H2.941Zm25.864-19.1H22.037V8.34h6.768ZM9.1,8.34h6.772V21.271H28.805v6.768H9.1Z" transform="translate(77.059 105.033)" fill="#ffffff"/>
  </g>
</svg>
