<svg xmlns="http://www.w3.org/2000/svg" width="168.991" height="159.386" viewBox="0 0 168.991 159.386">
    <g data-name="Group 1806">
        <g data-name="Group 25">
            <path data-name="Path 4" d="m468.18-951.336-1.412 2.687-2.915.524a19.427 19.427 0 0 0-3.074.683 9.429 9.429 0 0 0 2.095 1.981c2.573 2.049 2.414 1.639 1.958 5.351a23.113 23.113 0 0 0-.25 2.459c.023.023 1.116-.569 2.436-1.321a18.663 18.663 0 0 1 2.687-1.366 18.67 18.67 0 0 1 2.687 1.366c1.321.751 2.414 1.344 2.436 1.321a23.132 23.132 0 0 0-.25-2.459c-.455-3.711-.615-3.3 1.958-5.351a9.429 9.429 0 0 0 2.095-1.981 19.428 19.428 0 0 0-3.074-.683l-2.914-.524-1.412-2.687a23.775 23.775 0 0 0-1.526-2.664 23.764 23.764 0 0 0-1.525 2.664z" transform="translate(-385.162 954)" style="fill:#aa2424"/>
            <path data-name="Path 5" d="M375.812-922.954c-.068.3-.25 1.207-.41 2.026l-.3 1.48-1.867 1a6.483 6.483 0 0 0-1.753 1.116 14.457 14.457 0 0 0 1.867.82l1.776.729.387 1.913c.2 1.07.387 1.981.387 2.026a12.594 12.594 0 0 0 1.366-1.366l1.343-1.457 1.89.387a10.252 10.252 0 0 0 1.958.319 9.012 9.012 0 0 0-.729-1.844l-.8-1.753 1.161-1.708 1.161-1.73-2.231.159-2.209.159-1.434-1.412c-1.358-1.342-1.426-1.387-1.563-.864z" transform="translate(-316.202 930.262)" style="fill:#aa2424"/>
            <path data-name="Path 6" d="m582.706-922.234-1.343 1.366-2.231-.159-2.231-.159 1.138 1.708 1.161 1.708-.8 1.776a9.005 9.005 0 0 0-.729 1.844 10.257 10.257 0 0 0 1.958-.319l1.89-.387 1.343 1.435c1.5 1.639 1.3 1.753 1.867-1.093l.3-1.457 1.731-.706c.956-.387 1.8-.751 1.89-.82a6.219 6.219 0 0 0-1.753-1.139l-1.867-1-.387-1.89a12.437 12.437 0 0 0-.478-1.981 7.744 7.744 0 0 0-1.459 1.273z" transform="translate(-474.847 930.453)" style="fill:#aa2424"/>
            <path data-name="Path 7" d="M306.913-876.352c.433 2.095.387 2.482-.273 3.1a26.63 26.63 0 0 0-1.138 1.207l-.5.592 1.412.045a4.925 4.925 0 0 1 1.594.205 14.8 14.8 0 0 1 .842 1.389l.66 1.229.5-1.161a5.136 5.136 0 0 1 .774-1.389 4.162 4.162 0 0 1 1.571-.273 3.683 3.683 0 0 0 1.3-.159 10.443 10.443 0 0 0-.911-1.116c-1.047-1.184-1.047-1.207-.547-2.664a2.728 2.728 0 0 0 .25-1.184 4.113 4.113 0 0 0-1.48.455l-1.366.569-1.207-.66c-1.481-.822-1.618-.822-1.481-.185z" transform="translate(-264.857 894.385)" style="fill:#aa2424"/>
            <path data-name="Path 8" d="m662.237-876.173-1.252.66-1.343-.569a4.123 4.123 0 0 0-1.435-.433 2.726 2.726 0 0 0 .25 1.184c.5 1.457.5 1.48-.546 2.664a10.438 10.438 0 0 0-.911 1.116 3.686 3.686 0 0 0 1.3.159 4.16 4.16 0 0 1 1.571.273 5.134 5.134 0 0 1 .774 1.389l.5 1.161.729-1.344.751-1.343 1.526-.114 1.526-.114-1.139-1.207c-1.23-1.252-1.252-1.366-.8-3.643.138-.636.025-.614-1.501.161z" transform="translate(-536.709 894.366)" style="fill:#aa2424"/>
            <path data-name="Path 9" d="M231.94-817.679c-2.664 2.231-4.167 4.281-3.575 4.873.182.182.342.182.592-.046.319-.25 4.759-6.148 4.622-6.148-.023 0-.751.592-1.639 1.321z" transform="translate(-205.573 849.739)" style="fill:#1e1e1e"/>
            <path data-name="Path 10" d="M750.063-816.24c2.482 3.37 2.778 3.643 3.142 3.279.615-.615-1.229-3.051-3.939-5.169l-1.366-1.07z" transform="translate(-606.911 849.893)" style="fill:#1e1e1e"/>
            <path data-name="Path 11" d="M235.957-815.338c-2.14 2.345-3.689 4.417-3.506 4.691.546.911 2.095-.82 4.3-4.827a12.18 12.18 0 0 0 .774-1.526c-.042.023-.748.751-1.568 1.662z" transform="translate(-208.816 848.194)" style="fill:#1e1e1e"/>
            <path data-name="Path 12" d="M745.565-815.906a19.327 19.327 0 0 0 2.778 4.212c.82.911 1.275 1.116 1.548.66.182-.273-1.48-2.482-3.62-4.781L744.7-817.5z" transform="translate(-604.44 848.58)" style="fill:#1e1e1e"/>
            <path data-name="Path 13" d="M204.657-793.709c-3.37 3.62-4.736 7.81-2.55 7.81.934 0 2.459-3.211 3.256-6.831a10.812 10.812 0 0 0 .364-1.981 4.877 4.877 0 0 0-1.07 1.002z" transform="translate(-184.575 830.982)" style="fill:#1e1e1e"/>
            <path data-name="Path 14" d="M778.137-794.626c.751 3.939 2.482 8.015 3.461 8.151 1.275.182 1.548-1.321.615-3.347a19.842 19.842 0 0 0-3.393-4.8l-.82-.778z" transform="translate(-630.157 831.513)" style="fill:#1e1e1e"/>
            <path data-name="Path 15" d="M215.1-782.066c-2.8 1.685-5.419 4.85-4.8 5.829.706 1.138 2.3.228 3.939-2.186a30.028 30.028 0 0 0 2.475-4.577c-.045 0-.774.433-1.614.934z" transform="translate(-191.645 821.936)" style="fill:#1e1e1e"/>
            <path data-name="Path 16" d="M761.642-781.615c2.186 4.326 4.531 6.581 5.579 5.328.888-1.093-1.844-4.395-5.305-6.376l-1.116-.637z" transform="translate(-616.874 822.167)" style="fill:#1e1e1e"/>
            <path data-name="Path 17" d="M297.919-781.657c-6.421.8-10.907 3.233-12.865 6.967-1.685 3.211-2.209 6.262-2.231 13.07l-.023 5.078 9.654.068 9.632.046-.068-2.118c-.114-3.438.3-9.085.729-9.9a3.262 3.262 0 0 1 5.67.045c.478.888.5 1.184.5 7.309v6.375l-.592 1.275c-1.07 2.254-2.163 2.641-7.559 2.755l-3.142.068v5.4c0 2.983 0 5.51.023 5.647 0 .137.638.228 1.434.228a22.019 22.019 0 0 1 6.4.888 6.015 6.015 0 0 1 3.028 3.6c.364 1.161.41 2.3.41 9.745 0 9.176-.091 9.9-1.23 11.066-1.3 1.3-4.007 1.07-4.873-.433-.592-1-.888-5.806-.8-13.32l.068-5.852-9.632.045-9.631.068v6.034c.046 9.13.615 13.57 2.163 16.735 1.753 3.529 5.351 6.421 10.019 7.992 3.074 1.047 5.328 1.321 10.724 1.321 4.326 0 5.328-.068 7.377-.524 11.362-2.436 15.278-8.789 15.278-24.659 0-7.491-.683-12.637-1.981-15.005a11.922 11.922 0 0 0-4.85-4.349 8.344 8.344 0 0 1-1.594-.865 10.94 10.94 0 0 1 1.619-1.143 14.182 14.182 0 0 0 4.713-4.873c1.025-2.14 1.275-3.825 1.275-8.448.023-5.579-.5-8.038-2.459-11.84-3.21-6.239-9.54-8.835-21.472-8.743-2.233.019-4.803.133-5.714.247z" transform="translate(-247.712 821.094)" style="fill:#1e1e1e"/>
            <path data-name="Path 18" d="M513.793-775.626c-.046.159-.251 8.288-.455 18.056-.182 9.768-.364 18.443-.41 19.286l-.068 1.548h19.217l.091-2.254c.068-2.026.137-2.322.706-3.074a3.318 3.318 0 0 1 3.256-1.457c3.575.3 3.871 2.072 3.62 20.88-.137 10.611-.182 11.544-.569 12.318a3.4 3.4 0 0 1-4.645 1.389c-1.958-.956-2.3-2.755-2.5-12.728l-.114-5.533-9.609-.046-9.609-.046.137 5.692c.228 10.565 1.457 14.868 5.4 18.808a12.586 12.586 0 0 0 4.326 3.119 33.192 33.192 0 0 0 18.261 2.755c8.243-.888 13.639-4.3 16.349-10.315 1.594-3.552 1.89-6.99 1.753-21.563-.068-9.358-.159-11.863-.456-13.548-.956-5.328-2.459-8.22-5.282-10.246-2.755-1.958-5.852-2.823-10.11-2.823-4.372 0-7.468 1.161-10.315 3.848l-1.548 1.434v-13.252h11.931c10.087 0 11.954-.046 12.045-.319.068-.182.114-2.983.068-6.216l-.046-5.874-20.652-.068c-16.514-.045-20.681.001-20.772.229z" transform="translate(-425.265 816.429)" style="fill:#1e1e1e"/>
            <path data-name="Path 19" d="M180.106-760.232a13.018 13.018 0 0 0-2.049 5.9c-.091 1.708-.091 1.776.592 2.459 1.025 1.025 1.708.934 2.3-.341a9.958 9.958 0 0 0 .934-4.167 17.445 17.445 0 0 0-.888-4.873c-.095-.117-.479.361-.889 1.022z" transform="translate(-166.786 805.156)" style="fill:#1e1e1e"/>
            <path data-name="Path 20" d="M805.91-761.4a15.8 15.8 0 0 0-.478 1.935 10.588 10.588 0 0 0 .569 7.127c.592 1.275 1.275 1.366 2.3.341.683-.683.683-.751.592-2.459a9.974 9.974 0 0 0-.82-3.461c-.797-1.893-1.981-3.783-2.163-3.483z" transform="translate(-651.077 805.281)" style="fill:#1e1e1e"/>
            <path data-name="Path 21" d="M197.169-743.485a9.445 9.445 0 0 0-3.711 2.527 9.116 9.116 0 0 0-1.458 3.119c0 .569 1.252 1.161 2.095.979 1.3-.3 3.256-2.778 4.6-5.874.705-1.548.568-1.616-1.526-.751z" transform="translate(-177.587 791.847)" style="fill:#1e1e1e"/>
            <path data-name="Path 22" d="M776.492-742.957c1.366 3.1 3.347 5.6 4.645 5.9.842.182 2.072-.41 2.072-1a8.767 8.767 0 0 0-2.231-3.894 13.376 13.376 0 0 0-4.326-2.186l-.751-.159z" transform="translate(-628.536 792.047)" style="fill:#1e1e1e"/>
            <path data-name="Path 23" d="M159.806-721.239a15.113 15.113 0 0 0-.706 6.193c.387 2.5 3.233 3.894 3.962 1.89.8-2.231.524-4.235-1-7.377-1.436-2.937-1.505-2.96-2.256-.706z" transform="translate(-152.109 775.475)" style="fill:#1e1e1e"/>
            <path data-name="Path 24" d="M823.52-723.3c-1.594 2.527-2.55 5.6-2.277 7.354.228 1.457.637 2.391 1.093 2.55 1.161.364 2.733-.729 3.142-2.209.524-1.776.068-5.51-.979-7.924l-.341-.774z" transform="translate(-663.518 776.601)" style="fill:#1e1e1e"/>
            <path data-name="Path 25" d="M184.92-705.014a10.007 10.007 0 0 0-4.736 2.869 6.571 6.571 0 0 0-1.184 3.074c0 .729 1.343 1.343 2.436 1.138 1.138-.2 2.823-1.867 3.78-3.711a14.3 14.3 0 0 0 1.5-3.78 8.567 8.567 0 0 0-1.796.41z" transform="translate(-167.547 762.028)" style="fill:#1e1e1e"/>
            <path data-name="Path 26" d="M786.959-705.285a19.583 19.583 0 0 0 1.139 2.664c1.685 3.484 3.757 4.987 5.669 4.1.934-.455 1-.843.455-2.459-.683-1.981-2.823-3.643-5.784-4.463l-1.638-.457z" transform="translate(-636.954 762.391)" style="fill:#1e1e1e"/>
            <path data-name="Path 27" d="M144.266-679.361c-.615 3.529.114 6.945 1.753 8.379a2.319 2.319 0 0 0 1.981.682c1.184 0 1.252-.023 1.48-.706a7.1 7.1 0 0 0-1.252-6.011 20.343 20.343 0 0 0-3.507-3.983 4.136 4.136 0 0 0-.455 1.639z" transform="translate(-140.554 743.161)" style="fill:#1e1e1e"/>
            <path data-name="Path 28" d="M834.542-679.679c-3.028 3.279-4.19 6.262-3.347 8.675.228.683.3.706 1.48.706a2.319 2.319 0 0 0 1.981-.683 7.055 7.055 0 0 0 1.935-4.9c.114-1.844-.3-5.123-.638-5.123a8.524 8.524 0 0 0-1.411 1.325z" transform="translate(-671.034 743.161)" style="fill:#1e1e1e"/>
            <path data-name="Path 29" d="M177.539-666.493c-3.894 1.116-6.079 3.142-6.421 5.943-.114 1.07-.091 1.139.524 1.389 2.527 1 4.85-.615 6.421-4.417.615-1.457 1.138-3.37.934-3.324-.046.002-.706.181-1.458.409z" transform="translate(-161.419 732.274)" style="fill:#1e1e1e"/>
            <path data-name="Path 30" d="M794-666.1a16.049 16.049 0 0 0 1.3 3.894c1.617 3.211 3.78 4.463 6.079 3.552.615-.25.638-.319.524-1.389-.342-2.846-2.687-4.964-6.58-5.988-1.004-.269-1.323-.269-1.323-.069z" transform="translate(-642.515 731.762)" style="fill:#1e1e1e"/>
            <path data-name="Path 31" d="M134-634.247c.023 4.85 1.935 8.4 4.713 8.652a4.524 4.524 0 0 0 1.73-.137c.569-.228.615-.319.615-1.685 0-2.55-1.412-4.6-5.055-7.286a20.423 20.423 0 0 0-1.867-1.3 5.27 5.27 0 0 0-.136 1.756z" transform="translate(-132.793 708.407)" style="fill:#1e1e1e"/>
            <path data-name="Path 32" d="M840.009-634.627c-3.62 2.732-5.009 4.759-5.009 7.286 0 1.366.046 1.457.638 1.685a4.359 4.359 0 0 0 1.708.137c2.778-.25 4.691-3.8 4.713-8.652a4.654 4.654 0 0 0-.159-1.731 12 12 0 0 0-1.891 1.275z" transform="translate(-674.179 708.331)" style="fill:#1e1e1e"/>
            <path data-name="Path 33" d="M174.7-627.325c-3.985 1.48-6.079 3.6-6.1 6.216-.023 1.526.25 1.776 1.89 1.776a4.613 4.613 0 0 0 4.007-2.436 17.293 17.293 0 0 0 2-5.374c.182-.888.091-.888-1.797-.182z" transform="translate(-159.51 702.1)" style="fill:#1e1e1e"/>
            <path data-name="Path 34" d="M796.536-627.271a17.293 17.293 0 0 0 2 5.374 4.613 4.613 0 0 0 4.007 2.436c1.639 0 1.913-.251 1.89-1.776-.023-2.049-1.161-3.62-3.643-5.078A19.458 19.458 0 0 0 796.6-628c-.11 0-.155.342-.064.729z" transform="translate(-644.436 702.228)" style="fill:#1e1e1e"/>
            <path data-name="Path 35" d="M176.2-589.089c-4.44 2.186-6.307 4.827-5.51 7.787.159.592.25.638 1.366.638 3.006-.023 5.055-2.3 5.943-6.671.41-1.913.455-2.664.2-2.664a16.071 16.071 0 0 0-1.999.91z" transform="translate(-160.992 672.881)" style="fill:#1e1e1e"/>
            <path data-name="Path 36" d="M795-589.545a17.355 17.355 0 0 0 .364 2.209c.888 4.372 2.937 6.649 5.943 6.671 1.116 0 1.207-.045 1.366-.638.8-2.96-1.07-5.624-5.533-7.81-1-.478-1.913-.888-1.981-.888-.091.001-.159.201-.159.456z" transform="translate(-643.287 672.881)" style="fill:#1e1e1e"/>
            <path data-name="Path 37" d="M128.837-587.788c.319 3.028 1.981 6.375 3.825 7.651a4.668 4.668 0 0 0 4.167.455l.888-.364-.159-1.184a6.738 6.738 0 0 0-2.618-4.394 26.979 26.979 0 0 0-5.351-3.188l-.888-.387z" transform="translate(-128.7 672.263)" style="fill:#1e1e1e"/>
            <path data-name="Path 38" d="M838.485-588.153c-4.281 2.186-6.284 4.281-6.626 6.9l-.159 1.207.82.342a4.485 4.485 0 0 0 5.146-1.252c1.571-1.617 3.142-5.647 2.937-7.56l-.068-.683z" transform="translate(-671.63 672.263)" style="fill:#1e1e1e"/>
            <path data-name="Path 39" d="M183.815-551.34a13.214 13.214 0 0 0-5.419 4.964 6.1 6.1 0 0 0-.091 3.825c.2.455.41.569 1.138.569 2.573 0 4.508-1.981 5.419-5.579.455-1.753.615-4.44.3-4.44a7.028 7.028 0 0 0-1.347.661z" transform="translate(-166.806 643.533)" style="fill:#1e1e1e"/>
            <path data-name="Path 40" d="M790-550.679a14.962 14.962 0 0 0 1.457 5.829 5.219 5.219 0 0 0 4.417 2.869c.774 0 .934-.091 1.184-.66a6.548 6.548 0 0 0 .273-1.822c-.023-1.89-1.184-3.62-3.643-5.442a14.645 14.645 0 0 0-3.574-2.095 3.771 3.771 0 0 0-.114 1.321z" transform="translate(-639.425 643.533)" style="fill:#1e1e1e"/>
            <path data-name="Path 41" d="M130.913-539.682c1.275 4.235 3.916 7.286 6.6 7.6a3.811 3.811 0 0 0 2.345-.387l1.207-.5-.137-.911c-.455-2.755-2.778-4.691-7.605-6.284-2.866-.953-2.823-.953-2.41.482z" transform="translate(-130.253 634.904)" style="fill:#1e1e1e"/>
            <path data-name="Path 42" d="M831.587-540.254c-5.009 1.73-7.2 3.552-7.651 6.307l-.137.911 1.207.5c3.484 1.5 7.241-1.526 8.948-7.218.411-1.456.411-1.456-2.367-.5z" transform="translate(-665.529 634.974)" style="fill:#1e1e1e"/>
            <path data-name="Path 43" d="M195.009-514.968c-3.256 2.459-5.009 4.986-5.009 7.218 0 1.434.638 2.755 1.3 2.755 2.641 0 4.713-2.527 5.305-6.466.25-1.685.137-4.486-.182-4.44a9.268 9.268 0 0 0-1.414.933z" transform="translate(-176.042 615.655)" style="fill:#1e1e1e"/>
            <path data-name="Path 44" d="M780.327-514.734a14.3 14.3 0 0 0 .956 6.239 5.347 5.347 0 0 0 4.463 3.347c1.093 0 1.685-2.937.956-4.713a15.715 15.715 0 0 0-5.487-5.783l-.729-.455z" transform="translate(-631.916 615.808)" style="fill:#1e1e1e"/>
            <path data-name="Path 45" d="M139-493.817a10.312 10.312 0 0 0 .683 1.526c2.118 4.167 5.738 6.785 8.4 6.057 2.209-.615 2.732-1.457 1.844-3.165-1-1.981-3.347-3.233-7.719-4.121-2.408-.48-3.208-.571-3.208-.297z" transform="translate(-136.655 598.716)" style="fill:#1e1e1e"/>
            <path data-name="Path 46" d="M819.234-493.467c-4.281.911-6.649 2.186-7.628 4.121-.888 1.708-.364 2.55 1.844 3.165 2.664.729 6.284-1.89 8.4-6.057a10.307 10.307 0 0 0 .683-1.526c.003-.25-1.09-.159-3.299.297z" transform="translate(-655.795 598.662)" style="fill:#1e1e1e"/>
            <path data-name="Path 47" d="M210.993-480.02a17 17 0 0 0-3.757 5.214 5.475 5.475 0 0 0 .273 4.008c.455.8.615.911 1.3.865a4.7 4.7 0 0 0 3.233-2.459c1.07-1.958 1.343-5.26.683-8.311l-.182-.8z" transform="translate(-189.157 589.086)" style="fill:#1e1e1e"/>
            <path data-name="Path 48" d="M766.289-478.5a11.806 11.806 0 0 0 0 4.736c.455 2.687 2.277 4.9 4.076 4.987.683.045.842-.068 1.3-.865 1.252-2.186.3-5.214-2.709-8.425-2.348-2.506-2.348-2.506-2.667-.433z" transform="translate(-620.929 587.93)" style="fill:#1e1e1e"/>
            <path data-name="Path 49" d="M154.424-448.044a17.012 17.012 0 0 0 5.283 5.078 5.353 5.353 0 0 0 4.759.364c1.571-.774 1.89-1.207 1.548-2.277-.387-1.321-2-2.664-3.871-3.211a30.33 30.33 0 0 0-6.922-.911H153.9z" transform="translate(-148.162 563.986)" style="fill:#1e1e1e"/>
            <path data-name="Path 50" d="M799.562-448.749c-3.894.455-6.489 1.867-7.081 3.871-.341 1.07-.023 1.5 1.548 2.277a5.353 5.353 0 0 0 4.759-.364 17.261 17.261 0 0 0 5.282-5.078l.524-.956-1.662.023c-.911.022-2.432.113-3.37.227z" transform="translate(-641.245 563.986)" style="fill:#1e1e1e"/>
            <path data-name="Path 51" d="M231.461-445.2a16.567 16.567 0 0 0-3.006 4.987c-.774 2.209-.5 3.916.888 5.4l.569.615.842-.433a5.7 5.7 0 0 0 2.527-2.892 16.573 16.573 0 0 0-.114-6.671c-.613-2.232-.613-2.232-1.706-1.006z" transform="translate(-205.413 561.685)" style="fill:#1e1e1e"/>
            <path data-name="Path 52" d="M748.052-446.248c-.911 3.028-1 6.125-.228 7.969a5.2 5.2 0 0 0 2.391 2.5l.82.433.569-.615c1.389-1.48 1.662-3.188.888-5.4a17.025 17.025 0 0 0-3.074-5.055l-1-1.093z" transform="translate(-606.448 562.827)" style="fill:#1e1e1e"/>
            <path data-name="Path 53" d="M255.176-413.136a15.155 15.155 0 0 0-2.026 5.67 3.959 3.959 0 0 0 .433 2.527 5.477 5.477 0 0 0 1.252 1.73c.66.455.683.455 1.343.068 2.026-1.252 2.664-3.939 1.776-7.491-.433-1.73-1.321-3.985-1.617-4.076-.114-.045-.637.661-1.161 1.572z" transform="translate(-224.778 537.503)" style="fill:#1e1e1e"/>
            <path data-name="Path 54" d="M725.478-414.157c-1.3 3.1-1.822 6.626-1.252 8.356a4.669 4.669 0 0 0 2.049 2.527c.615.319.683.3 1.343-.319a6.235 6.235 0 0 0 1.184-1.753c.615-1.343.478-2.983-.364-5.26C727.8-412.268 726.3-415 726-415c-.09 0-.34.387-.522.843z" transform="translate(-588.451 537.727)" style="fill:#1e1e1e"/>
            <path data-name="Path 65" d="M178.014-407.445a10.808 10.808 0 0 0-1.662.3c-.228.228 2.322 2.71 3.734 3.643 3.529 2.323 6.057 2.5 8.06.638 1.07-1 1.047-1.389-.2-2.778-1.161-1.3-2.8-1.822-5.875-1.913a31.225 31.225 0 0 0-4.057.11z" transform="translate(-165.49 531.994)" style="fill:#1e1e1e"/>
            <path data-name="Path 66" d="M772.955-407.435c-2.231.41-3.962 1.571-4.577 3.051-.273.638-.25.706.637 1.548 1.617 1.5 3.529 1.639 6.216.478a16.692 16.692 0 0 0 4.783-3.642l.934-1.07-.638-.159a37.435 37.435 0 0 0-7.355-.206z" transform="translate(-622.608 531.961)" style="fill:#1e1e1e"/>
            <path data-name="Path 67" d="M283.821-384.1a12.063 12.063 0 0 0-1.321 5.8c0 2.072.046 2.254.683 3.165a5.565 5.565 0 0 0 1.435 1.412c.751.455.774.455 1.366 0 1.958-1.434 1.844-4.668-.342-9.039-1.298-2.592-1.298-2.615-1.821-1.338z" transform="translate(-247.48 514.502)" style="fill:#1e1e1e"/>
            <path data-name="Path 68" d="M698.41-384.226c-2.755 4.986-3.119 8.7-.956 10.269.592.455.615.455 1.366 0a5.566 5.566 0 0 0 1.434-1.412c.638-.911.683-1.093.683-3.165a9.876 9.876 0 0 0-.638-4.03 23.5 23.5 0 0 0-.911-2.345c-.295-.524-.318-.501-.978.683z" transform="translate(-566.87 514.74)" style="fill:#1e1e1e"/>
            <path data-name="Path 69" d="M207.489-371.572c-.934.159-2.163.41-2.71.547l-.979.273.524.592A18.691 18.691 0 0 0 209.4-367c3.006 1.093 4.827.911 6.33-.592a3.1 3.1 0 0 0 .865-1.252 3.307 3.307 0 0 0-.979-1.366c-1.616-1.635-4.116-2.045-8.127-1.362z" transform="translate(-186.7 504.432)" style="fill:#1e1e1e"/>
            <path data-name="Path 70" d="M742.96-371.545c-1.3.433-2.96 1.913-2.96 2.641a3.072 3.072 0 0 0 .865 1.23c1.526 1.526 3.37 1.685 6.375.546a18.045 18.045 0 0 0 5.032-3.119l.524-.592-.979-.25a32.012 32.012 0 0 0-6.239-.911 10.021 10.021 0 0 0-2.618.455z" transform="translate(-600.81 504.518)" style="fill:#1e1e1e"/>
            <path data-name="Path 71" d="M313.8-356.941a15.784 15.784 0 0 0-.66 5.26 5.42 5.42 0 0 0 1.935 4.212c1.321 1.093 1.844 1.138 2.641.25.615-.683.66-.865.569-2.072-.114-1.571-1.389-4.3-3.119-6.694-1.134-1.548-1.134-1.548-1.366-.956z" transform="translate(-271.134 493.171)" style="fill:#1e1e1e"/>
            <path data-name="Path 72" d="M667.152-355.788c-1.708 2.368-2.96 5.055-3.074 6.626-.091 1.207-.046 1.389.569 2.072.8.888 1.321.842 2.641-.251a5.442 5.442 0 0 0 1.935-4.417c.091-1.753-.387-4.987-.8-5.374-.11-.09-.679.502-1.271 1.344z" transform="translate(-542.147 493.042)" style="fill:#1e1e1e"/>
            <path data-name="Path 73" d="M242.533-340.476A27.629 27.629 0 0 0 237-338.7c0 .3 2.823 1.844 4.44 2.436a12.146 12.146 0 0 0 5.442.706c1.73-.319 3.165-2.368 2.323-3.3-1.253-1.39-4.076-2.073-6.672-1.618z" transform="translate(-212.34 480.28)" style="fill:#1e1e1e"/>
            <path data-name="Path 74" d="M711.431-340.5a8.886 8.886 0 0 0-3.005 1.708c-.751.911.751 2.914 2.391 3.233 2.3.433 6.171-.615 8.743-2.345l1.252-.842-.751-.3c-2.824-1.154-7.037-1.862-8.63-1.454z" transform="translate(-576.271 480.28)" style="fill:#1e1e1e"/>
            <path data-name="Path 75" d="M345.778-332.475c-.25 4.486.8 7.081 3.3 8.311 1.434.706 2 .615 2.414-.342.569-1.343-.888-3.939-4.076-7.309l-1.594-1.685z" transform="translate(-296.322 474.785)" style="fill:#1e1e1e"/>
            <path data-name="Path 76" d="M632.609-331.615c-3.188 3.438-4.554 5.92-4.008 7.263.41.956.979 1.047 2.414.342 1.935-.956 2.869-2.459 3.256-5.283a11.523 11.523 0 0 0 .068-2.778l-.159-1.23z" transform="translate(-514.686 474.63)" style="fill:#1e1e1e"/>
            <path data-name="Path 77" d="M279.582-313.578a30.429 30.429 0 0 0-4.827 1.913c-.729.455 4.235 2.163 7.059 2.414 2.527.251 4.281-.524 4.782-2.095.319-.934.159-1.116-1.708-2.027a7.974 7.974 0 0 0-5.306-.205z" transform="translate(-241.443 459.667)" style="fill:#1e1e1e"/>
            <path data-name="Path 78" d="M674.228-313.338c-1.935.979-2.049 1.116-1.685 2.118a3.43 3.43 0 0 0 3.051 2 16.8 16.8 0 0 0 7.742-1.594l1.366-.615-.911-.478a17.431 17.431 0 0 0-6.489-1.913 4.688 4.688 0 0 0-3.074.482z" transform="translate(-548.586 459.609)" style="fill:#1e1e1e"/>
            <path data-name="Path 79" d="M379.124-308.449c.41 3.142 2.072 5.465 4.554 6.375a5.627 5.627 0 0 0 1.685.433 1.068 1.068 0 0 0 .638-1.412c-.182-.706-2.254-2.846-4.691-4.827-2.459-1.981-2.368-1.958-2.186-.569z" transform="translate(-322.04 456.201)" style="fill:#1e1e1e"/>
            <path data-name="Path 80" d="M595.588-309.107c-4.85 3.916-6.307 5.783-5.191 6.694.273.25.569.228 1.548-.068a6.486 6.486 0 0 0 3.484-2.391 9.9 9.9 0 0 0 1.617-4.713l-.068-.615z" transform="translate(-484.996 456.79)" style="fill:#1e1e1e"/>
            <path data-name="Path 81" d="M320.087-292.332a20.288 20.288 0 0 0-3.415 1.412l-2.072 1.07.683.273c2.5 1.025 7.833 1.389 9.609.66 1.047-.433 1.412-.888 1.412-1.822 0-.5-.2-.683-1.252-1.161a7.288 7.288 0 0 0-4.965-.432z" transform="translate(-272.272 443.18)" style="fill:#1e1e1e"/>
            <path data-name="Path 82" d="M636.391-292.606c-1.708.547-2.391 1-2.391 1.639 0 .934.387 1.389 1.526 1.822 1.89.729 6.945.364 9.495-.683l.683-.273-2.072-1.07a14.281 14.281 0 0 0-5.647-1.73 6.634 6.634 0 0 0-1.594.295z" transform="translate(-518.946 443.431)" style="fill:#1e1e1e"/>
            <path data-name="Path 83" d="M414.25-290.54a7.833 7.833 0 0 0 3.825 4.349c1.3.569 3.734.956 4.076.683.455-.387-.2-.934-3.6-2.96a189.317 189.317 0 0 0-3.825-2.277L414-291.2z" transform="translate(-349.039 442.116)" style="fill:#1e1e1e"/>
            <path data-name="Path 84" d="M554.208-288.814c-4.167 2.482-4.827 3.006-4.395 3.415.228.228.592.228 1.776 0 2.664-.524 4.258-1.526 5.351-3.415a6.959 6.959 0 0 0 .96-2.186c-.026 0-1.689.979-3.692 2.186z" transform="translate(-453.839 441.961)" style="fill:#1e1e1e"/>
            <path data-name="Path 85" d="M364.383-276.3a12.071 12.071 0 0 0-4.417 1.844l-1.366.842.911.2a42.193 42.193 0 0 0 4.531.182c3.188 0 3.757-.068 4.554-.455.751-.387.911-.569.911-1.138 0-.592-.114-.706-1.025-1.047a8.544 8.544 0 0 0-4.099-.428z" transform="translate(-306.253 430.674)" style="fill:#1e1e1e"/>
            <path data-name="Path 86" d="M595.829-276.31a9.6 9.6 0 0 0-1.89.546c-.751.3-.865.433-.8.979.046.478.3.751.979 1.093.82.41 1.343.455 4.9.433a29.364 29.364 0 0 0 4.508-.228c.478-.2.433-.25-.751-.979-2.597-1.571-4.919-2.186-6.946-1.844z" transform="translate(-487.378 430.687)" style="fill:#1e1e1e"/>
            <path data-name="Path 87" d="M452-273.189a9.076 9.076 0 0 0 4.486 1.913c.5.068.41.091-.342.137a14.744 14.744 0 0 0-4.937 1.139c-.478.25-.729.455-.569.478.41 0 4.394-.615 6.876-1.093l2.163-.41-1.138-.319c-1.047-.273-4.349-1.48-6.6-2.368l-.911-.387z" transform="translate(-377.297 428.909)" style="fill:#1e1e1e"/>
            <path data-name="Path 88" d="M516.449-273.194a76.705 76.705 0 0 1-4.19 1.548l-2.459.82 2.231.41c2.892.524 6.262 1.047 6.694 1.025.182 0-.046-.2-.524-.455a14.745 14.745 0 0 0-4.941-1.138c-.751-.046-.843-.068-.342-.137a9.46 9.46 0 0 0 4.486-1.89c.546-.5.933-.888.865-.888s-.887.318-1.82.705z" transform="translate(-423.025 428.755)" style="fill:#1e1e1e"/>
            <path data-name="Path 89" d="M407.781-265.558a12.135 12.135 0 0 0-3.6 1.708l-.683.5 3.415-.137c3.37-.114 6.262-.569 6.854-1.047.569-.478.068-.842-1.5-1.116a9.434 9.434 0 0 0-4.486.092z" transform="translate(-340.929 422.554)" style="fill:#1e1e1e"/>
            <path data-name="Path 90" d="M551.9-265.477c-2.208.41-1.958 1.116.569 1.662a36.144 36.144 0 0 0 5.009.478l3.415.137-1.025-.706a10.662 10.662 0 0 0-7.968-1.571z" transform="translate(-454.375 422.404)" style="fill:#1e1e1e"/>
            <path data-name="Path 91" d="m3.718 3.311.912-5.162L1.376-11.2H4.4l2.034 6.675 4.374-6.675h2.985L7.284-1.851l-.912 5.162zm12.541.249a4.478 4.478 0 0 1-3.265-1.182 4.252 4.252 0 0 1-1.212-3.192 6.685 6.685 0 0 1 .456-2.467 6.147 6.147 0 0 1 1.306-2.042 6.2 6.2 0 0 1 2.021-1.389 6.419 6.419 0 0 1 2.581-.508 4.848 4.848 0 0 1 2.342.529 3.754 3.754 0 0 1 1.5 1.451 4.156 4.156 0 0 1 .529 2.1 5.9 5.9 0 0 1-.093 1.026 7.315 7.315 0 0 1-.218.922h-7.812v.352a2.137 2.137 0 0 0 .622 1.632 2.251 2.251 0 0 0 1.617.591 2.69 2.69 0 0 0 1.4-.363 3.127 3.127 0 0 0 1.005-.943h2.695a6.142 6.142 0 0 1-1.3 1.783A6.22 6.22 0 0 1 18.55 3.1a5.769 5.769 0 0 1-2.29.459zm1.534-8.624a3.267 3.267 0 0 0-1.8.549 3.149 3.149 0 0 0-1.244 1.669h5.12a2.207 2.207 0 0 0 .021-.228 1.824 1.824 0 0 0-.56-1.451 2.164 2.164 0 0 0-1.536-.539zm9.328 8.624a3.514 3.514 0 0 1-2.55-.8 2.6 2.6 0 0 1-.807-1.916 3.056 3.056 0 0 1 1.389-2.633 6.344 6.344 0 0 1 3.711-.974h2.612l.041-.249q.021-.124.031-.259t.01-.238a1.386 1.386 0 0 0-.5-1.171 2.011 2.011 0 0 0-1.258-.384 2.944 2.944 0 0 0-1.482.383 2.157 2.157 0 0 0-.964 1.13h-2.595A4.608 4.608 0 0 1 25.847-5.5a5.192 5.192 0 0 1 1.9-1.275 6.5 6.5 0 0 1 2.425-.446 4.751 4.751 0 0 1 3 .85 2.919 2.919 0 0 1 1.088 2.446q0 .207-.021.446t-.062.466l-1.126 6.324h-2.363l.1-1.6a5.127 5.127 0 0 1-1.5 1.316 4.211 4.211 0 0 1-2.166.532zm.979-2.073A2.592 2.592 0 0 0 30 .741 4.452 4.452 0 0 0 31.1-1.1h-2.237a2.844 2.844 0 0 0-1.638.415 1.312 1.312 0 0 0-.6 1.14.862.862 0 0 0 .4.777 1.954 1.954 0 0 0 1.075.255zm7.5 1.824 1.8-10.282h2.384l-.083 1.866A5.567 5.567 0 0 1 41.5-6.639a4.887 4.887 0 0 1 2.374-.58l-.5 2.8h-.726a4.133 4.133 0 0 0-2.28.612 3.166 3.166 0 0 0-1.244 2.249l-.871 4.871zm12.666.249a5.458 5.458 0 0 1-2.394-.477 3.4 3.4 0 0 1-1.482-1.306 3.1 3.1 0 0 1-.415-1.887h2.653a1.468 1.468 0 0 0 .477 1.182 2.143 2.143 0 0 0 1.493.456 2.187 2.187 0 0 0 1.358-.373A1.151 1.151 0 0 0 50.443.2a.791.791 0 0 0-.518-.757A6.994 6.994 0 0 0 48.6-.98a11.612 11.612 0 0 1-1.658-.539A3.935 3.935 0 0 1 45.6-2.39a1.9 1.9 0 0 1-.529-1.389 2.852 2.852 0 0 1 .591-1.772 3.949 3.949 0 0 1 1.627-1.223 5.988 5.988 0 0 1 2.384-.446 4.4 4.4 0 0 1 2.881.871 2.791 2.791 0 0 1 1.016 2.363h-2.55a1.091 1.091 0 0 0-.466-.871 1.914 1.914 0 0 0-1.171-.332 2.1 2.1 0 0 0-1.213.321.946.946 0 0 0-.466.8.758.758 0 0 0 .549.694 8.615 8.615 0 0 0 1.441.446 10.657 10.657 0 0 1 1.752.56 3.41 3.41 0 0 1 1.244.86 2.007 2.007 0 0 1 .469 1.378 3.089 3.089 0 0 1-.643 1.949A4.159 4.159 0 0 1 50.764 3.1a6.515 6.515 0 0 1-2.498.459z" transform="translate(55.385 134.184)" style="fill:#1e1e1e"/>
        </g>
    </g>
</svg>
