<svg xmlns="http://www.w3.org/2000/svg" width="130.434" height="123.021" viewBox="0 0 130.434 123.021">
    <g data-name="Group 1866">
        <g data-name="Group 25">
            <path data-name="Path 4" d="m466.49-951.944-1.09 2.074-2.25.4a15.011 15.011 0 0 0-2.373.527 7.277 7.277 0 0 0 1.617 1.529c1.986 1.582 1.863 1.265 1.511 4.13a17.84 17.84 0 0 0-.193 1.9c.018.018.861-.439 1.88-1.019a14.407 14.407 0 0 1 2.074-1.054 14.414 14.414 0 0 1 2.074 1.054c1.019.58 1.863 1.037 1.88 1.019a17.849 17.849 0 0 0-.193-1.9c-.352-2.865-.474-2.548 1.511-4.13a7.275 7.275 0 0 0 1.617-1.529 15.009 15.009 0 0 0-2.373-.527l-2.25-.4-1.09-2.074a18.351 18.351 0 0 0-1.175-2.056 18.351 18.351 0 0 0-1.177 2.056z" transform="translate(-402.414 954.001)" style="fill:#aa2424"/>
            <path data-name="Path 5" d="M374.824-923.024c-.053.228-.193.931-.316 1.564l-.228 1.142-1.441.773a5 5 0 0 0-1.353.861 11.161 11.161 0 0 0 1.441.633l1.371.562.3 1.476c.158.826.3 1.529.3 1.564a9.724 9.724 0 0 0 1.054-1.054l1.037-1.125 1.459.3a7.915 7.915 0 0 0 1.511.246 6.955 6.955 0 0 0-.562-1.424l-.615-1.353.9-1.318.9-1.336-1.722.123-1.7.123-1.107-1.09c-1.07-1.037-1.123-1.072-1.229-.667z" transform="translate(-328.815 928.666)" style="fill:#aa2424"/>
            <path data-name="Path 6" d="m581.382-922.525-1.037 1.054-1.722-.123-1.722-.123.879 1.318.9 1.318-.615 1.371a6.952 6.952 0 0 0-.562 1.424 7.917 7.917 0 0 0 1.511-.246l1.459-.3 1.037 1.107c1.16 1.265 1 1.353 1.441-.844l.228-1.125 1.336-.545c.738-.3 1.388-.58 1.459-.633a4.8 4.8 0 0 0-1.353-.879l-1.441-.773-.3-1.459a9.6 9.6 0 0 0-.369-1.529 5.981 5.981 0 0 0-1.129.987z" transform="translate(-498.131 928.87)" style="fill:#aa2424"/>
            <path data-name="Path 7" d="M306.476-876.456c.334 1.617.3 1.916-.211 2.39a20.86 20.86 0 0 0-.879.931l-.387.457 1.09.035a3.8 3.8 0 0 1 1.23.158 11.419 11.419 0 0 1 .65 1.072l.51.949.387-.9a3.964 3.964 0 0 1 .6-1.072 3.211 3.211 0 0 1 1.213-.211 2.845 2.845 0 0 0 1-.123 8.06 8.06 0 0 0-.7-.861c-.808-.914-.808-.931-.422-2.056a2.105 2.105 0 0 0 .193-.914 3.176 3.176 0 0 0-1.142.351l-1.054.439-.931-.51c-1.147-.627-1.252-.627-1.147-.135z" transform="translate(-274.016 890.376)" style="fill:#aa2424"/>
            <path data-name="Path 8" d="m661.042-876.313-.967.51-1.037-.439a3.185 3.185 0 0 0-1.107-.334 2.1 2.1 0 0 0 .193.914c.387 1.125.387 1.142-.422 2.056a8.067 8.067 0 0 0-.7.861 2.843 2.843 0 0 0 1 .123 3.21 3.21 0 0 1 1.213.211 3.964 3.964 0 0 1 .6 1.072l.387.9.562-1.037.58-1.037 1.177-.088 1.178-.088-.879-.932c-.949-.967-.967-1.054-.615-2.812.102-.495.015-.477-1.163.12z" transform="translate(-564.154 890.355)" style="fill:#aa2424"/>
            <path data-name="Path 9" d="M231.095-817.981c-2.056 1.722-3.216 3.3-2.759 3.761.141.141.264.141.457-.035.246-.193 3.673-4.745 3.568-4.745-.018 0-.581.457-1.266 1.019z" transform="translate(-210.744 842.726)" style="fill:#f5f5f5"/>
            <path data-name="Path 10" d="M749.57-816.915c1.916 2.6 2.144 2.812 2.425 2.531.474-.475-.949-2.355-3.04-3.99l-1.055-.826z" transform="translate(-639.079 842.891)" style="fill:#f5f5f5"/>
            <path data-name="Path 11" d="M235.154-815.717c-1.652 1.81-2.847 3.409-2.706 3.62.422.7 1.617-.633 3.322-3.726a9.4 9.4 0 0 0 .6-1.177c-.039.018-.584.58-1.216 1.283z" transform="translate(-214.205 841.077)" style="fill:#f5f5f5"/>
            <path data-name="Path 12" d="M745.368-816.27a14.919 14.919 0 0 0 2.144 3.251c.633.7.984.861 1.2.51.141-.211-1.142-1.916-2.794-3.691l-1.213-1.3z" transform="translate(-636.441 841.49)" style="fill:#f5f5f5"/>
            <path data-name="Path 13" d="M203.834-793.938c-2.6 2.794-3.655 6.028-1.968 6.028.721 0 1.9-2.478 2.513-5.272a8.348 8.348 0 0 0 .281-1.529 3.762 3.762 0 0 0-.826.773z" transform="translate(-188.333 822.708)" style="fill:#f5f5f5"/>
            <path data-name="Path 14" d="M778.105-794.8c.58 3.04 1.916 6.186 2.671 6.292.984.141 1.2-1.019.474-2.583a15.314 15.314 0 0 0-2.619-3.708l-.633-.6z" transform="translate(-663.889 823.274)" style="fill:#f5f5f5"/>
            <path data-name="Path 15" d="M213.981-782.279c-2.162 1.3-4.183 3.743-3.708 4.5.545.879 1.775.176 3.04-1.687a23.178 23.178 0 0 0 1.915-3.534c-.035 0-.597.334-1.247.721z" transform="translate(-195.879 813.053)" style="fill:#f5f5f5"/>
            <path data-name="Path 16" d="M761.45-782c1.687 3.339 3.5 5.079 4.306 4.113.685-.844-1.424-3.392-4.095-4.921l-.861-.492z" transform="translate(-649.712 813.3)" style="fill:#f5f5f5"/>
            <path data-name="Path 17" d="M294.469-781.715c-4.956.615-8.418 2.5-9.93 5.378-1.3 2.478-1.7 4.833-1.722 10.088l-.018 3.919 7.452.053 7.434.035-.053-1.635c-.088-2.654.228-7.012.562-7.645a2.518 2.518 0 0 1 4.376.035c.369.685.387.914.387 5.641v4.921l-.457.984c-.826 1.74-1.67 2.039-5.835 2.127l-2.425.053v4.165c0 2.3 0 4.253.018 4.358 0 .105.492.176 1.107.176a17 17 0 0 1 4.938.685 4.642 4.642 0 0 1 2.337 2.777c.281.9.316 1.775.316 7.522 0 7.083-.07 7.645-.949 8.541a2.585 2.585 0 0 1-3.761-.334c-.457-.773-.685-4.481-.615-10.281l.053-4.517-7.434.035-7.434.053v4.657c.035 7.047.474 10.474 1.67 12.917a13.06 13.06 0 0 0 7.733 6.169c2.373.808 4.112 1.019 8.278 1.019a21.782 21.782 0 0 0 5.694-.4c8.77-1.88 11.792-6.784 11.792-19.033 0-5.782-.527-9.754-1.529-11.582a9.2 9.2 0 0 0-3.743-3.357 6.438 6.438 0 0 1-1.23-.668 8.444 8.444 0 0 1 1.248-.879 10.946 10.946 0 0 0 3.638-3.761c.791-1.652.984-2.953.984-6.52.018-4.306-.387-6.2-1.9-9.139-2.478-4.815-7.364-6.819-16.573-6.749-1.72.016-3.706.107-4.409.192z" transform="translate(-255.718 812.154)" style="fill:#f5f5f5"/>
            <path data-name="Path 18" d="M513.544-775.682c-.035.123-.193 6.4-.352 13.937-.141 7.539-.281 14.235-.316 14.886l-.053 1.2h14.833l.07-1.74c.053-1.564.105-1.793.545-2.373a2.561 2.561 0 0 1 2.513-1.125c2.759.228 2.988 1.6 2.794 16.116-.105 8.19-.141 8.91-.439 9.508a2.627 2.627 0 0 1-3.585 1.072c-1.511-.738-1.775-2.127-1.933-9.824l-.088-4.271-7.416-.035-7.417-.035.105 4.394c.176 8.155 1.125 11.476 4.165 14.517a9.714 9.714 0 0 0 3.339 2.408 25.619 25.619 0 0 0 14.095 2.127c6.362-.685 10.527-3.322 12.619-7.961 1.23-2.742 1.459-5.4 1.353-16.643-.053-7.223-.123-9.156-.352-10.457-.738-4.112-1.9-6.344-4.077-7.909a12.658 12.658 0 0 0-7.8-2.179 10.653 10.653 0 0 0-7.961 2.97l-1.2 1.107v-10.228h9.214c7.786 0 9.227-.035 9.3-.246.053-.141.088-2.3.053-4.8l-.035-4.534-15.94-.053c-12.748-.04-15.964-.004-16.034.171z" transform="translate(-445.214 807.176)" style="fill:#f5f5f5"/>
            <path data-name="Path 19" d="M179.629-760.47a10.048 10.048 0 0 0-1.582 4.552c-.07 1.318-.07 1.371.457 1.9.791.791 1.318.721 1.775-.264A7.685 7.685 0 0 0 181-757.5a13.465 13.465 0 0 0-.685-3.761c-.071-.088-.37.281-.686.791z" transform="translate(-169.348 795.145)" style="fill:#f5f5f5"/>
            <path data-name="Path 20" d="M805.722-761.411a12.205 12.205 0 0 0-.369 1.494 8.173 8.173 0 0 0 .439 5.5c.457.984.984 1.054 1.775.264.527-.527.527-.58.457-1.9a7.7 7.7 0 0 0-.633-2.671c-.614-1.457-1.528-2.916-1.669-2.687z" transform="translate(-686.216 795.278)" style="fill:#f5f5f5"/>
            <path data-name="Path 21" d="M195.989-743.612a7.291 7.291 0 0 0-2.865 1.951 7.036 7.036 0 0 0-1.124 2.407c0 .439.967.9 1.617.756 1-.228 2.513-2.144 3.55-4.534.545-1.195.439-1.248-1.178-.58z" transform="translate(-180.876 780.941)" style="fill:#f5f5f5"/>
            <path data-name="Path 22" d="M776.357-743.263c1.054 2.39 2.583 4.323 3.585 4.552.65.141 1.6-.316 1.6-.773a6.767 6.767 0 0 0-1.722-3.005 10.324 10.324 0 0 0-3.339-1.687l-.58-.123z" transform="translate(-662.158 781.154)" style="fill:#f5f5f5"/>
            <path data-name="Path 23" d="M159.625-721.6a11.664 11.664 0 0 0-.545 4.78c.3 1.933 2.5 3.005 3.058 1.459.615-1.722.4-3.269-.773-5.694-1.108-2.272-1.165-2.289-1.74-.545z" transform="translate(-153.685 763.467)" style="fill:#f5f5f5"/>
            <path data-name="Path 24" d="M822.99-723.527c-1.23 1.951-1.968 4.323-1.757 5.677.176 1.125.492 1.845.844 1.968a2.225 2.225 0 0 0 2.425-1.7 11.224 11.224 0 0 0-.756-6.116l-.264-.6z" transform="translate(-699.494 764.669)" style="fill:#f5f5f5"/>
            <path data-name="Path 25" d="M183.569-705.109a7.724 7.724 0 0 0-3.655 2.214 5.072 5.072 0 0 0-.914 2.372c0 .562 1.037 1.037 1.88.879.879-.158 2.179-1.441 2.917-2.865a11.033 11.033 0 0 0 1.16-2.917 6.618 6.618 0 0 0-1.388.317z" transform="translate(-170.16 749.116)" style="fill:#f5f5f5"/>
            <path data-name="Path 26" d="M786.923-705.425a15.11 15.11 0 0 0 .879 2.056c1.3 2.689 2.9 3.849 4.376 3.163.721-.352.773-.65.352-1.9-.527-1.529-2.179-2.812-4.464-3.445l-1.266-.349z" transform="translate(-671.143 749.503)" style="fill:#f5f5f5"/>
            <path data-name="Path 27" d="M144.216-679.735c-.475 2.724.088 5.36 1.353 6.467a1.79 1.79 0 0 0 1.529.527c.914 0 .967-.018 1.142-.545a5.48 5.48 0 0 0-.967-4.64 15.7 15.7 0 0 0-2.705-3.074 3.192 3.192 0 0 0-.352 1.265z" transform="translate(-141.352 728.979)" style="fill:#f5f5f5"/>
            <path data-name="Path 28" d="M833.717-679.981c-2.337 2.531-3.234 4.833-2.583 6.7.176.527.229.545 1.142.545a1.79 1.79 0 0 0 1.529-.527 5.446 5.446 0 0 0 1.494-3.779c.088-1.423-.228-3.954-.492-3.954a6.576 6.576 0 0 0-1.09 1.015z" transform="translate(-707.515 728.979)" style="fill:#f5f5f5"/>
            <path data-name="Path 29" d="M176.062-666.587c-3.005.861-4.692 2.425-4.956 4.587-.088.826-.07.879.4 1.072 1.951.773 3.743-.474 4.956-3.409a7.032 7.032 0 0 0 .721-2.566c-.031.003-.541.141-1.121.316z" transform="translate(-163.62 717.36)" style="fill:#f5f5f5"/>
            <path data-name="Path 30" d="M794-666.129a12.389 12.389 0 0 0 1 3.005c1.248 2.478 2.917 3.445 4.692 2.742.474-.193.492-.246.4-1.072-.264-2.2-2.074-3.831-5.079-4.622-.767-.211-1.013-.211-1.013-.053z" transform="translate(-677.077 716.814)" style="fill:#f5f5f5"/>
            <path data-name="Path 31" d="M134-634.647c.018 3.743 1.494 6.485 3.638 6.678a3.492 3.492 0 0 0 1.336-.106c.439-.176.475-.246.475-1.3 0-1.968-1.09-3.55-3.9-5.624a15.764 15.764 0 0 0-1.441-1 4.068 4.068 0 0 0-.108 1.352z" transform="translate(-133.069 691.887)" style="fill:#f5f5f5"/>
            <path data-name="Path 32" d="M838.866-634.918c-2.794 2.109-3.866 3.673-3.866 5.624 0 1.054.035 1.125.492 1.3a3.365 3.365 0 0 0 1.318.106c2.144-.193 3.62-2.935 3.638-6.678a3.594 3.594 0 0 0-.123-1.336 9.263 9.263 0 0 0-1.459.984z" transform="translate(-710.872 691.807)" style="fill:#f5f5f5"/>
            <path data-name="Path 33" d="M173.305-627.441c-3.076 1.142-4.692 2.777-4.71 4.8-.018 1.177.193 1.371 1.459 1.371a3.56 3.56 0 0 0 3.093-1.88 13.348 13.348 0 0 0 1.547-4.148c.14-.688.07-.688-1.389-.143z" transform="translate(-161.583 685.156)" style="fill:#f5f5f5"/>
            <path data-name="Path 34" d="M796.525-627.438a13.346 13.346 0 0 0 1.547 4.148 3.56 3.56 0 0 0 3.093 1.88c1.265 0 1.476-.193 1.459-1.371-.017-1.582-.9-2.794-2.812-3.919a15.019 15.019 0 0 0-3.234-1.3c-.088 0-.124.264-.053.562z" transform="translate(-679.128 685.293)" style="fill:#f5f5f5"/>
            <path data-name="Path 35" d="M174.9-589.3c-3.427 1.687-4.868 3.726-4.253 6.01.123.457.193.492 1.054.492 2.32-.018 3.9-1.775 4.587-5.149.316-1.476.351-2.056.158-2.056a12.4 12.4 0 0 0-1.546.703z" transform="translate(-163.165 653.971)" style="fill:#f5f5f5"/>
            <path data-name="Path 36" d="M795-589.648a13.4 13.4 0 0 0 .281 1.7c.685 3.374 2.267 5.132 4.587 5.149.861 0 .932-.035 1.055-.492.615-2.285-.826-4.341-4.271-6.028-.773-.369-1.476-.685-1.529-.685-.07.004-.123.162-.123.356z" transform="translate(-677.901 653.971)" style="fill:#f5f5f5"/>
            <path data-name="Path 37" d="M128.805-588.11c.246 2.337 1.529 4.921 2.953 5.905a3.6 3.6 0 0 0 3.216.352l.685-.281-.123-.914a5.2 5.2 0 0 0-2.021-3.392 20.824 20.824 0 0 0-4.13-2.46l-.685-.3z" transform="translate(-128.7 653.312)" style="fill:#f5f5f5"/>
            <path data-name="Path 38" d="M836.937-588.392c-3.3 1.687-4.851 3.3-5.114 5.325l-.123.931.633.264a3.462 3.462 0 0 0 3.972-.967 9.845 9.845 0 0 0 2.267-5.835l-.053-.527z" transform="translate(-708.152 653.312)" style="fill:#f5f5f5"/>
            <path data-name="Path 39" d="M182.5-551.49a10.2 10.2 0 0 0-4.183 3.831 4.712 4.712 0 0 0-.07 2.952c.158.352.316.439.879.439 1.986 0 3.48-1.529 4.183-4.306.351-1.353.474-3.427.228-3.427a5.425 5.425 0 0 0-1.037.511z" transform="translate(-169.369 622.65)" style="fill:#f5f5f5"/>
            <path data-name="Path 40" d="M790-550.981a11.549 11.549 0 0 0 1.125 4.5 4.028 4.028 0 0 0 3.409 2.214c.6 0 .721-.07.914-.51a5.054 5.054 0 0 0 .211-1.406c-.018-1.459-.914-2.794-2.812-4.2a11.3 11.3 0 0 0-2.759-1.617 2.912 2.912 0 0 0-.088 1.019z" transform="translate(-673.78 622.65)" style="fill:#f5f5f5"/>
            <path data-name="Path 41" d="M130.866-539.944c.984 3.269 3.023 5.624 5.1 5.87a2.942 2.942 0 0 0 1.81-.3l.931-.387-.105-.7c-.351-2.127-2.144-3.62-5.87-4.851-2.217-.739-2.182-.739-1.866.368z" transform="translate(-130.357 613.44)" style="fill:#f5f5f5"/>
            <path data-name="Path 42" d="M829.81-540.405c-3.866 1.336-5.554 2.742-5.9 4.868l-.105.7.931.387c2.689 1.16 5.589-1.177 6.907-5.571.312-1.122.312-1.122-1.833-.384z" transform="translate(-701.64 613.515)" style="fill:#f5f5f5"/>
            <path data-name="Path 43" d="M193.866-515.181c-2.513 1.9-3.866 3.849-3.866 5.571 0 1.107.492 2.126 1 2.126 2.039 0 3.638-1.951 4.095-4.991.193-1.3.105-3.462-.141-3.427a7.15 7.15 0 0 0-1.088.721z" transform="translate(-179.227 592.896)" style="fill:#f5f5f5"/>
            <path data-name="Path 44" d="M780.316-515.046a11.039 11.039 0 0 0 .738 4.815 4.127 4.127 0 0 0 3.445 2.583c.844 0 1.3-2.267.738-3.638a12.129 12.129 0 0 0-4.237-4.463l-.562-.352z" transform="translate(-665.766 593.059)" style="fill:#f5f5f5"/>
            <path data-name="Path 45" d="M139-493.852a7.96 7.96 0 0 0 .527 1.177c1.634 3.216 4.429 5.237 6.485 4.675 1.7-.474 2.109-1.125 1.424-2.443-.773-1.529-2.583-2.5-5.958-3.181-1.863-.369-2.478-.439-2.478-.228z" transform="translate(-137.19 574.818)" style="fill:#f5f5f5"/>
            <path data-name="Path 46" d="M817.4-493.566c-3.3.7-5.132 1.687-5.887 3.181-.685 1.318-.281 1.968 1.423 2.443 2.056.562 4.851-1.459 6.485-4.675a7.954 7.954 0 0 0 .527-1.177c.001-.194-.843-.124-2.548.228z" transform="translate(-691.251 574.761)" style="fill:#f5f5f5"/>
            <path data-name="Path 47" d="M210.078-480.358a13.121 13.121 0 0 0-2.9 4.025 4.226 4.226 0 0 0 .211 3.093c.351.615.474.7 1 .668a3.625 3.625 0 0 0 2.5-1.9 10.056 10.056 0 0 0 .527-6.415l-.141-.615z" transform="translate(-193.224 564.54)" style="fill:#f5f5f5"/>
            <path data-name="Path 48" d="M766.235-478.844a9.113 9.113 0 0 0 0 3.656c.351 2.074 1.757 3.779 3.146 3.849.527.035.65-.053 1-.668.967-1.687.229-4.025-2.091-6.5-1.809-1.936-1.809-1.936-2.055-.337z" transform="translate(-654.039 563.307)" style="fill:#f5f5f5"/>
            <path data-name="Path 49" d="M154.3-448.262a13.131 13.131 0 0 0 4.077 3.919 4.132 4.132 0 0 0 3.673.281c1.213-.6 1.459-.931 1.2-1.757a4.411 4.411 0 0 0-2.988-2.478 23.408 23.408 0 0 0-5.343-.7H153.9z" transform="translate(-149.472 537.751)" style="fill:#f5f5f5"/>
            <path data-name="Path 50" d="M797.918-448.807c-3.005.352-5.009 1.441-5.466 2.988-.264.826-.018 1.16 1.2 1.757a4.132 4.132 0 0 0 3.673-.281 13.324 13.324 0 0 0 4.077-3.919l.4-.738-1.283.018c-.703.017-1.881.087-2.601.175z" transform="translate(-675.723 537.751)" style="fill:#f5f5f5"/>
            <path data-name="Path 51" d="M230.679-445.385a12.787 12.787 0 0 0-2.32 3.849 3.735 3.735 0 0 0 .685 4.165l.439.474.65-.334a4.4 4.4 0 0 0 1.951-2.232 12.792 12.792 0 0 0-.088-5.149c-.474-1.722-.474-1.722-1.317-.773z" transform="translate(-210.574 535.296)" style="fill:#f5f5f5"/>
            <path data-name="Path 52" d="M747.88-446.533a10.021 10.021 0 0 0-.176 6.151 4.016 4.016 0 0 0 1.845 1.933l.633.334.439-.474a3.735 3.735 0 0 0 .685-4.165 13.142 13.142 0 0 0-2.372-3.9l-.773-.844z" transform="translate(-638.585 536.515)" style="fill:#f5f5f5"/>
            <path data-name="Path 53" d="M254.7-413.495a11.7 11.7 0 0 0-1.564 4.376 3.056 3.056 0 0 0 .334 1.951 4.228 4.228 0 0 0 .967 1.336c.51.352.527.352 1.037.053 1.564-.967 2.056-3.04 1.371-5.782a9.688 9.688 0 0 0-1.248-3.146c-.085-.036-.49.507-.897 1.212z" transform="translate(-231.241 509.487)" style="fill:#f5f5f5"/>
            <path data-name="Path 54" d="M725.14-414.35c-1 2.39-1.406 5.114-.967 6.45a3.6 3.6 0 0 0 1.582 1.951c.474.246.527.228 1.037-.246a4.812 4.812 0 0 0 .914-1.353c.474-1.037.369-2.3-.281-4.06a12.138 12.138 0 0 0-1.88-3.392c-.071 0-.264.3-.405.65z" transform="translate(-619.377 509.727)" style="fill:#f5f5f5"/>
            <path data-name="Path 65" d="M177.631-407.475a8.338 8.338 0 0 0-1.283.228c-.176.176 1.793 2.091 2.882 2.812 2.724 1.793 4.675 1.933 6.221.492.826-.773.808-1.072-.158-2.144-.9-1-2.162-1.406-4.534-1.476a24.1 24.1 0 0 0-3.128.088z" transform="translate(-167.965 503.608)" style="fill:#f5f5f5"/>
            <path data-name="Path 66" d="M771.876-407.457a4.573 4.573 0 0 0-3.532 2.355c-.211.492-.193.545.492 1.2 1.248 1.16 2.724 1.265 4.8.369a12.885 12.885 0 0 0 3.691-2.812l.721-.826-.492-.123a28.892 28.892 0 0 0-5.68-.163z" transform="translate(-655.832 503.572)" style="fill:#f5f5f5"/>
            <path data-name="Path 67" d="M283.519-384.29a9.311 9.311 0 0 0-1.019 4.482c0 1.6.035 1.74.527 2.443a4.3 4.3 0 0 0 1.107 1.09c.58.351.6.351 1.054 0 1.511-1.107 1.424-3.6-.264-6.977-1-2.005-1-2.022-1.405-1.038z" transform="translate(-255.471 484.939)" style="fill:#f5f5f5"/>
            <path data-name="Path 68" d="M697.872-384.456c-2.127 3.849-2.408 6.713-.738 7.926.457.351.474.351 1.055 0a4.3 4.3 0 0 0 1.107-1.09c.492-.7.527-.844.527-2.443a7.622 7.622 0 0 0-.492-3.111 18.139 18.139 0 0 0-.7-1.81c-.231-.404-.249-.386-.759.528z" transform="translate(-596.345 485.193)" style="fill:#f5f5f5"/>
            <path data-name="Path 69" d="M206.647-371.644c-.721.123-1.67.316-2.091.422l-.756.211.4.457a14.427 14.427 0 0 0 3.919 2.443c2.32.844 3.726.7 4.886-.457a2.393 2.393 0 0 0 .668-.967 2.552 2.552 0 0 0-.756-1.054c-1.244-1.266-3.177-1.583-6.27-1.055z" transform="translate(-190.602 474.192)" style="fill:#f5f5f5"/>
            <path data-name="Path 70" d="M742.285-371.648c-1 .334-2.285 1.476-2.285 2.039a2.371 2.371 0 0 0 .668.949c1.177 1.177 2.6 1.3 4.921.422a13.928 13.928 0 0 0 3.884-2.408l.4-.457-.756-.193a24.706 24.706 0 0 0-4.815-.7 7.734 7.734 0 0 0-2.017.348z" transform="translate(-632.567 474.284)" style="fill:#f5f5f5"/>
            <path data-name="Path 71" d="M313.65-357.025a12.183 12.183 0 0 0-.51 4.06 4.184 4.184 0 0 0 1.494 3.251c1.019.844 1.424.879 2.039.193.474-.527.51-.668.439-1.6a12.445 12.445 0 0 0-2.408-5.167c-.878-1.194-.878-1.194-1.054-.737z" transform="translate(-280.716 462.173)" style="fill:#f5f5f5"/>
            <path data-name="Path 72" d="M666.442-356.1a12.276 12.276 0 0 0-2.373 5.114c-.07.931-.035 1.072.439 1.6.615.685 1.019.65 2.039-.193a4.2 4.2 0 0 0 1.494-3.409 10.678 10.678 0 0 0-.615-4.148c-.087-.064-.526.389-.984 1.036z" transform="translate(-569.958 462.036)" style="fill:#f5f5f5"/>
            <path data-name="Path 73" d="M241.271-340.508a21.325 21.325 0 0 0-4.271 1.371 12.14 12.14 0 0 0 3.427 1.88 9.375 9.375 0 0 0 4.2.545c1.336-.246 2.443-1.828 1.793-2.548-.967-1.072-3.146-1.599-5.149-1.248z" transform="translate(-217.967 448.416)" style="fill:#f5f5f5"/>
            <path data-name="Path 74" d="M710.7-340.525a6.859 6.859 0 0 0-2.32 1.318c-.58.7.58 2.25 1.845 2.5 1.775.334 4.763-.474 6.749-1.81l.967-.65-.58-.228c-2.18-.905-5.431-1.446-6.661-1.13z" transform="translate(-606.378 448.415)" style="fill:#f5f5f5"/>
            <path data-name="Path 75" d="M345.769-332.709c-.193 3.462.615 5.466 2.548 6.415 1.107.545 1.547.475 1.863-.264.439-1.037-.685-3.04-3.146-5.641l-1.23-1.3z" transform="translate(-307.598 442.55)" style="fill:#f5f5f5"/>
            <path data-name="Path 76" d="M631.668-332c-2.46 2.654-3.515 4.569-3.093 5.606.316.738.756.808 1.863.264 1.494-.738 2.214-1.9 2.513-4.077a8.893 8.893 0 0 0 .053-2.144l-.123-.949z" transform="translate(-540.65 442.385)" style="fill:#f5f5f5"/>
            <path data-name="Path 77" d="M278.465-313.658a23.483 23.483 0 0 0-3.726 1.476c-.562.352 3.269 1.67 5.448 1.863 1.951.193 3.3-.4 3.691-1.617.246-.721.123-.861-1.318-1.564a6.155 6.155 0 0 0-4.095-.158z" transform="translate(-249.027 426.416)" style="fill:#f5f5f5"/>
            <path data-name="Path 78" d="M673.806-313.455c-1.494.756-1.582.861-1.3 1.634a2.647 2.647 0 0 0 2.355 1.547 12.969 12.969 0 0 0 5.975-1.23l1.054-.475-.7-.369a13.454 13.454 0 0 0-5.009-1.476 3.618 3.618 0 0 0-2.375.369z" transform="translate(-576.831 426.354)" style="fill:#f5f5f5"/>
            <path data-name="Path 79" d="M379.105-308.675a5.711 5.711 0 0 0 3.515 4.921 4.343 4.343 0 0 0 1.3.334.825.825 0 0 0 .492-1.09c-.141-.545-1.74-2.2-3.62-3.726-1.898-1.528-1.827-1.511-1.687-.439z" transform="translate(-335.046 422.716)" style="fill:#f5f5f5"/>
            <path data-name="Path 80" d="M594.322-309.356c-3.743 3.023-4.868 4.464-4.007 5.167.211.193.439.176 1.2-.053a5.006 5.006 0 0 0 2.689-1.845 7.644 7.644 0 0 0 1.248-3.638l-.053-.475z" transform="translate(-508.963 423.345)" style="fill:#f5f5f5"/>
            <path data-name="Path 81" d="M318.835-292.388a15.659 15.659 0 0 0-2.636 1.09l-1.6.826.527.211c1.933.791 6.046 1.072 7.416.51.808-.334 1.09-.685 1.09-1.406 0-.387-.158-.527-.967-.9a5.625 5.625 0 0 0-3.83-.331z" transform="translate(-281.929 408.82)" style="fill:#f5f5f5"/>
            <path data-name="Path 82" d="M635.845-292.673c-1.318.422-1.845.773-1.845 1.265 0 .721.3 1.072 1.177 1.406 1.459.562 5.36.281 7.329-.527l.527-.211-1.6-.826a11.022 11.022 0 0 0-4.358-1.336 5.119 5.119 0 0 0-1.23.229z" transform="translate(-545.196 409.087)" style="fill:#f5f5f5"/>
            <path data-name="Path 83" d="M414.193-290.69a6.046 6.046 0 0 0 2.953 3.357 6.384 6.384 0 0 0 3.146.527c.352-.3-.158-.721-2.777-2.285a137.71 137.71 0 0 0-2.953-1.757L414-291.2z" transform="translate(-363.86 407.684)" style="fill:#f5f5f5"/>
            <path data-name="Path 84" d="M553.179-289.313c-3.216 1.916-3.726 2.32-3.392 2.636.176.176.457.176 1.371 0a5.459 5.459 0 0 0 4.13-2.636 5.372 5.372 0 0 0 .738-1.687c-.018 0-1.3.756-2.847 1.687z" transform="translate(-475.711 407.519)" style="fill:#f5f5f5"/>
            <path data-name="Path 85" d="M363.064-276.317a9.317 9.317 0 0 0-3.409 1.424l-1.054.65.7.158a32.567 32.567 0 0 0 3.5.141c2.46 0 2.9-.053 3.515-.352.58-.3.7-.439.7-.879 0-.457-.088-.545-.791-.808a6.6 6.6 0 0 0-3.161-.334z" transform="translate(-318.196 395.472)" style="fill:#f5f5f5"/>
            <path data-name="Path 86" d="M595.213-276.331a7.41 7.41 0 0 0-1.459.422c-.58.228-.668.334-.615.756.035.369.228.58.756.844.633.316 1.037.352 3.779.334a22.662 22.662 0 0 0 3.48-.176c.369-.158.334-.193-.58-.756a7.962 7.962 0 0 0-5.361-1.424z" transform="translate(-511.506 395.487)" style="fill:#f5f5f5"/>
            <path data-name="Path 87" d="M451.681-273.4a7 7 0 0 0 3.462 1.476c.387.053.316.07-.264.105a11.38 11.38 0 0 0-3.814.879c-.369.193-.562.351-.439.369.316 0 3.392-.475 5.307-.844l1.67-.316-.879-.246c-.808-.211-3.357-1.142-5.1-1.828l-.7-.3z" transform="translate(-394.019 393.589)" style="fill:#f5f5f5"/>
            <path data-name="Path 88" d="M514.932-273.355c-.721.3-2.179.844-3.234 1.2l-1.9.633 1.722.316c2.232.4 4.833.808 5.167.791.141 0-.035-.158-.4-.352a11.38 11.38 0 0 0-3.814-.879c-.58-.035-.65-.053-.264-.105a7.3 7.3 0 0 0 3.462-1.459c.422-.387.72-.685.668-.685s-.687.241-1.407.54z" transform="translate(-442.824 393.424)" style="fill:#f5f5f5"/>
            <path data-name="Path 89" d="M406.8-265.629a9.367 9.367 0 0 0-2.777 1.318l-.527.387 2.636-.105c2.6-.088 4.833-.439 5.29-.808.439-.369.053-.65-1.16-.861a7.282 7.282 0 0 0-3.462.069z" transform="translate(-355.206 386.806)" style="fill:#f5f5f5"/>
            <path data-name="Path 90" d="M551.553-265.523c-1.7.316-1.511.861.439 1.283a27.9 27.9 0 0 0 3.866.369l2.636.105-.791-.545a8.23 8.23 0 0 0-6.15-1.212z" transform="translate(-476.282 386.647)" style="fill:#f5f5f5"/>
            <path data-name="Path 91" d="m3.184 0 .7-3.984L1.376-11.2h2.336L5.28-6.048 8.656-11.2h2.3l-5.02 7.216L5.232 0zm9.68.192a3.456 3.456 0 0 1-2.52-.912 3.282 3.282 0 0 1-.936-2.464 5.16 5.16 0 0 1 .352-1.9 4.744 4.744 0 0 1 1.008-1.576 4.788 4.788 0 0 1 1.56-1.072 4.954 4.954 0 0 1 1.992-.392 3.742 3.742 0 0 1 1.808.408 2.9 2.9 0 0 1 1.16 1.12 3.208 3.208 0 0 1 .412 1.62 4.555 4.555 0 0 1-.072.792 5.646 5.646 0 0 1-.168.712h-6.036v.272a1.65 1.65 0 0 0 .48 1.256 1.738 1.738 0 0 0 1.248.456 2.076 2.076 0 0 0 1.08-.28 2.413 2.413 0 0 0 .776-.728h2.08a4.741 4.741 0 0 1-1 1.376 4.8 4.8 0 0 1-1.456.96 4.453 4.453 0 0 1-1.768.352zm1.184-6.656a2.521 2.521 0 0 0-1.392.424 2.43 2.43 0 0 0-.96 1.288h3.952a1.7 1.7 0 0 0 .016-.176 1.408 1.408 0 0 0-.432-1.12 1.671 1.671 0 0 0-1.184-.416zm7.2 6.656a2.712 2.712 0 0 1-1.968-.616 2.005 2.005 0 0 1-.624-1.48 2.359 2.359 0 0 1 1.072-2.032 4.9 4.9 0 0 1 2.864-.752h2.016l.032-.192q.016-.1.024-.2t.008-.184a1.07 1.07 0 0 0-.384-.9 1.552 1.552 0 0 0-.976-.3 2.272 2.272 0 0 0-1.144.3 1.665 1.665 0 0 0-.744.872h-2a3.556 3.556 0 0 1 .84-1.5 4.008 4.008 0 0 1 1.464-.984 5.015 5.015 0 0 1 1.872-.352 3.667 3.667 0 0 1 2.312.656 2.253 2.253 0 0 1 .84 1.888q0 .16-.016.344t-.048.36L25.824 0H24l.08-1.232a3.957 3.957 0 0 1-1.16 1.016 3.25 3.25 0 0 1-1.672.408zm.752-1.6a2 2 0 0 0 1.464-.576 3.436 3.436 0 0 0 .856-1.424h-1.728a2.2 2.2 0 0 0-1.264.32 1.013 1.013 0 0 0-.464.88.665.665 0 0 0 .312.6 1.508 1.508 0 0 0 .824.2zM27.792 0l1.392-7.936h1.84L30.96-6.5a4.3 4.3 0 0 1 1.384-1.18 3.772 3.772 0 0 1 1.832-.448l-.384 2.16h-.56a3.19 3.19 0 0 0-1.76.472 2.444 2.444 0 0 0-.96 1.736L29.84 0zm9.776.192a4.213 4.213 0 0 1-1.848-.368 2.622 2.622 0 0 1-1.144-1.008 2.4 2.4 0 0 1-.32-1.456H36.3a1.133 1.133 0 0 0 .368.912 1.654 1.654 0 0 0 1.152.352 1.688 1.688 0 0 0 1.048-.288.889.889 0 0 0 .376-.736.61.61 0 0 0-.4-.584 5.4 5.4 0 0 0-1.024-.328 8.963 8.963 0 0 1-1.28-.416 3.037 3.037 0 0 1-1.028-.672 1.466 1.466 0 0 1-.412-1.072 2.2 2.2 0 0 1 .46-1.368 3.048 3.048 0 0 1 1.256-.944 4.622 4.622 0 0 1 1.84-.344 3.4 3.4 0 0 1 2.224.672 2.154 2.154 0 0 1 .784 1.824H39.7a.842.842 0 0 0-.36-.672 1.477 1.477 0 0 0-.9-.256 1.617 1.617 0 0 0-.936.248.73.73 0 0 0-.36.616.585.585 0 0 0 .424.536 6.649 6.649 0 0 0 1.112.344 8.225 8.225 0 0 1 1.352.432 2.632 2.632 0 0 1 .96.664 1.549 1.549 0 0 1 .36 1.064 2.384 2.384 0 0 1-.5 1.5A3.21 3.21 0 0 1 39.5-.16a5.029 5.029 0 0 1-1.932.352z" transform="translate(42.434 106.125)" style="fill:#f5f5f5"/>
        </g>
    </g>
</svg>
