<svg xmlns="http://www.w3.org/2000/svg" width="39.745" height="39.745" viewBox="0 0 39.745 39.745">
    <path data-name="Path 136" d="M20.287 35.872a1.985 1.985 0 0 1-1.4-.582l-5.3-5.3a1.987 1.987 0 1 1 2.81-2.81l3.679 3.679 10.543-14.064A1.987 1.987 0 0 1 33.8 19.18l-11.923 15.9a1.984 1.984 0 0 1-1.449.79l-.141.002z" transform="translate(-4.389 -5.401)" style="fill:#f5f5f5"/>
    <g data-name="Group 1817">
        <path data-name="Path 137" d="M3.974 30.325H.662a.662.662 0 0 1 0-1.325h3.312a.662.662 0 0 1 0 1.325z" transform="translate(0 -9.79)" style="fill:#f5f5f5"/>
        <path data-name="Path 138" d="M4.549 43.981a.662.662 0 0 1-.332-1.236l2.868-1.656a.662.662 0 1 1 .662 1.147L4.88 43.892a.657.657 0 0 1-.331.089z" transform="translate(-1.312 -13.841)" style="fill:#f5f5f5"/>
        <path data-name="Path 139" d="M15.162 53.977a.662.662 0 0 1-.573-.994l1.656-2.868a.662.662 0 0 1 1.147.662l-1.656 2.868a.664.664 0 0 1-.574.331z" transform="translate(-4.895 -16.806)" style="fill:#f5f5f5"/>
        <path data-name="Path 140" d="M29.662 57.637a.662.662 0 0 1-.662-.663v-3.312a.662.662 0 1 1 1.325 0v3.312a.662.662 0 0 1-.663.663z" transform="translate(-9.79 -17.892)" style="fill:#f5f5f5"/>
        <path data-name="Path 141" d="M43.319 53.977a.661.661 0 0 1-.574-.331l-1.656-2.868a.662.662 0 0 1 1.147-.662l1.656 2.868a.662.662 0 0 1-.573.994z" transform="translate(-13.841 -16.806)" style="fill:#f5f5f5"/>
        <path data-name="Path 142" d="M53.314 43.981a.657.657 0 0 1-.331-.089l-2.868-1.656a.662.662 0 0 1 .662-1.147l2.868 1.656a.662.662 0 0 1-.332 1.236z" transform="translate(-16.806 -13.841)" style="fill:#f5f5f5"/>
        <path data-name="Path 143" d="M56.974 30.325h-3.312a.662.662 0 1 1 0-1.325h3.312a.662.662 0 1 1 0 1.325z" transform="translate(-17.892 -9.79)" style="fill:#f5f5f5"/>
        <path data-name="Path 144" d="M50.447 17.481a.662.662 0 0 1-.332-1.236l2.868-1.656a.662.662 0 1 1 .662 1.147l-2.868 1.656a.657.657 0 0 1-.331.089z" transform="translate(-16.807 -4.895)" style="fill:#f5f5f5"/>
        <path data-name="Path 145" d="M41.662 8.079a.662.662 0 0 1-.573-.994l1.656-2.868a.662.662 0 1 1 1.147.662l-1.656 2.869a.664.664 0 0 1-.574.331z" transform="translate(-13.841 -1.312)" style="fill:#f5f5f5"/>
        <path data-name="Path 146" d="M29.662 4.637A.662.662 0 0 1 29 3.974V.662a.662.662 0 0 1 1.325 0v3.312a.662.662 0 0 1-.663.663z" transform="translate(-9.79)" style="fill:#f5f5f5"/>
        <path data-name="Path 147" d="M16.819 8.079a.661.661 0 0 1-.574-.331L14.589 4.88a.662.662 0 0 1 1.147-.662l1.656 2.868a.662.662 0 0 1-.573.994z" transform="translate(-4.895 -1.312)" style="fill:#f5f5f5"/>
        <path data-name="Path 148" d="M7.416 17.48a.657.657 0 0 1-.331-.089l-2.868-1.655a.662.662 0 1 1 .662-1.147l2.868 1.656a.662.662 0 0 1-.332 1.236z" transform="translate(-1.312 -4.895)" style="fill:#f5f5f5"/>
    </g>
</svg>
