<svg data-name="Group 33" xmlns="http://www.w3.org/2000/svg" width="51.079" height="96.155" viewBox="0 0 51.079 96.155">
    <path data-name="Path 38" d="M1514.131 1398.31h-1.5v-1.5a4.506 4.506 0 0 0-4.506-4.506h-1.294l.953-7.318a1.5 1.5 0 0 0-2.979-.387l-1 7.706h-21.429l-8.555-55.606a91.106 91.106 0 0 0 38.46-9.394l-6.689 51.285a1.5 1.5 0 0 0 2.982.388l7.061-54.085a1.5 1.5 0 0 0-2.168-1.539l-2.221 1.113a88.073 88.073 0 0 1-39.174 9.246 1.5 1.5 0 0 0-1.5 1.5 1.532 1.532 0 0 0 .018.228l8.746 56.862h-1.253a4.506 4.506 0 0 0-4.506 4.506v1.5h-1.5a4.507 4.507 0 0 0-4.506 4.506v15.023a1.5 1.5 0 0 0 1.5 1.5h48.076a1.5 1.5 0 0 0 1.5-1.5v-15.023a4.507 4.507 0 0 0-4.506-4.506zm1.5 18.028h-45.07v-13.522a1.5 1.5 0 0 1 1.5-1.5h9.014a1.5 1.5 0 1 0 0-3h-4.506v-1.5a1.5 1.5 0 0 1 1.5-1.5h30.048a1.5 1.5 0 0 1 1.5 1.5v1.5h-22.536a1.5 1.5 0 0 0 0 3h27.043a1.5 1.5 0 0 1 1.5 1.5z" transform="translate(-1467.558 -1323.187)" style="fill:#fff"/>
    <path data-name="Path 39" d="M1498.874 1389.188h-18.029a1.5 1.5 0 0 0 0 3h18.029a1.5 1.5 0 0 0 0-3z" transform="translate(-1464.32 -1305.051)" style="fill:#fff"/>
    <path data-name="Path 40" d="M1500.865 1344.065a1.5 1.5 0 0 0-1.212-1.021l-5.769-.84-2.575-5.225a1.561 1.561 0 0 0-2.692 0l-2.58 5.225-5.769.84a1.5 1.5 0 0 0-.83 2.561l4.171 4.068-.986 5.744a1.5 1.5 0 0 0 2.18 1.583l5.154-2.711 5.159 2.711a1.5 1.5 0 0 0 2.18-1.583l-.987-5.744 4.172-4.068a1.5 1.5 0 0 0 .383-1.54zm-7.212 4.007a1.5 1.5 0 0 0-.435 1.329l.6 3.524-3.164-1.664a1.5 1.5 0 0 0-1.4 0l-3.164 1.664.6-3.524a1.5 1.5 0 0 0-.435-1.329l-2.553-2.494 3.536-.515a1.5 1.5 0 0 0 1.132-.821l1.582-3.2 1.582 3.2a1.5 1.5 0 0 0 1.131.821l3.536.515z" transform="translate(-1464.418 -1319.61)" style="fill:#fff"/>
    <path data-name="Path 41" d="M1498.55 1360.049a1.5 1.5 0 0 0-1.5-1.5h-15.023a1.5 1.5 0 1 0 0 3h15.023a1.5 1.5 0 0 0 1.5-1.5z" transform="translate(-1463.996 -1313.471)" style="fill:#fff"/>
    <path data-name="Path 42" d="M1484.381 1363.26a1.5 1.5 0 1 0 0 3h9.014a1.5 1.5 0 1 0 0-3z" transform="translate(-1463.348 -1312.176)" style="fill:#fff"/>
</svg>
