<svg data-name="Group 31" xmlns="http://www.w3.org/2000/svg" width="78.434" height="96.155" viewBox="0 0 78.434 96.155">
    <path data-name="Path 34" d="M1662.312 1332.439a39.236 39.236 0 0 0 4.171-.159 6.916 6.916 0 0 0 3.914-1.851c1.173-1.043 2.227-2.2 3.345-3.3a20.713 20.713 0 0 1 2.862-2.449 7.178 7.178 0 0 1 8.987.186 28.967 28.967 0 0 1 3.641 3.32c.662.68 1.353 1.328 2.018 2a7.3 7.3 0 0 0 5.269 2.181c2.088.042 4.177.068 6.266.117a10.951 10.951 0 0 1 3.352.62c2.938 1.03 4.239 3.3 4.634 6.236a26.227 26.227 0 0 1 .155 3.65c-.008 1.3.02 2.593.048 3.889a7.543 7.543 0 0 0 2.208 5.262c1.423 1.478 2.957 2.845 4.3 4.4a16.124 16.124 0 0 1 1.373 1.8 7.106 7.106 0 0 1-.176 8.459 35.046 35.046 0 0 1-4.23 4.613c-.507.5-.989 1.035-1.489 1.546a6.99 6.99 0 0 0-1.961 4.885c-.059 2.128-.065 4.258-.13 6.384a10.417 10.417 0 0 1-.858 4 6.847 6.847 0 0 1-5.555 3.957 26.579 26.579 0 0 1-4.222.228 31.642 31.642 0 0 0-5.269.215 6.2 6.2 0 0 0-2.869 1.3c-1.421 1.142-2.631 2.508-3.94 3.77a21.269 21.269 0 0 1-3.015 2.537 7.052 7.052 0 0 1-8.639-.135 30.4 30.4 0 0 1-4.114-3.747 27.552 27.552 0 0 0-2.712-2.533 6.741 6.741 0 0 0-3.657-1.3c-1.854-.17-3.712-.1-5.57-.11a15.233 15.233 0 0 1-4.187-.523 6.783 6.783 0 0 1-5.054-5.877 23.505 23.505 0 0 1-.242-3.991c0-1.548.037-3.1-.083-4.641a6.967 6.967 0 0 0-1.707-4.16c-1.235-1.417-2.649-2.659-3.935-4.026a13.85 13.85 0 0 1-3.015-4.291 6.622 6.622 0 0 1 .222-5.506 15.608 15.608 0 0 1 3.235-4.213c1.062-1.072 2.159-2.107 3.195-3.207a7.3 7.3 0 0 0 2.007-4.693c.124-1.857.066-3.715.087-5.572a16.445 16.445 0 0 1 .384-3.453 6.8 6.8 0 0 1 5.81-5.553 27.061 27.061 0 0 1 5.146-.265zm36.623 56.682a30.835 30.835 0 0 0 4.839-.2 3.732 3.732 0 0 0 3.455-2.946 10.317 10.317 0 0 0 .3-2.063c.037-2.07.061-4.141.115-6.211a10.1 10.1 0 0 1 2.513-6.637 44.866 44.866 0 0 1 2.335-2.422 27.084 27.084 0 0 0 3.363-3.679 3.876 3.876 0 0 0 .071-5.036 18.254 18.254 0 0 0-2.4-2.748c-1.191-1.189-2.413-2.348-3.506-3.632a9.529 9.529 0 0 1-2.287-5.35c-.19-1.893-.117-3.79-.133-5.686a19.288 19.288 0 0 0-.2-3.007 3.743 3.743 0 0 0-3.39-3.559 10.019 10.019 0 0 0-1.839-.214c-1.972-.057-3.946-.017-5.919-.088a10.623 10.623 0 0 1-7.136-2.9c-1.275-1.191-2.44-2.486-3.7-3.688a13.4 13.4 0 0 0-2.639-2.072 3.618 3.618 0 0 0-3.851.042 10.422 10.422 0 0 0-2.031 1.536c-1.429 1.39-2.835 2.8-4.276 4.179a9.749 9.749 0 0 1-5.914 2.788c-1.892.186-3.785.159-5.679.171a20.923 20.923 0 0 0-2.838.136c-2.3.33-3.3 1.248-3.768 3.518a10.29 10.29 0 0 0-.2 1.844c-.05 1.954-.016 3.908-.084 5.863a10.461 10.461 0 0 1-3 7.21c-1.228 1.262-2.485 2.495-3.717 3.752a11.355 11.355 0 0 0-2 2.617 3.5 3.5 0 0 0-.033 3.438 12.648 12.648 0 0 0 2.339 3.012c1.251 1.266 2.555 2.479 3.737 3.814a9.622 9.622 0 0 1 2.461 4.965 37.2 37.2 0 0 1 .275 5.5 27.574 27.574 0 0 0 .138 3.71c.329 2.3 1.191 3.257 3.443 3.77a8.442 8.442 0 0 0 1.724.209c2.05.037 4.1.06 6.151.111a10.2 10.2 0 0 1 6.752 2.662c1.214 1.086 2.308 2.288 3.47 3.423a15.454 15.454 0 0 0 3.144 2.551 3.627 3.627 0 0 0 3.849-.048 13.253 13.253 0 0 0 2.455-1.933c1.429-1.36 2.743-2.839 4.239-4.131a9.76 9.76 0 0 1 4.782-2.332 32.334 32.334 0 0 1 4.591-.238z" transform="translate(-1641.731 -1323.187)" style="fill:#fff"/>
    <path data-name="Path 35" d="M1695.808 1392.244v8.709c0 1.927-1.513 2.905-3.23 2.012-4.235-2.2-8.443-4.449-12.661-6.68q-1.384-.733-2.761-1.472a.762.762 0 0 0-.807.013q-7.44 3.968-14.9 7.907a9.868 9.868 0 0 1-.781.38 2.057 2.057 0 0 1-2.941-1.893c-.013-.405 0-.812 0-1.219v-16.141c0-.213 0-.426.005-.639a1.622 1.622 0 1 1 3.242.041q.012 7.635.008 15.271v.348c-.005.3.092.381.381.226q2.832-1.526 5.673-3.033c3.071-1.632 6.148-3.253 9.213-4.9a.964.964 0 0 1 1.022-.02c4.944 2.635 9.9 5.25 14.838 7.892.592.316.449-.083.449-.367v-14.864c0-.232-.009-.465.008-.7a1.618 1.618 0 0 1 3.235.065c.017 1.992.006 3.986.006 5.98v3.078z" transform="translate(-1637.337 -1307.146)" style="fill:#fff"/>
    <path data-name="Path 36" d="M1676.664 1376.666a18.693 18.693 0 0 1-18.735-16.367 18.778 18.778 0 0 1 14.392-20.555 18.172 18.172 0 0 1 9.728.4 1.7 1.7 0 0 1 1.286 1.662 1.762 1.762 0 0 1-1.364 1.549 1.866 1.866 0 0 1-1.021-.13 15.284 15.284 0 1 0 10.958 13.52 1.577 1.577 0 0 1 1.692-1.862 1.488 1.488 0 0 1 1.493 1.35 16.9 16.9 0 0 1-1.022 8.147 18.506 18.506 0 0 1-11.371 11.32 16.148 16.148 0 0 1-6.036.966z" transform="translate(-1637.318 -1318.769)" style="fill:#fff"/>
    <path data-name="Path 37" d="M1664.2 1352.686a1.5 1.5 0 0 1 .928-1.11 1.427 1.427 0 0 1 1.76.252c1.256 1.235 2.5 2.481 3.745 3.724 1.123 1.12 2.256 2.232 3.356 3.373.3.312.467.321.775.011q8.287-8.293 16.6-16.567a9.084 9.084 0 0 1 .843-.8 1.566 1.566 0 0 1 2.155.15 1.431 1.431 0 0 1 .056 2.126c-1.438 1.514-2.926 2.983-4.4 4.462l-15.087 15.12c-.39.393-.584.407-.985 0-2.975-3.017-5.98-6.005-8.977-9a2.109 2.109 0 0 1-.769-1.741z" transform="translate(-1635.557 -1318.234)" style="fill:#fff"/>
</svg>
