<svg xmlns="http://www.w3.org/2000/svg" width="268.791" height="93.383" viewBox="0 0 268.791 93.383">
    <defs>
        <clipPath id="fzj79gmkja">
            <path data-name="Path 119" d="M40 58.73A6.73 6.73 0 0 1 46.73 52h255.33a6.73 6.73 0 0 1 6.73 6.73v79.922a6.73 6.73 0 0 1-6.73 6.73H46.73a6.73 6.73 0 0 1-6.73-6.73z" transform="translate(-40 -52)" style="fill:#fff"/>
        </clipPath>
    </defs>
    <g data-name="Frame 13">
        <g data-name="Group 37" style="clip-path:url(#fzj79gmkja)">
            <path data-name="Path 106" d="M40 58.73A6.73 6.73 0 0 1 46.73 52h255.33a6.73 6.73 0 0 1 6.73 6.73v79.922a6.73 6.73 0 0 1-6.73 6.73H46.73a6.73 6.73 0 0 1-6.73-6.73z" transform="translate(-40 -52)" style="fill:#fff"/>
            <path data-name="Path 120" d="M0 0h268.7v3.438H0z" style="fill:#aa2424"/>
            <path data-name="Path 107" d="M173.635 161.513a27.7 27.7 0 0 0-.438-4.93H150.5v9.333h12.97a11.111 11.111 0 0 1-4.842 7.251v6.069h7.821c4.557-4.206 7.186-10.384 7.186-17.723z" transform="translate(-104.019 -112.591)" style="fill:#4285f4"/>
            <path data-name="Path 108" d="M120.868 197.437a23 23 0 0 0 15.95-5.828L129 185.54a14.489 14.489 0 0 1-21.624-7.6h-8.022v6.222a24.077 24.077 0 0 0 21.514 13.275z" transform="translate(-74.387 -124.963)" style="fill:#34a853"/>
            <path data-name="Path 109" d="M103.812 156.7a14.053 14.053 0 0 1 0-9.157v-6.222h-8.019a23.855 23.855 0 0 0 0 21.6l6.244-4.863z" transform="translate(-70.827 -103.75)" style="fill:#fbbc05"/>
            <path data-name="Path 110" d="M120.868 119.3a13.149 13.149 0 0 1 9.223 3.593l6.9-6.9a23.119 23.119 0 0 0-16.125-6.288 24.057 24.057 0 0 0-21.514 13.3l8.019 6.222a14.387 14.387 0 0 1 13.497-9.927z" transform="translate(-74.387 -85.434)" style="fill:#ea4335"/>
            <path data-name="Path 111" d="M243.976 107.127a5.023 5.023 0 0 1-1.992-.39 4.931 4.931 0 0 1-1.6-1.09A5.117 5.117 0 0 1 239.3 104a5.5 5.5 0 0 1-.377-2.059 5.675 5.675 0 0 1 .363-2.059 4.857 4.857 0 0 1 1.05-1.642 4.755 4.755 0 0 1 1.6-1.077 5.025 5.025 0 0 1 1.992-.39 4.843 4.843 0 0 1 1.925.363 4.394 4.394 0 0 1 1.454.969 3.519 3.519 0 0 1 .848 1.306l-1.629.781a2.627 2.627 0 0 0-.956-1.265 2.736 2.736 0 0 0-1.642-.485 3.137 3.137 0 0 0-1.669.444 3.073 3.073 0 0 0-1.117 1.225 4.45 4.45 0 0 0 .013 3.675 3.082 3.082 0 0 0 2.813 1.669 3.353 3.353 0 0 0 1.413-.3 2.641 2.641 0 0 0 1.036-.861 2.286 2.286 0 0 0 .39-1.333v-.761l.835.727h-3.715v-1.547h4.711v1.01a5.041 5.041 0 0 1-.39 2.046 4.314 4.314 0 0 1-1.063 1.494 4.62 4.62 0 0 1-1.494.9 5.119 5.119 0 0 1-1.715.297zm9.552 0a3.951 3.951 0 0 1-1.965-.5 3.836 3.836 0 0 1-1.4-1.36 4.031 4.031 0 0 1 0-3.93 3.836 3.836 0 0 1 1.4-1.36 4.1 4.1 0 0 1 3.917 0 3.733 3.733 0 0 1 1.386 1.36 3.656 3.656 0 0 1 .525 1.965 3.7 3.7 0 0 1-.525 1.965 3.849 3.849 0 0 1-3.338 1.858zm0-1.615a1.888 1.888 0 0 0 1.036-.283 1.938 1.938 0 0 0 .713-.781 2.417 2.417 0 0 0 .269-1.144 2.289 2.289 0 0 0-.269-1.131 1.938 1.938 0 0 0-.713-.781 1.825 1.825 0 0 0-1.036-.3 1.914 1.914 0 0 0-1.063.3 2.037 2.037 0 0 0-.727.781 2.39 2.39 0 0 0-.256 1.131 2.525 2.525 0 0 0 .256 1.144 2.037 2.037 0 0 0 .727.781 1.982 1.982 0 0 0 1.063.283zm8.781 1.615a3.951 3.951 0 0 1-1.965-.5 3.836 3.836 0 0 1-1.4-1.36 4.031 4.031 0 0 1 0-3.93 3.836 3.836 0 0 1 1.4-1.36 4.1 4.1 0 0 1 3.917 0 3.733 3.733 0 0 1 1.386 1.36 3.657 3.657 0 0 1 .525 1.965 3.7 3.7 0 0 1-.525 1.965 3.849 3.849 0 0 1-3.338 1.858zm0-1.615a1.888 1.888 0 0 0 1.036-.283 1.938 1.938 0 0 0 .713-.781 2.417 2.417 0 0 0 .269-1.144 2.289 2.289 0 0 0-.269-1.131 1.938 1.938 0 0 0-.713-.781 1.825 1.825 0 0 0-1.036-.3 1.914 1.914 0 0 0-1.063.3 2.037 2.037 0 0 0-.727.781 2.39 2.39 0 0 0-.256 1.131 2.525 2.525 0 0 0 .256 1.144 2.037 2.037 0 0 0 .727.781 1.982 1.982 0 0 0 1.063.283zm8.754 4.415a4.2 4.2 0 0 1-1.521-.269 3.644 3.644 0 0 1-1.212-.754 2.811 2.811 0 0 1-.727-1.117l1.642-.619a1.5 1.5 0 0 0 .633.821 2.318 2.318 0 0 0 2.127.121 1.476 1.476 0 0 0 .646-.592 1.731 1.731 0 0 0 .229-.915v-1.669l.336.4a2.5 2.5 0 0 1-1.01 1 3.021 3.021 0 0 1-1.44.337 3.564 3.564 0 0 1-1.831-.471 3.367 3.367 0 0 1-1.265-1.292 3.724 3.724 0 0 1-.458-1.844 3.675 3.675 0 0 1 .458-1.844 3.321 3.321 0 0 1 1.252-1.265 3.467 3.467 0 0 1 1.8-.471 2.876 2.876 0 0 1 1.44.35 2.812 2.812 0 0 1 1.05.983l-.242.444v-1.618h1.669v6.957a3.157 3.157 0 0 1-.471 1.709 3.22 3.22 0 0 1-1.265 1.185 3.807 3.807 0 0 1-1.84.433zm-.081-4.886a1.922 1.922 0 0 0 .983-.242 1.8 1.8 0 0 0 .673-.7 2.1 2.1 0 0 0 .242-1.023 1.989 1.989 0 0 0-.256-1.01 1.779 1.779 0 0 0-.673-.713 1.818 1.818 0 0 0-.969-.256 1.961 1.961 0 0 0-1 .256 1.843 1.843 0 0 0-.7.713 2.224 2.224 0 0 0 0 2.019 1.9 1.9 0 0 0 .686.7 1.988 1.988 0 0 0 1.014.256zm5.308 1.925v-10.19h1.763v10.19zm6.864.162a3.755 3.755 0 0 1-1.979-.511 3.564 3.564 0 0 1-1.319-1.386 4.026 4.026 0 0 1-.471-1.938 3.955 3.955 0 0 1 .471-1.952 3.656 3.656 0 0 1 1.306-1.36 3.558 3.558 0 0 1 1.858-.5 3.734 3.734 0 0 1 1.508.283 3.213 3.213 0 0 1 1.117.781 3.473 3.473 0 0 1 .7 1.144 3.81 3.81 0 0 1 .242 1.373 2.933 2.933 0 0 1-.027.39 1.261 1.261 0 0 1-.067.35h-5.654v-1.346h4.661l-.834.633a1.962 1.962 0 0 0-.067-1.1 1.528 1.528 0 0 0-.592-.767 1.67 1.67 0 0 0-.983-.283 1.752 1.752 0 0 0-.983.283 1.707 1.707 0 0 0-.66.808 2.834 2.834 0 0 0-.161 1.279 2.472 2.472 0 0 0 .175 1.2 1.829 1.829 0 0 0 .7.794 2.052 2.052 0 0 0 1.077.283 1.924 1.924 0 0 0 1.023-.256 1.827 1.827 0 0 0 .673-.686l1.427.7a2.488 2.488 0 0 1-.673.929 3.349 3.349 0 0 1-1.09.633 3.93 3.93 0 0 1-1.378.221zm7.31-.162V96.938h3.729a4.1 4.1 0 0 1 1.8.377 2.791 2.791 0 0 1 1.238 1.077 3.127 3.127 0 0 1 .444 1.709 3.045 3.045 0 0 1-.5 1.763 2.891 2.891 0 0 1-1.319 1.077l2.3 4.025h-2.066l-2.463-4.4 1.185.7h-2.517v3.7zm1.831-5.317h1.925a1.848 1.848 0 0 0 .862-.188 1.453 1.453 0 0 0 .565-.552 1.587 1.587 0 0 0 .2-.808 1.54 1.54 0 0 0-.2-.808 1.363 1.363 0 0 0-.565-.538 1.747 1.747 0 0 0-.862-.2h-1.925zm9.141 5.478a3.212 3.212 0 0 1-1.333-.256 2 2 0 0 1-.875-.727 2.028 2.028 0 0 1-.31-1.117 2.066 2.066 0 0 1 1.1-1.884 4.168 4.168 0 0 1 1.427-.458l2.4-.39v1.346l-2.059.35a1.5 1.5 0 0 0-.781.337.832.832 0 0 0-.256.633.741.741 0 0 0 .283.606 1.2 1.2 0 0 0 .727.215 1.981 1.981 0 0 0 .969-.229 1.667 1.667 0 0 0 .66-.66 1.79 1.79 0 0 0 .242-.915v-1.884a.969.969 0 0 0-.377-.781 1.4 1.4 0 0 0-.969-.323 1.751 1.751 0 0 0-1.642 1.1l-1.44-.7a2.518 2.518 0 0 1 .673-1 3.439 3.439 0 0 1 1.1-.673 3.808 3.808 0 0 1 1.373-.242 3.569 3.569 0 0 1 1.588.337 2.473 2.473 0 0 1 1.063.915 2.372 2.372 0 0 1 .39 1.36v4.873h-1.669v-1.252l.377-.027a2.8 2.8 0 0 1-1.561 1.279 3.563 3.563 0 0 1-1.1.167zm8.794-.081a2.349 2.349 0 0 1-2.6-2.6v-3.231h-1.265v-1.572h.135a1.16 1.16 0 0 0 .834-.283 1.083 1.083 0 0 0 .3-.821v-.565h1.766v1.669h1.683v1.575H309.4v3.136a1.437 1.437 0 0 0 .121.619.894.894 0 0 0 .4.39 1.661 1.661 0 0 0 .713.135 2.013 2.013 0 0 0 .215-.013l.256-.027v1.508a14 14 0 0 1-.431.054 4.016 4.016 0 0 1-.444.026zm2.222-.081v-7.322h1.763v7.323zm0-8.144v-1.883h1.763v1.884zm3.391 8.144v-7.322h1.657v1.44l-.135-.256a1.912 1.912 0 0 1 .835-1 2.648 2.648 0 0 1 1.373-.35 2.848 2.848 0 0 1 1.427.35 2.465 2.465 0 0 1 .983.983 2.876 2.876 0 0 1 .35 1.44v4.711h-1.763v-4.294a1.735 1.735 0 0 0-.188-.835 1.321 1.321 0 0 0-.525-.538 1.418 1.418 0 0 0-.767-.2 1.461 1.461 0 0 0-.767.2 1.321 1.321 0 0 0-.525.538 1.735 1.735 0 0 0-.188.835v4.294zm11.533 2.961a4.2 4.2 0 0 1-1.521-.269 3.643 3.643 0 0 1-1.211-.754 2.811 2.811 0 0 1-.727-1.117l1.642-.619a1.5 1.5 0 0 0 .633.821 2.318 2.318 0 0 0 2.127.121 1.477 1.477 0 0 0 .646-.592 1.731 1.731 0 0 0 .229-.915v-1.669l.336.4a2.5 2.5 0 0 1-1.01 1 3.021 3.021 0 0 1-1.44.337 3.565 3.565 0 0 1-1.831-.471 3.367 3.367 0 0 1-1.265-1.292 3.724 3.724 0 0 1-.458-1.844 3.675 3.675 0 0 1 .458-1.844 3.321 3.321 0 0 1 1.252-1.265 3.466 3.466 0 0 1 1.8-.471 2.875 2.875 0 0 1 1.44.35 2.813 2.813 0 0 1 1.05.983l-.242.444v-1.617h1.669v6.957a3.157 3.157 0 0 1-.471 1.709 3.22 3.22 0 0 1-1.265 1.185 3.807 3.807 0 0 1-1.841.433zm-.081-4.886a1.922 1.922 0 0 0 .983-.242 1.8 1.8 0 0 0 .673-.7 2.1 2.1 0 0 0 .242-1.023 1.988 1.988 0 0 0-.256-1.01 1.778 1.778 0 0 0-.673-.713 1.818 1.818 0 0 0-.969-.256 1.961 1.961 0 0 0-1 .256 1.843 1.843 0 0 0-.7.713 2.224 2.224 0 0 0 0 2.019 1.9 1.9 0 0 0 .686.7 1.988 1.988 0 0 0 1.019.257z" transform="translate(-155.25 -77.941)" style="fill:#6a6a6a"/>
            <path data-name="Path 112" d="M245.324 166.949v-3.231h-6.663v-2.625l6.461-9.187h3.332v9.187h2.322v2.625h-2.322v3.231zm-4.381-4.725-.586-1.131h4.967v-6.764l.787.242zm13.045 4.725v-3.029h3.029v3.029zm12.018.242a6.39 6.39 0 0 1-2.928-.626 4.6 4.6 0 0 1-1.858-1.676 4.272 4.272 0 0 1-.646-2.282 3.9 3.9 0 0 1 .767-2.463 4.776 4.776 0 0 1 2.3-1.494l-.2.767a3.042 3.042 0 0 1-1.716-1.333 4.169 4.169 0 0 1-.626-2.241 3.835 3.835 0 0 1 .626-2.16 4.151 4.151 0 0 1 1.736-1.474 5.7 5.7 0 0 1 2.544-.545 5.573 5.573 0 0 1 2.524.545 4.151 4.151 0 0 1 1.736 1.474 3.748 3.748 0 0 1 .646 2.16 4.169 4.169 0 0 1-.626 2.241 3.046 3.046 0 0 1-1.716 1.353l-.182-.808a5.161 5.161 0 0 1 2.3 1.555 3.749 3.749 0 0 1 .787 2.443 4.177 4.177 0 0 1-.666 2.282 4.622 4.622 0 0 1-1.878 1.656 6.39 6.39 0 0 1-2.924.626zm0-2.625a2.722 2.722 0 0 0 1.232-.262 1.981 1.981 0 0 0 1.111-1.8 1.854 1.854 0 0 0-.3-1.07 1.8 1.8 0 0 0-.808-.707 2.722 2.722 0 0 0-1.232-.262 2.674 2.674 0 0 0-1.211.262 1.863 1.863 0 0 0-1.09 1.777 2.017 2.017 0 0 0 .283 1.07 2.106 2.106 0 0 0 .808.727 2.674 2.674 0 0 0 1.207.265zm0-6.724a1.724 1.724 0 0 0 1.555-.888 1.813 1.813 0 0 0 .222-.888 1.854 1.854 0 0 0-.222-.909 1.557 1.557 0 0 0-.626-.626 1.7 1.7 0 0 0-.929-.242 1.77 1.77 0 0 0-.929.242 1.557 1.557 0 0 0-.626.626 1.854 1.854 0 0 0-.222.909 1.813 1.813 0 0 0 .222.888 1.7 1.7 0 0 0 .626.646 1.77 1.77 0 0 0 .929.242z" transform="translate(-155.096 -109.741)" style="fill:#fea500"/>
            <path data-name="Path 113" d="M364.135 142.962a.841.841 0 0 1 1.507 0l2.526 5.085a.84.84 0 0 0 .63.458l5.617.832a.841.841 0 0 1 .466 1.433l-4.055 3.974a.842.842 0 0 0-.241.741l.945 5.6a.841.841 0 0 1-1.219.886l-5.033-2.629a.841.841 0 0 0-.779 0l-5.033 2.629a.841.841 0 0 1-1.219-.886l.945-5.6a.842.842 0 0 0-.241-.741l-4.055-3.974a.841.841 0 0 1 .466-1.433l5.617-.832a.84.84 0 0 0 .63-.458z" transform="translate(-222.291 -104.429)" style="fill:#fea500"/>
            <path data-name="Path 114" d="M420.135 142.962a.841.841 0 0 1 1.507 0l2.526 5.085a.84.84 0 0 0 .63.458l5.617.832a.841.841 0 0 1 .466 1.433l-4.055 3.974a.842.842 0 0 0-.241.741l.945 5.6a.841.841 0 0 1-1.219.886l-5.033-2.629a.841.841 0 0 0-.779 0l-5.033 2.629a.841.841 0 0 1-1.219-.886l.945-5.6a.842.842 0 0 0-.241-.741l-4.055-3.974a.841.841 0 0 1 .466-1.433l5.617-.832a.84.84 0 0 0 .63-.458z" transform="translate(-254.735 -104.429)" style="fill:#fea500"/>
            <path data-name="Path 115" d="M476.135 142.962a.841.841 0 0 1 1.507 0l2.526 5.085a.84.84 0 0 0 .63.458l5.617.832a.841.841 0 0 1 .466 1.433l-4.055 3.974a.842.842 0 0 0-.241.741l.945 5.6a.841.841 0 0 1-1.219.886l-5.033-2.629a.841.841 0 0 0-.779 0l-5.033 2.629a.841.841 0 0 1-1.219-.886l.945-5.6a.842.842 0 0 0-.241-.741l-4.055-3.974a.841.841 0 0 1 .466-1.433l5.617-.832a.84.84 0 0 0 .63-.458z" transform="translate(-287.179 -104.429)" style="fill:#fea500"/>
            <path data-name="Path 116" d="M532.135 142.962a.841.841 0 0 1 1.507 0l2.526 5.085a.84.84 0 0 0 .63.458l5.617.832a.841.841 0 0 1 .466 1.433l-4.055 3.974a.842.842 0 0 0-.241.741l.945 5.6a.841.841 0 0 1-1.219.886l-5.033-2.629a.841.841 0 0 0-.779 0l-5.033 2.629a.841.841 0 0 1-1.219-.886l.945-5.6a.842.842 0 0 0-.241-.741l-4.055-3.974a.841.841 0 0 1 .466-1.433l5.617-.832a.84.84 0 0 0 .63-.458z" transform="translate(-319.623 -104.429)" style="fill:#fea500"/>
            <path data-name="Path 117" d="M588.135 142.962a.841.841 0 0 1 1.507 0l2.526 5.085a.84.84 0 0 0 .63.458l5.617.832a.841.841 0 0 1 .466 1.433l-4.055 3.974a.842.842 0 0 0-.241.741l.945 5.6a.841.841 0 0 1-1.219.886l-5.033-2.629a.841.841 0 0 0-.779 0l-5.033 2.629a.841.841 0 0 1-1.219-.886l.945-5.6a.842.842 0 0 0-.241-.741l-4.055-3.974a.841.841 0 0 1 .466-1.433l5.617-.832a.84.84 0 0 0 .63-.458z" transform="translate(-352.067 -104.429)" style="fill:#fea500"/>
            <path data-name="Path 118" d="M241.585 226.6a3.049 3.049 0 0 1-1.3-.273 3 3 0 0 1-.989-.727 2.807 2.807 0 0 1-.575-1.02l.727-.273a2.328 2.328 0 0 0 .818 1.171 2.227 2.227 0 0 0 1.323.394 2.192 2.192 0 0 0 .848-.151 1.339 1.339 0 0 0 .575-.444 1.1 1.1 0 0 0 .2-.656 1.161 1.161 0 0 0-.3-.858 1.969 1.969 0 0 0-.868-.464l-1.353-.4a2.365 2.365 0 0 1-1.232-.777 1.969 1.969 0 0 1-.424-1.242 1.9 1.9 0 0 1 .293-1.05 2.03 2.03 0 0 1 .8-.727 2.52 2.52 0 0 1 1.161-.262 2.806 2.806 0 0 1 1.211.252 2.759 2.759 0 0 1 .919.646 2.42 2.42 0 0 1 .535.9l-.707.283a1.982 1.982 0 0 0-.757-1.01 2.067 2.067 0 0 0-1.191-.343 1.837 1.837 0 0 0-.767.151 1.18 1.18 0 0 0-.5.434 1.205 1.205 0 0 0-.182.666 1.324 1.324 0 0 0 .293.838 1.767 1.767 0 0 0 .9.545l1.191.353a2.891 2.891 0 0 1 1.343.757 1.766 1.766 0 0 1 .454 1.242 1.869 1.869 0 0 1-.313 1.07 2.06 2.06 0 0 1-.858.717 2.877 2.877 0 0 1-1.275.258zm6.345 0a2.65 2.65 0 0 1-1.373-.363 2.69 2.69 0 0 1-.959-1.02 3 3 0 0 1-.353-1.464 2.954 2.954 0 0 1 .343-1.444 2.608 2.608 0 0 1 .929-1 2.508 2.508 0 0 1 1.333-.363 2.337 2.337 0 0 1 1.04.222 2.277 2.277 0 0 1 .787.586 2.581 2.581 0 0 1 .495.828 2.635 2.635 0 0 1 .172.939q0 .1-.01.232t-.03.252h-4.573v-.707h4.139l-.363.3a1.566 1.566 0 0 0-.131-.989 1.68 1.68 0 0 0-1.524-.959 1.782 1.782 0 0 0-.939.262 1.816 1.816 0 0 0-.666.737 2.022 2.022 0 0 0-.192 1.111 2.057 2.057 0 0 0 .2 1.131 1.892 1.892 0 0 0 1.676 1 1.7 1.7 0 0 0 1-.283 2.271 2.271 0 0 0 .656-.707l.646.343a2.1 2.1 0 0 1-.495.676 2.62 2.62 0 0 1-1.807.676zm6.211 0a2.651 2.651 0 0 1-1.373-.363 2.689 2.689 0 0 1-.959-1.02 3 3 0 0 1-.353-1.464 2.954 2.954 0 0 1 .343-1.444 2.608 2.608 0 0 1 .929-1 2.508 2.508 0 0 1 1.333-.363 2.338 2.338 0 0 1 1.04.222 2.277 2.277 0 0 1 .787.586 2.581 2.581 0 0 1 .495.828 2.635 2.635 0 0 1 .172.939q0 .1-.01.232t-.03.252h-4.575v-.707h4.139l-.363.3a1.566 1.566 0 0 0-.131-.989 1.68 1.68 0 0 0-1.524-.959 1.782 1.782 0 0 0-.939.262 1.816 1.816 0 0 0-.666.737 2.022 2.022 0 0 0-.192 1.111 2.057 2.057 0 0 0 .2 1.131 1.892 1.892 0 0 0 1.676 1 1.7 1.7 0 0 0 1-.283 2.271 2.271 0 0 0 .656-.707l.646.343a2.1 2.1 0 0 1-.495.676 2.62 2.62 0 0 1-1.807.676zm7.028 0a2.116 2.116 0 0 1-.919-.192 1.629 1.629 0 0 1-.636-.545 1.372 1.372 0 0 1-.232-.787 1.614 1.614 0 0 1 .182-.767 1.538 1.538 0 0 1 .565-.6 2.655 2.655 0 0 1 .979-.343l2.12-.353v.686l-1.938.323a1.509 1.509 0 0 0-.848.374.919.919 0 0 0-.252.646.8.8 0 0 0 .283.616 1.1 1.1 0 0 0 .747.252 1.949 1.949 0 0 0 .969-.232 1.75 1.75 0 0 0 .646-.646 1.77 1.77 0 0 0 .232-.9v-1.373a.988.988 0 0 0-.353-.787 1.362 1.362 0 0 0-.919-.3 1.514 1.514 0 0 0-.868.252 1.491 1.491 0 0 0-.555.636l-.686-.374a1.8 1.8 0 0 1 .474-.626 2.579 2.579 0 0 1 .757-.444 2.32 2.32 0 0 1 .878-.172 2.276 2.276 0 0 1 1.05.232 1.715 1.715 0 0 1 .717.646 1.684 1.684 0 0 1 .263.939v3.715h-.757v-1.08l.111.111a1.621 1.621 0 0 1-.444.555 2.409 2.409 0 0 1-.7.394 2.554 2.554 0 0 1-.866.144zm4.213-.121v-7.642h.757v7.642zm2.307 0v-7.642h.757v7.642zm6.557.121a2.724 2.724 0 0 1-1.393-.363 2.817 2.817 0 0 1-1-1.01 2.934 2.934 0 0 1-.363-1.464 2.858 2.858 0 0 1 .363-1.444 2.808 2.808 0 0 1 3.8-1.01 2.587 2.587 0 0 1 .979 1 3.092 3.092 0 0 1-.01 2.928 2.736 2.736 0 0 1-1 1 2.651 2.651 0 0 1-1.377.363zm0-.757a1.8 1.8 0 0 0 .979-.273 1.911 1.911 0 0 0 .7-.747 2.153 2.153 0 0 0 .262-1.06 2.1 2.1 0 0 0-.262-1.05 1.93 1.93 0 0 0-.7-.737 1.8 1.8 0 0 0-.979-.273 1.854 1.854 0 0 0-.989.273 2.037 2.037 0 0 0-.7.737 2.1 2.1 0 0 0-.262 1.05 2.152 2.152 0 0 0 .262 1.06 2.014 2.014 0 0 0 .7.747 1.854 1.854 0 0 0 .988.268zm6 .757a2.056 2.056 0 0 1-1.03-.262 2.013 2.013 0 0 1-.737-.747 2.3 2.3 0 0 1-.262-1.111v-3.412h.757v3.321a1.652 1.652 0 0 0 .172.767 1.321 1.321 0 0 0 .495.5 1.585 1.585 0 0 0 1.474 0 1.334 1.334 0 0 0 .5-.535 1.81 1.81 0 0 0 .182-.838v-3.22h.757v5.411h-.754v-1.05l.172.04a1.631 1.631 0 0 1-.656.828 1.915 1.915 0 0 1-1.072.308zm3.869-.121v-5.411h.757v.888l-.1-.131a1.426 1.426 0 0 1 .575-.606 1.9 1.9 0 0 1 .949-.222h.343v.757h-.474a1.249 1.249 0 0 0-.939.363 1.416 1.416 0 0 0-.353 1.03v3.331zm5.127 0v-5.411H290v.888l-.1-.131a1.426 1.426 0 0 1 .575-.606 1.9 1.9 0 0 1 .949-.222h.343v.757h-.474a1.249 1.249 0 0 0-.939.363 1.416 1.416 0 0 0-.353 1.03v3.331zm5.874.121a2.651 2.651 0 0 1-1.373-.363 2.69 2.69 0 0 1-.959-1.02 3 3 0 0 1-.353-1.464 2.954 2.954 0 0 1 .343-1.444 2.608 2.608 0 0 1 .929-1 2.507 2.507 0 0 1 1.333-.363 2.337 2.337 0 0 1 1.04.222 2.276 2.276 0 0 1 .787.586 2.58 2.58 0 0 1 .495.828 2.634 2.634 0 0 1 .172.939q0 .1-.01.232t-.03.252h-4.573v-.707h4.139l-.363.3a1.566 1.566 0 0 0-.131-.989 1.68 1.68 0 0 0-1.524-.959 1.782 1.782 0 0 0-.939.262 1.816 1.816 0 0 0-.666.737 2.022 2.022 0 0 0-.192 1.111 2.057 2.057 0 0 0 .2 1.131 1.892 1.892 0 0 0 1.676 1 1.7 1.7 0 0 0 1-.283 2.27 2.27 0 0 0 .656-.707l.646.343a2.1 2.1 0 0 1-.495.676 2.62 2.62 0 0 1-1.807.676zm5.093-.121-2.11-5.411h.848l1.777 4.745h-.273l1.787-4.745h.858l-2.13 5.411zm3.772 0v-5.411h.757v5.411zm0-6.411v-1.111h.757v1.111zm4.77 6.532a2.651 2.651 0 0 1-1.373-.363 2.69 2.69 0 0 1-.959-1.02 3 3 0 0 1-.353-1.464 2.954 2.954 0 0 1 .343-1.444 2.608 2.608 0 0 1 .929-1 2.508 2.508 0 0 1 1.333-.363 2.338 2.338 0 0 1 1.04.222 2.277 2.277 0 0 1 .787.586 2.581 2.581 0 0 1 .495.828 2.635 2.635 0 0 1 .172.939q0 .1-.01.232t-.03.252h-4.573v-.707h4.139l-.363.3a1.565 1.565 0 0 0-.131-.989 1.68 1.68 0 0 0-1.524-.959 1.782 1.782 0 0 0-.939.262 1.816 1.816 0 0 0-.666.737 2.022 2.022 0 0 0-.192 1.111 2.057 2.057 0 0 0 .2 1.131 1.892 1.892 0 0 0 1.676 1 1.7 1.7 0 0 0 1-.283 2.271 2.271 0 0 0 .656-.707l.646.343a2.1 2.1 0 0 1-.495.676 2.62 2.62 0 0 1-1.807.676zm4.939-.121-1.858-5.411h.858l1.534 4.735h-.3l1.444-4.735h.757l1.444 4.735h-.3l1.545-4.735h.848l-1.858 5.411h-.757l-1.4-4.634h.212l-1.4 4.634zm8.731.121a2.384 2.384 0 0 1-1.363-.394 2.228 2.228 0 0 1-.848-1.07l.636-.3a1.965 1.965 0 0 0 .646.787 1.6 1.6 0 0 0 .929.293 1.4 1.4 0 0 0 .818-.232.742.742 0 0 0 .333-.626.6.6 0 0 0-.162-.444 1.108 1.108 0 0 0-.374-.262 2.529 2.529 0 0 0-.374-.131l-.777-.222a2.19 2.19 0 0 1-1.08-.6 1.314 1.314 0 0 1-.333-.888 1.428 1.428 0 0 1 .242-.828 1.585 1.585 0 0 1 .656-.545 2.158 2.158 0 0 1 .919-.192 2.218 2.218 0 0 1 1.242.363 1.9 1.9 0 0 1 .8.989l-.646.3a1.6 1.6 0 0 0-.586-.707 1.423 1.423 0 0 0-.838-.262 1.083 1.083 0 0 0-.727.232.737.737 0 0 0-.273.586.636.636 0 0 0 .141.434.929.929 0 0 0 .323.242 3.006 3.006 0 0 0 .333.121l.9.262a2.142 2.142 0 0 1 1.02.6 1.352 1.352 0 0 1 .374.949 1.339 1.339 0 0 1-.252.8 1.631 1.631 0 0 1-.676.555 2.451 2.451 0 0 1-1.004.19z" transform="translate(-155.129 -148.655)" style="fill:#868686"/>
        </g>
    </g>
</svg>
