<svg xmlns="http://www.w3.org/2000/svg" width="27.041" height="25" viewBox="0 0 27.041 24.868">
    <g data-name="Group 1871">
        <path data-name="Icon feather-phone-call" d="M5120.734 819.519a3.119 3.119 0 0 1 3.083 2.682v.007a14.294 14.294 0 0 0 .776 3.116 3.127 3.127 0 0 1-.7 3.289l-1.058 1.058a17.943 17.943 0 0 0 5.915 5.915l1.058-1.058a3.121 3.121 0 0 1 3.29-.7 14.226 14.226 0 0 0 3.114.776h.007a3.118 3.118 0 0 1 2.683 3.155v3.5a3.118 3.118 0 0 1-3.11 3.128h-.009a2.037 2.037 0 0 1-.281-.013h-.014a24.03 24.03 0 0 1-10.431-3.71 23.734 23.734 0 0 1-7.252-7.252 24.04 24.04 0 0 1-3.71-10.48v-.013a3.119 3.119 0 0 1 2.825-3.387c.094-.008.187-.013.281-.013zm1.543 2.9a1.567 1.567 0 0 0-1.543-1.341h-3.534a1.56 1.56 0 0 0-1.558 1.56q0 .067.006.135a22.473 22.473 0 0 0 3.467 9.792v.006a22.167 22.167 0 0 0 6.778 6.778h.006a22.472 22.472 0 0 0 9.752 3.47c.044 0 .09.006.134.006a1.559 1.559 0 0 0 1.559-1.559v-3.536a1.559 1.559 0 0 0-1.338-1.582 15.8 15.8 0 0 1-3.453-.861 1.559 1.559 0 0 0-1.645.348l-1.484 1.484a.779.779 0 0 1-.937.126 19.5 19.5 0 0 1-7.31-7.31.779.779 0 0 1 .126-.937l1.484-1.479a1.564 1.564 0 0 0 .35-1.644 15.845 15.845 0 0 1-.86-3.456zm15 .009a1.378 1.378 0 0 1 1.06.773 8.8 8.8 0 0 1 .668 1.256 13.615 13.615 0 0 1 1.064 3.873.78.78 0 0 1-1.471.438 42.491 42.491 0 0 1-1.775-3.89c-.486-1.289-.466-1.716-.259-2.052a.834.834 0 0 1 .715-.4zm-3.76 2.735c.454 0 .781.32 1.2 1.181a7.955 7.955 0 0 1 .659 1.934.78.78 0 0 1-1.449.524c-.429-.783-.751-1.421-.956-1.9-.226-.525-.38-.957-.148-1.349a.8.8 0 0 1 .694-.39z" transform="translate(-5114.083 -819.519)" fill="#f3f3f3"/>
        <path data-name="Path 127" d="m5118.6 821.638-.443 3.554s-.346-1.086.443.839 2.073 5.281 2.073 5.281 7.848 12.586 18.263 11.5c1.627-.1 2.418-3.011 2.123-5.725-1.629-1.185-4.689-2.616-6.664-1.826s-2.074 1.826-2.074 1.826-7.4-6.022-7.453-6.367.05-1.333 0-1.481a12.093 12.093 0 0 1 1.678-1.53s.1-3.554 0-3.9-1.431-2.715-1.431-2.715-3.554-.642-3.85-.642a23.543 23.543 0 0 0-2.665 1.186z" transform="translate(-5114.083 -819.519)" fill="#f3f3f3"/>
    </g>
</svg>
