<svg xmlns="http://www.w3.org/2000/svg" width="34" height="32" viewBox="0 0 33.332 31.892">
    <path data-name="Icon feather-phone-call" d="M10.695 2a4 4 0 0 1 3.96 3.44v.009a18.287 18.287 0 0 0 1 4 4.01 4.01 0 0 1-.9 4.218l-1.365 1.357a23.01 23.01 0 0 0 7.586 7.586l1.357-1.357a4 4 0 0 1 4.22-.9 18.283 18.283 0 0 0 3.994.995h.009A4 4 0 0 1 34 25.391v4.489a4 4 0 0 1-4 4.012c-.12 0-.241-.005-.36-.016h-.018a30.836 30.836 0 0 1-13.378-4.758 30.447 30.447 0 0 1-9.3-9.3A30.83 30.83 0 0 1 2.186 6.376V6.36A4 4 0 0 1 6.164 2zm1.979 3.717A2.009 2.009 0 0 0 10.7 4H6.165a2 2 0 0 0-1.99 2.173 28.821 28.821 0 0 0 4.449 12.558v.007a28.435 28.435 0 0 0 8.692 8.692h.008a28.825 28.825 0 0 0 12.5 4.449c.057 0 .115.007.172.007a2 2 0 0 0 2-2.008v-4.525a2 2 0 0 0-1.716-2.029 20.291 20.291 0 0 1-4.429-1.1 2 2 0 0 0-2.11.447l-1.9 1.9a1 1 0 0 1-1.2.162 25.011 25.011 0 0 1-9.375-9.375 1 1 0 0 1 .162-1.2l1.9-1.9a2.006 2.006 0 0 0 .448-2.108 20.3 20.3 0 0 1-1.102-4.433zm19.239.011a1.764 1.764 0 0 1 1.36.992 11.277 11.277 0 0 1 .856 1.611 17.488 17.488 0 0 1 1.365 4.969 1 1 0 0 1-1.887.562 54.511 54.511 0 0 1-2.276-4.988c-.623-1.653-.6-2.2-.332-2.631a1.067 1.067 0 0 1 .915-.515zm-4.822 3.511c.582 0 1 .41 1.545 1.514a10.248 10.248 0 0 1 .845 2.48 1 1 0 0 1-1.858.672c-.551-1-.963-1.823-1.226-2.432-.29-.673-.488-1.227-.19-1.73a1.032 1.032 0 0 1 .884-.504z" transform="translate(-2.168 -2)" fill="#aa2424"/>
</svg>
