<svg xmlns="http://www.w3.org/2000/svg" width="30.243" height="28.94" viewBox="0 0 30.243 28.94">
    <g data-name="Group 1844">
        <path data-name="Icon feather-phone-call" d="M7143.738 6978.675a3.629 3.629 0 0 1 3.6 3.121v.009a16.685 16.685 0 0 0 .9 3.626 3.635 3.635 0 0 1-.817 3.827l-1.233 1.234a20.889 20.889 0 0 0 6.883 6.883l1.231-1.231a3.632 3.632 0 0 1 3.829-.817 16.536 16.536 0 0 0 3.624.9h.008a3.629 3.629 0 0 1 3.122 3.672v4.076a3.629 3.629 0 0 1-3.618 3.64h-.011a2.353 2.353 0 0 1-.327-.015h-.016a27.98 27.98 0 0 1-12.135-4.325 27.633 27.633 0 0 1-8.44-8.435 27.974 27.974 0 0 1-4.316-12.195v-.014a3.63 3.63 0 0 1 3.288-3.941 3.47 3.47 0 0 1 .322-.015zm1.8 3.372a1.822 1.822 0 0 0-1.8-1.557h-4.1a1.814 1.814 0 0 0-1.812 1.818c0 .051 0 .1.006.153a26.164 26.164 0 0 0 4.037 11.4v.007a25.807 25.807 0 0 0 7.887 7.887h.007a26.159 26.159 0 0 0 11.341 4.037c.052 0 .1.007.156.007a1.815 1.815 0 0 0 1.819-1.811v-4.117a1.814 1.814 0 0 0-1.557-1.841 18.366 18.366 0 0 1-4.018-1 1.814 1.814 0 0 0-1.914.405l-1.727 1.727a.908.908 0 0 1-1.09.147 22.7 22.7 0 0 1-8.506-8.506.908.908 0 0 1 .147-1.09l1.729-1.733a1.818 1.818 0 0 0 .4-1.908 18.438 18.438 0 0 1-1.005-4.025zm17.457.01a1.6 1.6 0 0 1 1.234.9 10.27 10.27 0 0 1 .777 1.462 15.861 15.861 0 0 1 1.238 4.507.907.907 0 0 1-1.712.51 49.654 49.654 0 0 1-2.065-4.526c-.565-1.5-.542-2-.3-2.388a.97.97 0 0 1 .829-.464zm-4.375 3.186c.528 0 .908.372 1.4 1.374a9.294 9.294 0 0 1 .767 2.251.907.907 0 0 1-1.686.61c-.5-.911-.874-1.654-1.112-2.207-.263-.61-.443-1.114-.172-1.57a.939.939 0 0 1 .803-.458z" style="fill:#a82424" transform="translate(-7136.007 -6978.675)"/>
        <path data-name="Path 127" d="m7137.7 6981.141-.517 4.135s-.4-1.263.517.976 2.413 6.145 2.413 6.145 9.132 14.646 21.25 13.382c1.9-.115 2.814-3.5 2.47-6.662-1.9-1.378-5.456-3.044-7.752-2.125s-2.414 2.125-2.414 2.125-8.615-7.007-8.671-7.409.057-1.551 0-1.723a14.008 14.008 0 0 1 1.953-1.78s.115-4.135 0-4.537-1.666-3.159-1.666-3.159-4.135-.747-4.479-.747a27.473 27.473 0 0 0-3.104 1.379z" style="fill:#a82424" transform="translate(-7136.007 -6978.675)"/>
    </g>
</svg>
