<svg xmlns="http://www.w3.org/2000/svg" width="359.265" height="38.692" viewBox="0 0 359.265 38.692">
    <g data-name="Group 1872">
        <text data-name="Rated 4.8(90) star on" transform="translate(0 26.346)" style="fill:#1e1e1e;font-size:20px;font-family:DMSans-Regular,DM Sans"><tspan x="0" y="0">Rated </tspan><tspan y="0" style="font-family:DMSans-BoldItalic,DM Sans;font-weight:700;font-style:italic">4.8(90)</tspan><tspan y="0" xml:space="preserve"> star on</tspan></text>
        <g data-name="Group 15">
            <g data-name="Group 14">
                <path data-name="Path 3" d="M0 0h79.029v23.541H0z" style="fill:#ff6153" transform="translate(280.236 5.903)"/>
                <g data-name="Group 13">
                    <path data-name="Icon material-star" d="m9.215 12.491 3.841 2.318-1.019-4.369L15.43 7.5l-4.469-.379L9.215 3 7.469 7.121 3 7.5l3.394 2.94-1.02 4.369z" transform="translate(283.121 8.788)" style="fill:#f5f5f5"/>
                    <path data-name="Icon material-star" d="m9.215 12.491 3.841 2.318-1.019-4.369L15.43 7.5l-4.469-.379L9.215 3 7.469 7.121 3 7.5l3.394 2.94-1.02 4.369z" transform="translate(296.72 8.788)" style="fill:#f5f5f5"/>
                    <path data-name="Icon material-star" d="m9.215 12.491 3.841 2.318-1.019-4.369L15.43 7.5l-4.469-.379L9.215 3 7.469 7.121 3 7.5l3.394 2.94-1.02 4.369z" transform="translate(310.319 8.788)" style="fill:#f5f5f5"/>
                    <path data-name="Icon material-star" d="m9.215 12.491 3.841 2.318-1.019-4.369L15.43 7.5l-4.469-.379L9.215 3 7.469 7.121 3 7.5l3.394 2.94-1.02 4.369z" transform="translate(323.918 8.788)" style="fill:#f5f5f5"/>
                    <path data-name="Icon material-star" d="m9.215 12.491 3.841 2.318-1.019-4.369-1.075-3.319L9.215 3 7.469 7.121 3 7.5l3.394 2.94-1.02 4.369z" transform="translate(337.517 8.788)" style="fill:#f5f5f5"/>
                </g>
            </g>
            <path data-name="Path 1" d="M21.024.989h-7.5l-2.566 16c-.054.007-.108.011-.165.018C5.124 17.757.725 22.528.774 27.864a7.575 7.575 0 0 0 2.148 5.4 6.394 6.394 0 0 0 4.609 1.991A6.056 6.056 0 0 0 9.5 34.93c3.056-1.052 4.07-3.616 4.545-5.963a.074.074 0 0 0 0 .009 7.37 7.37 0 0 0-3.931-6.738l-.844 5.331c-.27 1.513-.624 2.417-1.38 2.678a1.362 1.362 0 0 1-1.385-.4 2.7 2.7 0 0 1-.777-2.03c-.025-2.667 2.072-4.76 4.386-5.58a6.722 6.722 0 0 1 2.327-.385 8.285 8.285 0 0 1 2.584.441c3.126.738 5.021 4.054 5.489 7.644l.275 2.012h5.2zm-5.336 16.339L17.18 5.882h.184l1.666 12.774a14.683 14.683 0 0 0-3.342-1.328zm49.9-7.7v22.32H60.4V9.624zM50.441 39.681c6.816 0 7.342-3.885 7.342-9.376l.045-20.678h-2.687a2.257 2.257 0 0 0-2.235 1.66l-.063.721-.251-.68c-.5-1.351-1.761-2.065-3.645-2.065a4.509 4.509 0 0 0-4.155 2.159 8.932 8.932 0 0 0-1.016 4.459v8.68a9.681 9.681 0 0 0 .962 4.846 4.117 4.117 0 0 0 3.895 2 3.833 3.833 0 0 0 3.7-2.077l.309-.638v3.195c0 2.186-.136 3.734-1.88 3.734a1.646 1.646 0 0 1-1.7-1.88v-.063h-5.241v.108a5.819 5.819 0 0 0 1.365 4.055c1.114 1.22 2.879 1.84 5.255 1.84zm2.106-16.023c0 2.128-.3 3.282-1.88 3.282-1.5 0-1.7-1.43-1.7-2.83v-7.776c0-1.752.629-2.6 1.926-2.6 1.457 0 1.654 1.43 1.654 2.83zM65.863 4.716a2.843 2.843 0 0 1-5.686 0A2.813 2.813 0 0 1 63 1.85a2.869 2.869 0 0 1 2.863 2.866zM32.838 16.831V31.95H27.6l-.044-22.324h2.911a2.278 2.278 0 0 1 2.28 1.756l.058.481.244-.418a4.373 4.373 0 0 1 4.064-2.18c2.981 0 4.495 1.922 4.495 5.715v16.972h-5.19v-15.8c0-1.607-.557-2.423-1.654-2.423-1.422.001-1.926.813-1.926 3.102z" transform="translate(206.806 -.989)" style="fill:#ff6153"/>
            <path data-name="Path 2" d="M15.814 32.928c.262-1.119.87-5.417.978-6.682a8.328 8.328 0 0 0-2.584-.441 6.765 6.765 0 0 0-2.327.385 7.369 7.369 0 0 1 3.933 6.738z" transform="translate(205.037 -4.941)" style="fill:#a03027"/>
        </g>
    </g>
</svg>
