<svg xmlns="http://www.w3.org/2000/svg" width="86.179" height="71.066" viewBox="0 0 86.179 71.066">
    <g data-name="Group 104">
        <g data-name="Group 103">
            <path data-name="Path 58" d="M4364.453 3033.118c8.619 0 17.237.013 25.856-.01a5.314 5.314 0 0 1 4.736 2.567q5.755 8.835 11.466 17.7a5.017 5.017 0 0 1-.545 6.712q-12.46 13.989-24.929 27.972-6.17 6.924-12.335 13.852a6.587 6.587 0 0 1-2.161 1.782 4.838 4.838 0 0 1-5.674-1.088c-1.709-1.8-3.336-3.689-4.99-5.546q-16.436-18.443-32.869-36.888a5.982 5.982 0 0 1-1.534-2.755 4.964 4.964 0 0 1 .772-3.811c1.436-2.242 2.9-4.469 4.347-6.7 2.4-3.691 4.818-7.37 7.193-11.076a5.557 5.557 0 0 1 5.077-2.725c8.53.036 17.06.014 25.59.014zm4.152 62.373c.084-.019.132-.015.15-.036 1.178-1.328 2.349-2.662 3.53-3.988q11.239-12.618 22.482-25.233 3.122-3.5 6.252-6.994c.065-.073.209-.128.134-.251-.088-.144-.256-.09-.391-.09q-10.238-.007-20.475-.017a.52.52 0 0 0-.584.453c-.52 1.733-1.063 3.458-1.6 5.187q-4.41 14.312-8.813 28.626a18.385 18.385 0 0 0-.69 2.343zm-8.417-.009.1-.068a1.728 1.728 0 0 0-.04-.248c-.541-1.726-1.092-3.448-1.625-5.176q-4.723-15.326-9.433-30.654c-.1-.316-.219-.454-.578-.453q-10.237.018-20.475.012c-.149 0-.326-.057-.436.13q16.246 18.228 32.487 36.457zm4.216-1.239a.748.748 0 0 0 .247-.471q1.238-4.016 2.465-8.033 4-13.014 8.011-26.025c.251-.815.26-.819-.61-.819h-19.779c-1.219 0-1.222.007-.871 1.147q4.881 15.857 9.764 31.71c.253.818.508 1.636.769 2.491zm-27.704-39.623v-.01h9c.31 0 .766.139.893-.1.137-.26-.266-.526-.434-.786q-4.541-7.046-9.1-14.082c-.324-.5-.331-.508-.668.01q-2.583 3.97-5.159 7.946-2.1 3.234-4.216 6.462c-.1.146-.308.29-.237.448.091.2.35.113.536.113q4.695.003 9.385-.001zm55.531-15.451c-.145.2-.267.343-.37.5l-4.914 7.6q-2.26 3.483-4.54 6.955c-.155.235-.154.347.148.364.177.011.355.017.532.017h9.063q4.8 0 9.6-.014c.118 0 .272.068.352-.049.1-.152-.056-.261-.127-.37q-3.345-5.162-6.7-10.319c-1.005-1.535-2.008-3.083-3.046-4.684zm-23.915-1.783c.1.177.139.255.187.328q4.745 7.329 9.485 14.662c.264.409.381.318.609-.036q4.642-7.2 9.3-14.4c.1-.154.34-.3.23-.494-.086-.152-.328-.06-.5-.06q-9.327-.006-18.653 0zm-7.738.045h-19.865c3.163 4.884 6.286 9.71 9.416 14.532.518.8.53.788 1.038 0l7.64-11.8 1.769-2.732zm3.874 17.175v.01h6.131c1.1 0 2.2-.007 3.305-.011.309 0 .491-.02.239-.408q-4.68-7.182-9.335-14.382c-.322-.5-.361-.509-.658-.048q-1.573 2.438-3.142 4.879l-6.039 9.349c-.108.168-.4.307-.274.52.109.185.4.089.6.089q4.586.006 9.171.002z" style="fill:#a82424" transform="translate(-4321.368 -3033.103)"/>
        </g>
    </g>
</svg>
