<svg data-name="Group 34" xmlns="http://www.w3.org/2000/svg" width="80.78" height="80.824" viewBox="0 0 80.78 80.824">
    <path data-name="Path 43" d="M1269.795 1381.166a1.325 1.325 0 0 0 .639.328 20.159 20.159 0 0 1 12.8 13.932 18.607 18.607 0 0 1 .7 5.063 1.326 1.326 0 0 1-1.455 1.472h-37.814a1.315 1.315 0 0 1-1.442-1.442 20.174 20.174 0 0 1 6.721-14.958 19.232 19.232 0 0 1 6.945-4.116 1.215 1.215 0 0 0 .533-.281 12.088 12.088 0 0 1-5.437-14.141 12.166 12.166 0 1 1 17.811 14.143zm-6.213 18.188q8.632 0 17.262.008c.348 0 .454-.1.406-.435a24.574 24.574 0 0 0-.5-2.757 17.617 17.617 0 0 0-22.251-12.484c-7.347 2.3-11.494 7.535-12.573 15.174-.069.492-.055.495.441.495zm9.549-28.625a9.558 9.558 0 1 0-9.583 9.56 9.573 9.573 0 0 0 9.583-9.561z" transform="translate(-1223.19 -1321.139)" style="fill:#fff"/>
    <path data-name="Path 44" d="M1251.953 1341.387c1.763 0 3.527-.008 5.29.006a.566.566 0 0 0 .66-.465q1.6-5.056 3.252-10.094a2.173 2.173 0 0 1 3.61-1.025 2.362 2.362 0 0 1 .63 1.075q1.373 4.251 2.75 8.5c.171.529.358 1.053.5 1.588.085.322.246.413.571.412 3.46-.018 6.92-.02 10.379-.029a2.794 2.794 0 0 1 1.454.293 2.156 2.156 0 0 1 .232 3.647c-1.186.905-2.408 1.76-3.617 2.636q-2.57 1.861-5.148 3.715a.475.475 0 0 0-.208.639q1.694 5.109 3.348 10.231a2.119 2.119 0 0 1-.8 2.482 2.184 2.184 0 0 1-2.585-.051q-4.281-3.107-8.541-6.243a.653.653 0 0 0-.937.006q-4.2 3.107-8.442 6.172a2.2 2.2 0 0 1-3.582-1.3 1.994 1.994 0 0 1 .084-1.042c1.109-3.4 2.212-6.8 3.341-10.193a.536.536 0 0 0-.222-.732c-1.73-1.242-3.451-2.5-5.174-3.748-1.186-.859-2.388-1.7-3.553-2.585a2.163 2.163 0 0 1 .461-3.754 2.53 2.53 0 0 1 1.033-.181h5.211zm26.581 2.7a.7.7 0 0 0-.511-.111q-4.58.008-9.158.026a2.325 2.325 0 0 1-2.57-1.836l-2.551-7.93c-.141-.441-.287-.881-.437-1.346a.817.817 0 0 0-.231.469q-1.417 4.39-2.828 8.781a2.312 2.312 0 0 1-2.548 1.86q-4.559-.016-9.117-.021a.878.878 0 0 0-.617.126c.25.161.472.291.679.441q3.61 2.612 7.215 5.23a2.27 2.27 0 0 1 .953 2.973q-1.449 4.421-2.91 8.839a.546.546 0 0 0-.051.436 1.5 1.5 0 0 0 .141-.084l7.386-5.411a4.34 4.34 0 0 1 1.244-.759 2.5 2.5 0 0 1 2.307.575q3.6 2.658 7.219 5.294a2.193 2.193 0 0 0 .654.4c-.115-.311-.209-.547-.288-.788q-1.419-4.325-2.83-8.651a2.169 2.169 0 0 1 .853-2.72c2.649-1.936 5.312-3.853 7.995-5.793z" transform="translate(-1222.878 -1329.201)" style="fill:#fff"/>
    <path data-name="Path 45" d="M1275.444 1353.539c1.14 0 2.281-.016 3.419.009a.523.523 0 0 0 .6-.441 850.146 850.146 0 0 1 2.038-6.344 1.862 1.862 0 0 1 1.707-1.457 1.83 1.83 0 0 1 1.957 1.326c.536 1.591 1.039 3.193 1.556 4.791.188.58.4 1.154.557 1.741.085.313.244.384.546.381q3.419-.019 6.838-.008a1.8 1.8 0 0 1 1.864 1.5 1.759 1.759 0 0 1-.72 1.9c-1.13.844-2.279 1.663-3.42 2.492-.736.534-1.466 1.073-2.21 1.595a.413.413 0 0 0-.172.569q1.084 3.235 2.125 6.485a1.873 1.873 0 0 1-.7 2.233 1.9 1.9 0 0 1-2.277-.094q-2.748-2-5.48-4.017a.431.431 0 0 0-.623 0q-2.71 2.017-5.453 3.985a1.9 1.9 0 0 1-3.03-.844 2.192 2.192 0 0 1 .065-1.435c.682-2.086 1.361-4.172 2.057-6.253a.482.482 0 0 0-.2-.665q-2.8-2-5.564-4.04a1.847 1.847 0 0 1-.353-2.727 1.757 1.757 0 0 1 1.416-.682h3.46zm13.459 13.223c.048-.163-.039-.282-.079-.4-.514-1.585-1.043-3.164-1.548-4.751a1.811 1.811 0 0 1 .688-2.2c1.354-1 2.729-1.964 4.095-2.943.1-.069.271-.11.24-.242-.043-.178-.229-.093-.351-.093-1.546 0-3.093.012-4.639.014a2.068 2.068 0 0 1-2.38-1.735q-.7-2.186-1.414-4.368c-.045-.136-.041-.322-.227-.391-.516 1.6-1.031 3.186-1.536 4.77a2.074 2.074 0 0 1-2.388 1.725c-1.666-.005-3.331 0-5 0 .014.122.112.183.213.256q1.985 1.419 3.965 2.848a1.954 1.954 0 0 1 .843 2.474c-.5 1.56-1.025 3.113-1.532 4.671-.033.1-.176.229-.036.324.1.068.191-.061.277-.125 1.3-.953 2.6-1.911 3.907-2.858a1.974 1.974 0 0 1 2.713.008c1.219.883 2.43 1.776 3.647 2.661.169.122.302.306.539.356z" transform="translate(-1215.798 -1324.776)" style="fill:#fff"/>
    <path data-name="Path 46" d="M1232.835 1353.539c1.1 0 2.2-.023 3.3.01a.632.632 0 0 0 .74-.537 448.862 448.862 0 0 1 2.027-6.305 1.834 1.834 0 0 1 1.7-1.4 1.855 1.855 0 0 1 1.973 1.417c.547 1.672 1.082 3.35 1.623 5.025.158.49.337.975.47 1.471.071.269.213.324.464.322q3.419-.015 6.839-.009a1.848 1.848 0 0 1 1.958 1.634 1.765 1.765 0 0 1-.765 1.773c-1.34.994-2.7 1.967-4.046 2.946-.538.39-1.075.783-1.62 1.161a.349.349 0 0 0-.147.476c.708 2.12 1.4 4.245 2.1 6.368a1.956 1.956 0 0 1-.393 2.185 1.876 1.876 0 0 1-2.523.125q-2.553-1.853-5.084-3.734c-.7-.521-.691-.525-1.407 0-1.706 1.253-3.406 2.513-5.129 3.743a1.9 1.9 0 0 1-3.065-1.161 2.178 2.178 0 0 1 .124-1.08c.7-2.124 1.388-4.249 2.1-6.369a.436.436 0 0 0-.187-.6q-2.742-1.969-5.465-3.968a1.85 1.85 0 0 1-.835-2.115 1.814 1.814 0 0 1 1.749-1.383c1.166-.018 2.334 0 3.5 0zm7.947-3.9a.882.882 0 0 0-.252.455c-.47 1.471-.938 2.942-1.419 4.409a2.014 2.014 0 0 1-2.281 1.642h-4.8c-.085 0-.209-.06-.25.055s.092.14.163.191c1.321.95 2.649 1.892 3.962 2.852a1.957 1.957 0 0 1 .827 2.58c-.474 1.47-.961 2.935-1.437 4.4a.883.883 0 0 0-.108.563.734.734 0 0 0 .145-.062q2-1.473 3.994-2.945a1.987 1.987 0 0 1 2.775-.027c1.239.9 2.469 1.815 3.706 2.719a.94.94 0 0 0 .533.26c-.069-.2-.123-.347-.172-.5-.5-1.544-1.025-3.084-1.508-4.635a1.88 1.88 0 0 1 .788-2.278q2.048-1.471 4.1-2.933a.234.234 0 0 0 .129-.241h-5.041a2.053 2.053 0 0 1-2.314-1.713c-.499-1.582-1.014-3.161-1.54-4.793z" transform="translate(-1227.508 -1324.776)" style="fill:#fff"/>
</svg>
